<svg width="470" height="590" viewBox="0 0 470 590" fill="none" xmlns="http://www.w3.org/2000/svg">
<g clip-path="url(#clip0_3093_164104)">
<path opacity="0.68" d="M446.433 0H0.00585938V587.29H446.433V0Z" fill="white"/>
<path opacity="0.68" d="M470 0H0V591H470V0Z" fill="url(#paint0_linear_3093_164104)"/>
<path opacity="0.27" d="M315.797 548.088C315.481 561.516 313.184 574.479 309.138 586.736H0V299.75C22.6717 292.7 47.6871 290.237 74.1906 295.816C97.1419 300.642 141.174 322.002 149.887 370.108C158.09 415.425 201.453 439.166 241.588 448.892C245.707 450.464 249.762 452.296 253.715 454.369C284.19 470.309 309.287 500.215 314.718 533.6C315.49 538.37 315.861 543.206 315.797 548.088Z" fill="url(#paint1_linear_3093_164104)"/>
<path opacity="0.27" d="M200.485 553.043C200.205 564.676 198.448 575.957 195.352 586.735H0V320.094C15.8094 332.071 30.0184 349.916 34.5744 375.071C42.7767 420.387 86.1397 444.128 126.275 453.855C130.394 455.418 134.449 457.249 138.402 459.323C168.877 475.263 193.974 505.178 199.405 538.554C200.178 543.325 200.549 548.161 200.485 553.043Z" fill="url(#paint2_linear_3093_164104)"/>
<path opacity="0.3" d="M160.851 586.736H0V483.931C22.0494 477.431 46.2646 475.32 71.8649 480.705C94.8162 485.54 138.848 506.891 147.553 555.006C149.738 567.058 154.416 577.594 160.851 586.736Z" fill="url(#paint3_linear_3093_164104)"/>
<path opacity="0.77" d="M338.866 130.218V253.102C338.866 258.967 333.668 264.011 326.35 264.59L57.9345 285.825C50.5955 286.406 45.0062 280.11 45.2561 271.989L48.838 101.829C49.0906 93.694 56.838 89.1947 64.025 89.9884L326.279 118.173C333.444 118.975 338.866 124.353 338.866 130.218Z" fill="url(#paint4_linear_3093_164104)"/>
<path d="M338.866 130.216V138.445L48.1387 113.381L48.493 101.964C48.7455 93.8261 56.4376 88.8218 63.6233 89.618L325.842 117.835C333.007 118.638 338.866 124.351 338.866 130.216Z" fill="url(#paint5_linear_3093_164104)"/>
<path opacity="0.78" d="M279.63 123.473C279.605 126.507 276.786 128.712 273.332 128.395C269.877 128.078 267.103 125.323 267.133 122.242C267.163 119.16 269.982 116.957 273.431 117.32C276.879 117.684 279.654 120.439 279.63 123.473Z" fill="#4C4C4C"/>
<path opacity="0.78" d="M297.956 125.28C297.939 128.246 295.125 130.394 291.672 130.077C288.219 129.76 285.437 127.062 285.459 124.048C285.481 121.034 288.295 118.888 291.743 119.251C295.191 119.616 297.973 122.314 297.956 125.28Z" fill="#4C4C4C"/>
<path opacity="0.78" d="M316.283 127.085C316.274 129.983 313.466 132.074 310.013 131.759C306.56 131.442 303.772 128.799 303.787 125.855C303.803 122.911 306.609 120.818 310.057 121.182C313.505 121.545 316.292 124.188 316.283 127.085Z" fill="#4C4C4C"/>
<path opacity="0.43" d="M174.816 192.317L100.138 191.44C98.4407 191.42 97.093 189.925 97.1419 188.118L97.1935 186.205C97.2424 184.397 98.6687 182.948 100.363 182.981L174.972 184.494C176.667 184.528 178.027 185.915 177.995 187.576L177.96 189.334C177.927 190.995 176.512 192.338 174.816 192.317Z" fill="url(#paint6_linear_3093_164104)"/>
<path opacity="0.43" d="M174.491 208.62L99.6655 209.064C97.966 209.075 96.6144 207.604 96.6634 205.797L96.7149 203.883C96.7639 202.076 98.1928 200.6 99.891 200.605L174.647 200.795C176.345 200.799 177.709 202.162 177.676 203.823L177.642 205.581C177.608 207.242 176.191 208.609 174.491 208.62Z" fill="url(#paint7_linear_3093_164104)"/>
<path opacity="0.43" d="M174.169 224.922L71.0447 227.353C69.3414 227.393 67.9924 225.906 68.0465 224.048L68.1045 222.08C68.1586 220.223 69.5952 218.682 71.2973 218.656L174.325 217.098C176.027 217.072 177.393 218.41 177.359 220.07L177.324 221.829C177.292 223.49 175.872 224.882 174.169 224.922Z" fill="url(#paint8_linear_3093_164104)"/>
<path opacity="0.43" d="M173.849 241.226L70.5226 245.476C68.8167 245.545 67.4638 244.083 67.5192 242.225L67.5772 240.257C67.6313 238.399 69.0705 236.834 70.7752 236.777L174.005 233.4C175.71 233.345 177.078 234.658 177.046 236.318L177.011 238.077C176.979 239.739 175.555 241.155 173.849 241.226Z" fill="url(#paint9_linear_3093_164104)"/>
<path opacity="0.56" d="M190.154 173.032L101.171 170.067C98.7395 169.986 96.8248 167.814 96.8944 165.215L98.3646 110.73C98.4341 108.131 100.449 106.216 102.863 106.453L122.879 108.417L191.212 115.122C193.627 115.359 195.549 117.452 195.508 119.795L194.632 168.936C194.59 171.28 192.585 173.113 190.154 173.032Z" fill="url(#paint10_linear_3093_164104)"/>
<g opacity="0.59">
<path d="M153.357 144.584L112.224 142.016C110.888 141.932 109.825 140.707 109.862 139.292C109.898 137.878 111.022 136.794 112.357 136.884L153.465 139.669C154.8 139.759 155.869 140.936 155.84 142.285C155.81 143.632 154.693 144.666 153.357 144.584Z" fill="url(#paint11_linear_3093_164104)"/>
<path d="M153.099 156.382L111.91 154.331C110.572 154.264 109.507 153.053 109.544 151.638C109.58 150.223 110.705 149.125 112.042 149.199L153.208 151.465C154.546 151.539 155.615 152.702 155.586 154.051C155.555 155.4 154.436 156.449 153.099 156.382Z" fill="url(#paint12_linear_3093_164104)"/>
<path d="M152.838 168.183L111.591 166.65C110.251 166.599 109.186 165.401 109.222 163.986C109.258 162.572 110.384 161.461 111.722 161.518L152.945 163.266C154.284 163.323 155.356 164.472 155.326 165.821C155.299 167.17 154.178 168.233 152.838 168.183Z" fill="url(#paint13_linear_3093_164104)"/>
</g>
<path opacity="0.76" d="M186.78 151.733L164.742 150.48C163.49 150.41 162.495 149.335 162.522 148.08L163.055 122.767C163.083 121.512 164.116 120.586 165.364 120.696L187.324 122.656C188.572 122.767 189.565 123.845 189.544 125.064L189.09 149.655C189.067 150.873 188.033 151.804 186.78 151.733Z" fill="url(#paint14_linear_3093_164104)"/>
<g opacity="0.77">
<path d="M179.734 131.553C179.714 133.518 178.082 135.006 176.087 134.874C174.093 134.744 172.494 133.032 172.516 131.052C172.538 129.07 174.17 127.583 176.162 127.729C178.154 127.875 179.753 129.588 179.734 131.553Z" fill="#8FACB8"/>
</g>
<g opacity="0.77">
<path d="M182.298 141.796C182.298 141.833 182.296 141.517 182.292 141.517L169.755 140.782C169.75 140.782 169.742 141.1 169.742 141.063C169.783 137.326 172.621 134.997 176.085 135.222C179.55 135.449 182.334 138.111 182.298 141.796Z" fill="#8FACB8"/>
</g>
<path opacity="0.33" d="M325.323 198.827L222.047 198.25C219.887 198.239 218.161 196.591 218.192 194.57L218.85 151.502C218.881 149.482 220.646 147.954 222.792 148.091L325.409 154.596C327.556 154.733 329.294 156.272 329.292 158.037L329.239 195.654C329.236 197.419 327.484 198.84 325.323 198.827Z" fill="url(#paint15_linear_3093_164104)"/>
<path opacity="0.33" d="M323.525 251.46L188.938 259.818C186.761 259.953 185.028 258.364 185.067 256.271L185.899 211.635C185.938 209.541 187.724 207.834 189.886 207.824L323.621 207.133C325.783 207.121 327.534 208.546 327.532 210.315L327.47 248.014C327.467 249.781 325.701 251.324 323.525 251.46Z" fill="url(#paint16_linear_3093_164104)"/>
<path opacity="0.88" d="M251.806 172.359L211.261 170.876C209.462 170.811 208.027 169.373 208.055 167.664L208.793 122.715C208.822 121.007 210.293 119.76 212.08 119.93L226.896 121.337L252.366 123.755C254.153 123.925 255.588 125.373 255.569 126.992L255.097 169.551C255.077 171.168 253.605 172.425 251.806 172.359Z" fill="url(#paint17_linear_3093_164104)"/>
<path opacity="0.46" d="M248.575 174.42L208.019 173.041C206.22 172.981 204.785 171.54 204.813 169.827L205.569 124.715C205.598 123 207.07 121.744 208.857 121.909L223.677 123.279L249.155 125.63C250.942 125.795 252.376 127.246 252.358 128.869L251.867 171.592C251.848 173.215 250.374 174.482 248.575 174.42Z" fill="url(#paint18_linear_3093_164104)"/>
<path d="M219.023 137.345L218.613 164.117C218.603 164.794 219.179 165.368 219.901 165.4L245.962 166.526C246.684 166.557 247.274 166.052 247.282 165.396L247.593 139.503C247.601 138.849 247.025 138.273 246.307 138.217L220.344 136.219C219.625 136.164 219.033 136.669 219.023 137.345Z" fill="url(#paint19_linear_3093_164104)"/>
<path opacity="0.11" d="M219.045 136.117L218.943 142.739C219.804 143.309 220.822 143.679 221.921 143.754C225.043 143.968 227.607 141.781 227.649 138.869C227.608 141.781 230.105 144.313 233.227 144.526L233.328 137.214L219.045 136.117Z" fill="url(#paint20_linear_3093_164104)"/>
<path opacity="0.11" d="M238.949 139.711C238.912 142.584 241.413 145.087 244.535 145.3C245.634 145.375 246.659 145.154 247.534 144.719L247.612 138.314L233.329 137.215L233.229 144.527C236.35 144.741 238.912 142.584 238.949 139.711Z" fill="url(#paint21_linear_3093_164104)"/>
<path opacity="0.19" d="M237.026 146.246L243.687 146.689L243.44 166.414L236.762 166.126L237.026 146.246Z" fill="url(#paint22_linear_3093_164104)"/>
<path d="M223.337 145.333L232.594 145.951C232.932 145.972 233.201 146.244 233.197 146.557L233.077 155.298C233.073 155.611 232.795 155.849 232.458 155.83L223.187 155.32C222.849 155.302 222.579 155.03 222.584 154.713L222.715 145.866C222.722 145.55 223 145.312 223.337 145.333Z" fill="url(#paint23_linear_3093_164104)"/>
<path d="M218.769 131.41L216.383 135.914L222.006 138.016L227.679 136.783L229.913 134.295L228.641 131.528L219.945 130.805C219.445 130.764 218.987 131 218.769 131.41Z" fill="url(#paint24_linear_3093_164104)"/>
<path d="M248.009 133.818L250.27 138.52L244.602 139.71L238.975 137.651L236.812 134.847L238.156 132.32L246.852 133.043C247.352 133.086 247.803 133.387 248.009 133.818Z" fill="url(#paint25_linear_3093_164104)"/>
<path d="M216.381 135.914C216.335 138.865 218.828 141.435 221.95 141.655C225.071 141.876 227.636 139.696 227.677 136.784L216.381 135.914Z" fill="url(#paint26_linear_3093_164104)"/>
<path d="M238.157 132.322L228.642 131.531L227.678 136.784L233.304 138.865L238.975 137.654L238.157 132.322Z" fill="url(#paint27_linear_3093_164104)"/>
<path d="M227.678 136.781C227.637 139.693 230.134 142.233 233.255 142.453C236.375 142.673 238.937 140.524 238.974 137.65L227.678 136.781Z" fill="url(#paint28_linear_3093_164104)"/>
<path d="M238.973 137.652C238.936 140.527 241.435 143.034 244.557 143.256C247.679 143.476 250.237 141.358 250.269 138.522L238.973 137.652Z" fill="url(#paint29_linear_3093_164104)"/>
<path opacity="0.85" d="M224.901 152.175C224.773 152.167 224.646 152.127 224.532 152.051C224.218 151.841 224.132 151.439 224.34 151.154L226.991 147.55C227.2 147.267 227.623 147.209 227.939 147.42C228.254 147.631 228.34 148.031 228.131 148.314L225.482 151.916C225.347 152.097 225.125 152.187 224.901 152.175Z" fill="white"/>
<path opacity="0.85" d="M226.882 154.165C226.754 154.158 226.626 154.118 226.511 154.042C226.196 153.832 226.113 153.431 226.323 153.147L230.329 147.765C230.539 147.485 230.962 147.428 231.277 147.641C231.591 147.852 231.675 148.251 231.465 148.531L227.46 153.909C227.326 154.088 227.106 154.178 226.882 154.165Z" fill="white"/>
<path d="M201.099 204.316L200.969 243.846C200.96 246.538 203.26 248.574 206.103 248.395L233.273 246.695L233.242 203.886C233.242 203.092 232.54 202.456 231.675 202.465L202.67 202.804C201.805 202.817 201.101 203.493 201.099 204.316Z" fill="white"/>
<path d="M205.701 248.49C207.215 248.329 208.478 247.566 209.533 246.512C210.655 245.401 211.097 243.548 211.1 242.036L242.259 240.305C242.261 241.763 241.574 243.397 240.456 244.47C239.343 245.551 237.759 246.488 236.049 246.594L205.701 248.49Z" fill="url(#paint30_linear_3093_164104)"/>
<path opacity="0.8" d="M227.562 215.933L221.792 216.693C221.533 216.728 221.422 217.024 221.607 217.189L223.011 218.453L218.017 223.253C217.884 223.381 217.669 223.388 217.537 223.269L214.993 220.977C214.86 220.857 214.645 220.864 214.512 220.993L206.467 228.83C206.335 228.96 206.333 229.164 206.466 229.284L208.175 230.825C208.307 230.943 208.522 230.934 208.655 230.804L214.505 225.094C214.637 224.965 214.853 224.957 214.985 225.076L217.53 227.355C217.663 227.474 217.878 227.465 218.011 227.336L225.2 220.413L226.722 221.768C226.906 221.932 227.222 221.82 227.251 221.58L227.905 216.239C227.928 216.057 227.76 215.906 227.562 215.933Z" fill="url(#paint31_linear_3093_164104)"/>
<g opacity="0.56">
<path d="M140.508 286.359H215.824C216.811 286.359 217.612 285.559 217.612 284.572V264.568C217.612 263.581 216.811 262.781 215.824 262.781H194.632H140.508C139.521 262.781 138.721 263.581 138.721 264.568V284.572C138.721 285.559 139.521 286.359 140.508 286.359Z" fill="url(#paint32_linear_3093_164104)"/>
</g>
<path opacity="0.62" d="M201.4 272.79H210.799C211.045 272.79 211.243 272.59 211.243 272.345V271.308C211.243 271.062 211.044 270.863 210.799 270.863H201.4C201.154 270.863 200.955 271.063 200.955 271.308V272.345C200.955 272.59 201.154 272.79 201.4 272.79Z" fill="url(#paint33_linear_3093_164104)"/>
<path opacity="0.62" d="M194.486 278.278H210.797C211.043 278.278 211.242 278.078 211.242 277.833V276.796C211.242 276.55 211.042 276.352 210.797 276.352H194.486C194.239 276.352 194.041 276.551 194.041 276.796V277.833C194.041 278.078 194.239 278.278 194.486 278.278Z" fill="url(#paint34_linear_3093_164104)"/>
<path opacity="0.68" d="M174.181 282.713H178.97C179.163 282.713 179.319 282.557 179.319 282.364V266.388C179.319 266.195 179.163 266.039 178.97 266.039H175.643H174.179C173.986 266.039 173.83 266.195 173.83 266.388V282.364C173.831 282.557 173.987 282.713 174.181 282.713Z" fill="url(#paint35_linear_3093_164104)"/>
<path opacity="0.68" d="M165.95 282.713H170.739C170.933 282.713 171.088 282.557 171.088 282.364V266.388C171.088 266.195 170.933 266.039 170.739 266.039H167.911H165.949C165.756 266.039 165.6 266.195 165.6 266.388V282.364C165.601 282.557 165.757 282.713 165.95 282.713Z" fill="url(#paint36_linear_3093_164104)"/>
<path opacity="0.68" d="M157.718 282.713H162.508C162.701 282.713 162.857 282.557 162.857 282.364V266.388C162.857 266.195 162.701 266.039 162.508 266.039H159.833H157.718C157.525 266.039 157.369 266.195 157.369 266.388V282.364C157.37 282.557 157.526 282.713 157.718 282.713Z" fill="url(#paint37_linear_3093_164104)"/>
<path opacity="0.68" d="M149.485 282.713H154.274C154.468 282.713 154.624 282.557 154.624 282.364V266.388C154.624 266.195 154.468 266.039 154.274 266.039H152.005H149.484C149.291 266.039 149.135 266.195 149.135 266.388V282.364C149.136 282.557 149.292 282.713 149.485 282.713Z" fill="url(#paint38_linear_3093_164104)"/>
<g opacity="0.57">
<path opacity="0.2" d="M174.182 282.711H178.972C179.165 282.711 179.321 282.555 179.321 282.362V277.783C179.321 277.589 179.165 277.434 178.972 277.434H176.703H174.181C173.988 277.434 173.832 277.589 173.832 277.783V282.362C173.833 282.555 173.989 282.711 174.182 282.711Z" fill="#5D5D5D"/>
<path opacity="0.2" d="M165.955 282.71H170.744C170.937 282.71 171.093 282.554 171.093 282.36V272.716C171.093 272.523 170.937 272.367 170.744 272.367H167.999H165.955C165.761 272.367 165.605 272.523 165.605 272.716V282.36C165.605 282.554 165.761 282.71 165.955 282.71Z" fill="#5D5D5D"/>
<path opacity="0.2" d="M157.72 282.712H162.509C162.702 282.712 162.858 282.556 162.858 282.363V275.884C162.858 275.691 162.702 275.535 162.509 275.535H159.468H157.718C157.525 275.535 157.369 275.691 157.369 275.884V282.363C157.372 282.556 157.528 282.712 157.72 282.712Z" fill="#5D5D5D"/>
<path opacity="0.2" d="M149.49 282.711H154.279C154.472 282.711 154.628 282.555 154.628 282.362V269.552C154.628 269.359 154.472 269.203 154.279 269.203H152.102H149.49C149.297 269.203 149.141 269.359 149.141 269.552V282.362C149.141 282.555 149.297 282.711 149.49 282.711Z" fill="#5D5D5D"/>
</g>
<path opacity="0.56" d="M126.618 287.527H68.2286C66.6335 287.527 65.3398 286.233 65.3398 284.638V251.186C65.3398 249.59 66.6335 248.297 68.2286 248.297H81.4571H126.618C128.213 248.297 129.506 249.59 129.506 251.186V284.638C129.506 286.233 128.213 287.527 126.618 287.527Z" fill="url(#paint39_linear_3093_164104)"/>
<path opacity="0.37" d="M98.9311 257.393H73.5099C72.8399 257.393 72.291 256.844 72.291 256.174V255.77C72.291 255.1 72.8399 254.551 73.5099 254.551H98.9311C99.6011 254.551 100.15 255.1 100.15 255.77V256.174C100.151 256.844 99.6024 257.393 98.9311 257.393Z" fill="url(#paint40_linear_3093_164104)"/>
<path opacity="0.37" d="M98.9311 262.616H73.5099C72.8399 262.616 72.291 262.067 72.291 261.397V260.992C72.291 260.322 72.8399 259.773 73.5099 259.773H98.9311C99.6011 259.773 100.15 260.322 100.15 260.992V261.397C100.151 262.067 99.6024 262.616 98.9311 262.616Z" fill="url(#paint41_linear_3093_164104)"/>
<path opacity="0.37" d="M98.9311 267.838H73.5099C72.8399 267.838 72.291 267.29 72.291 266.62V266.215C72.291 265.545 72.8399 264.996 73.5099 264.996H98.9311C99.6011 264.996 100.15 265.545 100.15 266.215V266.62C100.151 267.29 99.6024 267.838 98.9311 267.838Z" fill="url(#paint42_linear_3093_164104)"/>
<path opacity="0.37" d="M98.9311 273.065H73.5099C72.8399 273.065 72.291 272.516 72.291 271.846V271.442C72.291 270.772 72.8399 270.223 73.5099 270.223H98.9311C99.6011 270.223 100.15 270.772 100.15 271.442V271.846C100.151 272.516 99.6024 273.065 98.9311 273.065Z" fill="url(#paint43_linear_3093_164104)"/>
<path opacity="0.8" d="M121.157 274.877H106.154C104.8 274.877 103.703 273.779 103.703 272.426V257.423C103.703 256.069 104.801 254.973 106.154 254.973H111.212H121.157C122.511 254.973 123.607 256.07 123.607 257.423V272.426C123.607 273.78 122.509 274.877 121.157 274.877Z" fill="url(#paint44_linear_3093_164104)"/>
<path d="M117.683 266.628L112.244 266.675C111.95 266.677 111.687 266.537 111.585 266.261L109.857 261.571L107.222 261.593C106.838 261.597 106.525 261.284 106.522 260.9C106.518 260.516 106.827 260.199 107.21 260.195L110.334 260.168C110.628 260.165 110.891 260.306 110.992 260.582L112.72 265.272L117.132 265.234L117.909 262.433L113.133 262.474C112.749 262.478 112.436 262.165 112.432 261.781C112.428 261.397 112.737 261.08 113.12 261.076L118.791 261.027C119.007 261.026 119.209 261.063 119.342 261.231C119.474 261.4 119.522 261.59 119.47 261.798L118.351 266.21C118.276 266.52 118 266.624 117.683 266.628Z" fill="white"/>
<path d="M113.247 270.158C113.886 270.158 114.404 269.64 114.404 269.001C114.404 268.362 113.886 267.844 113.247 267.844C112.608 267.844 112.09 268.362 112.09 269.001C112.09 269.64 112.608 270.158 113.247 270.158Z" fill="white"/>
<path d="M116.721 270.13C117.361 270.13 117.879 269.612 117.879 268.973C117.879 268.334 117.361 267.816 116.721 267.816C116.082 267.816 115.564 268.334 115.564 268.973C115.564 269.612 116.082 270.13 116.721 270.13Z" fill="white"/>
<path opacity="0.77" d="M85.2312 174.524L72.4355 184.876C67.8035 188.623 61.1821 188.623 56.5501 184.876L43.7545 174.524C40.791 172.126 39.0684 168.518 39.0684 164.706V138.939C39.0684 137.499 39.8685 136.181 41.135 135.495C57.742 126.509 73.3877 126.406 88.0426 135.446C89.2009 136.161 89.9173 137.42 89.9173 138.782V164.704C89.916 168.518 88.1946 172.126 85.2312 174.524Z" fill="url(#paint45_linear_3093_164104)"/>
<path d="M73.5177 141.839C69.8417 139.388 64.8606 140.371 62.3944 144.064C60.4927 146.918 60.686 150.56 62.5877 153.189L55.7692 163.409C54.915 164.682 55.2693 166.424 56.5436 167.278C57.8166 168.117 59.5418 167.778 60.3961 166.521L62.2824 167.794C62.9111 168.212 63.7654 168.036 64.1841 167.407C64.6029 166.795 64.4263 165.939 63.7976 165.521L61.9113 164.263L62.5233 163.344L64.4096 164.602C65.0384 165.021 65.8926 164.844 66.3114 164.231C66.7146 163.602 66.5536 162.748 65.9248 162.329L64.0385 161.072L67.23 156.284C70.3893 157.026 73.8231 155.816 75.7416 152.963C78.1922 149.271 77.1924 144.288 73.5177 141.839ZM71.5992 150.205C70.6638 151.591 68.7775 151.978 67.3756 151.044C65.9725 150.108 65.6027 148.222 66.5368 146.82C67.4723 145.417 69.3586 145.03 70.7604 145.966C72.1635 146.9 72.5333 148.803 71.5992 150.205Z" fill="white"/>
<g opacity="0.61">
<path d="M283.314 198.812L281.976 196.476C282.824 195.6 283.562 194.64 284.185 193.618L286.784 194.326C287.622 194.554 288.495 194.054 288.724 193.215L290.306 187.399C290.534 186.56 290.034 185.688 289.196 185.46L286.597 184.752C286.577 183.557 286.427 182.355 286.141 181.169L288.477 179.832C289.232 179.4 289.494 178.43 289.063 177.675L286.068 172.442C285.637 171.687 284.667 171.425 283.912 171.856L281.576 173.194C280.699 172.346 279.74 171.608 278.718 170.985L279.425 168.386C279.653 167.548 279.153 166.675 278.315 166.446L272.498 164.864C271.66 164.636 270.787 165.136 270.558 165.974L269.851 168.573C268.655 168.593 267.453 168.743 266.267 169.029L264.93 166.693C264.498 165.938 263.528 165.676 262.773 166.107L257.541 169.102C256.787 169.533 256.523 170.503 256.955 171.258L258.292 173.594C257.444 174.47 256.706 175.43 256.084 176.452L253.485 175.745C252.646 175.517 251.774 176.017 251.546 176.855L249.963 182.672C249.735 183.51 250.235 184.383 251.074 184.612L253.673 185.319C253.692 186.515 253.843 187.717 254.129 188.902L251.793 190.24C251.039 190.672 250.775 191.642 251.207 192.397L254.201 197.629C254.633 198.384 255.603 198.647 256.358 198.215L258.694 196.878C259.57 197.726 260.53 198.464 261.552 199.086L260.844 201.685C260.616 202.524 261.116 203.396 261.955 203.626L267.771 205.208C268.61 205.436 269.482 204.936 269.712 204.097L270.419 201.498C271.615 201.479 272.817 201.328 274.002 201.042L275.34 203.378C275.771 204.133 276.741 204.396 277.496 203.965L282.729 200.97C283.481 200.537 283.745 199.566 283.314 198.812ZM261.407 190.252C258.449 185.297 260.194 178.887 265.253 176.115C270.022 173.502 276.077 175.148 278.863 179.818C281.822 184.772 280.077 191.182 275.017 193.955C270.249 196.568 264.194 194.92 261.407 190.252Z" fill="#8FACB8"/>
<path d="M270.137 190.142C272.957 190.142 275.244 187.856 275.244 185.036C275.244 182.216 272.957 179.93 270.137 179.93C267.317 179.93 265.031 182.216 265.031 185.036C265.031 187.856 267.317 190.142 270.137 190.142Z" fill="#8FACB8"/>
<path opacity="0.58" d="M270.138 187.682C271.6 187.682 272.786 186.497 272.786 185.034C272.786 183.572 271.6 182.387 270.138 182.387C268.676 182.387 267.49 183.572 267.49 185.034C267.49 186.497 268.676 187.682 270.138 187.682Z" fill="#8FACB8"/>
<path d="M301.802 171.851L300.904 170.281C301.474 169.693 301.97 169.048 302.387 168.362L304.133 168.837C304.696 168.99 305.282 168.655 305.436 168.091L306.499 164.184C306.652 163.621 306.317 163.035 305.753 162.882L304.007 162.406C303.994 161.602 303.893 160.796 303.7 159.999L305.269 159.101C305.776 158.812 305.954 158.16 305.664 157.653L303.652 154.14C303.363 153.633 302.711 153.455 302.204 153.745L300.635 154.643C300.046 154.074 299.402 153.578 298.715 153.16L299.191 151.414C299.344 150.851 299.009 150.265 298.445 150.112L294.538 149.049C293.975 148.896 293.389 149.231 293.235 149.795L292.76 151.541C291.956 151.554 291.149 151.655 290.353 151.847L289.455 150.278C289.165 149.772 288.513 149.594 288.007 149.884L284.493 151.895C283.987 152.185 283.809 152.837 284.099 153.343L284.997 154.913C284.427 155.501 283.931 156.146 283.514 156.832L281.768 156.357C281.205 156.204 280.619 156.539 280.465 157.103L279.402 161.01C279.249 161.573 279.584 162.159 280.148 162.312L281.894 162.788C281.907 163.592 282.008 164.398 282.201 165.195L280.632 166.093C280.125 166.382 279.947 167.034 280.237 167.541L282.249 171.054C282.539 171.561 283.19 171.739 283.697 171.449L285.266 170.551C285.855 171.12 286.499 171.616 287.186 172.034L286.711 173.78C286.557 174.343 286.892 174.929 287.457 175.082L291.363 176.145C291.926 176.298 292.512 175.963 292.666 175.399L293.141 173.653C293.945 173.64 294.752 173.54 295.548 173.347L296.446 174.916C296.736 175.422 297.388 175.6 297.894 175.31L301.408 173.299C301.914 173.01 302.092 172.358 301.802 171.851ZM287.088 166.102C285.101 162.775 286.272 158.469 289.671 156.606C292.875 154.851 296.941 155.956 298.813 159.092C300.8 162.419 299.629 166.725 296.23 168.588C293.027 170.343 288.96 169.238 287.088 166.102Z" fill="#8FACB8"/>
<path d="M292.953 166.028C294.848 166.028 296.383 164.492 296.383 162.598C296.383 160.704 294.848 159.168 292.953 159.168C291.059 159.168 289.523 160.704 289.523 162.598C289.523 164.492 291.059 166.028 292.953 166.028Z" fill="#8FACB8"/>
<path opacity="0.58" d="M292.95 164.376C293.932 164.376 294.728 163.58 294.728 162.598C294.728 161.616 293.932 160.82 292.95 160.82C291.968 160.82 291.172 161.616 291.172 162.598C291.172 163.58 291.968 164.376 292.95 164.376Z" fill="#8FACB8"/>
</g>
<path opacity="0.11" d="M227.967 539.218C294.145 539.218 347.793 533.161 347.793 525.689C347.793 518.217 294.145 512.16 227.967 512.16C161.789 512.16 108.141 518.217 108.141 525.689C108.141 533.161 161.789 539.218 227.967 539.218Z" fill="url(#paint46_linear_3093_164104)"/>
<path d="M254.074 336.598C254.074 336.598 238.438 354.494 227.006 344.875L221.893 308.544C221.427 307.133 219.999 306.246 218.538 306.514C216.725 306.847 214.727 307.632 213.951 307.977C212.69 308.539 211.216 307.699 211.03 306.331C210.815 304.739 210.891 302.282 211.796 298.542C213.938 289.676 225.151 292.122 225.151 292.122L230.809 295.796C231.052 297.665 254.074 336.598 254.074 336.598Z" fill="#FCD0D7"/>
<path d="M231.466 296.51C231.466 296.51 215.877 291.461 214.881 307.061C214.881 307.061 194.104 314.426 191.384 312.738C185.113 308.846 217.494 287.883 222.851 286.064C228.208 284.243 232.722 293.863 231.466 296.51Z" fill="#0A2B3C"/>
<path d="M228.294 416.971C229.145 420.28 230.592 423.236 232.468 425.776C239.644 435.454 253.21 439.102 264.653 432.98L265.166 432.71C266.512 431.992 267.765 431.166 268.923 430.245C271.549 428.155 273.69 425.599 275.262 422.754C275.262 422.754 275.274 422.754 275.274 422.742C278.25 417.362 279.222 410.924 277.674 404.628C275.521 395.869 273.355 387.227 271.282 378.991C268.394 367.565 265.669 356.889 263.291 347.665C258.27 328.158 254.82 315.112 254.82 315.112C254.784 315.101 254.76 315.101 254.724 315.088C245.192 312.614 218.787 323.09 218.043 331.204C215.701 356.738 220.77 387.668 228.294 416.971Z" fill="url(#paint47_linear_3093_164104)"/>
<path opacity="0.11" d="M254.725 315.09L259.328 396.514L271.281 378.992C268.393 367.566 265.667 356.89 263.29 347.666C258.269 328.159 254.819 315.113 254.819 315.113C254.784 315.103 254.761 315.103 254.725 315.09Z" fill="url(#paint48_linear_3093_164104)"/>
<path d="M281.854 465.379C281.854 465.379 305.123 460.554 308.428 475.125L290.951 507.151C290.223 508.446 290.53 510.1 291.713 510.998C293.182 512.113 295.108 513.06 295.886 513.401C297.152 513.955 297.525 515.61 296.637 516.669C295.607 517.899 293.74 519.5 290.368 521.352C282.373 525.745 276.625 515.813 276.625 515.813L275.527 509.156C276.741 507.717 281.854 465.379 281.854 465.379Z" fill="#FCD0D7"/>
<path d="M276.019 507.258C276.019 507.258 282.795 522.178 294.992 512.399C294.992 512.399 314.436 522.785 315.021 525.931C316.371 533.188 279.061 523.393 274.107 520.663C269.153 517.933 273.217 508.115 276.019 507.258Z" fill="#0A2B3C"/>
<path d="M274.158 482.646C274.574 482.884 274.991 483.11 275.407 483.323C285.534 488.756 296.041 491.287 307.261 488.838C307.261 488.838 316.497 479.472 333.233 417.76C349.968 356.048 350.171 291.543 350.171 291.543C334.006 275.39 320.443 272.502 312.599 275.39C304.755 278.266 306.241 295.133 306.562 305.699C306.598 306.983 306.145 310.608 305.313 315.957C304.708 319.879 303.91 324.74 302.947 330.304C295.816 371.583 280.233 451.6 275.527 475.646C275.527 475.657 275.527 475.657 275.527 475.669C274.658 480.125 274.158 482.646 274.158 482.646Z" fill="url(#paint49_linear_3093_164104)"/>
<path opacity="0.11" d="M275.529 475.646C289.661 433.939 329.396 315.888 327.293 313.736C322.539 308.852 314.265 310.92 305.316 315.959C304.71 319.881 303.913 324.742 302.95 330.306C295.819 371.584 280.236 451.601 275.529 475.646Z" fill="url(#paint50_linear_3093_164104)"/>
<path d="M232.442 426.494C237.132 433.239 245.292 437.408 255.788 436.398C265.608 435.452 276.552 430.788 281.834 422.443C313.428 369.754 338.388 294.477 338.388 294.477C340.765 280.214 318.566 271.62 304.398 280.487C303.625 280.974 302.888 281.474 302.212 281.984C297.053 285.836 280.949 314.29 263.13 347.714C263.035 347.88 262.953 348.058 262.857 348.225C248.273 375.646 239.501 394.841 234.462 406.918C232.311 412.087 231.443 419.778 232.442 426.494Z" fill="url(#paint51_linear_3093_164104)"/>
<g opacity="0.11">
<path d="M253.79 373.697C253.336 373.697 252.879 373.623 252.429 373.472C250.867 372.946 249.773 371.604 249.575 369.967C248.054 357.394 245.74 334.356 247.335 321.332C247.384 320.931 247.755 320.65 248.144 320.699C248.543 320.748 248.826 321.11 248.777 321.508C247.201 334.38 249.505 357.286 251.017 369.795C251.15 370.885 251.85 371.745 252.893 372.096C253.921 372.444 254.986 372.185 255.742 371.41C274.481 352.105 299.647 300.534 299.9 300.016C300.074 299.654 300.512 299.503 300.87 299.679C301.231 299.855 301.382 300.29 301.207 300.65C300.954 301.17 275.683 352.952 256.783 372.422C255.978 373.254 254.902 373.697 253.79 373.697Z" fill="#5D5D5D"/>
</g>
<g opacity="0.11">
<path d="M250.896 427.771C249.863 427.771 248.815 427.689 247.76 427.501C243.209 426.691 239.401 424.064 236.44 419.69C225.591 403.664 220.331 347.433 221.063 335.71C221.089 335.306 221.46 334.988 221.834 335.031C222.234 335.056 222.539 335.4 222.513 335.801C221.811 347.052 227.173 403.41 237.642 418.876C240.375 422.912 243.864 425.333 248.014 426.07C256.632 427.6 265.338 421.422 265.427 421.357C287.035 409.716 321.948 303.436 322.299 302.363C322.424 301.982 322.833 301.777 323.215 301.898C323.596 302.023 323.805 302.433 323.68 302.814C322.243 307.216 288.23 410.721 266.197 422.586C265.935 422.781 258.901 427.771 250.896 427.771Z" fill="#5D5D5D"/>
</g>
<g opacity="0.11">
<path d="M249.044 400.677C247.475 400.677 246.001 400.148 244.639 399.094C231.529 388.93 232.748 331.233 232.806 328.784C232.815 328.388 233.139 328.021 233.531 328.021C233.537 328.021 233.543 328.021 233.55 328.021C233.952 328.021 234.268 328.418 234.258 328.82C234.244 329.413 232.995 388.202 245.53 397.919C247.127 399.154 248.838 399.507 250.766 398.961C269.472 393.667 311.106 301.999 311.524 301.073C311.689 300.707 312.122 300.549 312.485 300.714C312.85 300.879 313.014 301.31 312.848 301.676C311.129 305.48 270.511 394.895 251.16 400.372C250.44 400.574 249.733 400.677 249.044 400.677Z" fill="#5D5D5D"/>
</g>
<g opacity="0.11">
<path d="M301.438 482.956C301.331 482.956 301.221 482.932 301.119 482.881C300.758 482.705 300.609 482.269 300.784 481.91C329.925 422.19 341.756 303.705 341.872 302.516C341.912 302.116 342.275 301.826 342.666 301.862C343.065 301.901 343.357 302.258 343.319 302.656C343.202 303.849 331.346 422.596 302.091 482.546C301.966 482.805 301.706 482.956 301.438 482.956Z" fill="#5D5D5D"/>
</g>
<g opacity="0.11">
<path d="M287.881 482.955C287.761 482.955 287.639 482.926 287.528 482.862C287.179 482.667 287.053 482.223 287.249 481.873C313.985 434.128 331.066 303.9 331.235 302.589C331.287 302.191 331.66 301.917 332.049 301.962C332.448 302.013 332.728 302.378 332.677 302.776C332.507 304.089 315.39 434.594 288.518 482.583C288.384 482.82 288.136 482.955 287.881 482.955Z" fill="#5D5D5D"/>
</g>
<path d="M382.988 219.469C382.945 220.741 384.062 222.607 385.841 224.317C388.541 226.904 392.76 229.112 396.731 228.21C399.276 227.625 401.726 225.769 403.591 221.901C403.823 221.419 403.996 220.388 404.125 218.953C404.167 218.497 404.202 218.007 404.237 217.475C404.778 208.287 404.065 188.388 404.262 182.431C404.297 181.469 404.349 180.867 404.443 180.738C404.932 180.05 405.827 178.4 406.3 176.742C406.334 176.604 406.747 174.627 406.73 173.939C406.721 173.338 406.74 169.195 405.949 166.848C405.923 166.787 405.865 166.735 405.865 166.676C405.865 166.667 405.865 166.667 405.865 166.659C405.865 166.514 405.717 166.385 405.666 166.255C405.425 165.662 405.097 165.274 404.719 165.249C404.203 165.214 404.073 166.538 404.082 167.948C404.056 167.733 404.038 167.518 404.022 167.295C404.013 167.286 404.009 167.278 404.018 167.269C403.743 164.122 403.207 160.195 402.193 160.048C402.073 160.032 401.96 160.117 401.874 160.28C401.616 160.753 401.504 161.888 401.452 163.151C401.452 163.228 401.086 163.306 401.086 163.383C401.052 164.226 400.712 165.12 400.712 165.893V166.305C400.712 166.314 400.712 166.322 400.712 166.322C400.712 166.528 401.061 166.717 401.061 166.898C401.052 166.778 401.222 166.64 401.222 166.502C401.222 166.467 401.311 166.425 401.303 166.39C401.165 163.639 400.798 158.5 399.784 158.353C399.767 158.344 399.763 158.344 399.746 158.344C399.042 158.37 398.829 160.631 398.787 162.916C398.778 162.925 398.792 162.933 398.792 162.933C398.749 164.394 398.794 165.873 398.829 166.784C398.7 164.782 398.297 160.158 397.318 160.072C397.275 160.072 397.336 160.072 397.301 160.097C397.275 160.106 397.315 160.123 397.289 160.149C396.232 160.94 395.559 168.486 395.559 172.165V172.182C395.559 172.182 395.39 172.182 395.381 172.173C395.381 172.173 395.344 172.173 395.336 172.164C395.242 172.07 394.389 171.313 393.358 170.539C393.316 170.504 393.254 170.471 393.202 170.427L393.18 170.418C392.682 170.048 392.103 169.678 391.553 169.378C388.673 167.856 388.81 169.455 391.913 172.731C394.697 175.653 396.442 180.097 396.777 180.991C396.777 181 396.784 181.008 396.784 181.017C396.819 181.103 396.827 181.155 396.827 181.155L391.927 194.409C390.405 198.096 388.489 202.884 386.813 207.328C386.787 207.389 386.77 207.448 386.745 207.509C384.706 212.928 383.048 217.793 382.988 219.469Z" fill="#FCD0D7"/>
<path d="M255.467 236.085C255.484 237.15 255.638 238.259 255.776 239.36C256.043 240.46 256.172 241.595 256.61 242.661L257.169 244.268C257.427 244.766 257.677 245.274 257.925 245.771C258.372 246.803 259.068 247.663 259.67 248.522C260.229 249.424 261.045 250.069 261.681 250.783C262.309 251.514 263.074 252.021 263.735 252.528C264.414 253.01 264.955 253.551 265.583 253.834C266.168 254.162 266.683 254.445 267.104 254.685C267.947 255.149 268.428 255.415 268.428 255.415C268.428 255.415 267.971 255.106 267.164 254.573C266.768 254.306 266.278 253.988 265.728 253.619C265.143 253.292 264.645 252.708 264.009 252.193C263.408 251.643 262.712 251.093 262.162 250.336C261.595 249.589 260.864 248.918 260.408 248.007C259.901 247.138 259.308 246.279 258.973 245.274C258.776 244.792 258.568 244.302 258.371 243.813L257.976 242.265C257.65 241.259 257.615 240.177 257.451 239.154C257.409 238.114 257.339 237.082 257.409 236.094C257.418 235.853 257.443 235.621 257.46 235.38C258.32 237.726 259.694 240.124 261.724 242.549C276.292 259.98 297.411 253.542 320.302 241.844C327.471 238.182 332.627 233.481 336.359 228.556C342.908 219.926 345.074 210.626 345.994 205.133C346.235 203.759 346.389 202.614 346.518 201.79C348.59 188.243 346.846 169.531 341.748 162.302C341.92 162.345 342.092 162.389 342.264 162.457C342.676 162.621 343.106 162.801 343.493 163.076C343.905 163.316 344.249 163.642 344.619 163.961C344.946 164.312 345.272 164.656 345.547 165.044C346.123 165.801 346.526 166.599 346.862 167.306C347.137 167.856 347.275 168.363 347.387 168.767C347.378 168.329 347.412 167.769 347.249 167.142C347.052 166.351 346.974 165.414 346.509 164.477C346.303 163.995 345.994 163.541 345.692 163.068C345.348 162.621 345.004 162.148 344.566 161.752C344.162 161.322 343.664 160.979 343.166 160.652C342.65 160.334 342.108 160.093 341.55 159.905C340.991 159.741 340.433 159.595 339.89 159.561C339.349 159.474 338.833 159.526 338.352 159.526C337.879 159.603 337.458 159.629 337.046 159.749C336.659 159.852 336.229 159.972 336.039 160.05C335.601 160.214 335.351 160.308 335.351 160.308L335.403 160.402C334.286 160.788 332.804 161.468 331.428 162.465C331.428 162.465 331.133 162.181 331.133 161.699V161.69C331.133 159.602 330.07 153.903 324.741 152.184C319.489 150.482 309.296 152.381 302.782 157.677C301.175 158.974 299.868 160.479 298.863 162.181C298.829 162.224 298.843 162.268 298.817 162.301C296.78 165.79 296.271 170.123 298.351 175.254C304.634 190.761 297.258 203.568 279.801 206.498C269.822 208.174 258.11 216.357 256.529 226.989C256.297 227.866 256.049 228.975 255.834 230.256C255.722 231.106 255.569 232.018 255.526 232.997C255.431 233.978 255.441 235.019 255.467 236.085Z" fill="#0A2B3C"/>
<path d="M349.366 169.54C349.366 169.54 349.329 169.277 349.262 168.816C349.247 168.722 349.245 168.612 349.242 168.5C349.274 168.613 349.305 168.723 349.338 168.82C349.495 169.258 349.366 169.54 349.366 169.54Z" fill="#0A2B3C"/>
<path opacity="0.23" d="M270.235 248.179C270.673 248.755 271.162 249.305 271.799 249.657C272.435 250.001 273.166 250.113 273.888 250.207C280.566 251.049 287.434 250.336 293.794 248.153C298.04 246.692 302.045 244.585 306.344 243.288C309.498 242.325 312.782 241.81 315.92 240.795C322.281 238.758 327.807 234.777 333.213 230.867C334.262 230.111 335.319 229.345 336.36 228.554C342.909 219.924 345.075 210.624 345.995 205.131C344.543 203.593 342.9 202.174 342.204 200.206C341.31 197.687 342.169 194.919 342.324 192.247C342.65 186.831 339.882 181.486 335.679 178.065C331.467 174.644 325.984 173.028 320.568 172.907C318.841 172.865 317.105 172.968 315.454 173.457C312.807 174.23 310.556 175.925 308.363 177.583C307.572 178.185 306.756 178.829 306.403 179.749C306.102 180.531 306.197 181.39 306.309 182.216C306.609 184.279 307.091 186.307 307.735 188.293C308.311 190.037 309.033 191.782 309.059 193.622C309.11 197.499 306.162 200.704 303.205 203.205C295.134 210.047 285.619 215.006 277.445 221.728C275.021 223.723 272.701 225.896 270.904 228.476C266.899 234.238 266.023 242.557 270.235 248.179Z" fill="#303030"/>
<path d="M322.887 289.366H341.22C335.961 289.366 329.428 288.077 322.887 289.366Z" fill="#0A2B3C"/>
<path d="M370.239 232.163C370.239 232.163 371.734 232.249 374.072 232.24C374.451 232.24 374.854 232.24 375.284 232.231C380.794 232.154 389.587 231.569 395.363 228.913C395.845 228.69 396.3 228.457 396.73 228.209C398.131 227.401 399.275 226.446 400.039 225.294C401.784 222.681 402.566 220.154 402.721 217.885C403.048 213.072 400.538 209.393 398.302 208.387C396.97 207.785 392.114 207.485 386.811 207.329C384.369 207.261 381.833 207.226 379.505 207.209C377.794 207.193 376.204 207.193 374.829 207.2C372.122 207.2 370.308 207.226 370.308 207.226C370.308 207.226 370.179 207.346 369.956 207.57C368.942 208.628 365.976 211.937 364.489 216.174C362.804 220.98 363.044 226.963 370.239 232.163Z" fill="#FCD0D7"/>
<path opacity="0.23" d="M374.074 232.241C374.453 232.241 374.856 232.241 375.287 232.232C380.796 232.155 389.59 231.57 395.366 228.914C395.848 228.691 396.303 228.458 396.733 228.209C399.278 227.624 401.727 225.768 403.593 221.9C403.893 221.263 404.1 219.682 404.237 217.473C403.755 217.602 403.256 217.73 402.724 217.885C398.177 219.149 391.912 221.238 385.843 224.314C381.604 226.456 377.469 229.078 374.074 232.241Z" fill="url(#paint52_linear_3093_164104)"/>
<path d="M324.142 222.391C324.142 222.391 328.233 229.999 344.685 232.164C344.763 232.181 344.84 232.19 344.917 232.199C349.215 232.758 353.306 233.101 356.994 233.325C361.627 233.6 365.65 233.669 368.71 233.66C369.415 233.651 370.077 233.644 370.678 233.635C370.885 233.635 371.074 233.626 371.263 233.626C373.67 233.574 375.037 233.497 375.037 233.497C375.037 233.497 375.131 233.05 375.286 232.233C375.691 230.024 376.455 225.211 376.558 219.959C376.635 215.592 376.265 210.917 374.83 207.203C374.598 206.601 374.34 206.026 374.057 205.484C374.057 205.484 372.947 205.578 371.074 205.742C370.678 205.777 370.24 205.81 369.777 205.854C363.021 206.465 349.706 207.711 340.853 208.854C339.814 208.992 338.833 209.128 337.931 209.258C336.84 209.413 335.868 209.577 335.044 209.722C325.526 211.458 321.159 218.428 324.142 222.391Z" fill="url(#paint53_linear_3093_164104)"/>
<path opacity="0.51" d="M370.676 233.635C370.882 233.635 371.071 233.626 371.261 233.626C373.668 233.574 375.035 233.497 375.035 233.497C375.035 233.497 375.129 233.05 375.283 232.233C375.688 230.024 376.452 225.211 376.555 219.959C376.632 215.592 376.263 210.917 374.827 207.203C374.595 206.601 374.338 206.026 374.054 205.484C374.054 205.484 372.945 205.578 371.071 205.742C372.438 210.444 374.045 219.976 370.676 233.635Z" fill="white"/>
<path opacity="0.11" d="M344.687 232.166C344.765 232.183 344.842 232.192 344.919 232.201C349.218 232.76 353.308 233.103 356.996 233.327C361.629 233.602 365.652 233.671 368.712 233.662C363.624 215.439 342.762 209.26 342.762 209.26C342.058 209.063 341.421 208.925 340.854 208.855C339.814 208.993 338.834 209.13 337.932 209.26C333.728 211.769 339.89 223.974 344.687 232.166Z" fill="url(#paint54_linear_3093_164104)"/>
<path d="M295.848 240.263C296.321 242.335 296.846 244.38 297.361 246.374C300.412 258.571 299.234 256.929 303.928 286.248C304.134 287.554 304.151 289.006 304.022 290.554H341.224C341.835 290.692 342.418 290.837 342.986 290.992C343.649 290.821 344.302 290.674 344.955 290.554H368.034C352.682 254.634 364.175 248.746 364.69 240.975C365.395 230.42 353.663 217.991 353.663 217.991C353.663 217.991 349.357 212.507 340.649 208.604C334.288 205.75 325.582 203.731 314.485 205.321C291.344 208.631 292.332 224.997 295.848 240.263Z" fill="url(#paint55_linear_3093_164104)"/>
<path opacity="0.4" d="M315.9 208.112C315.9 210.366 320.005 212.553 324.782 212.553C329.558 212.553 333.735 210.295 333.735 208.041C333.735 205.786 329.54 203.887 324.764 203.887C319.989 203.885 315.9 205.857 315.9 208.112Z" fill="url(#paint56_linear_3093_164104)"/>
<path opacity="0.48" d="M340.645 208.605C340.507 209.689 345.553 212.052 348.304 214.527C359.374 224.515 359.547 236.727 357.802 244.12C354.08 259.918 352.035 267.462 363.183 289.366H368.031C352.68 254.578 364.173 248.152 364.688 240.381C365.393 229.826 353.66 217.694 353.66 217.694C353.66 217.694 349.353 212.508 340.645 208.605Z" fill="url(#paint57_linear_3093_164104)"/>
<path opacity="0.11" d="M295.846 240.261C296.319 242.333 296.843 244.378 297.358 246.372C300.409 258.569 299.232 256.333 303.926 285.652C304.132 286.959 304.149 289.364 304.02 289.364H314.205C318.872 276.48 322.809 260.82 316.543 251.21C310.097 241.325 310.441 223.77 310.441 223.77C306.53 216.128 300.753 227.154 295.846 240.261Z" fill="url(#paint58_linear_3093_164104)"/>
<path d="M282.172 281.941C282.172 281.95 282.172 281.95 282.172 281.958C282.172 283.78 283.539 285.301 284.69 286.367C285.515 287.123 286.251 287.785 287.007 288.361C290.763 291.267 293.787 292.246 296.245 292.187C300.388 292.093 302.841 289.015 304.14 287.115C304.243 286.97 304.339 286.823 304.424 286.685C305.405 285.215 304.404 278.657 305.057 272.305C305.134 271.548 305.236 270.792 305.365 270.052C305.855 267.25 306.293 264.629 306.602 262.67C306.757 261.759 306.885 260.993 306.972 260.417C307.092 259.652 306.894 258.879 306.413 258.268C303.722 254.882 294.078 244.533 283.231 254.494C283.222 254.503 283.205 254.511 283.196 254.52C282.775 254.907 282.559 255.431 282.449 255.998C281.75 259.567 279.595 273.707 282.172 281.941Z" fill="#FCD0D7"/>
<path opacity="0.23" d="M282.032 281.942C281.672 271.532 285.814 260.401 285.814 260.401C284.868 257.315 284 255.484 283.227 254.496C283.218 254.505 283.201 254.513 283.192 254.522C282.771 254.908 282.487 255.433 282.375 256C281.681 259.567 279.342 273.707 282.032 281.942Z" fill="url(#paint59_linear_3093_164104)"/>
<path d="M356.927 285.606C356.927 285.606 358.564 279.667 359.643 279.124C360.723 278.582 365.659 279.908 365.287 281.335C365.163 281.811 364.702 282.102 364.143 282.277C362.996 282.638 362.242 283.658 362.21 284.859C362.188 285.706 361.818 286.632 360.648 287.366C357.003 289.652 356.524 287.464 356.927 285.606Z" fill="#FCD0D7"/>
<path d="M286.322 282.695C286.631 284.156 287.327 285.687 288.523 287.259C288.712 287.507 288.909 287.748 289.133 287.98C290.793 289.811 293.242 291.178 296.216 292.183C303.866 294.779 314.997 294.976 325.423 294.375C333.056 293.937 340.319 293.077 345.535 292.415C346.945 292.235 348.209 292.071 349.284 291.933C350.108 291.83 350.848 291.374 351.286 290.669C351.904 289.681 352.686 288.185 352.773 286.784C352.85 285.478 351.948 284.326 350.693 283.991C345.219 282.539 319.38 275.696 305.052 272.301C300.257 271.149 296.749 270.402 295.726 270.358C292.056 270.223 284.784 275.63 286.322 282.695Z" fill="#FCD0D7"/>
<path opacity="0.23" d="M286.949 288.361C290.705 291.266 293.756 292.245 296.214 292.186C303.864 294.782 314.995 294.98 325.421 294.378C333.054 293.94 340.317 293.08 345.534 292.418C341.228 291.465 322.094 287.407 304.122 287.115C298.896 287.028 293.773 287.26 289.132 287.983C288.394 288.095 287.663 288.224 286.949 288.361Z" fill="url(#paint60_linear_3093_164104)"/>
<path d="M363.283 292.064C365.849 291.257 367.557 288.842 367.49 286.153C367.435 283.984 367.12 281.823 366.104 281.591C364.004 281.109 358.223 281.775 356.409 283.828C354.595 285.88 352.854 285.085 352.854 285.085L347.647 283.896C346.166 283.557 344.686 284.464 344.314 285.937L343.403 289.541C342.952 291.328 344.318 293.054 346.16 293.021C350.218 292.947 356.301 292.848 357.075 292.901C358.25 292.982 360.757 293.11 363.283 292.064Z" fill="#FCD0D7"/>
<path d="M282.584 260.418C283.967 260.891 285.936 261.527 288.231 262.146C289.289 262.42 290.423 262.696 291.591 262.953C296.276 263.967 301.657 264.63 306.108 263.796C307.363 263.564 308.317 262.532 308.412 261.251C308.455 260.769 308.489 260.306 308.515 260.022C308.524 259.877 308.541 259.721 308.55 259.566C309.161 251.341 310.57 231.631 310.441 224.067C310.329 217.354 307.33 212.678 304.038 211.217C302.818 210.676 301.563 210.564 300.385 210.976C300.162 211.044 299.938 211.139 299.715 211.259C299.715 211.259 298.709 211.603 297.196 212.729C294.377 214.835 289.787 219.674 286.65 230.144C283.625 240.27 281.948 249.338 281.124 254.675C281.063 255.096 281.004 255.492 280.952 255.862C280.866 256.438 280.798 256.962 280.737 257.417C280.556 258.732 281.329 259.987 282.584 260.418Z" fill="url(#paint61_linear_3093_164104)"/>
<path opacity="0.51" d="M282.584 260.418C283.967 260.891 285.936 261.528 288.231 262.146C289.289 262.421 290.423 262.696 291.591 262.954C296.276 263.968 301.657 264.63 306.108 263.797C307.363 263.565 308.317 262.533 308.412 261.252C308.454 260.77 308.489 260.306 308.515 260.023C308.524 259.877 308.541 259.721 308.55 259.567C305.584 260.297 300.135 261.096 293.619 259.541C285.952 257.71 283.76 257.254 281.121 254.676C281.061 255.097 281.001 255.493 280.95 255.862C280.864 256.438 280.795 256.963 280.735 257.418C280.556 258.733 281.329 259.988 282.584 260.418Z" fill="white"/>
<path opacity="0.11" d="M282.583 260.418C283.966 260.89 285.935 261.527 288.23 262.145L287.731 257.504C286.898 249.803 287.586 242.007 289.794 234.58C292.837 224.343 296.937 213.4 297.195 212.73C294.376 214.836 289.786 219.675 286.649 230.145C283.383 241.061 281.69 250.757 280.95 255.863C280.864 256.439 280.796 256.963 280.735 257.418C280.555 258.732 281.328 259.987 282.583 260.418Z" fill="url(#paint62_linear_3093_164104)"/>
<path opacity="0.48" d="M305.053 272.305L295.559 274.44L320.7 276.158L305.053 272.305Z" fill="url(#paint63_linear_3093_164104)"/>
<path d="M342.984 289.801C343.646 289.63 344.3 289.363 344.953 289.363H341.223C341.832 289.363 342.417 289.647 342.984 289.801Z" fill="#F2BC50"/>
<path d="M300.034 296.017H390.58C391.355 296.017 391.987 295.383 391.987 294.61C391.987 293.836 391.353 293.203 390.58 293.203H300.034C299.26 293.203 298.627 293.837 298.627 294.61C298.626 295.383 299.26 296.017 300.034 296.017Z" fill="url(#paint64_linear_3093_164104)"/>
<path d="M338.782 295.033C338.739 295.256 338.911 295.471 339.143 295.463L406.815 295.592C408.002 295.583 409.023 294.819 409.393 293.718C409.436 293.606 409.461 293.487 409.487 293.365L418.082 257.308L419.441 251.626C419.741 250.122 418.572 248.72 417.034 248.738L363.802 249.392L349.492 249.563C348.34 249.58 347.36 250.397 347.136 251.523L343.491 270.484L338.782 295.033Z" fill="url(#paint65_linear_3093_164104)"/>
<path opacity="0.11" d="M338.782 295.032C338.739 295.255 338.911 295.47 339.143 295.462L406.815 295.591C408.002 295.582 409.023 294.818 409.393 293.718C354.692 295.455 344.635 279.888 343.492 270.484L338.782 295.032Z" fill="url(#paint66_linear_3093_164104)"/>
<path opacity="0.33" d="M363.803 249.392C379.593 251.704 409.642 256.114 418.083 257.308L419.441 251.626C419.741 250.122 418.572 248.72 417.034 248.738L363.803 249.392Z" fill="url(#paint67_linear_3093_164104)"/>
<path opacity="0.72" d="M387.206 271.433C386.366 273.937 383.658 275.475 381.156 274.872C378.653 274.269 377.307 271.749 378.146 269.245C378.985 266.742 381.694 265.204 384.196 265.807C386.699 266.412 388.046 268.931 387.206 271.433Z" fill="white"/>
<path d="M317.02 189.671L317.036 189.989L317.57 198.507L318.103 207.051L318.155 207.868C318.197 208.556 318.585 209.183 319.187 209.518C325.504 213.059 331.667 208.83 331.994 207.387C332.02 207.275 332.029 207.086 332.029 206.846C331.994 205.342 331.427 201.569 330.868 198.19C330.568 196.385 330.266 194.692 330.06 193.523C329.88 192.526 329.768 191.908 329.768 191.908C325.442 184.625 317.02 189.671 317.02 189.671Z" fill="#FCD0D7"/>
<path opacity="0.23" d="M317.037 189.988L317.571 198.506C324.825 202.056 329.956 198.841 330.867 198.188C330.567 196.383 330.266 194.69 330.06 193.521C326.913 191.251 320.071 190.307 317.037 189.988Z" fill="url(#paint68_linear_3093_164104)"/>
<path opacity="0.11" d="M318.102 207.049L318.153 207.865C318.196 208.554 318.583 209.181 319.185 209.516C325.502 213.057 331.665 208.828 331.992 207.385C332.018 207.273 332.027 207.083 332.027 206.844C329.972 208.467 325.313 210.823 318.102 207.049Z" fill="url(#paint69_linear_3093_164104)"/>
<path d="M310.562 179.645C310.614 181.563 312.152 196.131 323.421 198.341C326.421 198.934 328.785 198.702 330.649 197.989C335.789 196.046 337.053 190.425 336.95 188.156C337.053 186.583 335.239 172.254 335.239 172.254C335.024 171.687 334.801 171.153 334.569 170.655C330.924 162.936 324.616 163.813 318.72 164.139C312.445 164.474 311.267 171.196 311.267 171.196C311.267 171.196 310.519 177.737 310.562 179.645Z" fill="#FCD0D7"/>
<path opacity="0.23" d="M330.65 197.991C335.79 196.048 337.054 190.426 336.951 188.157C337.054 186.584 335.24 172.255 335.24 172.255C335.025 171.688 334.802 171.155 334.57 170.656C334.036 170.949 333.495 171.326 332.945 171.799C332.945 171.799 339.609 189.919 331.226 197.156C330.939 197.405 330.796 197.732 330.65 197.991Z" fill="url(#paint70_linear_3093_164104)"/>
<path d="M337.172 173.901C337.172 173.901 330.267 174.557 326.739 172.017C323.211 169.477 323.213 169.477 323.213 169.477C323.213 169.477 321.485 177.855 309.523 178.674C309.523 178.674 305.386 167.982 310.137 164.135C314.889 160.289 327.894 158.868 332.514 164.299C337.552 170.218 336.284 171.657 337.172 173.901Z" fill="#0A2B3C"/>
<path d="M312.421 182.316C312.421 182.316 311.667 178.307 308.833 178.441C305.999 178.575 305.432 187.455 311.689 185.84C311.69 185.84 312.902 184.806 312.421 182.316Z" fill="#FCD0D7"/>
<path opacity="0.23" d="M310.326 184.82C310.326 184.82 310.604 184.562 310.757 183.987C309.992 183.832 309.419 183.101 309.419 182.233C309.419 181.596 309.73 181.039 310.191 180.729C309.833 180.137 309.284 179.612 308.48 179.655C306.649 179.75 306.282 185.946 310.326 184.82Z" fill="url(#paint71_linear_3093_164104)"/>
<path d="M333.447 179.289C333.447 179.289 333.039 175.229 335.795 174.558C338.551 173.887 341.6 182.245 335.143 182.463C335.143 182.463 333.689 181.812 333.447 179.289Z" fill="#FCD0D7"/>
<path opacity="0.23" d="M336.733 181.048C336.733 181.048 336.461 180.879 336.195 180.398C336.704 180.091 336.92 179.312 336.682 178.536C336.509 177.968 336.132 177.538 335.715 177.363C335.811 176.754 336.065 176.164 336.657 176.025C338.003 175.707 339.959 181.161 336.733 181.048Z" fill="url(#paint72_linear_3093_164104)"/>
<path opacity="0.23" d="M386.746 207.513L388.211 213.234L396.828 181.16L391.928 194.415C390.39 198.152 388.439 203.018 386.746 207.513Z" fill="url(#paint73_linear_3093_164104)"/>
<path opacity="0.23" d="M391.912 172.738C394.696 175.66 396.442 180.104 396.777 180.998C396.777 181.007 396.786 181.015 396.786 181.024L396.915 181.162L399.708 177.414C399.708 177.414 400.325 172.139 395.384 172.139L393.194 170.521L393.177 170.469C392.678 170.099 392.103 169.709 391.552 169.407C388.671 167.886 388.809 169.463 391.912 172.738Z" fill="url(#paint74_linear_3093_164104)"/>
<path opacity="0.23" d="M403.154 172.341C403.24 172.083 403.859 170.158 404.013 167.295C404.004 167.286 404.004 167.278 404.013 167.269C403.737 164.123 403.205 160.196 402.191 160.049C402.071 160.032 401.959 160.117 401.873 160.281C402.552 163.118 403.833 169.212 403.154 172.341Z" fill="url(#paint75_linear_3093_164104)"/>
<path opacity="0.23" d="M406.69 173.942C406.681 173.28 405.863 168.407 405.863 166.258C405.863 166.344 405.863 166.396 405.863 166.396C405.863 166.396 406.617 172.258 406.308 176.745C406.582 175.747 406.709 174.741 406.69 173.942Z" fill="url(#paint76_linear_3093_164104)"/>
<path opacity="0.23" d="M401.443 163.387C401.408 164.229 401.417 165.124 401.426 165.897C401.46 165.122 401.478 164.289 401.443 163.387Z" fill="url(#paint77_linear_3093_164104)"/>
<path opacity="0.23" d="M400.798 170.647C400.798 170.647 401.228 169.006 401.39 166.393C401.253 163.642 400.84 158.502 399.826 158.355C400.316 161.097 401.33 167.449 400.798 170.647Z" fill="url(#paint78_linear_3093_164104)"/>
<path opacity="0.23" d="M398.763 171.475C398.763 171.475 399.459 167.855 398.798 162.94C398.755 164.401 398.798 165.88 398.833 166.791C398.704 164.789 398.299 160.164 397.32 160.078C397.277 160.078 397.337 160.078 397.303 160.104C397.277 160.113 397.243 160.13 397.217 160.155C397.929 163.163 399.055 168.561 398.763 171.475Z" fill="url(#paint79_linear_3093_164104)"/>
<path d="M332.832 173.211C332.832 173.211 334.899 181.524 336.427 182.805L335.718 172.953C335.718 172.953 334.146 171.362 332.832 173.211Z" fill="#0A2B3C"/>
<path d="M312.613 177.071C312.613 177.071 312.977 185.629 311.873 187.289L309.771 177.639C309.771 177.638 310.831 175.668 312.613 177.071Z" fill="#0A2B3C"/>
<path d="M321.519 182.034C321.981 181.993 322.304 181.391 322.241 180.691C322.178 179.991 321.752 179.457 321.29 179.499C320.828 179.54 320.504 180.142 320.568 180.842C320.631 181.542 321.057 182.076 321.519 182.034Z" fill="#123844"/>
<path d="M329.685 180.847C330.147 180.805 330.47 180.204 330.407 179.503C330.344 178.803 329.918 178.269 329.456 178.311C328.994 178.353 328.67 178.954 328.734 179.654C328.797 180.355 329.223 180.888 329.685 180.847Z" fill="#123844"/>
<path d="M322.553 176.043C321.65 175.753 319.357 176.35 318.505 177.168C317.652 177.986 319.681 177.321 321.257 177.459C323.352 177.642 324.154 176.556 322.553 176.043Z" fill="#184151"/>
<path d="M329.534 175.432C330.199 175.164 331.96 175.486 332.648 176.057C333.336 176.627 331.77 176.237 330.589 176.428C329.02 176.683 328.355 175.907 329.534 175.432Z" fill="#184151"/>
<path opacity="0.55" d="M325.3 186.486C325.3 186.486 328.01 185.22 327.864 184.755C327.72 184.289 324.898 181.676 324.898 181.676L325.3 186.486Z" fill="url(#paint80_linear_3093_164104)"/>
<path opacity="0.77" d="M326.864 191.129C326.503 192.16 325.222 192.931 324.063 192.681C323.013 192.46 322.173 191.77 321.532 190.959C320.661 189.869 320.142 188.568 319.922 187.908C319.821 187.648 319.781 187.488 319.781 187.488L326.254 189.128C326.534 189.378 326.725 189.649 326.825 189.909C327.013 190.329 327.003 190.749 326.864 191.129Z" fill="url(#paint81_linear_3093_164104)"/>
<path d="M326.863 191.133C326.502 192.163 325.221 192.934 324.062 192.684C323.012 192.464 322.172 191.773 321.531 190.962C322.232 190.662 323.092 190.492 324.013 190.492C325.102 190.492 326.103 190.732 326.863 191.133Z" fill="url(#paint82_linear_3093_164104)"/>
<path d="M326.823 189.909C324.407 189.586 322.12 188.88 319.92 187.908C319.819 187.648 319.779 187.488 319.779 187.488L326.253 189.128C326.532 189.38 326.723 189.65 326.823 189.909Z" fill="#FAFAFA"/>
<path opacity="0.48" d="M302.904 157.677C301.546 159.216 300.239 160.712 299.045 162.07C301.847 159.784 305.938 157.326 311.749 155.605C325.786 151.454 330.982 162.911 330.982 162.911C331.127 162.499 331.133 162.094 331.133 161.699V161.69C331.133 159.601 330.07 153.902 324.741 152.183C319.489 150.483 309.418 152.383 302.904 157.677Z" fill="url(#paint83_linear_3093_164104)"/>
<path opacity="0.48" d="M293.701 168.216C293.701 168.216 295.858 165.732 298.85 162.302C298.918 162.225 298.988 162.148 299.047 162.07C299.004 162.105 298.97 162.139 298.927 162.182C295.05 165.371 293.701 168.216 293.701 168.216Z" fill="url(#paint84_linear_3093_164104)"/>
<path opacity="0.48" d="M404.124 218.956C404.167 218.5 404.202 218.01 404.236 217.478C404.778 208.29 404.065 188.391 404.262 182.434C403.841 181.807 403.574 181.395 403.574 181.395C403.574 181.395 394.935 196.127 404.124 218.956Z" fill="url(#paint85_linear_3093_164104)"/>
</g>
<defs>
<linearGradient id="paint0_linear_3093_164104" x1="235" y1="591.001" x2="235" y2="0" gradientUnits="userSpaceOnUse">
<stop stop-color="#099699"/>
<stop offset="1" stop-color="#099699" stop-opacity="0"/>
</linearGradient>
<linearGradient id="paint1_linear_3093_164104" x1="157.902" y1="586.736" x2="157.902" y2="292.749" gradientUnits="userSpaceOnUse">
<stop stop-color="white" stop-opacity="0"/>
<stop offset="1" stop-color="white"/>
</linearGradient>
<linearGradient id="paint2_linear_3093_164104" x1="100.246" y1="586.735" x2="100.246" y2="320.094" gradientUnits="userSpaceOnUse">
<stop stop-color="white" stop-opacity="0"/>
<stop offset="1" stop-color="white"/>
</linearGradient>
<linearGradient id="paint3_linear_3093_164104" x1="80.4254" y1="586.736" x2="80.4254" y2="477.641" gradientUnits="userSpaceOnUse">
<stop stop-color="white" stop-opacity="0"/>
<stop offset="1" stop-color="white"/>
</linearGradient>
<linearGradient id="paint4_linear_3093_164104" x1="192.057" y1="285.862" x2="192.057" y2="89.8986" gradientUnits="userSpaceOnUse">
<stop stop-color="#658AC1"/>
<stop offset="0.6186" stop-color="#8AB2C2"/>
<stop offset="1" stop-color="#9CC5C3"/>
</linearGradient>
<linearGradient id="paint5_linear_3093_164104" x1="193.502" y1="138.445" x2="193.502" y2="89.5349" gradientUnits="userSpaceOnUse">
<stop stop-color="#658AC1"/>
<stop offset="0.6186" stop-color="#8AB2C2"/>
<stop offset="1" stop-color="#9CC5C3"/>
</linearGradient>
<linearGradient id="paint6_linear_3093_164104" x1="137.567" y1="192.318" x2="137.567" y2="182.98" gradientUnits="userSpaceOnUse">
<stop stop-color="#9CC5C3"/>
<stop offset="0.3814" stop-color="#8AB2C2"/>
<stop offset="1" stop-color="#658AC1"/>
</linearGradient>
<linearGradient id="paint7_linear_3093_164104" x1="137.169" y1="209.065" x2="137.169" y2="200.606" gradientUnits="userSpaceOnUse">
<stop stop-color="#9CC5C3"/>
<stop offset="0.3814" stop-color="#8AB2C2"/>
<stop offset="1" stop-color="#658AC1"/>
</linearGradient>
<linearGradient id="paint8_linear_3093_164104" x1="122.703" y1="227.353" x2="122.703" y2="217.097" gradientUnits="userSpaceOnUse">
<stop stop-color="#9CC5C3"/>
<stop offset="0.3814" stop-color="#8AB2C2"/>
<stop offset="1" stop-color="#658AC1"/>
</linearGradient>
<linearGradient id="paint9_linear_3093_164104" x1="122.281" y1="245.478" x2="122.281" y2="233.4" gradientUnits="userSpaceOnUse">
<stop stop-color="#9CC5C3"/>
<stop offset="0.3814" stop-color="#8AB2C2"/>
<stop offset="1" stop-color="#658AC1"/>
</linearGradient>
<linearGradient id="paint10_linear_3093_164104" x1="146.201" y1="173.035" x2="146.201" y2="106.433" gradientUnits="userSpaceOnUse">
<stop stop-color="white" stop-opacity="0"/>
<stop offset="1" stop-color="white"/>
</linearGradient>
<linearGradient id="paint11_linear_3093_164104" x1="132.85" y1="144.588" x2="132.85" y2="136.878" gradientUnits="userSpaceOnUse">
<stop stop-color="#5962C1"/>
<stop offset="0.0829" stop-color="#5E69C1"/>
<stop offset="0.6973" stop-color="#829CC4"/>
<stop offset="1" stop-color="#90AFC5"/>
</linearGradient>
<linearGradient id="paint12_linear_3093_164104" x1="132.563" y1="156.385" x2="132.563" y2="149.196" gradientUnits="userSpaceOnUse">
<stop stop-color="#5962C1"/>
<stop offset="0.0829" stop-color="#5E69C1"/>
<stop offset="0.6973" stop-color="#829CC4"/>
<stop offset="1" stop-color="#90AFC5"/>
</linearGradient>
<linearGradient id="paint13_linear_3093_164104" x1="132.275" y1="168.185" x2="132.275" y2="161.516" gradientUnits="userSpaceOnUse">
<stop stop-color="#5962C1"/>
<stop offset="0.0829" stop-color="#5E69C1"/>
<stop offset="0.6973" stop-color="#829CC4"/>
<stop offset="1" stop-color="#90AFC5"/>
</linearGradient>
<linearGradient id="paint14_linear_3093_164104" x1="176.033" y1="151.736" x2="176.033" y2="120.687" gradientUnits="userSpaceOnUse">
<stop stop-color="white" stop-opacity="0"/>
<stop offset="1" stop-color="white"/>
</linearGradient>
<linearGradient id="paint15_linear_3093_164104" x1="218.192" y1="173.455" x2="329.292" y2="173.455" gradientUnits="userSpaceOnUse">
<stop stop-color="white"/>
<stop offset="1" stop-color="white" stop-opacity="0"/>
</linearGradient>
<linearGradient id="paint16_linear_3093_164104" x1="185.066" y1="233.478" x2="327.532" y2="233.478" gradientUnits="userSpaceOnUse">
<stop stop-color="white"/>
<stop offset="1" stop-color="white" stop-opacity="0"/>
</linearGradient>
<linearGradient id="paint17_linear_3093_164104" x1="231.811" y1="172.362" x2="231.811" y2="119.914" gradientUnits="userSpaceOnUse">
<stop stop-color="white" stop-opacity="0"/>
<stop offset="1" stop-color="#F5FFFA"/>
</linearGradient>
<linearGradient id="paint18_linear_3093_164104" x1="228.585" y1="174.423" x2="228.585" y2="121.896" gradientUnits="userSpaceOnUse">
<stop stop-color="white" stop-opacity="0"/>
<stop offset="1" stop-color="#F5FFFA"/>
</linearGradient>
<linearGradient id="paint19_linear_3093_164104" x1="233.104" y1="166.528" x2="233.104" y2="136.215" gradientUnits="userSpaceOnUse">
<stop stop-color="#A1BEFF"/>
<stop offset="0.6572" stop-color="#ACECE8"/>
<stop offset="1" stop-color="#B0FFDF"/>
</linearGradient>
<linearGradient id="paint20_linear_3093_164104" x1="226.136" y1="144.527" x2="226.136" y2="136.117" gradientUnits="userSpaceOnUse">
<stop/>
<stop offset="1" stop-opacity="0"/>
</linearGradient>
<linearGradient id="paint21_linear_3093_164104" x1="240.419" y1="145.314" x2="240.419" y2="137.215" gradientUnits="userSpaceOnUse">
<stop/>
<stop offset="1" stop-opacity="0"/>
</linearGradient>
<linearGradient id="paint22_linear_3093_164104" x1="240.224" y1="166.415" x2="240.224" y2="146.246" gradientUnits="userSpaceOnUse">
<stop stop-opacity="0"/>
<stop offset="1"/>
</linearGradient>
<linearGradient id="paint23_linear_3093_164104" x1="227.892" y1="155.831" x2="227.892" y2="145.332" gradientUnits="userSpaceOnUse">
<stop stop-color="white" stop-opacity="0"/>
<stop offset="1" stop-color="white"/>
</linearGradient>
<linearGradient id="paint24_linear_3093_164104" x1="223.147" y1="138.016" x2="223.147" y2="130.801" gradientUnits="userSpaceOnUse">
<stop stop-color="#F38764"/>
<stop offset="0.6627" stop-color="#F69F95"/>
<stop offset="1" stop-color="#F7A8A8"/>
</linearGradient>
<linearGradient id="paint25_linear_3093_164104" x1="243.542" y1="139.71" x2="243.542" y2="132.321" gradientUnits="userSpaceOnUse">
<stop stop-color="#F38764"/>
<stop offset="0.6627" stop-color="#F69F95"/>
<stop offset="1" stop-color="#F7A8A8"/>
</linearGradient>
<linearGradient id="paint26_linear_3093_164104" x1="222.03" y1="141.67" x2="222.03" y2="135.914" gradientUnits="userSpaceOnUse">
<stop stop-color="#F38764"/>
<stop offset="0.6627" stop-color="#F69F95"/>
<stop offset="1" stop-color="#F7A8A8"/>
</linearGradient>
<linearGradient id="paint27_linear_3093_164104" x1="233.326" y1="138.865" x2="233.326" y2="131.531" gradientUnits="userSpaceOnUse">
<stop stop-color="#ABABAB"/>
<stop offset="0.1554" stop-color="#C5C5C5"/>
<stop offset="0.3492" stop-color="#DFDFDF"/>
<stop offset="0.5504" stop-color="#F1F1F1"/>
<stop offset="0.7618" stop-color="#FBFBFB"/>
<stop offset="1" stop-color="white"/>
</linearGradient>
<linearGradient id="paint28_linear_3093_164104" x1="233.327" y1="142.469" x2="233.327" y2="136.782" gradientUnits="userSpaceOnUse">
<stop stop-color="white"/>
<stop offset="1" stop-color="#D6D6D6"/>
</linearGradient>
<linearGradient id="paint29_linear_3093_164104" x1="244.621" y1="143.271" x2="244.621" y2="137.652" gradientUnits="userSpaceOnUse">
<stop stop-color="#F38764"/>
<stop offset="0.6627" stop-color="#F69F95"/>
<stop offset="1" stop-color="#F7A8A8"/>
</linearGradient>
<linearGradient id="paint30_linear_3093_164104" x1="223.98" y1="248.49" x2="223.98" y2="240.304" gradientUnits="userSpaceOnUse">
<stop stop-color="#A1BEFF"/>
<stop offset="0.6572" stop-color="#ACECE8"/>
<stop offset="1" stop-color="#B0FFDF"/>
</linearGradient>
<linearGradient id="paint31_linear_3093_164104" x1="206.368" y1="223.419" x2="227.908" y2="223.419" gradientUnits="userSpaceOnUse">
<stop stop-color="#F38764"/>
<stop offset="0.6627" stop-color="#F69F95"/>
<stop offset="1" stop-color="#F7A8A8"/>
</linearGradient>
<linearGradient id="paint32_linear_3093_164104" x1="178.166" y1="286.359" x2="178.166" y2="262.779" gradientUnits="userSpaceOnUse">
<stop stop-color="white" stop-opacity="0"/>
<stop offset="1" stop-color="white"/>
</linearGradient>
<linearGradient id="paint33_linear_3093_164104" x1="200.955" y1="271.826" x2="211.244" y2="271.826" gradientUnits="userSpaceOnUse">
<stop stop-color="#A1BEFF"/>
<stop offset="0.6572" stop-color="#ACECE8"/>
<stop offset="1" stop-color="#B0FFDF"/>
</linearGradient>
<linearGradient id="paint34_linear_3093_164104" x1="194.041" y1="277.314" x2="211.243" y2="277.314" gradientUnits="userSpaceOnUse">
<stop stop-color="#A1BEFF"/>
<stop offset="0.6572" stop-color="#ACECE8"/>
<stop offset="1" stop-color="#B0FFDF"/>
</linearGradient>
<linearGradient id="paint35_linear_3093_164104" x1="176.575" y1="282.713" x2="176.575" y2="266.039" gradientUnits="userSpaceOnUse">
<stop stop-color="#A1BEFF"/>
<stop offset="0.6572" stop-color="#ACECE8"/>
<stop offset="1" stop-color="#B0FFDF"/>
</linearGradient>
<linearGradient id="paint36_linear_3093_164104" x1="168.345" y1="282.713" x2="168.345" y2="266.039" gradientUnits="userSpaceOnUse">
<stop stop-color="#A1BEFF"/>
<stop offset="0.6572" stop-color="#ACECE8"/>
<stop offset="1" stop-color="#B0FFDF"/>
</linearGradient>
<linearGradient id="paint37_linear_3093_164104" x1="160.114" y1="282.713" x2="160.114" y2="266.039" gradientUnits="userSpaceOnUse">
<stop stop-color="#A1BEFF"/>
<stop offset="0.6572" stop-color="#ACECE8"/>
<stop offset="1" stop-color="#B0FFDF"/>
</linearGradient>
<linearGradient id="paint38_linear_3093_164104" x1="151.88" y1="282.713" x2="151.88" y2="266.039" gradientUnits="userSpaceOnUse">
<stop stop-color="#A1BEFF"/>
<stop offset="0.6572" stop-color="#ACECE8"/>
<stop offset="1" stop-color="#B0FFDF"/>
</linearGradient>
<linearGradient id="paint39_linear_3093_164104" x1="97.4229" y1="287.526" x2="97.4229" y2="248.296" gradientUnits="userSpaceOnUse">
<stop stop-color="white" stop-opacity="0"/>
<stop offset="1" stop-color="white"/>
</linearGradient>
<linearGradient id="paint40_linear_3093_164104" x1="72.2917" y1="255.971" x2="100.151" y2="255.971" gradientUnits="userSpaceOnUse">
<stop stop-color="white"/>
<stop offset="1" stop-color="white" stop-opacity="0"/>
</linearGradient>
<linearGradient id="paint41_linear_3093_164104" x1="72.2917" y1="261.194" x2="100.151" y2="261.194" gradientUnits="userSpaceOnUse">
<stop stop-color="white"/>
<stop offset="1" stop-color="white" stop-opacity="0"/>
</linearGradient>
<linearGradient id="paint42_linear_3093_164104" x1="72.2917" y1="266.417" x2="100.151" y2="266.417" gradientUnits="userSpaceOnUse">
<stop stop-color="white"/>
<stop offset="1" stop-color="white" stop-opacity="0"/>
</linearGradient>
<linearGradient id="paint43_linear_3093_164104" x1="72.2917" y1="271.643" x2="100.151" y2="271.643" gradientUnits="userSpaceOnUse">
<stop stop-color="white"/>
<stop offset="1" stop-color="white" stop-opacity="0"/>
</linearGradient>
<linearGradient id="paint44_linear_3093_164104" x1="113.655" y1="274.877" x2="113.655" y2="254.973" gradientUnits="userSpaceOnUse">
<stop stop-color="#F38764"/>
<stop offset="0.6627" stop-color="#F69F95"/>
<stop offset="1" stop-color="#F7A8A8"/>
</linearGradient>
<linearGradient id="paint45_linear_3093_164104" x1="64.4919" y1="187.686" x2="64.4919" y2="128.712" gradientUnits="userSpaceOnUse">
<stop stop-color="#6575C1"/>
<stop offset="0.0035" stop-color="#6575C1"/>
<stop offset="0.6711" stop-color="#8DA8C4"/>
<stop offset="1" stop-color="#9CBBC5"/>
</linearGradient>
<linearGradient id="paint46_linear_3093_164104" x1="108.141" y1="525.689" x2="347.793" y2="525.689" gradientUnits="userSpaceOnUse">
<stop stop-opacity="0"/>
<stop offset="1"/>
</linearGradient>
<linearGradient id="paint47_linear_3093_164104" x1="217.467" y1="375.353" x2="278.404" y2="375.353" gradientUnits="userSpaceOnUse">
<stop stop-color="#4198C1"/>
<stop offset="0.6009" stop-color="#1C97A7"/>
<stop offset="1" stop-color="#099699"/>
</linearGradient>
<linearGradient id="paint48_linear_3093_164104" x1="254.725" y1="355.802" x2="271.282" y2="355.802" gradientUnits="userSpaceOnUse">
<stop/>
<stop offset="1" stop-opacity="0"/>
</linearGradient>
<linearGradient id="paint49_linear_3093_164104" x1="274.159" y1="382.089" x2="350.169" y2="382.089" gradientUnits="userSpaceOnUse">
<stop stop-color="#4198C1"/>
<stop offset="0.6009" stop-color="#1C97A7"/>
<stop offset="1" stop-color="#099699"/>
</linearGradient>
<linearGradient id="paint50_linear_3093_164104" x1="275.53" y1="393.301" x2="327.373" y2="393.301" gradientUnits="userSpaceOnUse">
<stop stop-opacity="0"/>
<stop offset="0.144" stop-opacity="0.144"/>
<stop offset="1"/>
</linearGradient>
<linearGradient id="paint51_linear_3093_164104" x1="232.029" y1="356.717" x2="338.565" y2="356.717" gradientUnits="userSpaceOnUse">
<stop stop-color="#4198C1"/>
<stop offset="0.6009" stop-color="#1C97A7"/>
<stop offset="1" stop-color="#099699"/>
</linearGradient>
<linearGradient id="paint52_linear_3093_164104" x1="404.236" y1="224.857" x2="374.075" y2="224.857" gradientUnits="userSpaceOnUse">
<stop stop-color="#FF7BAC" stop-opacity="0"/>
<stop offset="1" stop-color="#FF7BAC"/>
</linearGradient>
<linearGradient id="paint53_linear_3093_164104" x1="343.539" y1="235.407" x2="364.125" y2="199.751" gradientUnits="userSpaceOnUse">
<stop stop-color="#4198C1"/>
<stop offset="0.5881" stop-color="#64B5B4"/>
<stop offset="1" stop-color="#77C5AC"/>
</linearGradient>
<linearGradient id="paint54_linear_3093_164104" x1="368.711" y1="221.259" x2="336.533" y2="221.259" gradientUnits="userSpaceOnUse">
<stop/>
<stop offset="1" stop-opacity="0"/>
</linearGradient>
<linearGradient id="paint55_linear_3093_164104" x1="330.991" y1="290.993" x2="330.991" y2="204.763" gradientUnits="userSpaceOnUse">
<stop stop-color="#4198C1"/>
<stop offset="0.5881" stop-color="#64B5B4"/>
<stop offset="1" stop-color="#77C5AC"/>
</linearGradient>
<linearGradient id="paint56_linear_3093_164104" x1="324.819" y1="212.552" x2="324.819" y2="203.885" gradientUnits="userSpaceOnUse">
<stop/>
<stop offset="1" stop-opacity="0"/>
</linearGradient>
<linearGradient id="paint57_linear_3093_164104" x1="368.031" y1="248.986" x2="340.643" y2="248.986" gradientUnits="userSpaceOnUse">
<stop stop-color="white" stop-opacity="0"/>
<stop offset="1" stop-color="white"/>
</linearGradient>
<linearGradient id="paint58_linear_3093_164104" x1="319.788" y1="255.311" x2="295.845" y2="255.311" gradientUnits="userSpaceOnUse">
<stop/>
<stop offset="1" stop-opacity="0"/>
</linearGradient>
<linearGradient id="paint59_linear_3093_164104" x1="285.815" y1="268.219" x2="280.77" y2="268.219" gradientUnits="userSpaceOnUse">
<stop stop-color="#FF7BAC" stop-opacity="0"/>
<stop offset="1" stop-color="#FF7BAC"/>
</linearGradient>
<linearGradient id="paint60_linear_3093_164104" x1="345.536" y1="290.879" x2="286.949" y2="290.879" gradientUnits="userSpaceOnUse">
<stop stop-color="#FF7BAC" stop-opacity="0"/>
<stop offset="1" stop-color="#FF7BAC"/>
</linearGradient>
<linearGradient id="paint61_linear_3093_164104" x1="310.45" y1="237.45" x2="280.71" y2="237.45" gradientUnits="userSpaceOnUse">
<stop stop-color="#77C5AC"/>
<stop offset="0.4119" stop-color="#64B5B4"/>
<stop offset="1" stop-color="#4198C1"/>
</linearGradient>
<linearGradient id="paint62_linear_3093_164104" x1="297.195" y1="237.437" x2="280.709" y2="237.437" gradientUnits="userSpaceOnUse">
<stop/>
<stop offset="1" stop-opacity="0"/>
</linearGradient>
<linearGradient id="paint63_linear_3093_164104" x1="320.7" y1="274.231" x2="295.559" y2="274.231" gradientUnits="userSpaceOnUse">
<stop stop-color="white" stop-opacity="0"/>
<stop offset="1" stop-color="white"/>
</linearGradient>
<linearGradient id="paint64_linear_3093_164104" x1="345.306" y1="296.017" x2="345.306" y2="293.202" gradientUnits="userSpaceOnUse">
<stop stop-color="#658AC1"/>
<stop offset="0.6186" stop-color="#8AB2C2"/>
<stop offset="1" stop-color="#9CC5C3"/>
</linearGradient>
<linearGradient id="paint65_linear_3093_164104" x1="379.132" y1="295.592" x2="379.132" y2="248.738" gradientUnits="userSpaceOnUse">
<stop stop-color="#658AC1"/>
<stop offset="0.6186" stop-color="#8AB2C2"/>
<stop offset="1" stop-color="#9CC5C3"/>
</linearGradient>
<linearGradient id="paint66_linear_3093_164104" x1="409.393" y1="283.037" x2="338.775" y2="283.037" gradientUnits="userSpaceOnUse">
<stop stop-opacity="0"/>
<stop offset="1"/>
</linearGradient>
<linearGradient id="paint67_linear_3093_164104" x1="419.489" y1="253.023" x2="363.803" y2="253.023" gradientUnits="userSpaceOnUse">
<stop stop-color="white"/>
<stop offset="1" stop-color="white" stop-opacity="0"/>
</linearGradient>
<linearGradient id="paint68_linear_3093_164104" x1="323.952" y1="200.148" x2="323.952" y2="189.988" gradientUnits="userSpaceOnUse">
<stop stop-color="#FF7BAC"/>
<stop offset="1" stop-color="#FF7BAC" stop-opacity="0"/>
</linearGradient>
<linearGradient id="paint69_linear_3093_164104" x1="332.026" y1="208.868" x2="318.102" y2="208.868" gradientUnits="userSpaceOnUse">
<stop/>
<stop offset="1" stop-opacity="0"/>
</linearGradient>
<linearGradient id="paint70_linear_3093_164104" x1="333.803" y1="197.99" x2="333.803" y2="170.657" gradientUnits="userSpaceOnUse">
<stop stop-color="#FF7BAC"/>
<stop offset="1" stop-color="#FF7BAC" stop-opacity="0"/>
</linearGradient>
<linearGradient id="paint71_linear_3093_164104" x1="310.756" y1="182.305" x2="307.164" y2="182.305" gradientUnits="userSpaceOnUse">
<stop stop-color="#FF7BAC"/>
<stop offset="1" stop-color="#FF7BAC" stop-opacity="0"/>
</linearGradient>
<linearGradient id="paint72_linear_3093_164104" x1="335.8" y1="178.838" x2="338.393" y2="178.046" gradientUnits="userSpaceOnUse">
<stop stop-color="#FF7BAC"/>
<stop offset="1" stop-color="#FF7BAC" stop-opacity="0"/>
</linearGradient>
<linearGradient id="paint73_linear_3093_164104" x1="396.828" y1="197.197" x2="386.745" y2="197.197" gradientUnits="userSpaceOnUse">
<stop stop-color="#FF7BAC" stop-opacity="0"/>
<stop offset="1" stop-color="#FF7BAC"/>
</linearGradient>
<linearGradient id="paint74_linear_3093_164104" x1="399.732" y1="174.993" x2="389.484" y2="174.993" gradientUnits="userSpaceOnUse">
<stop stop-color="#FF7BAC" stop-opacity="0"/>
<stop offset="1" stop-color="#FF7BAC"/>
</linearGradient>
<linearGradient id="paint75_linear_3093_164104" x1="404.013" y1="166.194" x2="401.873" y2="166.194" gradientUnits="userSpaceOnUse">
<stop stop-color="#FF7BAC"/>
<stop offset="1" stop-color="#FF7BAC" stop-opacity="0"/>
</linearGradient>
<linearGradient id="paint76_linear_3093_164104" x1="406.692" y1="171.501" x2="405.863" y2="171.501" gradientUnits="userSpaceOnUse">
<stop stop-color="#FF7BAC"/>
<stop offset="1" stop-color="#FF7BAC" stop-opacity="0"/>
</linearGradient>
<linearGradient id="paint77_linear_3093_164104" x1="401.462" y1="164.641" x2="401.418" y2="164.641" gradientUnits="userSpaceOnUse">
<stop stop-color="#FF7BAC"/>
<stop offset="1" stop-color="#FF7BAC" stop-opacity="0"/>
</linearGradient>
<linearGradient id="paint78_linear_3093_164104" x1="401.39" y1="164.501" x2="399.826" y2="164.501" gradientUnits="userSpaceOnUse">
<stop stop-color="#FF7BAC"/>
<stop offset="1" stop-color="#FF7BAC" stop-opacity="0"/>
</linearGradient>
<linearGradient id="paint79_linear_3093_164104" x1="399.083" y1="165.776" x2="397.215" y2="165.776" gradientUnits="userSpaceOnUse">
<stop stop-color="#FF7BAC"/>
<stop offset="1" stop-color="#FF7BAC" stop-opacity="0"/>
</linearGradient>
<linearGradient id="paint80_linear_3093_164104" x1="324.899" y1="184.08" x2="327.871" y2="184.08" gradientUnits="userSpaceOnUse">
<stop stop-color="#FF7BAC" stop-opacity="0"/>
<stop offset="1" stop-color="#FF7BAC"/>
</linearGradient>
<linearGradient id="paint81_linear_3093_164104" x1="323.374" y1="187.488" x2="323.374" y2="192.727" gradientUnits="userSpaceOnUse">
<stop stop-color="#FF7BAC"/>
<stop offset="1" stop-color="#FF7BAC" stop-opacity="0"/>
</linearGradient>
<linearGradient id="paint82_linear_3093_164104" x1="324.196" y1="190.492" x2="324.196" y2="192.73" gradientUnits="userSpaceOnUse">
<stop stop-color="#FF7BAC"/>
<stop offset="1" stop-color="#FF7BAC" stop-opacity="0"/>
</linearGradient>
<linearGradient id="paint83_linear_3093_164104" x1="331.133" y1="157.246" x2="299.044" y2="157.246" gradientUnits="userSpaceOnUse">
<stop stop-color="white"/>
<stop offset="1" stop-color="white" stop-opacity="0"/>
</linearGradient>
<linearGradient id="paint84_linear_3093_164104" x1="299.047" y1="165.143" x2="293.701" y2="165.143" gradientUnits="userSpaceOnUse">
<stop stop-color="white" stop-opacity="0"/>
<stop offset="1" stop-color="white"/>
</linearGradient>
<linearGradient id="paint85_linear_3093_164104" x1="404.443" y1="200.175" x2="399.892" y2="200.175" gradientUnits="userSpaceOnUse">
<stop stop-color="white" stop-opacity="0"/>
<stop offset="1" stop-color="white"/>
</linearGradient>
<clipPath id="clip0_3093_164104">
<rect width="470" height="590" rx="10" fill="white"/>
</clipPath>
</defs>
</svg>
