<svg width="470" height="612" viewBox="0 0 470 612" fill="none" xmlns="http://www.w3.org/2000/svg">
<g clip-path="url(#clip0_3093_165632)">
<path opacity="0.68" d="M487 0H0V638H487V0Z" fill="white"/>
<path opacity="0.68" d="M480 0H0V638H480V0Z" fill="url(#paint0_linear_3093_165632)"/>
<path opacity="0.18" d="M440.065 558.413C439.625 577.104 436.424 595.148 430.789 612.208H0.09375V212.743C31.6804 202.932 66.5319 199.501 103.456 207.268C135.432 213.986 196.778 243.718 208.918 310.678C220.345 373.754 280.759 406.8 336.677 420.339C342.416 422.527 348.065 425.077 353.571 427.963C396.028 450.149 430.996 491.777 438.562 538.246C439.638 544.887 440.156 551.617 440.065 558.413Z" fill="url(#paint1_linear_3093_165632)"/>
<path opacity="0.18" d="M279.411 542.548C279.023 558.741 276.574 574.443 272.26 589.445H0.09375V218.301C22.1189 234.973 41.9156 259.812 48.264 294.826C59.6912 357.902 120.105 390.948 176.023 404.488C181.762 406.662 187.411 409.212 192.917 412.099C235.374 434.285 270.342 475.926 277.908 522.382C278.984 529.022 279.502 535.753 279.411 542.548Z" fill="url(#paint2_linear_3093_165632)"/>
<path opacity="0.3" d="M224.193 612.208H0.09375V469.112C30.8123 460.064 64.5496 457.125 100.217 464.62C132.193 471.351 193.539 501.07 205.666 568.043C208.711 584.818 215.227 599.484 224.193 612.208Z" fill="url(#paint3_linear_3093_165632)"/>
<path opacity="0.11" d="M221.548 557.025C295.486 557.025 355.426 545.241 355.426 530.706C355.426 516.17 295.486 504.387 221.548 504.387C147.609 504.387 87.6699 516.17 87.6699 530.706C87.6699 545.241 147.609 557.025 221.548 557.025Z" fill="url(#paint4_linear_3093_165632)"/>
<path d="M415.927 111.855L382.949 113.949V95.3656C382.949 84.2014 390.332 73.3245 399.438 71.0697C408.545 68.8148 415.927 76.4699 415.927 88.1674V111.855Z" fill="#3B6B7D"/>
<path d="M399.704 70.8984C390.598 73.1533 383.611 84.0457 383.611 95.219V318.66C383.611 326.1 381.133 332.905 376.752 337.443L364.763 349.529C360.627 353.584 355.126 355.294 349.404 354.349L255.281 338.806V123.051C255.281 114.043 262.658 104.847 271.673 102.613L399.704 70.8984Z" fill="url(#paint5_linear_3093_165632)"/>
<path d="M382.67 325.965C379.823 340.421 366.071 353.309 354.258 354.486C357.328 344.999 359.134 335.751 357.998 327.255C367.135 329.4 375.471 329.31 382.67 325.965Z" fill="#3B6B7D"/>
<path d="M312.435 67.9661C312.805 67.9157 313.087 67.8535 313.366 67.8458C313.724 67.8354 313.878 67.6801 313.829 67.2115C313.768 66.6446 313.738 66.0685 313.723 65.4938C313.71 65.024 313.557 64.8686 313.166 64.9178C312.156 65.0434 311.145 65.1249 310.134 65.2142C309.414 65.2777 308.711 65.1987 308.069 64.822C306.522 63.9173 305.738 62.3795 305.783 60.2502C305.825 58.3086 306.738 56.8899 308.049 55.8544C310.705 53.7458 313.718 55.7638 314.069 59.0024C314.325 61.3634 314.463 63.7516 314.647 66.1307C314.865 68.968 315.062 71.8092 315.298 74.644C315.741 79.9769 319.944 83.4407 324.194 81.9819C328.114 80.6241 330.597 75.5436 329.697 70.7413C329.002 67.0303 326.57 64.3729 323.563 64.0907C322.183 63.9639 320.794 64.2654 319.412 64.3742C317.558 64.5217 317.521 64.6421 317.905 66.9306C317.968 67.306 318.089 67.4639 318.428 67.4251C319.439 67.3099 320.449 67.2452 321.461 67.1533C323.311 66.9876 324.672 67.882 325.504 69.9259C326.294 71.8726 325.901 74.2906 324.542 75.8685C323.015 77.634 321.052 78.0003 319.517 76.8729C318.062 75.8102 317.598 74.1042 317.462 72.1315C317.192 68.2198 316.928 64.3082 316.6 60.4107C316.493 59.1306 316.456 57.8349 316.235 56.5741C315.551 52.6857 312.358 49.8872 309.105 50.3364C306.791 50.6561 304.944 52.0372 303.475 54.2973C301.684 57.0349 301.312 59.9874 302.289 62.9943C303.262 65.9974 305.142 67.7875 307.873 68.1681C309.416 68.3842 310.973 67.9273 312.435 67.9661Z" fill="#FDFDFD"/>
<path d="M302.898 75.4529C302.989 77.2741 303.242 78.4016 303.822 79.5122C305.113 81.9845 306.904 83.5623 309.454 83.4342C311.979 83.3099 313.889 81.7942 315.159 79.0449C315.331 78.6695 315.367 78.355 315.187 77.9576C314.872 77.2625 314.666 76.5001 314.557 75.7066C314.279 73.6718 314.177 71.6047 314.047 69.544C314.011 68.9757 313.86 68.8075 313.399 68.8696C312.521 68.9861 311.64 69.0327 310.759 69.1039C309.262 69.2268 307.756 69.4585 306.318 68.8515C306.088 68.7557 305.922 68.8968 305.751 69.0573C303.822 70.8461 302.9 73.1761 302.898 75.4529Z" fill="#FDFDFD"/>
<path d="M328.679 55.8281C328.605 54.9466 328.446 54.1078 328.145 53.3338C326.964 50.2932 325.11 48.4073 322.275 48.5419C319.764 48.6636 317.823 50.2557 316.469 53.0193C316.256 53.4542 316.226 53.7985 316.424 54.2334C316.837 55.1434 317.093 56.1439 317.181 57.2118C317.338 59.0939 317.496 60.9759 317.63 62.8632C317.663 63.3266 317.783 63.4793 318.176 63.4288C319.185 63.2994 320.197 63.2269 321.207 63.1376C322.631 63.0133 324.06 62.8554 325.421 63.4482C325.633 63.5414 325.782 63.434 325.936 63.2826C327.886 61.3565 328.74 58.835 328.679 55.8281Z" fill="#FDFDFD"/>
<path d="M312.436 67.9674C310.974 67.9286 309.417 68.3855 307.871 68.1681C305.14 67.7888 303.26 65.9974 302.287 62.9944C301.31 59.9875 301.682 57.0349 303.473 54.2973C304.943 52.0372 306.791 50.6561 309.103 50.3364C312.357 49.8872 315.549 52.6857 316.233 56.5741C316.455 57.8349 316.491 59.1319 316.598 60.4107C316.926 64.3095 317.192 68.2211 317.46 72.1315C317.596 74.1042 318.06 75.8102 319.515 76.8729C321.05 78.0016 323.014 77.634 324.54 75.8685C325.899 74.2906 326.292 71.8727 325.502 69.9259C324.671 67.882 323.309 66.9876 321.459 67.1533C320.449 67.2439 319.437 67.3099 318.426 67.4251C318.087 67.4639 317.966 67.306 317.903 66.9306C317.518 64.6421 317.556 64.5217 319.41 64.3742C320.793 64.2642 322.181 63.9639 323.561 64.0907C326.568 64.3716 329 67.0303 329.695 70.7413C330.595 75.5449 328.112 80.6241 324.192 81.9819C319.942 83.4394 315.739 79.9756 315.296 74.644C315.06 71.8092 314.865 68.9667 314.645 66.1307C314.461 63.7529 314.323 61.3634 314.067 59.0024C313.716 55.7638 310.703 53.7458 308.047 55.8544C306.736 56.8899 305.824 58.3073 305.781 60.2502C305.735 62.3795 306.52 63.9173 308.067 64.822C308.709 65.1987 309.412 65.2777 310.132 65.2143C311.143 65.1249 312.154 65.0434 313.164 64.9178C313.555 64.8686 313.709 65.024 313.721 65.4938C313.736 66.0686 313.767 66.6446 313.827 67.2115C313.876 67.6801 313.722 67.8354 313.365 67.8458C313.087 67.8535 312.806 67.917 312.436 67.9674Z" fill="#61C1C7"/>
<path d="M302.898 75.4541C302.9 73.1772 303.822 70.846 305.751 69.0571C305.922 68.8979 306.089 68.7555 306.318 68.8513C307.756 69.4584 309.261 69.2267 310.759 69.1037C311.639 69.0312 312.521 68.9859 313.399 68.8694C313.862 68.8073 314.012 68.9769 314.047 69.5438C314.177 71.6045 314.279 73.6717 314.557 75.7065C314.666 76.5012 314.872 77.2636 315.187 77.9574C315.367 78.3548 315.331 78.6706 315.159 79.0447C313.889 81.794 311.979 83.3098 309.454 83.4341C306.904 83.5609 305.113 81.9843 303.822 79.512C303.242 78.4027 302.988 77.2753 302.898 75.4541Z" fill="#3B6B7D"/>
<path d="M328.679 55.8268C328.741 58.8337 327.888 61.3552 325.936 63.2826C325.784 63.434 325.633 63.5414 325.421 63.4482C324.06 62.8541 322.633 63.012 321.207 63.1376C320.197 63.2269 319.185 63.2994 318.176 63.4288C317.783 63.4793 317.663 63.3266 317.63 62.8632C317.497 60.9759 317.338 59.0939 317.181 57.2118C317.091 56.1439 316.837 55.1434 316.424 54.2334C316.226 53.7985 316.256 53.4542 316.469 53.0192C317.823 50.2557 319.764 48.6636 322.275 48.5419C325.11 48.4073 326.964 50.2945 328.145 53.3338C328.445 54.1065 328.604 54.9466 328.679 55.8268Z" fill="#3B6B7D"/>
<g opacity="0.57">
<path d="M357.309 249.502L284.78 249.633C283.404 249.634 282.207 248.465 282.12 247.037C282.032 245.61 283.086 244.43 284.462 244.417L356.957 243.645C358.331 243.628 359.536 244.938 359.633 246.555C359.73 248.171 358.685 249.498 357.309 249.502Z" fill="white"/>
<path d="M358.149 263.418L285.54 262.024C284.163 261.995 282.964 260.803 282.876 259.374C282.788 257.945 283.843 256.789 285.22 256.805L357.795 257.557C359.171 257.57 360.377 258.903 360.475 260.521C360.573 262.139 359.526 263.443 358.149 263.418Z" fill="white"/>
<path d="M358.989 277.34L286.3 274.421C284.922 274.364 283.722 273.147 283.634 271.718C283.546 270.289 284.602 269.156 285.98 269.2L358.636 271.477C360.013 271.519 361.221 272.877 361.319 274.495C361.415 276.114 360.367 277.394 358.989 277.34Z" fill="white"/>
<path d="M359.829 291.263L287.061 286.819C285.681 286.733 284.48 285.492 284.392 284.063C284.304 282.633 285.361 281.523 286.741 281.597L359.475 285.399C360.855 285.469 362.063 286.851 362.161 288.469C362.258 290.089 361.209 291.345 359.829 291.263Z" fill="white"/>
<path d="M273.688 126.288C273.706 128.318 272.123 130.297 270.153 130.71C268.183 131.121 266.571 129.831 266.553 127.826C266.535 125.822 268.118 123.843 270.087 123.406C272.057 122.968 273.67 124.259 273.688 126.288Z" fill="#3B6B7D"/>
<path d="M283.678 124.131C283.696 126.196 282.113 128.203 280.144 128.616C278.173 129.029 276.561 127.71 276.543 125.67C276.525 123.631 278.108 121.622 280.078 121.185C282.048 120.749 283.66 122.068 283.678 124.131Z" fill="#3B6B7D"/>
<path d="M293.668 121.973C293.686 124.073 292.103 126.11 290.134 126.523C288.163 126.936 286.551 125.59 286.533 123.515C286.515 121.441 288.098 119.404 290.068 118.965C292.038 118.528 293.65 119.874 293.668 121.973Z" fill="#3B6B7D"/>
<path d="M272.276 186.745C268.172 187.118 264.801 184.031 264.762 179.863C264.724 175.609 268.103 171.677 272.293 171.097L340.492 161.56C340.494 161.56 340.493 161.56 340.496 161.56C344.757 161.058 348.127 164.55 348.163 169.327C348.183 171.688 347.409 174.003 345.987 175.841C344.564 177.671 342.665 178.804 340.635 179.035L272.276 186.745ZM340.628 163.433L272.308 172.786C269.022 173.231 266.375 176.313 266.404 179.657C266.433 182.933 269.076 185.353 272.292 185.051L272.283 185.897L272.415 185.038L340.615 177.143C343.901 176.759 346.548 173.345 346.517 169.535C346.492 165.799 343.849 163.063 340.628 163.433Z" fill="white"/>
<path d="M272.472 208.442C268.367 208.662 264.996 205.446 264.955 201.276C264.918 197.018 268.297 193.213 272.487 192.788L340.686 185.808C340.687 185.808 340.687 185.808 340.689 185.808C344.951 185.465 348.321 189.085 348.357 193.864C348.376 196.226 347.603 198.513 346.18 200.298C344.758 202.076 342.858 203.137 340.828 203.292L272.472 208.442ZM340.825 187.686L272.504 194.479C269.218 194.801 266.571 197.786 266.599 201.132C266.629 204.411 269.272 206.931 272.491 206.748L272.482 207.595L272.611 206.741L340.813 201.401C342.405 201.276 343.895 200.44 345.009 199.047C346.124 197.649 346.729 195.859 346.715 194.013C346.684 190.273 344.044 187.436 340.825 187.686Z" fill="white"/>
<path d="M272.663 230.149C268.559 230.215 265.188 226.873 265.149 222.7C265.111 218.44 268.49 214.758 272.68 214.492L340.879 210.065C340.88 210.065 340.88 210.065 340.883 210.065C345.144 209.882 348.514 213.63 348.55 218.413C348.57 220.776 347.796 223.035 346.374 224.767C344.951 226.492 343.052 227.481 341.021 227.56L272.663 230.149ZM341.016 211.95L272.696 216.184C269.41 216.383 266.763 219.269 266.792 222.617C266.821 225.898 269.464 228.517 272.68 228.455L272.671 229.301L272.803 228.451L341.003 225.668C342.596 225.602 344.085 224.821 345.2 223.47C346.315 222.113 346.92 220.345 346.906 218.498C346.879 214.758 344.236 211.821 341.016 211.95Z" fill="white"/>
<path d="M350.177 118.489C350.206 122.143 347.688 125.601 344.554 126.21C341.42 126.82 338.856 124.402 338.826 120.812C338.798 117.221 341.315 113.765 344.449 113.093C347.585 112.42 350.149 114.835 350.177 118.489Z" fill="#3B6B7D"/>
<path d="M354.512 136.513C354.512 136.582 354.5 135.992 354.492 135.993L334.802 139.474C334.794 139.475 334.792 140.05 334.792 139.982C334.737 133.27 339.115 127.903 344.56 126.849C350.007 125.797 354.457 129.595 354.512 136.513Z" fill="#3B6B7D"/>
<path d="M334.917 147.866C330.692 148.461 327.221 145.071 327.181 140.312L327.002 118.632C326.962 113.781 330.439 109.043 334.754 108.07L354.027 103.721C354.028 103.721 354.031 103.72 354.031 103.72C358.415 102.832 361.884 106.218 361.924 111.236L362.103 134.112C362.122 136.594 361.326 139.066 359.861 141.067C358.397 143.062 356.44 144.344 354.351 144.687L335.078 147.842C335.073 147.842 334.924 147.865 334.917 147.866ZM354.172 105.62L334.772 109.939C331.363 110.698 328.617 114.44 328.648 118.284L328.825 140.021C328.855 143.789 331.598 146.467 334.935 145.988L334.926 146.928L335.062 145.969L354.335 142.757C355.986 142.483 357.533 141.466 358.689 139.89C359.844 138.31 360.475 136.359 360.458 134.403L360.28 111.583C360.251 107.63 357.51 104.954 354.172 105.62Z" fill="white"/>
</g>
<g opacity="0.31">
<path d="M149.76 119.959L209.159 126.646C211.214 126.878 212.88 125.576 212.88 123.74L212.884 93.9523C212.884 92.1155 211.238 90.2775 209.208 89.8452L150.533 77.3594C148.503 76.927 146.824 78.3328 146.783 80.4983L146.114 115.622C146.073 117.785 147.705 119.728 149.76 119.959Z" fill="white"/>
</g>
<g opacity="0.47">
<path d="M75.1756 111.564L134.575 118.251C136.63 118.483 138.333 116.884 138.379 114.68L139.125 78.9386C139.17 76.7355 137.562 74.5985 135.532 74.1661L76.8573 61.6803C74.8271 61.248 73.1118 62.9514 73.0237 65.4833L71.6128 106.56C71.526 109.092 73.1208 111.332 75.1756 111.564Z" fill="white"/>
</g>
<g opacity="0.31">
<path d="M149.084 177.117L209.453 176.02C211.541 175.983 213.235 174.465 213.235 172.63V142.871C213.235 141.037 211.562 139.417 209.498 139.254L149.853 134.55C147.789 134.387 146.083 136.009 146.042 138.173L145.378 173.269C145.336 175.431 146.996 177.154 149.084 177.117Z" fill="white"/>
</g>
<g opacity="0.31">
<path d="M73.2835 178.492L133.652 177.396C135.74 177.359 137.471 175.543 137.517 173.341L138.259 137.628C138.304 135.426 136.669 133.509 134.605 133.346L74.96 128.642C72.8961 128.479 71.1535 130.399 71.0667 132.93L69.6597 173.978C69.5716 176.509 71.1937 178.53 73.2835 178.492Z" fill="white"/>
</g>
<g opacity="0.2">
<path d="M145.955 123.073L205.354 129.76C207.409 129.991 209.075 128.689 209.075 126.854L209.079 97.0656C209.079 95.2288 207.434 93.3908 205.404 92.9585L146.729 80.4726C144.698 80.0403 143.019 81.446 142.978 83.6116L142.309 118.735C142.268 120.898 143.9 122.841 145.955 123.073Z" fill="url(#paint6_linear_3093_165632)"/>
</g>
<g opacity="0.2">
<path d="M71.371 114.677L130.77 121.364C132.825 121.596 134.529 119.997 134.574 117.793L135.32 82.0519C135.366 79.8488 133.758 77.7118 131.728 77.2794L73.0526 64.7936C71.0224 64.3613 69.3071 66.0647 69.219 68.5966L67.8081 109.673C67.7213 112.206 69.3161 114.446 71.371 114.677Z" fill="url(#paint7_linear_3093_165632)"/>
</g>
<g opacity="0.2">
<path d="M145.278 180.226L205.646 179.13C207.735 179.092 209.428 177.574 209.428 175.74V145.98C209.428 144.146 207.755 142.527 205.691 142.364L146.046 137.66C143.982 137.497 142.276 139.119 142.236 141.283L141.571 176.378C141.53 178.541 143.189 180.265 145.278 180.226Z" fill="url(#paint8_linear_3093_165632)"/>
</g>
<g opacity="0.24">
<path d="M69.4787 181.606L129.847 180.509C131.935 180.472 133.666 178.656 133.712 176.454L134.454 140.741C134.499 138.54 132.864 136.623 130.801 136.46L71.1552 131.756C69.0913 131.593 67.3487 133.512 67.2619 136.043L65.8549 177.091C65.7681 179.624 67.3902 181.645 69.4787 181.606Z" fill="url(#paint9_linear_3093_165632)"/>
</g>
<path d="M82.4723 81.0588L97.8329 83.4547C99.2192 83.6709 100.38 82.546 100.425 80.9423L100.937 63.1688C100.984 61.5651 99.9046 60.0351 98.5273 59.7516L93.3812 58.6915L83.2639 56.6062C81.8867 56.3227 80.7259 57.4476 80.6714 59.1187L80.0625 77.6415C80.0081 79.3126 81.086 80.8426 82.4723 81.0588Z" fill="url(#paint10_linear_3093_165632)"/>
<g opacity="0.55">
<path d="M86.3262 72.1186L91.8804 73.149C92.181 73.2046 92.4543 73.083 92.5671 72.7684L94.5001 67.451L97.1859 67.983C97.5771 68.0607 97.9075 67.7487 97.9243 67.2918C97.9412 66.8349 97.638 66.3961 97.2467 66.3171L94.0622 65.6751C93.7629 65.6143 93.4895 65.732 93.3768 66.044L91.4425 71.3705L86.9403 70.5187L86.2549 66.9578L91.1251 67.9131C91.5163 67.9895 91.848 67.6724 91.8648 67.2103C91.883 66.7482 91.5798 66.3055 91.1885 66.2278L85.4076 65.0732C85.1886 65.0292 84.9801 65.037 84.8388 65.2169C84.6963 65.3968 84.6406 65.622 84.6847 65.8874L85.6551 71.4908C85.725 71.8818 86.0023 72.0591 86.3262 72.1186Z" fill="white"/>
<path d="M89.5872 75.5725C89.5574 76.3466 90.0627 77.0662 90.7169 77.1827C91.3699 77.2979 91.9231 76.7672 91.9529 75.9984C91.9814 75.2282 91.4762 74.5085 90.8232 74.3881C90.1702 74.2677 89.617 74.7984 89.5872 75.5725Z" fill="white"/>
<path d="M86.0384 74.933C86.0086 75.7123 86.5126 76.4371 87.1668 76.5536C87.8198 76.6688 88.3743 76.1342 88.4041 75.3589C88.4339 74.5835 87.9286 73.8587 87.2757 73.7396C86.6227 73.6192 86.0682 74.1538 86.0384 74.933Z" fill="white"/>
</g>
<path d="M179.484 96.9535L206.802 101.162C207.754 101.308 208.528 100.733 208.528 99.8789V85.4191C208.528 84.5635 207.759 83.7144 206.812 83.5228L192.074 80.5444L179.659 78.0358C178.712 77.8443 177.937 78.4397 177.928 79.3652L177.775 95.0093C177.766 95.9374 178.532 96.8073 179.484 96.9535Z" fill="url(#paint11_linear_3093_165632)"/>
<path d="M196.961 88.5691L199.161 87.5841C199.459 87.4521 199.85 87.5181 200.154 87.7536L202.638 89.6629C203.038 89.9684 203.563 89.8014 203.564 89.3678L203.575 82.8686L196.049 81.3477L196.022 87.9336C196.018 88.3853 196.559 88.7503 196.961 88.5691Z" fill="white"/>
<path opacity="0.68" d="M185.437 83.783L190.016 84.6541C190.489 84.7434 190.877 84.4522 190.879 84.0069C190.882 83.5604 190.498 83.1203 190.026 83.0284L185.448 82.1378C184.977 82.0459 184.587 82.3423 184.584 82.7954C184.58 83.2484 184.964 83.6924 185.437 83.783Z" fill="url(#paint12_linear_3093_165632)"/>
<path opacity="0.68" d="M185.412 87.0694L189.998 87.903C190.47 87.9884 190.859 87.6946 190.862 87.248C190.864 86.8015 190.479 86.3653 190.007 86.2772L185.424 85.4255C184.951 85.3375 184.563 85.6365 184.559 86.0896C184.555 86.5426 184.94 86.984 185.412 87.0694Z" fill="url(#paint13_linear_3093_165632)"/>
<path d="M65.9581 105.447L110.832 110.086C111.421 110.147 111.912 109.662 111.928 109.003L112.278 95.65C112.295 94.9912 111.835 94.3919 111.25 94.3116L98.6771 92.5875L66.567 88.1839C65.9814 88.1037 65.4852 88.6253 65.4593 89.3502L64.9385 104.027C64.9138 104.75 65.3699 105.387 65.9581 105.447Z" fill="#75D8D8"/>
<path opacity="0.84" d="M102.809 99.9911L107.779 100.601C108.095 100.64 108.359 100.381 108.368 100.023C108.377 99.6649 108.13 99.3426 107.814 99.3037L102.845 98.6798C102.529 98.6397 102.265 98.9025 102.254 99.2649C102.244 99.6273 102.493 99.9522 102.809 99.9911Z" fill="white"/>
<path opacity="0.84" d="M98.5919 103.256L107.679 104.301C107.995 104.337 108.26 104.077 108.27 103.718C108.279 103.36 108.032 103.04 107.714 103.002L98.6294 101.933C98.3133 101.896 98.0477 102.162 98.0374 102.527C98.0283 102.894 98.2757 103.22 98.5919 103.256Z" fill="white"/>
<g opacity="0.81">
<path d="M86.1033 104.954L88.9549 105.264C89.0702 105.277 89.1661 105.177 89.17 105.042L89.2684 101.839C89.2723 101.704 89.1829 101.584 89.0689 101.571L87.7189 101.414L86.2199 101.239C86.1046 101.226 86.0087 101.325 86.0048 101.461L85.9025 104.685C85.8986 104.822 85.9893 104.941 86.1033 104.954Z" fill="#E6F7F9"/>
<path d="M81.2016 104.423L84.0532 104.732C84.1685 104.745 84.2644 104.644 84.2683 104.508L84.4859 97.6943C84.4898 97.5584 84.4004 97.4367 84.2864 97.4225L82.6553 97.2218L81.44 97.0717C81.326 97.0574 81.2288 97.1571 81.2249 97.2943L81.0021 104.153C80.9982 104.289 81.0876 104.41 81.2016 104.423Z" fill="#E6F7F9"/>
<path d="M76.3012 103.891L79.1528 104.201C79.2681 104.214 79.364 104.111 79.3692 103.974L79.5208 99.3519C79.5246 99.2147 79.4365 99.0917 79.3212 99.0787L77.5139 98.8639L76.4735 98.7396C76.3595 98.7254 76.2623 98.8276 76.2572 98.9661L76.1017 103.618C76.0978 103.757 76.1872 103.878 76.3012 103.891Z" fill="#E6F7F9"/>
<path d="M71.3996 103.357L74.2512 103.667C74.3665 103.68 74.4624 103.576 74.4676 103.438L74.7785 94.2098C74.7837 94.0713 74.6943 93.947 74.5803 93.9315L73.2873 93.7658L71.7365 93.5677C71.6225 93.5535 71.5253 93.6545 71.5201 93.7943L71.2014 103.082C71.1962 103.223 71.2856 103.346 71.3996 103.357Z" fill="#E6F7F9"/>
</g>
<path d="M106.454 173.604L75.671 174.021C74.8962 174.031 74.2731 173.388 74.308 172.615L75.4844 146.316L75.9573 135.727C75.991 134.975 76.6362 134.396 77.389 134.444L104.403 136.17C107.04 136.335 109.084 138.857 108.969 141.802L107.781 172.311C107.754 173.025 107.17 173.593 106.454 173.604Z" fill="url(#paint14_linear_3093_165632)"/>
<path d="M101.694 131.736L100.524 161.075C100.444 163.097 98.9889 165.261 97.1958 165.256L80.5215 165.203L82.0334 130.32L101.694 131.736Z" fill="#E6F7F9"/>
<path d="M97.4404 165.31C96.514 165.258 95.76 164.747 95.1433 164.008C94.4877 163.223 94.2753 161.853 94.3219 160.72L75.208 160.48C75.1561 161.657 75.5228 162.944 76.1745 163.759C76.8223 164.576 77.7655 165.25 78.8149 165.254L97.4404 165.31Z" fill="#C8E9F0"/>
<path d="M85.0598 140.999L88.5722 141.645C88.7302 141.673 88.7873 141.901 88.6694 142.027L87.7663 142.986L90.6736 146.667C90.7514 146.764 90.8822 146.769 90.9677 146.679L92.6028 144.944C92.6883 144.854 92.8191 144.86 92.8969 144.957L97.5856 150.778C97.6634 150.874 97.6569 151.024 97.5727 151.113L96.474 152.278C96.3885 152.369 96.2564 152.365 96.1786 152.269L92.7686 148.048C92.6909 147.951 92.5587 147.947 92.4745 148.036L90.8382 149.781C90.7527 149.872 90.6205 149.868 90.5441 149.771L86.358 144.486L85.3798 145.534C85.2606 145.661 85.0715 145.575 85.0611 145.388L84.8383 141.232C84.8305 141.092 84.9393 140.977 85.0598 140.999Z" fill="url(#paint15_linear_3093_165632)"/>
<path d="M156.768 101.522L201.687 107.58C202.712 107.719 203.552 107.07 203.553 106.141C203.554 105.211 202.719 104.33 201.695 104.182L156.827 97.7258C155.804 97.5783 154.953 98.3161 154.936 99.3645C154.919 100.413 155.743 101.384 156.768 101.522Z" fill="url(#paint16_linear_3093_165632)"/>
<path d="M156.651 109.113L201.673 114.374C202.7 114.494 203.541 113.831 203.542 112.9C203.543 111.971 202.705 111.104 201.68 110.974L156.71 105.315C155.684 105.186 154.832 105.938 154.815 106.988C154.797 108.037 155.623 108.993 156.651 109.113Z" fill="url(#paint17_linear_3093_165632)"/>
<path d="M156.532 116.71L201.656 121.174C202.685 121.276 203.53 120.598 203.531 119.669C203.532 118.739 202.693 117.887 201.664 117.776L156.59 112.913C155.562 112.802 154.706 113.569 154.69 114.618C154.675 115.668 155.503 116.609 156.532 116.71Z" fill="url(#paint18_linear_3093_165632)"/>
<path opacity="0.81" d="M113.914 82.5386L133.646 85.7629C134.667 85.9299 135.521 85.1688 135.544 84.0724C135.568 82.9761 134.751 81.9341 133.732 81.7593L114.022 78.3602C113.002 78.1842 112.143 78.9841 112.112 80.1387C112.084 81.292 112.893 82.3729 113.914 82.5386Z" fill="url(#paint19_linear_3093_165632)"/>
<path opacity="0.81" d="M113.819 91.5387L133.599 94.3851C134.623 94.5327 135.479 93.756 135.502 92.6597C135.526 91.5633 134.708 90.5381 133.686 90.3815L113.928 87.3591C112.906 87.2025 112.044 88.0192 112.015 89.1725C111.983 90.3259 112.796 91.3912 113.819 91.5387Z" fill="url(#paint20_linear_3093_165632)"/>
<path opacity="0.28" d="M115.394 144.173L129.329 144.616C130.367 144.648 131.236 143.773 131.261 142.669C131.286 141.565 130.456 140.628 129.419 140.585L115.499 140.021C114.462 139.978 113.589 140.883 113.559 142.029C113.531 143.175 114.356 144.14 115.394 144.173Z" fill="url(#paint21_linear_3093_165632)"/>
<path opacity="0.28" d="M115.241 150.173L129.2 150.439C130.24 150.459 131.109 149.572 131.134 148.468C131.159 147.364 130.328 146.437 129.289 146.409L115.347 146.02C114.308 145.992 113.435 146.906 113.405 148.052C113.374 149.198 114.201 150.153 115.241 150.173Z" fill="url(#paint22_linear_3093_165632)"/>
<path opacity="0.28" d="M114.796 167.859L128.821 167.605C129.865 167.586 130.74 166.668 130.764 165.564C130.789 164.46 129.955 163.565 128.91 163.574L114.901 163.705C113.857 163.715 112.98 164.66 112.95 165.807C112.92 166.955 113.751 167.878 114.796 167.859Z" fill="url(#paint23_linear_3093_165632)"/>
<path opacity="0.28" d="M154.546 149.281L174.523 149.83C175.556 149.858 176.317 148.989 176.213 147.897C176.11 146.806 175.179 145.882 174.146 145.844L154.17 145.118C153.136 145.081 152.376 145.991 152.478 147.14C152.582 148.29 153.512 149.253 154.546 149.281Z" fill="url(#paint24_linear_3093_165632)"/>
<path opacity="0.28" d="M184.124 150.137L204.101 150.685C205.135 150.714 205.895 149.844 205.791 148.753C205.688 147.662 204.758 146.737 203.724 146.7L183.748 145.974C182.714 145.936 181.954 146.846 182.056 147.996C182.161 149.144 183.09 150.108 184.124 150.137Z" fill="url(#paint25_linear_3093_165632)"/>
<path opacity="0.28" d="M154.546 160.203L174.523 160.752C175.556 160.78 176.317 159.91 176.213 158.819C176.11 157.728 175.179 156.804 174.146 156.766L154.17 156.04C153.136 156.003 152.376 156.913 152.478 158.062C152.582 159.211 153.512 160.174 154.546 160.203Z" fill="url(#paint26_linear_3093_165632)"/>
<path opacity="0.88" d="M146.802 249.196H101.247C99.2255 249.196 97.5879 247.56 97.5879 245.541V188.741C97.5879 186.722 99.2255 185.086 101.247 185.086H118H146.802C148.824 185.086 150.461 186.722 150.461 188.741V245.541C150.461 247.559 148.824 249.196 146.802 249.196Z" fill="url(#paint27_linear_3093_165632)"/>
<path d="M109.385 205.099V240.798C109.385 241.608 110.042 242.264 110.853 242.264H140.155C140.966 242.264 141.623 241.608 141.623 240.798V205.099C141.623 204.289 140.966 203.633 140.155 203.633H110.853C110.042 203.632 109.385 204.289 109.385 205.099Z" fill="url(#paint28_linear_3093_165632)"/>
<path opacity="0.11" d="M109.387 203.629V211.548C110.366 212.159 111.518 212.519 112.758 212.519C116.278 212.519 119.131 209.67 119.132 206.153C119.133 209.67 121.986 212.519 125.507 212.519V203.629H109.387Z" fill="url(#paint29_linear_3093_165632)"/>
<path opacity="0.11" d="M131.88 206.15C131.88 209.667 134.734 212.519 138.255 212.519C139.493 212.519 140.646 212.16 141.626 211.548V203.629H125.506V212.519C129.025 212.519 131.88 209.669 131.88 206.15Z" fill="url(#paint30_linear_3093_165632)"/>
<path opacity="0.19" d="M137.318 221.023H129.809V242.263H137.318V221.023Z" fill="url(#paint31_linear_3093_165632)"/>
<path d="M114.379 214.301H124.815C125.196 214.301 125.504 214.609 125.504 214.989V225.616C125.504 225.997 125.196 226.304 124.815 226.304H114.379C113.998 226.304 113.689 225.996 113.689 225.616V214.989C113.689 214.608 113.998 214.301 114.379 214.301Z" fill="url(#paint32_linear_3093_165632)"/>
<path d="M108.994 198.033L106.381 203.63L112.755 205.631L119.128 203.63L121.608 200.413L120.13 197.195H110.309C109.746 197.195 109.232 197.523 108.994 198.033Z" fill="url(#paint33_linear_3093_165632)"/>
<path d="M142.014 198.033L144.628 203.63L138.253 205.631L131.879 203.63L129.4 200.413L130.877 197.195H140.698C141.263 197.195 141.776 197.523 142.014 198.033Z" fill="url(#paint34_linear_3093_165632)"/>
<path d="M106.383 203.629C106.383 207.147 109.237 209.997 112.757 209.997C116.277 209.997 119.131 207.147 119.131 203.629H106.383Z" fill="url(#paint35_linear_3093_165632)"/>
<path d="M130.877 197.195H120.13L119.129 203.63L125.505 205.631L131.879 203.63L130.877 197.195Z" fill="url(#paint36_linear_3093_165632)"/>
<path d="M119.129 203.629C119.129 207.147 121.983 209.997 125.503 209.997C129.023 209.997 131.878 207.147 131.878 203.629H119.129Z" fill="url(#paint37_linear_3093_165632)"/>
<path d="M131.881 203.629C131.881 207.147 134.735 209.997 138.255 209.997C141.775 209.997 144.63 207.147 144.63 203.629H131.881Z" fill="url(#paint38_linear_3093_165632)"/>
<path opacity="0.85" d="M116.254 222.406C116.111 222.406 115.966 222.366 115.838 222.283C115.48 222.053 115.377 221.577 115.607 221.219L118.531 216.681C118.762 216.324 119.239 216.22 119.596 216.451C119.954 216.681 120.058 217.158 119.827 217.515L116.903 222.053C116.755 222.281 116.508 222.406 116.254 222.406Z" fill="white"/>
<path opacity="0.85" d="M118.511 224.665C118.367 224.665 118.222 224.625 118.091 224.541C117.735 224.309 117.633 223.831 117.864 223.475L122.286 216.678C122.518 216.323 122.995 216.22 123.353 216.453C123.709 216.685 123.811 217.163 123.579 217.519L119.157 224.315C119.011 224.541 118.764 224.665 118.511 224.665Z" fill="white"/>
<path opacity="0.56" d="M84.4164 287.407H152.183C153.071 287.407 153.79 286.687 153.79 285.799V267.817C153.79 266.929 153.07 266.211 152.183 266.211H133.114H84.4164C83.5277 266.211 82.8086 266.931 82.8086 267.817V285.799C82.8086 286.687 83.5277 287.407 84.4164 287.407Z" fill="url(#paint39_linear_3093_165632)"/>
<path opacity="0.62" d="M139.254 275.208H147.617C147.864 275.208 148.064 275.008 148.064 274.762V273.923C148.064 273.676 147.863 273.477 147.617 273.477H139.254C139.006 273.477 138.807 273.677 138.807 273.923V274.762C138.807 275.008 139.006 275.208 139.254 275.208Z" fill="url(#paint40_linear_3093_165632)"/>
<path opacity="0.62" d="M133.035 280.142H147.618C147.866 280.142 148.065 279.941 148.065 279.695V278.857C148.065 278.609 147.864 278.41 147.618 278.41H133.035C132.787 278.41 132.588 278.611 132.588 278.857V279.695C132.587 279.941 132.787 280.142 133.035 280.142Z" fill="url(#paint41_linear_3093_165632)"/>
<path opacity="0.68" d="M114.716 284.128H119.025C119.199 284.128 119.339 283.987 119.339 283.815V269.454C119.339 269.28 119.197 269.141 119.025 269.141H116.032H114.716C114.542 269.141 114.402 269.282 114.402 269.454V283.815C114.402 283.987 114.542 284.128 114.716 284.128Z" fill="url(#paint42_linear_3093_165632)"/>
<path opacity="0.68" d="M107.309 284.128H111.618C111.792 284.128 111.932 283.987 111.932 283.815V269.454C111.932 269.28 111.79 269.141 111.618 269.141H109.074H107.308C107.134 269.141 106.994 269.282 106.994 269.454V283.815C106.995 283.987 107.135 284.128 107.309 284.128Z" fill="url(#paint43_linear_3093_165632)"/>
<path opacity="0.68" d="M99.9047 284.128H104.214C104.387 284.128 104.527 283.987 104.527 283.815V269.454C104.527 269.28 104.386 269.141 104.214 269.141H101.807H99.9034C99.7298 269.141 99.5898 269.282 99.5898 269.454V283.815C99.5898 283.987 99.7311 284.128 99.9047 284.128Z" fill="url(#paint44_linear_3093_165632)"/>
<path opacity="0.68" d="M92.4971 284.128H96.8063C96.9799 284.128 97.1198 283.987 97.1198 283.815V269.454C97.1198 269.28 96.9786 269.141 96.8063 269.141H94.7657H92.4971C92.3235 269.141 92.1836 269.282 92.1836 269.454V283.815C92.1836 283.987 92.3235 284.128 92.4971 284.128Z" fill="url(#paint45_linear_3093_165632)"/>
<g opacity="0.57">
<path opacity="0.2" d="M114.718 284.129H119.027C119.201 284.129 119.341 283.988 119.341 283.816V279.7C119.341 279.527 119.199 279.387 119.027 279.387H116.986H114.718C114.544 279.387 114.404 279.528 114.404 279.7V283.816C114.404 283.988 114.544 284.129 114.718 284.129Z" fill="#5D5D5D"/>
<path opacity="0.2" d="M107.312 284.128H111.621C111.794 284.128 111.934 283.987 111.934 283.815V275.145C111.934 274.972 111.793 274.832 111.621 274.832H109.151H107.312C107.138 274.832 106.998 274.973 106.998 275.145V283.815C106.998 283.987 107.138 284.128 107.312 284.128Z" fill="#5D5D5D"/>
<path opacity="0.2" d="M99.9053 284.13H104.214C104.388 284.13 104.528 283.989 104.528 283.816V277.993C104.528 277.819 104.387 277.68 104.214 277.68H101.479H99.9053C99.7317 277.68 99.5918 277.821 99.5918 277.993V283.816C99.5905 283.989 99.7317 284.13 99.9053 284.13Z" fill="#5D5D5D"/>
<path opacity="0.2" d="M92.4991 284.13H96.8082C96.9818 284.13 97.1218 283.989 97.1218 283.817V272.302C97.1218 272.128 96.9805 271.988 96.8082 271.988H94.8493H92.4991C92.3255 271.988 92.1855 272.129 92.1855 272.302V283.817C92.1855 283.989 92.3255 284.13 92.4991 284.13Z" fill="#5D5D5D"/>
</g>
<path d="M262.257 517.59L260.953 497.664L238.373 498.359L238.716 512.354C238.716 512.354 254.543 519.95 262.257 517.59Z" fill="#FFC0AA"/>
<path d="M264.005 512.529C264.005 512.529 288.116 526.468 292.247 528.926C296.17 531.26 296.85 536.975 290.706 536.995C285.572 537.012 249.848 534.117 238.253 533.165C236.244 533.001 234.753 531.247 234.907 529.239L236.269 511.609C236.317 510.98 236.925 510.555 237.53 510.732C240.219 511.523 247.904 513.159 264.005 512.529Z" fill="url(#paint46_linear_3093_165632)"/>
<path d="M290.166 534.001L239.486 530.27" stroke="#234851" stroke-width="0.6129" stroke-miterlimit="10" stroke-linecap="round" stroke-linejoin="round"/>
<path d="M271.192 518.086C271.192 518.086 266.468 521.278 266.42 527.254" stroke="#234851" stroke-width="0.6129" stroke-miterlimit="10" stroke-linecap="round" stroke-linejoin="round"/>
<path d="M279.204 522.609C279.204 522.609 276.754 524.868 276.453 528.936" stroke="#234851" stroke-width="0.6129" stroke-miterlimit="10" stroke-linecap="round" stroke-linejoin="round"/>
<path d="M262.399 514.53C262.399 514.53 250.714 516.081 239.555 512.977" stroke="#234851" stroke-width="0.6129" stroke-miterlimit="10" stroke-linecap="round" stroke-linejoin="round"/>
<path d="M269.807 505.259C269.807 505.259 246.539 511.291 228.789 500.56L228.478 481.002L228.387 475.125L227.416 413.628C227.416 413.628 226.677 398.937 225.641 385.332C225.109 378.33 223.425 369.191 222.803 361.101C221.922 358.642 221.236 356.079 220.808 353.412L214.783 314.969L206.518 262.131L260.337 256.824L267.126 369.114C267.346 370.279 267.54 371.469 267.644 372.738C268.149 379.016 269.807 505.259 269.807 505.259Z" fill="url(#paint47_linear_3093_165632)"/>
<path opacity="0.11" d="M243.571 297.067L233.207 385.733L228.387 475.125L227.415 413.628C227.415 413.628 226.677 398.936 225.64 385.332C225.109 378.329 223.425 369.191 222.803 361.101C221.922 358.642 221.235 356.079 220.808 353.412L214.783 314.969L233.207 278.945L243.571 297.067Z" fill="#2D2D2D"/>
<path d="M268.955 499.284C268.955 499.284 251.068 501.878 231.318 493.605" stroke="#3C6A7C" stroke-width="0.7726" stroke-miterlimit="10" stroke-linecap="round" stroke-linejoin="round"/>
<path d="M240.982 291.672L247.892 381.849L249.62 492.736" stroke="#3C6A7C" stroke-width="0.7726" stroke-miterlimit="10" stroke-linecap="round" stroke-linejoin="round"/>
<path d="M202.662 521.473L201.357 501.547L178.777 502.242L179.121 516.237C179.121 516.237 194.948 523.833 202.662 521.473Z" fill="#FFC0AA"/>
<path d="M204.41 516.411C204.41 516.411 228.521 530.351 232.651 532.809C236.574 535.143 237.254 540.857 231.11 540.878C225.976 540.895 190.253 537.999 178.657 537.048C176.649 536.884 175.158 535.13 175.312 533.122L176.673 515.492C176.721 514.863 177.329 514.437 177.934 514.615C180.624 515.406 188.308 517.042 204.41 516.411Z" fill="url(#paint48_linear_3093_165632)"/>
<path d="M230.57 537.884L179.891 534.152" stroke="#234851" stroke-width="0.6129" stroke-miterlimit="10" stroke-linecap="round" stroke-linejoin="round"/>
<path d="M211.596 521.969C211.596 521.969 206.872 525.161 206.824 531.137" stroke="#234851" stroke-width="0.6129" stroke-miterlimit="10" stroke-linecap="round" stroke-linejoin="round"/>
<path d="M219.608 526.492C219.608 526.492 217.158 528.751 216.857 532.819" stroke="#234851" stroke-width="0.6129" stroke-miterlimit="10" stroke-linecap="round" stroke-linejoin="round"/>
<path d="M202.803 518.413C202.803 518.413 191.118 519.963 179.959 516.859" stroke="#234851" stroke-width="0.6129" stroke-miterlimit="10" stroke-linecap="round" stroke-linejoin="round"/>
<path d="M224.192 376.128C224.244 377.319 224.257 378.523 224.18 379.791C223.765 386.082 214.994 513.581 214.994 513.581C214.994 513.581 191.323 517.775 174.48 505.672L175.698 486.152C175.698 486.152 178.004 438.078 179.572 408.009C180.103 397.771 180.544 389.616 180.79 386.16C181.14 381.228 181.075 375.17 181.205 369.19C181.127 368.271 181.075 367.313 181.062 366.317L179.974 277.145L179.779 261.496L233.793 264.059L224.192 376.128Z" fill="url(#paint49_linear_3093_165632)"/>
<path opacity="0.11" d="M193.694 276.355L192.399 298.36L183.329 387.674L179.572 408.009C180.103 397.77 180.544 389.616 180.79 386.16C181.14 381.228 181.075 375.17 181.205 369.19C181.127 368.271 181.075 367.313 181.062 366.316L179.974 277.145L193.694 276.355Z" fill="#2D2D2D"/>
<path d="M213.246 507.05C213.246 507.05 195.359 509.644 175.609 501.371" stroke="#3C6A7C" stroke-width="0.7726" stroke-miterlimit="10" stroke-linecap="round" stroke-linejoin="round"/>
<path d="M199.525 289.945L201.252 378.396L193.047 503.953" stroke="#3C6A7C" stroke-width="0.7726" stroke-miterlimit="10" stroke-linecap="round" stroke-linejoin="round"/>
<path d="M244.653 263.206C242.365 262.293 240.336 260.436 238.529 258.005C233.367 251.083 230.127 239.557 228.474 232.263C227.568 228.271 227.141 225.544 227.141 225.544C232.043 214.521 239.927 212.521 246.786 213.415C252.84 214.201 258.082 217.213 259.766 218.267C260.128 218.491 260.326 218.635 260.326 218.635C260.326 218.635 260.864 221.032 261.632 224.633C262.023 226.457 262.474 228.573 262.931 230.852C264.934 240.69 267.265 253.332 266.649 256.157C265.606 260.929 257.014 268.151 244.653 263.206Z" fill="#FCD0D7"/>
<path opacity="0.23" d="M256.539 224.468L263.284 232.877L261.036 221.762L256.539 224.468Z" fill="url(#paint50_linear_3093_165632)"/>
<path d="M292.564 232.748C289.504 236.338 274.812 260.231 261.219 264.125C258.337 264.953 255.607 265.205 253.106 264.748C237.775 261.946 240.204 245.133 244.798 241.231C249.4 237.318 286.879 224.121 286.879 224.121C291.972 223.741 292.564 232.748 292.564 232.748Z" fill="#FCD0D7"/>
<path d="M285.473 234.336C285.717 234.445 285.934 234.58 286.119 234.746C285.731 235.048 285.358 235.312 285.07 235.5C284.846 235.646 284.552 235.509 284.516 235.251C284.474 234.947 284.411 234.538 284.361 234.098C284.729 234.098 285.108 234.173 285.473 234.336Z" fill="#3A9193"/>
<path d="M285.278 209.445L285.329 209.434C286.355 209.196 287.435 209.977 287.702 210.996L293.214 231.989C293.354 232.514 293.146 233.661 292.885 234.631C292.758 235.106 292.626 235.561 292.512 235.885C292.422 236.137 292.107 236.215 291.922 236.032C291.706 235.816 291.408 235.534 291.101 235.213C290.384 234.483 289.59 233.601 289.446 233.059L283.923 211.988C283.643 210.948 284.23 209.69 285.278 209.445Z" fill="#184151"/>
<path d="M284.822 213.724C284.822 213.724 285.96 212.866 287.758 212.929" stroke="#86DEE0" stroke-width="0.2234" stroke-miterlimit="10" stroke-linecap="round" stroke-linejoin="round"/>
<path d="M290.38 232.619L285.592 214.359" stroke="#86DEE0" stroke-width="0.2234" stroke-miterlimit="10" stroke-linecap="round" stroke-linejoin="round"/>
<path d="M291.507 232.356L286.719 214.098" stroke="#86DEE0" stroke-width="0.2234" stroke-miterlimit="10" stroke-linecap="round" stroke-linejoin="round"/>
<path d="M292.636 232.096L287.848 213.836" stroke="#86DEE0" stroke-width="0.2234" stroke-miterlimit="10" stroke-linecap="round" stroke-linejoin="round"/>
<path d="M284.836 227.238C284.836 227.238 284.278 223.176 285.66 221.903C287.043 220.629 289.14 224.557 289.14 224.557C290.281 228.274 285.725 231.336 284.836 227.238Z" fill="#FCD0D7"/>
<path d="M297.881 227.955C297.775 227.637 294.055 221.797 292.141 222.647C290.228 223.496 286.189 225.726 286.189 227.637C286.189 229.547 286.933 232.521 287.996 233.371C289.058 234.22 298.942 234.326 298.73 231.779C298.52 229.229 297.881 227.955 297.881 227.955Z" fill="#FCD0D7"/>
<path d="M263.693 223.122C263.057 223.66 262.365 224.159 261.631 224.629C260.718 225.223 259.736 225.775 258.698 226.287C254.631 228.29 249.803 229.617 245.154 230.503C244.489 230.627 243.826 230.751 243.176 230.848C236.922 231.912 231.222 232.202 228.469 232.272C227.349 232.299 226.712 232.299 226.712 232.299C226.712 232.299 226.228 230.503 225.482 227.324C224.5 223.108 223.102 216.445 221.885 208.278C221.138 203.302 220.446 197.774 219.975 191.913C218.136 169.204 227.183 161.56 227.183 161.56C231.624 156.473 242.111 160.33 247.091 172.48C250.895 181.781 258.587 206.44 262.004 217.552C263.057 220.993 263.693 223.122 263.693 223.122Z" fill="url(#paint51_linear_3093_165632)"/>
<path opacity="0.11" d="M261.038 225.218C256.971 227.222 249.803 229.617 245.156 230.503C244.491 230.627 243.828 230.751 243.178 230.848L245.014 187.094L261.038 225.218Z" fill="url(#paint52_linear_3093_165632)"/>
<path d="M271.203 287.626C266.845 290.238 261.893 292.283 256.58 293.86C235.731 300.121 209.142 299.306 189.275 297.273C172.743 295.574 160.887 293.044 160.887 293.044C160.887 293.044 173.199 268.276 171.097 255.131C169.035 242.305 167.805 233.846 166.947 227.71C165.149 214.813 164.968 212.216 162.16 200.992C161.897 199.982 159.365 200.481 156.792 201.006C154.08 201.545 151.313 202.126 151.051 201.033C147.828 187.64 149.419 170.861 159.131 159.098C164.844 152.161 173.394 146.963 185.444 145.25C186.385 145.111 187.298 145.001 188.211 144.904C199.957 143.646 209.628 145.388 217.25 148.18C231.596 153.433 238.679 162.445 238.679 162.445C238.679 162.445 244.448 172.88 247.616 186.66C250.355 198.615 259.403 259.914 271.203 287.626Z" fill="url(#paint53_linear_3093_165632)"/>
<path opacity="0.16" d="M271.206 287.626C266.847 290.238 261.896 292.283 256.582 293.859C255.323 292.104 254.604 289.796 254.037 287.667C252.902 283.313 251.851 278.904 251.463 274.412C250.924 268.123 251.712 261.738 250.772 255.477C250.218 251.676 249.029 247.999 247.838 244.337C246.469 240.121 245.071 235.837 242.526 232.215C239.33 227.668 234.158 215.891 233.308 210.33C229.679 192.851 234.586 180.784 233.784 174.302C232.926 167.226 228.112 161.269 222.924 156.376C221.194 154.759 219.382 153.155 218.234 151.096C217.749 150.198 217.391 149.202 217.252 148.18C231.598 153.432 238.681 162.444 238.681 162.444C238.681 162.444 244.45 172.879 247.618 186.66C250.357 198.615 259.405 259.914 271.206 287.626Z" fill="url(#paint54_linear_3093_165632)"/>
<path opacity="0.11" d="M189.279 297.273C172.747 295.574 160.891 293.044 160.891 293.044C160.891 293.044 173.203 268.276 171.1 255.131C164.722 215.325 166.313 217.55 162.163 200.992C161.624 198.932 161.084 196.832 160.572 194.702C166.673 182.981 173.203 176.485 179.76 180.065C179.76 180.065 185.294 228.441 192.211 250.556C196.279 263.563 192.807 283.259 189.279 297.273Z" fill="url(#paint55_linear_3093_165632)"/>
<path d="M234.487 115.228C230.42 116.445 227.597 115.754 225.716 116.375C225.039 116.596 224.485 116.969 224.028 117.675C222.298 120.314 219.574 123.01 219.574 123.01C219.574 123.01 218.938 122.913 218.066 122.762C216.35 122.472 213.653 121.988 212.629 121.739C211.453 121.449 209.35 130.529 204.923 129.714C203.539 129.465 201.948 128.263 200.094 125.526C198.531 123.231 197.466 115.257 198.116 108.594C198.213 107.516 198.365 106.466 198.572 105.484C199.278 101.932 200.648 99.25 202.889 98.7802L206.044 98.3931C206.044 98.3931 209.184 91.9794 213.348 93.3903C214.455 93.7915 215.368 94.3028 216.282 94.897C218.813 96.5007 221.303 98.5187 227.612 98.7387C227.612 98.7387 235.109 98.2831 238.637 101.034C242.151 103.797 240.035 113.597 234.487 115.228Z" fill="#184151"/>
<path d="M224.86 163.454C223.49 170.309 213.433 169.384 206.681 164.338C203.887 162.252 202.074 159.293 200.926 156.364V156.349C200.775 155.99 200.636 155.617 200.525 155.257C200.51 155.23 200.497 155.201 200.483 155.147C200.469 155.12 200.469 155.091 200.456 155.037C200.166 154.207 199.93 153.392 199.75 152.618C199.736 152.603 199.736 152.603 199.736 152.603C198.836 148.996 198.795 146.148 198.795 146.148L201.963 136.377L204.19 129.48L205.31 126.038L205.795 124.573L207.33 119.819C210.208 118.823 212.546 118.92 214.428 119.612C215.285 119.93 216.033 120.371 216.71 120.897C220.197 123.55 221.372 128.222 221.372 128.222L219.864 144.324L219.158 151.774C219.255 151.871 219.338 151.968 219.435 152.064C219.74 152.368 220.03 152.699 220.307 153.03C221.829 154.8 223.033 156.694 223.821 158.062C224.763 159.694 225.233 161.615 224.86 163.454Z" fill="#FCD0D7"/>
<path opacity="0.11" d="M224.861 163.452C223.491 170.307 213.38 169.382 206.629 164.336C203.834 162.249 200.821 159.29 200.821 156.361V156.347C200.821 155.987 200.584 155.614 200.472 155.254C200.458 155.227 200.471 155.199 200.457 155.144C200.442 155.117 200.457 155.089 200.442 155.034C200.152 154.205 199.923 153.389 199.744 152.615C200.159 153.279 209.806 169.785 220.831 165.47C228.561 162.444 219.366 152.077 219.366 152.077L219.436 152.062C219.74 152.367 220.031 152.698 220.308 153.029C221.83 154.799 223.034 156.693 223.821 158.061C224.763 159.692 225.234 161.613 224.861 163.452Z" fill="url(#paint56_linear_3093_165632)"/>
<path opacity="0.23" d="M221.374 128.22L219.866 144.322C206.378 143.921 202.808 138.378 201.965 136.374L204.192 129.478L205.313 126.036C208.149 123.589 212.313 121.959 216.713 120.895C220.198 123.548 221.374 128.22 221.374 128.22Z" fill="url(#paint57_linear_3093_165632)"/>
<path d="M228.422 140.622C228.069 141.402 227.708 142.02 227.34 142.43C223.894 146.371 211.007 142.099 207.887 134.686C204.767 127.274 211.142 111.984 211.142 111.984C211.142 111.984 220.064 102.741 228.041 104.973C236.002 107.212 234.728 115.971 234.728 115.971C234.728 115.971 231.574 134.023 228.422 140.622Z" fill="#FCD0D7"/>
<path opacity="0.23" d="M227.34 142.431C227.707 142.021 228.069 141.405 228.421 140.623C229.09 139.224 229.758 137.306 230.397 135.158C219.779 139.633 211.064 133.93 207.049 130.426C207.115 131.993 207.366 133.451 207.887 134.687C211.007 142.1 223.894 146.373 227.34 142.431Z" fill="url(#paint58_linear_3093_165632)"/>
<path d="M222.872 122.203C223.481 122.366 224.176 121.751 224.424 120.828C224.672 119.906 224.379 119.026 223.77 118.862C223.162 118.699 222.467 119.314 222.219 120.237C221.971 121.159 222.264 122.039 222.872 122.203Z" fill="#123844"/>
<path d="M230.257 123.203C230.866 123.366 231.561 122.751 231.809 121.828C232.056 120.906 231.764 120.026 231.155 119.862C230.546 119.699 229.852 120.314 229.604 121.237C229.356 122.159 229.648 123.039 230.257 123.203Z" fill="#123844"/>
<path d="M224.309 113.324C223.081 112.93 219.965 113.735 218.804 114.845C217.643 115.956 220.403 115.055 222.545 115.245C225.394 115.498 226.486 114.023 224.309 113.324Z" fill="#184151"/>
<path d="M234.039 115.398C233.316 114.744 230.919 114.33 229.774 114.734C228.629 115.138 230.809 115.376 232.225 116.173C234.108 117.232 235.319 116.556 234.039 115.398Z" fill="#184151"/>
<path opacity="0.55" d="M226.02 128.444C226.02 128.444 230.07 128.103 230.103 127.441C230.137 126.78 227.765 122.125 227.765 122.125L226.02 128.444Z" fill="url(#paint59_linear_3093_165632)"/>
<path opacity="0.77" d="M224.629 134.657C223.686 135.801 221.691 136.183 220.328 135.32C219.091 134.547 218.343 133.273 217.906 131.94C217.308 130.142 217.255 128.241 217.283 127.297C217.278 126.919 217.301 126.695 217.301 126.695L224.789 131.821C225.028 132.272 225.145 132.705 225.15 133.083C225.196 133.707 224.986 134.239 224.629 134.657Z" fill="url(#paint60_linear_3093_165632)"/>
<path d="M224.629 134.656C223.686 135.8 221.691 136.182 220.328 135.319C219.09 134.546 218.343 133.272 217.906 131.939C218.94 131.885 220.118 132.071 221.292 132.503C222.683 133.015 223.847 133.79 224.629 134.656Z" fill="url(#paint61_linear_3093_165632)"/>
<path d="M225.151 133.083C222.22 131.539 219.634 129.566 217.284 127.297C217.279 126.919 217.302 126.695 217.302 126.695L224.789 131.821C225.03 132.272 225.146 132.705 225.151 133.083Z" fill="#FAFAFA"/>
<path d="M317.134 237.369L267.703 265.095C266.942 265.524 266.056 265.677 265.198 265.538L236.838 260.784C236.243 260.687 235.786 260.341 235.51 259.9C234.971 259.084 235.054 257.909 235.953 257.232L269.335 231.662C270.124 231.054 271.119 230.778 272.116 230.874L314.283 235.007L316.69 235.243C317.798 235.351 318.116 236.83 317.134 237.369Z" fill="url(#paint62_linear_3093_165632)"/>
<path opacity="0.11" d="M317.132 237.37L267.701 265.096C266.94 265.525 266.054 265.677 265.196 265.539L236.836 260.785C236.241 260.687 235.784 260.342 235.508 259.9C254.267 253.957 295.204 240.992 314.281 235.008L316.689 235.243C317.796 235.352 318.114 236.83 317.132 237.37Z" fill="url(#paint63_linear_3093_165632)"/>
<path d="M302.032 231.405C302.302 230.682 301.834 229.897 301.071 229.787L295.945 229.055C295.447 228.984 294.957 229.229 294.715 229.67L294.093 230.803C293.848 231.249 293.348 231.494 292.844 231.415L289.868 230.944C289.493 230.884 289.111 231.005 288.839 231.269L284.92 235.052C284.172 235.773 284.623 237.038 285.658 237.124L302.598 238.542C303.032 238.578 303.453 238.377 303.698 238.018L305.629 235.184C306.127 234.452 305.695 233.45 304.819 233.311L302.977 233.02C302.221 232.9 301.765 232.119 302.032 231.405Z" fill="white"/>
<path d="M173.963 222.608C173.838 223.382 173.672 224.433 173.465 225.663C173.229 227.142 172.953 228.91 172.622 230.833C172.373 232.367 172.083 234.012 171.791 235.698C171.625 236.679 171.431 237.702 171.252 238.712C171.238 238.767 171.238 238.809 171.225 238.863C169.648 247.446 167.766 256.319 166.452 258.296C165.955 259.043 165.193 259.775 164.225 260.397C161.389 262.276 156.74 263.369 151.636 261.806C148.951 260.991 146.129 259.443 143.39 256.872C140.762 254.411 139.365 250.237 138.729 245.47C137.277 234.647 139.738 220.716 140.541 216.61C140.693 215.836 141.067 215.13 141.648 214.606C156.409 201.006 169.552 215.09 173.205 219.693C173.852 220.507 174.128 221.571 173.963 222.608Z" fill="#FCD0D7"/>
<path d="M150.846 243.288C151.082 243.163 152.934 242.265 155.619 241.297C153.806 242.237 152.146 242.969 150.846 243.288Z" fill="url(#paint64_linear_3093_165632)"/>
<path d="M172.621 230.831C172.372 232.365 172.082 234.01 171.79 235.696C171.61 236.733 171.417 237.797 171.223 238.861C165.979 238.073 159.795 239.774 155.617 241.293C162.756 237.562 172.26 230.402 172.26 230.402C172.26 230.402 172.4 230.555 172.621 230.831Z" fill="url(#paint65_linear_3093_165632)"/>
<path d="M242.874 258.616C242.874 258.616 241.501 251.045 242.353 249.644C243.206 248.242 247.552 245.634 249.049 247.494C249.467 248.014 247.335 248.88 246.817 249.484C245.755 250.724 247.594 252.548 248.422 253.954C249.005 254.944 249.248 256.277 248.428 257.965C245.876 263.219 243.747 261.046 242.874 258.616Z" fill="#FCD0D7"/>
<path d="M256.223 256.805C256.306 260.454 253.982 263.73 250.495 264.821C248.96 265.457 247.437 265.775 246.082 265.914C244.394 266.108 242.942 266.024 242.057 265.969C241.005 265.887 232.747 266.025 227.226 266.122C226.963 266.136 226.714 266.095 226.466 266.054C219.368 266.952 209.477 268.127 199.046 268.721C180.77 269.771 160.863 269.025 151.635 261.81C150.57 260.995 149.642 260.069 148.882 259.06C147.263 256.932 146.323 254.844 145.894 252.855C145.7 251.983 145.604 251.126 145.604 250.298C145.562 242.005 154.139 235.951 158.678 236.117C160.061 236.172 164.778 237.181 171.253 238.714C190.703 243.33 225.94 252.646 233.383 254.623C233.534 254.664 233.687 254.72 233.826 254.774L236.33 255.354C236.33 255.354 239.415 256.488 241.878 253.709C244.341 250.917 249.943 248.278 252.793 248.926C254.175 249.244 256.14 253.847 256.223 256.805Z" fill="#FCD0D7"/>
<path d="M176.052 222.069C176.025 222.456 175.969 223.077 175.928 223.741C175.789 225.469 174.503 226.879 172.802 227.197C170.948 227.543 168.969 227.694 166.949 227.708C162.356 227.736 157.473 227.003 153.059 226.05C150.735 225.539 148.549 224.972 146.585 224.405C144.288 223.755 142.31 223.12 140.816 222.608C139.115 222.029 138.063 220.328 138.299 218.531C138.381 217.91 138.479 217.204 138.589 216.416C139.598 209.491 141.895 196.319 146.349 181.502C150.07 169.063 155.314 162.469 159.133 159.097C162.011 156.554 164.099 155.85 164.099 155.85C164.403 155.684 164.694 155.573 165.012 155.477C166.603 154.91 168.319 155.063 169.978 155.795C170.02 155.81 170.047 155.822 170.089 155.851C174.516 157.896 178.528 164.2 178.68 173.239C178.86 183.714 176.868 211.302 176.052 222.069Z" fill="url(#paint66_linear_3093_165632)"/>
<path d="M234.308 110.695C231.873 111.525 227.668 110.323 227.668 110.323C224.776 112.631 220.585 113.253 218.066 113.419C218.052 113.419 218.052 113.419 218.039 113.419C217.209 113.475 216.558 113.475 216.199 113.475H215.868C215.868 113.475 213.378 119.57 212.174 121.422C212.05 121.602 211.952 121.741 211.855 121.836C211.841 121.851 211.675 121.933 211.468 122.016C211.178 122.141 210.776 122.293 210.486 122.335C209.697 122.445 208.715 122.459 207.871 122.418C206.558 122.362 205.423 121.478 205.104 120.207C204.731 118.769 203.983 116.599 204.385 113.919C204.551 112.772 204.938 111.541 205.671 110.214C205.796 109.978 205.92 109.744 206.073 109.508C212.271 99.5571 220.115 99.5287 226.714 100.511C233.297 101.49 236.728 109.893 234.308 110.695Z" fill="#184151"/>
<path d="M218.038 113.635C217.209 113.691 216.559 113.908 216.199 113.908H215.867C215.867 113.908 213.07 120.198 211.866 122.05C211.839 122.05 209.445 123.069 208.522 122.321C206.728 120.865 204.19 129.545 204.19 129.545C204.19 129.545 201.948 128.292 200.094 125.555C198.531 123.26 197.466 115.271 198.116 108.609C198.213 107.531 198.365 106.473 198.572 105.492C200.149 106.943 202.473 108.818 205.669 110.324C208.894 111.872 212.99 113.248 218.038 113.635Z" fill="#1D4B59"/>
<path d="M209.519 119.269C209.519 119.269 209.262 113.297 205.121 112.9C200.981 112.502 198.301 125.261 207.72 124.227C207.72 124.227 209.695 122.979 209.519 119.269Z" fill="#FCD0D7"/>
<path opacity="0.48" d="M188.213 144.902C184.022 146.852 176.55 150.679 170.091 155.849C166.175 158.972 162.634 162.594 160.393 166.589C155.717 174.923 159.204 186.81 156.796 201.004C155.566 208.261 152.784 216.111 146.587 224.405C144.29 223.755 142.312 223.119 140.818 222.608C139.117 222.028 138.065 220.327 138.3 218.531C138.383 217.909 138.481 217.204 138.591 216.415C139.6 209.49 141.897 196.319 146.351 181.502C150.072 169.062 155.316 162.469 159.135 159.097C164.849 152.159 173.398 146.962 185.448 145.248C186.386 145.109 187.3 144.998 188.213 144.902Z" fill="url(#paint67_linear_3093_165632)"/>
<path opacity="0.23" d="M246.083 265.913C244.395 266.107 242.942 266.023 242.057 265.968C241.005 265.885 232.747 266.024 227.227 266.121C226.964 266.135 226.715 266.094 226.466 266.052C219.369 266.951 209.477 268.126 199.046 268.72C180.771 269.77 160.864 269.024 151.635 261.809C148.951 260.994 146.129 259.446 143.39 256.875C140.761 254.414 139.365 250.24 138.729 245.473C150.017 256.434 157.253 257.498 164.226 260.4C173.232 264.173 182.916 266.357 190.94 263.8C212.618 256.889 244.202 264.491 244.202 264.491C244.894 264.973 245.515 265.443 246.083 265.913Z" fill="url(#paint68_linear_3093_165632)"/>
<path d="M175.607 239.73C175.607 239.73 235.96 261.961 243.223 255.567L236.327 255.353L175.607 239.73Z" fill="url(#paint69_linear_3093_165632)"/>
<path opacity="0.39" d="M206.681 121.581C202.185 122.277 202.655 115.555 204.876 115.425C206.977 115.312 207.642 118.643 207.766 119.151C207.366 119.197 206.633 118.676 206.209 119.914C205.972 120.601 206.387 121.216 206.681 121.581Z" fill="url(#paint70_linear_3093_165632)"/>
</g>
<defs>
<linearGradient id="paint0_linear_3093_165632" x1="240" y1="638.001" x2="240" y2="0" gradientUnits="userSpaceOnUse">
<stop stop-color="#099699"/>
<stop offset="1" stop-color="#099699" stop-opacity="0"/>
</linearGradient>
<linearGradient id="paint1_linear_3093_165632" x1="220.084" y1="612.208" x2="220.084" y2="203" gradientUnits="userSpaceOnUse">
<stop stop-color="white" stop-opacity="0"/>
<stop offset="1" stop-color="white"/>
</linearGradient>
<linearGradient id="paint2_linear_3093_165632" x1="139.758" y1="589.445" x2="139.758" y2="218.301" gradientUnits="userSpaceOnUse">
<stop stop-color="white" stop-opacity="0"/>
<stop offset="1" stop-color="white"/>
</linearGradient>
<linearGradient id="paint3_linear_3093_165632" x1="112.143" y1="612.208" x2="112.143" y2="460.355" gradientUnits="userSpaceOnUse">
<stop stop-color="white" stop-opacity="0"/>
<stop offset="1" stop-color="white"/>
</linearGradient>
<linearGradient id="paint4_linear_3093_165632" x1="221.548" y1="557.025" x2="221.548" y2="504.386" gradientUnits="userSpaceOnUse">
<stop/>
<stop offset="1" stop-opacity="0"/>
</linearGradient>
<linearGradient id="paint5_linear_3093_165632" x1="327.492" y1="354.604" x2="327.492" y2="70.8989" gradientUnits="userSpaceOnUse">
<stop stop-color="#5F8ACB"/>
<stop offset="0.427" stop-color="#9EB8DC"/>
<stop offset="0.8115" stop-color="#D0DDEB"/>
<stop offset="1" stop-color="#E4EBF0"/>
</linearGradient>
<linearGradient id="paint6_linear_3093_165632" x1="175.694" y1="129.786" x2="175.694" y2="80.3934" gradientUnits="userSpaceOnUse">
<stop stop-color="#77C5AC"/>
<stop offset="0.4119" stop-color="#64B5B4"/>
<stop offset="1" stop-color="#4198C1"/>
</linearGradient>
<linearGradient id="paint7_linear_3093_165632" x1="101.562" y1="121.386" x2="101.562" y2="64.7266" gradientUnits="userSpaceOnUse">
<stop stop-color="#77C5AC"/>
<stop offset="0.4119" stop-color="#64B5B4"/>
<stop offset="1" stop-color="#4198C1"/>
</linearGradient>
<linearGradient id="paint8_linear_3093_165632" x1="175.499" y1="180.227" x2="175.499" y2="137.649" gradientUnits="userSpaceOnUse">
<stop stop-color="#77C5AC"/>
<stop offset="0.4119" stop-color="#64B5B4"/>
<stop offset="1" stop-color="#4198C1"/>
</linearGradient>
<linearGradient id="paint9_linear_3093_165632" x1="100.153" y1="181.607" x2="100.153" y2="131.747" gradientUnits="userSpaceOnUse">
<stop stop-color="#77C5AC"/>
<stop offset="0.4119" stop-color="#64B5B4"/>
<stop offset="1" stop-color="#4198C1"/>
</linearGradient>
<linearGradient id="paint10_linear_3093_165632" x1="90.5002" y1="83.4814" x2="90.5002" y2="56.5626" gradientUnits="userSpaceOnUse">
<stop stop-color="#F38764"/>
<stop offset="0.6627" stop-color="#F69F95"/>
<stop offset="1" stop-color="#F7A8A8"/>
</linearGradient>
<linearGradient id="paint11_linear_3093_165632" x1="193.152" y1="101.185" x2="193.152" y2="78.0018" gradientUnits="userSpaceOnUse">
<stop offset="0.0056" stop-color="#BEADE7"/>
<stop offset="0.0554" stop-color="#C7B5E9"/>
<stop offset="0.1925" stop-color="#D9C7EE"/>
<stop offset="0.355" stop-color="#E6D4F1"/>
<stop offset="0.5657" stop-color="#EEDBF3"/>
<stop offset="1" stop-color="#F0DDF4"/>
</linearGradient>
<linearGradient id="paint12_linear_3093_165632" x1="187.732" y1="84.6699" x2="187.732" y2="82.1207" gradientUnits="userSpaceOnUse">
<stop stop-color="white" stop-opacity="0"/>
<stop offset="1" stop-color="white"/>
</linearGradient>
<linearGradient id="paint13_linear_3093_165632" x1="187.71" y1="87.9176" x2="187.71" y2="85.4094" gradientUnits="userSpaceOnUse">
<stop stop-color="white" stop-opacity="0"/>
<stop offset="1" stop-color="white"/>
</linearGradient>
<linearGradient id="paint14_linear_3093_165632" x1="91.6395" y1="134.442" x2="91.6395" y2="174.02" gradientUnits="userSpaceOnUse">
<stop stop-color="#70A7C1"/>
<stop offset="0.5946" stop-color="#94BABE"/>
<stop offset="1" stop-color="#A7C5BC"/>
</linearGradient>
<linearGradient id="paint15_linear_3093_165632" x1="84.8383" y1="146.672" x2="97.6419" y2="146.672" gradientUnits="userSpaceOnUse">
<stop stop-color="#F7A8A8"/>
<stop offset="0.3373" stop-color="#F69F95"/>
<stop offset="1" stop-color="#F38764"/>
</linearGradient>
<linearGradient id="paint16_linear_3093_165632" x1="203.553" y1="102.653" x2="154.935" y2="102.653" gradientUnits="userSpaceOnUse">
<stop stop-color="white" stop-opacity="0"/>
<stop offset="1" stop-color="white"/>
</linearGradient>
<linearGradient id="paint17_linear_3093_165632" x1="203.542" y1="109.845" x2="154.813" y2="109.845" gradientUnits="userSpaceOnUse">
<stop stop-color="white" stop-opacity="0"/>
<stop offset="1" stop-color="white"/>
</linearGradient>
<linearGradient id="paint18_linear_3093_165632" x1="203.531" y1="117.044" x2="154.691" y2="117.044" gradientUnits="userSpaceOnUse">
<stop stop-color="white" stop-opacity="0"/>
<stop offset="1" stop-color="white"/>
</linearGradient>
<linearGradient id="paint19_linear_3093_165632" x1="135.545" y1="82.0605" x2="112.113" y2="82.0605" gradientUnits="userSpaceOnUse">
<stop stop-color="white" stop-opacity="0"/>
<stop offset="1" stop-color="white"/>
</linearGradient>
<linearGradient id="paint20_linear_3093_165632" x1="135.503" y1="90.8714" x2="112.012" y2="90.8714" gradientUnits="userSpaceOnUse">
<stop stop-color="white" stop-opacity="0"/>
<stop offset="1" stop-color="white"/>
</linearGradient>
<linearGradient id="paint21_linear_3093_165632" x1="131.261" y1="142.318" x2="113.559" y2="142.318" gradientUnits="userSpaceOnUse">
<stop stop-color="white" stop-opacity="0"/>
<stop offset="1" stop-color="white"/>
</linearGradient>
<linearGradient id="paint22_linear_3093_165632" x1="131.134" y1="148.229" x2="113.403" y2="148.229" gradientUnits="userSpaceOnUse">
<stop stop-color="white" stop-opacity="0"/>
<stop offset="1" stop-color="white"/>
</linearGradient>
<linearGradient id="paint23_linear_3093_165632" x1="130.765" y1="165.717" x2="112.949" y2="165.717" gradientUnits="userSpaceOnUse">
<stop stop-color="white" stop-opacity="0"/>
<stop offset="1" stop-color="white"/>
</linearGradient>
<linearGradient id="paint24_linear_3093_165632" x1="176.014" y1="146.116" x2="152.682" y2="148.827" gradientUnits="userSpaceOnUse">
<stop stop-color="white" stop-opacity="0"/>
<stop offset="1" stop-color="white"/>
</linearGradient>
<linearGradient id="paint25_linear_3093_165632" x1="205.592" y1="146.971" x2="182.259" y2="149.682" gradientUnits="userSpaceOnUse">
<stop stop-color="white" stop-opacity="0"/>
<stop offset="1" stop-color="white"/>
</linearGradient>
<linearGradient id="paint26_linear_3093_165632" x1="176.014" y1="157.038" x2="152.682" y2="159.749" gradientUnits="userSpaceOnUse">
<stop stop-color="white" stop-opacity="0"/>
<stop offset="1" stop-color="white"/>
</linearGradient>
<linearGradient id="paint27_linear_3093_165632" x1="124.025" y1="249.196" x2="124.025" y2="185.086" gradientUnits="userSpaceOnUse">
<stop stop-color="white" stop-opacity="0"/>
<stop offset="1" stop-color="#F5FFFA"/>
</linearGradient>
<linearGradient id="paint28_linear_3093_165632" x1="125.504" y1="242.264" x2="125.504" y2="203.632" gradientUnits="userSpaceOnUse">
<stop stop-color="#A1BEFF"/>
<stop offset="0.6572" stop-color="#ACECE8"/>
<stop offset="1" stop-color="#B0FFDF"/>
</linearGradient>
<linearGradient id="paint29_linear_3093_165632" x1="117.446" y1="212.519" x2="117.446" y2="203.63" gradientUnits="userSpaceOnUse">
<stop/>
<stop offset="1" stop-opacity="0"/>
</linearGradient>
<linearGradient id="paint30_linear_3093_165632" x1="133.565" y1="212.519" x2="133.565" y2="203.63" gradientUnits="userSpaceOnUse">
<stop/>
<stop offset="1" stop-opacity="0"/>
</linearGradient>
<linearGradient id="paint31_linear_3093_165632" x1="133.563" y1="242.262" x2="133.563" y2="221.023" gradientUnits="userSpaceOnUse">
<stop stop-opacity="0"/>
<stop offset="1"/>
</linearGradient>
<linearGradient id="paint32_linear_3093_165632" x1="119.597" y1="226.303" x2="119.597" y2="214.3" gradientUnits="userSpaceOnUse">
<stop stop-color="white" stop-opacity="0"/>
<stop offset="1" stop-color="white"/>
</linearGradient>
<linearGradient id="paint33_linear_3093_165632" x1="113.996" y1="205.631" x2="113.996" y2="197.196" gradientUnits="userSpaceOnUse">
<stop stop-color="#F38764"/>
<stop offset="0.6627" stop-color="#F69F95"/>
<stop offset="1" stop-color="#F7A8A8"/>
</linearGradient>
<linearGradient id="paint34_linear_3093_165632" x1="137.013" y1="205.631" x2="137.013" y2="197.196" gradientUnits="userSpaceOnUse">
<stop stop-color="#F38764"/>
<stop offset="0.6627" stop-color="#F69F95"/>
<stop offset="1" stop-color="#F7A8A8"/>
</linearGradient>
<linearGradient id="paint35_linear_3093_165632" x1="112.757" y1="209.998" x2="112.757" y2="203.63" gradientUnits="userSpaceOnUse">
<stop stop-color="#F38764"/>
<stop offset="0.6627" stop-color="#F69F95"/>
<stop offset="1" stop-color="#F7A8A8"/>
</linearGradient>
<linearGradient id="paint36_linear_3093_165632" x1="125.504" y1="205.631" x2="125.504" y2="197.196" gradientUnits="userSpaceOnUse">
<stop stop-color="#ABABAB"/>
<stop offset="0.1554" stop-color="#C5C5C5"/>
<stop offset="0.3492" stop-color="#DFDFDF"/>
<stop offset="0.5504" stop-color="#F1F1F1"/>
<stop offset="0.7618" stop-color="#FBFBFB"/>
<stop offset="1" stop-color="white"/>
</linearGradient>
<linearGradient id="paint37_linear_3093_165632" x1="125.504" y1="209.998" x2="125.504" y2="203.63" gradientUnits="userSpaceOnUse">
<stop stop-color="white"/>
<stop offset="1" stop-color="#D6D6D6"/>
</linearGradient>
<linearGradient id="paint38_linear_3093_165632" x1="138.254" y1="209.998" x2="138.254" y2="203.63" gradientUnits="userSpaceOnUse">
<stop stop-color="#F38764"/>
<stop offset="0.6627" stop-color="#F69F95"/>
<stop offset="1" stop-color="#F7A8A8"/>
</linearGradient>
<linearGradient id="paint39_linear_3093_165632" x1="82.8081" y1="276.808" x2="153.791" y2="276.808" gradientUnits="userSpaceOnUse">
<stop stop-color="white" stop-opacity="0"/>
<stop offset="1" stop-color="white"/>
</linearGradient>
<linearGradient id="paint40_linear_3093_165632" x1="138.806" y1="274.342" x2="148.064" y2="274.342" gradientUnits="userSpaceOnUse">
<stop stop-color="#A1BEFF"/>
<stop offset="0.6572" stop-color="#ACECE8"/>
<stop offset="1" stop-color="#B0FFDF"/>
</linearGradient>
<linearGradient id="paint41_linear_3093_165632" x1="132.587" y1="279.276" x2="148.064" y2="279.276" gradientUnits="userSpaceOnUse">
<stop stop-color="#A1BEFF"/>
<stop offset="0.6572" stop-color="#ACECE8"/>
<stop offset="1" stop-color="#B0FFDF"/>
</linearGradient>
<linearGradient id="paint42_linear_3093_165632" x1="116.87" y1="284.128" x2="116.87" y2="269.14" gradientUnits="userSpaceOnUse">
<stop stop-color="#A1BEFF"/>
<stop offset="0.6572" stop-color="#ACECE8"/>
<stop offset="1" stop-color="#B0FFDF"/>
</linearGradient>
<linearGradient id="paint43_linear_3093_165632" x1="109.464" y1="284.128" x2="109.464" y2="269.14" gradientUnits="userSpaceOnUse">
<stop stop-color="#A1BEFF"/>
<stop offset="0.6572" stop-color="#ACECE8"/>
<stop offset="1" stop-color="#B0FFDF"/>
</linearGradient>
<linearGradient id="paint44_linear_3093_165632" x1="102.059" y1="284.128" x2="102.059" y2="269.14" gradientUnits="userSpaceOnUse">
<stop stop-color="#A1BEFF"/>
<stop offset="0.6572" stop-color="#ACECE8"/>
<stop offset="1" stop-color="#B0FFDF"/>
</linearGradient>
<linearGradient id="paint45_linear_3093_165632" x1="94.6522" y1="284.128" x2="94.6522" y2="269.14" gradientUnits="userSpaceOnUse">
<stop stop-color="#A1BEFF"/>
<stop offset="0.6572" stop-color="#ACECE8"/>
<stop offset="1" stop-color="#B0FFDF"/>
</linearGradient>
<linearGradient id="paint46_linear_3093_165632" x1="265.078" y1="536.996" x2="265.078" y2="510.693" gradientUnits="userSpaceOnUse">
<stop stop-color="#3C6A7C"/>
<stop offset="0.0106" stop-color="#3D6B7D"/>
<stop offset="0.4564" stop-color="#5782AA"/>
<stop offset="0.8008" stop-color="#6791C7"/>
<stop offset="1" stop-color="#6D96D1"/>
</linearGradient>
<linearGradient id="paint47_linear_3093_165632" x1="206.518" y1="381.886" x2="269.807" y2="381.886" gradientUnits="userSpaceOnUse">
<stop stop-color="#184151"/>
<stop offset="0.5518" stop-color="#21596F"/>
<stop offset="1" stop-color="#276982"/>
</linearGradient>
<linearGradient id="paint48_linear_3093_165632" x1="205.482" y1="540.878" x2="205.482" y2="514.576" gradientUnits="userSpaceOnUse">
<stop stop-color="#3C6A7C"/>
<stop offset="0.0106" stop-color="#3D6B7D"/>
<stop offset="0.4564" stop-color="#5782AA"/>
<stop offset="0.8008" stop-color="#6791C7"/>
<stop offset="1" stop-color="#6D96D1"/>
</linearGradient>
<linearGradient id="paint49_linear_3093_165632" x1="174.48" y1="387.89" x2="233.793" y2="387.89" gradientUnits="userSpaceOnUse">
<stop stop-color="#184151"/>
<stop offset="0.5518" stop-color="#21596F"/>
<stop offset="1" stop-color="#276982"/>
</linearGradient>
<linearGradient id="paint50_linear_3093_165632" x1="256.54" y1="227.319" x2="263.284" y2="227.319" gradientUnits="userSpaceOnUse">
<stop stop-color="#FF7BAC" stop-opacity="0"/>
<stop offset="0.9021" stop-color="#FF7BAC" stop-opacity="0.9021"/>
<stop offset="1" stop-color="#FF7BAC"/>
</linearGradient>
<linearGradient id="paint51_linear_3093_165632" x1="219.729" y1="195.837" x2="263.693" y2="195.837" gradientUnits="userSpaceOnUse">
<stop stop-color="#4198C1"/>
<stop offset="0.5881" stop-color="#64B5B4"/>
<stop offset="1" stop-color="#77C5AC"/>
</linearGradient>
<linearGradient id="paint52_linear_3093_165632" x1="252.107" y1="230.848" x2="252.107" y2="187.093" gradientUnits="userSpaceOnUse">
<stop/>
<stop offset="1" stop-opacity="0"/>
</linearGradient>
<linearGradient id="paint53_linear_3093_165632" x1="210.372" y1="298.756" x2="210.372" y2="144.488" gradientUnits="userSpaceOnUse">
<stop stop-color="#4198C1"/>
<stop offset="0.5881" stop-color="#64B5B4"/>
<stop offset="1" stop-color="#77C5AC"/>
</linearGradient>
<linearGradient id="paint54_linear_3093_165632" x1="217.252" y1="221.019" x2="271.206" y2="221.019" gradientUnits="userSpaceOnUse">
<stop stop-color="white" stop-opacity="0"/>
<stop offset="1" stop-color="white"/>
</linearGradient>
<linearGradient id="paint55_linear_3093_165632" x1="177.309" y1="297.274" x2="177.309" y2="179.083" gradientUnits="userSpaceOnUse">
<stop/>
<stop offset="1" stop-opacity="0"/>
</linearGradient>
<linearGradient id="paint56_linear_3093_165632" x1="212.366" y1="168.356" x2="212.366" y2="152.062" gradientUnits="userSpaceOnUse">
<stop/>
<stop offset="1" stop-opacity="0"/>
</linearGradient>
<linearGradient id="paint57_linear_3093_165632" x1="201.964" y1="132.608" x2="221.374" y2="132.608" gradientUnits="userSpaceOnUse">
<stop stop-color="#FF7BAC"/>
<stop offset="0.0979" stop-color="#FF7BAC" stop-opacity="0.9021"/>
<stop offset="1" stop-color="#FF7BAC" stop-opacity="0"/>
</linearGradient>
<linearGradient id="paint58_linear_3093_165632" x1="218.724" y1="143.929" x2="218.724" y2="130.426" gradientUnits="userSpaceOnUse">
<stop stop-color="#FF7BAC"/>
<stop offset="0.0979" stop-color="#FF7BAC" stop-opacity="0.9021"/>
<stop offset="1" stop-color="#FF7BAC" stop-opacity="0"/>
</linearGradient>
<linearGradient id="paint59_linear_3093_165632" x1="226.635" y1="125.184" x2="230.425" y2="126.58" gradientUnits="userSpaceOnUse">
<stop stop-color="#FF7BAC" stop-opacity="0"/>
<stop offset="1" stop-color="#FF7BAC"/>
</linearGradient>
<linearGradient id="paint60_linear_3093_165632" x1="221.886" y1="128.374" x2="219.431" y2="135.053" gradientUnits="userSpaceOnUse">
<stop stop-color="#FF7BAC"/>
<stop offset="1" stop-color="#FF7BAC" stop-opacity="0"/>
</linearGradient>
<linearGradient id="paint61_linear_3093_165632" x1="221.528" y1="132.584" x2="220.479" y2="135.437" gradientUnits="userSpaceOnUse">
<stop stop-color="#FF7BAC"/>
<stop offset="1" stop-color="#FF7BAC" stop-opacity="0"/>
</linearGradient>
<linearGradient id="paint62_linear_3093_165632" x1="276.448" y1="265.587" x2="276.448" y2="230.854" gradientUnits="userSpaceOnUse">
<stop stop-color="#FF931E"/>
<stop offset="0.2776" stop-color="#FFA62D"/>
<stop offset="0.8371" stop-color="#FFD752"/>
<stop offset="1" stop-color="#FFE65E"/>
</linearGradient>
<linearGradient id="paint63_linear_3093_165632" x1="276.614" y1="265.588" x2="276.614" y2="235.006" gradientUnits="userSpaceOnUse">
<stop/>
<stop offset="1" stop-opacity="0"/>
</linearGradient>
<linearGradient id="paint64_linear_3093_165632" x1="153.232" y1="243.288" x2="153.232" y2="241.297" gradientUnits="userSpaceOnUse">
<stop stop-color="#FF7BAC"/>
<stop offset="0.0979" stop-color="#FF7BAC" stop-opacity="0.9021"/>
<stop offset="1" stop-color="#FF7BAC" stop-opacity="0"/>
</linearGradient>
<linearGradient id="paint65_linear_3093_165632" x1="164.12" y1="241.294" x2="164.12" y2="230.402" gradientUnits="userSpaceOnUse">
<stop stop-color="#FF7BAC"/>
<stop offset="0.0979" stop-color="#FF7BAC" stop-opacity="0.9021"/>
<stop offset="1" stop-color="#FF7BAC" stop-opacity="0"/>
</linearGradient>
<linearGradient id="paint66_linear_3093_165632" x1="138.265" y1="191.42" x2="178.692" y2="191.42" gradientUnits="userSpaceOnUse">
<stop stop-color="#4198C1"/>
<stop offset="0.5881" stop-color="#64B5B4"/>
<stop offset="1" stop-color="#77C5AC"/>
</linearGradient>
<linearGradient id="paint67_linear_3093_165632" x1="163.239" y1="224.404" x2="163.239" y2="144.902" gradientUnits="userSpaceOnUse">
<stop stop-color="white" stop-opacity="0"/>
<stop offset="1" stop-color="white"/>
</linearGradient>
<linearGradient id="paint68_linear_3093_165632" x1="138.727" y1="257.286" x2="246.083" y2="257.286" gradientUnits="userSpaceOnUse">
<stop stop-color="#FF7BAC"/>
<stop offset="0.0979" stop-color="#FF7BAC" stop-opacity="0.9021"/>
<stop offset="1" stop-color="#FF7BAC" stop-opacity="0"/>
</linearGradient>
<linearGradient id="paint69_linear_3093_165632" x1="175.607" y1="248.227" x2="243.223" y2="248.227" gradientUnits="userSpaceOnUse">
<stop stop-color="#FF7BAC"/>
<stop offset="0.0979" stop-color="#FF7BAC" stop-opacity="0.9021"/>
<stop offset="1" stop-color="#FF7BAC" stop-opacity="0"/>
</linearGradient>
<linearGradient id="paint70_linear_3093_165632" x1="204.815" y1="121.427" x2="206.147" y2="115.638" gradientUnits="userSpaceOnUse">
<stop stop-color="#FF7BAC"/>
<stop offset="1" stop-color="#FF7BAC" stop-opacity="0"/>
</linearGradient>
<clipPath id="clip0_3093_165632">
<rect width="470" height="612" fill="white"/>
</clipPath>
</defs>
</svg>
