<svg width="147" height="158" viewBox="0 0 147 158" fill="none" xmlns="http://www.w3.org/2000/svg">
<path opacity="0.68" d="M31.0932 41.2033C43.5313 36.1631 59.6063 37.9996 68.7763 28.2001C122.797 -29.5199 145.488 19.7867 146.602 28.4026C148.346 41.8752 141.019 54.5911 137.696 58.2374C132.952 63.4425 129.381 69.7086 127.319 76.4409C124.701 84.9941 124.528 94.1029 122.492 102.813C121.112 108.721 118.885 114.399 116.487 119.971C114.377 124.875 112.085 129.785 108.641 133.864C102.689 140.915 93.7498 144.882 84.7007 146.696C69.7338 149.696 43.5517 142.031 28.3305 134.575C-18.6671 111.555 1.5001 53.1956 31.0932 41.2033Z" fill="url(#paint0_linear_2381_125756)"/>
<path opacity="0.11" d="M70.4626 127.826L69.3592 127.769L69.4439 126.113L67.7879 126.028L68.2996 116.091L67.1962 116.034L67.2526 114.931L64.4916 114.789L64.4351 115.893L63.6267 115.851L63.3316 115.835L62.6504 129.084L62.7634 126.876L61.1074 126.791L61.8922 111.523L61.9142 111.107L61.9032 111.333L61.7274 111.324L61.6144 111.317L61.2722 111.3L61.1592 111.294L60.817 111.277L60.704 111.27L60.3618 111.253L60.2488 111.247L59.9066 111.229L59.7936 111.223L59.4467 111.207L59.3336 111.201L58.9915 111.184L58.8784 111.178L58.5896 111.164L58.789 107.299L58.5896 111.164L58.4217 111.156L58.0795 111.138L57.9665 111.132L57.6243 111.115L57.5113 111.109L57.1691 111.091L57.0561 111.085L56.7139 111.068L56.6008 111.061L56.3811 111.051L56.3921 110.824L56.3701 111.24L55.3294 131.477L54.6686 131.442L54.2259 131.419L54.2542 130.866L54.2353 130.864C54.2824 130.868 54.2573 130.822 54.2589 130.775L54.2652 130.643C54.2683 130.596 54.3091 130.315 54.262 130.314L54.0784 130.304L53.7299 130.287L54.2369 120.418L54.2683 119.798L51.5073 119.657L51.523 119.362L51.5355 119.104L49.327 118.991L49.3144 119.249L49.2987 119.544L49.2673 120.164L48.7603 130.033L48.2078 130.004L48.4637 125.036L44.5991 124.837L44.3998 128.701L44.2522 128.694L43.3214 117.452L44.18 114.074L42.9086 112.493L42.141 103.183L40.3123 112.432L39.5699 113.33L39.3517 117.472L38.7176 120.855L38.727 120.662L37.071 120.577L37.184 118.368L33.872 118.197L33.759 120.406L32.8815 120.36L32.1029 120.319L31.9899 122.528L31.4374 122.5L31.4594 122.063L31.4766 121.731L31.5112 121.062L31.5284 120.729L31.563 120.06L31.5802 119.728L31.6148 119.059L31.632 118.726L31.6666 118.058L31.6838 117.725L31.7184 117.056L31.7356 116.723L31.7702 116.055L31.7874 115.722L31.822 115.053L31.8392 114.72L31.8738 114.052L31.891 113.719L31.9256 113.05L31.9428 112.717L31.9774 112.049L31.9946 111.716L32.0323 110.972C32.0417 110.779 31.4986 110.595 30.9524 110.441L31.023 109.062C30.4956 108.567 29.9509 108.371 29.4 108.33L29.6448 103.584L29.0923 103.555L28.8474 108.305C27.7408 108.302 26.606 108.834 26.606 108.834L26.5337 110.234C25.9702 110.434 25.4067 110.631 25.4067 110.631L24.7286 123.796L24.6423 125.47L24.0898 125.441L24.005 127.097L23.0396 127.047L22.349 127.011L22.3773 126.458L21.1262 126.394L21.4841 114.589L19.522 112.94L19.2159 112.62L19.3823 109.399L16.7311 107.147L15.557 129.982L14.4535 129.926L14.7094 124.958H14.7078L16.1535 101.372L14.7879 101.915L14.8679 100.364L11.9766 102.775L10.8464 124.758L10.5859 129.728L9.48238 129.672L9.65347 126.36L11.355 93.2347L9.99566 93.1641C9.99566 93.1641 3.8912 98.468 3.54745 105.149L3.5396 105.299C3.50192 106.045 3.41716 106.913 3.3481 107.908C3.14404 110.956 2.85679 114.937 2.59151 118.798L1.79883 134.225L70.6683 151.688L70.0953 135.001L70.4626 127.826Z" fill="#184151"/>
<g opacity="0.8">
<path d="M115.946 131.846L116.443 128.593C117.922 128.399 119.358 128.042 120.731 127.538L122.681 130.193C123.31 131.05 124.525 131.235 125.382 130.606L131.322 126.243C132.179 125.614 132.364 124.399 131.735 123.542L129.785 120.888C130.677 119.728 131.448 118.464 132.074 117.111L135.326 117.609C136.376 117.769 137.367 117.042 137.529 115.992L138.643 108.707C138.803 107.657 138.076 106.666 137.026 106.505L133.774 106.007C133.579 104.529 133.223 103.092 132.719 101.719L135.373 99.7693C136.23 99.1398 136.416 97.9249 135.786 97.0679L131.424 91.1282C130.795 90.2712 129.58 90.086 128.723 90.7154L126.068 92.6649C124.908 91.7734 123.645 91.0026 122.292 90.3763L122.789 87.124C122.949 86.0739 122.223 85.0834 121.173 84.9217L113.888 83.8073C112.838 83.6472 111.847 84.3739 111.685 85.424L111.188 88.6764C109.709 88.871 108.273 89.2274 106.899 89.7312L104.95 87.0769C104.321 86.2199 103.106 86.0346 102.249 86.6641L96.3089 91.0262C95.4519 91.6556 95.2666 92.8706 95.8961 93.7276L97.8456 96.3819C96.954 97.5419 96.1833 98.8055 95.557 100.159L92.3047 99.661C91.2545 99.5009 90.2641 100.228 90.1024 101.278L88.9879 108.563C88.8278 109.613 89.5546 110.603 90.6047 110.765L93.8571 111.262C94.0517 112.741 94.408 114.177 94.9119 115.551L92.2576 117.5C91.4005 118.13 91.2153 119.345 91.8447 120.202L96.2069 126.141C96.8363 126.998 98.0512 127.184 98.9083 126.554L101.563 124.605C102.723 125.496 103.986 126.267 105.339 126.893L104.842 130.146C104.682 131.196 105.408 132.186 106.458 132.348L113.743 133.462C114.793 133.624 115.784 132.896 115.946 131.846ZM101.495 106.988C102.434 99.9969 108.979 95.189 115.931 96.3851C122.483 97.5121 127.023 103.695 126.139 110.283C125.2 117.274 118.655 122.082 111.703 120.886C105.151 119.758 100.611 113.576 101.495 106.988Z" fill="#A4D5D8"/>
<path d="M113.817 117.186C118.539 117.186 122.367 113.358 122.367 108.636C122.367 103.914 118.539 100.086 113.817 100.086C109.095 100.086 105.267 103.914 105.267 108.636C105.267 113.358 109.095 117.186 113.817 117.186Z" fill="#A4D5D8"/>
<path d="M113.816 111.872C115.603 111.872 117.052 110.423 117.052 108.635C117.052 106.848 115.603 105.398 113.816 105.398C112.028 105.398 110.579 106.848 110.579 108.635C110.579 110.423 112.028 111.872 113.816 111.872Z" fill="#A4D5D8"/>
<path d="M134.926 89.9133L135.124 88.623C135.711 88.5461 136.28 88.4048 136.825 88.2055L137.599 89.2587C137.849 89.5978 138.33 89.6715 138.671 89.422L141.027 87.6906C141.366 87.441 141.44 86.9591 141.19 86.6185L140.417 85.5653C140.77 85.1054 141.076 84.6031 141.324 84.0678L142.614 84.2656C143.03 84.3299 143.424 84.0411 143.488 83.6236L143.931 80.7338C143.995 80.3179 143.707 79.9239 143.289 79.8595L141.999 79.6617C141.922 79.0747 141.781 78.5049 141.581 77.9602L142.634 77.1864C142.974 76.9368 143.047 76.4549 142.798 76.1143L141.066 73.7582C140.817 73.4191 140.335 73.3454 139.994 73.5934L138.941 74.3672C138.481 74.014 137.979 73.708 137.444 73.46L137.641 72.1697C137.706 71.7537 137.417 71.3597 136.999 71.2954L134.11 70.8527C133.694 70.7884 133.3 71.0772 133.235 71.4947L133.038 72.785C132.45 72.8619 131.881 73.0032 131.336 73.2025L130.562 72.1493C130.313 71.8102 129.831 71.7364 129.49 71.986L127.134 73.7174C126.795 73.967 126.721 74.4488 126.971 74.7895L127.745 75.8427C127.391 76.3026 127.085 76.8034 126.837 77.3402L125.547 77.1424C125.131 77.078 124.737 77.3669 124.673 77.7844L124.232 80.6757C124.167 81.0917 124.456 81.4857 124.874 81.5501L126.164 81.7478C126.241 82.3349 126.382 82.9047 126.581 83.4494L125.528 84.2232C125.189 84.4728 125.115 84.9547 125.365 85.2953L127.096 87.6514C127.346 87.9904 127.828 88.0642 128.168 87.8146L129.222 87.0408C129.682 87.394 130.182 87.7 130.719 87.948L130.521 89.2383C130.457 89.6543 130.746 90.0483 131.163 90.1126L134.053 90.5553C134.469 90.6181 134.861 90.3292 134.926 89.9133ZM129.193 80.051C129.565 77.2774 132.163 75.3702 134.921 75.8443C137.52 76.2916 139.321 78.7435 138.971 81.3586C138.599 84.1322 136.001 86.0393 133.243 85.5653C130.644 85.1179 128.842 82.6645 129.193 80.051Z" fill="#A4D5D8"/>
<path d="M134.081 84.0966C135.954 84.0966 137.473 82.578 137.473 80.7046C137.473 78.8312 135.954 77.3125 134.081 77.3125C132.207 77.3125 130.688 78.8312 130.688 80.7046C130.688 82.578 132.207 84.0966 134.081 84.0966Z" fill="#A4D5D8"/>
<path d="M134.082 81.9899C134.791 81.9899 135.366 81.415 135.366 80.7059C135.366 79.9967 134.791 79.4219 134.082 79.4219C133.373 79.4219 132.798 79.9967 132.798 80.7059C132.798 81.415 133.373 81.9899 134.082 81.9899Z" fill="#A4D5D8"/>
<path d="M111.888 82.6992L112.234 80.4388C113.26 80.3039 114.259 80.0558 115.211 79.7058L116.564 81.5486C117.001 82.1435 117.845 82.2722 118.44 81.8359L122.565 78.8048C123.16 78.3684 123.289 77.524 122.852 76.929L121.499 75.0863C122.118 74.281 122.653 73.4036 123.089 72.4633L125.35 72.8087C126.08 72.9201 126.767 72.4147 126.88 71.6848L127.654 66.6241C127.766 65.8942 127.26 65.2067 126.53 65.0937L124.27 64.7484C124.135 63.7218 123.887 62.7235 123.537 61.7707L125.38 60.4161C125.975 59.9797 126.103 59.1352 125.667 58.5403L122.637 54.4152C122.201 53.8203 121.357 53.6916 120.762 54.128L118.92 55.4842C118.115 54.8657 117.238 54.3305 116.298 53.8941L116.643 51.6338C116.754 50.9039 116.249 50.2163 115.519 50.1033L110.458 49.3279C109.728 49.2165 109.041 49.7219 108.928 50.4518L108.583 52.7121C107.556 52.8471 106.558 53.0951 105.605 53.4452L104.25 51.6024C103.814 51.0075 102.969 50.8787 102.375 51.3151L98.2494 54.3462C97.6545 54.7825 97.5258 55.627 97.9622 56.2219L99.3152 58.0647C98.6968 58.87 98.1615 59.7474 97.7251 60.6876L95.4648 60.3423C94.7349 60.2309 94.0474 60.7363 93.9344 61.4662L93.159 66.5268C93.0475 67.2567 93.5529 67.9442 94.2828 68.0572L96.5432 68.4026C96.6782 69.4291 96.9262 70.4275 97.2762 71.3803L95.4334 72.7349C94.8385 73.1713 94.7098 74.0157 95.1462 74.6106L98.1772 78.7357C98.6136 79.3307 99.4581 79.4594 100.053 79.023L101.896 77.6699C102.701 78.2884 103.578 78.8237 104.519 79.26L104.173 81.5203C104.062 82.2502 104.567 82.9378 105.297 83.0508L110.358 83.8262C111.088 83.9345 111.777 83.4291 111.888 82.6992ZM101.85 65.4328C102.502 60.5762 107.049 57.2375 111.877 58.0678C116.428 58.8511 119.581 63.1457 118.968 67.7213C118.316 72.5779 113.769 75.9182 108.94 75.0863C104.39 74.303 101.236 70.0084 101.85 65.4328Z" fill="#A4D5D8"/>
<path d="M110.408 72.516C113.689 72.516 116.348 69.8567 116.348 66.5764C116.348 63.296 113.689 60.6367 110.408 60.6367C107.128 60.6367 104.469 63.296 104.469 66.5764C104.469 69.8567 107.128 72.516 110.408 72.516Z" fill="#A4D5D8"/>
<path d="M110.409 68.8268C111.652 68.8268 112.659 67.8197 112.659 66.5775C112.659 65.3352 111.652 64.3281 110.409 64.3281C109.167 64.3281 108.16 65.3352 108.16 66.5775C108.16 67.8197 109.167 68.8268 110.409 68.8268Z" fill="#A4D5D8"/>
</g>
<path d="M61.1589 41.6067L107.552 40.5126C109.426 40.4687 110.943 42.0289 110.844 43.9015L105.053 153.572C104.92 156.273 101.101 157.299 99.269 157.111L54.3528 151.748C52.6324 151.57 51.361 150.066 51.4693 148.341L58.0211 44.6236C58.1263 42.955 59.4888 41.6459 61.1589 41.6067Z" fill="url(#paint1_linear_2381_125756)"/>
<path d="M56.0701 41.9036L102.463 40.8095C104.338 40.7655 105.854 42.3258 105.755 44.1984L99.9644 153.868C99.8671 155.706 98.2503 157.091 96.4185 156.901L49.2639 152.044C47.5436 151.867 46.2721 150.363 46.3805 148.638L52.9323 44.9205C53.0374 43.2519 54.3999 41.9428 56.0701 41.9036Z" fill="url(#paint2_linear_2381_125756)"/>
<path opacity="0.17" d="M55.8352 47.9886L101.152 46.8286C102.087 46.8051 102.845 47.5805 102.801 48.5145L98.083 147.418C98.0375 148.379 97.1631 149.087 96.2135 148.93L50.481 144.757C49.6664 144.624 49.0856 143.896 49.1358 143.072L54.2702 49.4987C54.3205 48.6667 55.0001 48.009 55.8352 47.9886Z" fill="#5D5D5D"/>
<path d="M71.8583 66.9759L71.9587 60.3817C72.0105 56.9849 74.8156 54.2615 78.2139 54.3133C81.6122 54.3651 84.3341 57.1701 84.2823 60.5685L84.1818 67.1627L86.0372 67.1909L86.1376 60.5967C86.2051 56.1765 82.6624 52.5255 78.2421 52.458C73.8219 52.3905 70.1709 55.9332 70.1034 60.3534L70.0029 66.9476L71.8583 66.9759Z" fill="#173E98"/>
<path d="M91.0543 65.6622L87.3829 65.6072L68.7022 65.3247L65.0307 65.2698C64.0183 65.2541 63.1769 66.0703 63.1612 67.0843L63.1016 70.9881L62.8646 86.6L62.8049 90.5038C62.7892 91.5163 63.6054 92.3576 64.6195 92.3733L68.2909 92.4283L86.9716 92.7108L90.6431 92.7657C91.6555 92.7814 92.4969 91.9652 92.5126 90.9512L92.5722 87.0474L92.8092 71.4354L92.8689 67.5317C92.8846 66.5192 92.0683 65.6779 91.0543 65.6622Z" fill="url(#paint3_linear_2381_125756)"/>
<path opacity="0.65" d="M63.0845 72.293L62.9087 83.9258C62.9009 84.403 62.9809 84.8645 63.1348 85.2993L92.348 85.7419C92.5143 85.3118 92.6085 84.8535 92.6148 84.3763L92.7906 72.7435L63.0845 72.293Z" fill="white"/>
<g opacity="0.57">
<path d="M63.0449 74.839L64.2489 72.3102L63.0842 72.293L63.0449 74.839Z" fill="#173E98"/>
<path d="M67.6309 72.3594L62.9329 82.2279L62.9078 83.9216C62.8999 84.3988 62.98 84.8603 63.1338 85.2951L64.9719 85.3233L71.1187 72.4112L67.6309 72.3594Z" fill="#173E98"/>
<path d="M77.9847 72.5166L74.4984 72.4648L68.3516 85.3754L71.8378 85.4288L77.9847 72.5166Z" fill="#173E98"/>
<path d="M84.8557 72.6237L81.3679 72.5703L75.2227 85.4824L78.7089 85.5358L84.8557 72.6237Z" fill="#173E98"/>
<path d="M92.6112 84.3753L92.7101 77.8047L88.957 85.6892L92.3444 85.741C92.5108 85.3109 92.605 84.8525 92.6112 84.3753Z" fill="#173E98"/>
<path d="M91.7229 72.7252L88.2351 72.6719L82.0898 85.584L85.5761 85.6374L91.7229 72.7252Z" fill="#173E98"/>
</g>
<path opacity="0.47" d="M92.6821 106.205H62.9948C61.2682 106.205 59.8555 104.792 59.8555 103.065V100.1C59.8555 98.3736 61.2682 96.9609 62.9948 96.9609H92.6805C94.4071 96.9609 95.8198 98.3736 95.8198 100.1V103.065C95.8214 104.792 94.4087 106.205 92.6821 106.205Z" fill="white"/>
<path opacity="0.57" d="M67.3443 99.9258L66.6097 99.9274C65.6993 99.9305 64.9568 100.678 64.96 101.588L64.9615 102.323C64.9647 103.233 65.7118 103.976 66.6223 103.972L67.3569 103.971C68.2673 103.968 69.0097 103.221 69.0066 102.31L69.005 101.576C69.0003 100.667 68.2547 99.9242 67.3443 99.9258Z" fill="#184151"/>
<path opacity="0.57" d="M74.2759 99.9063L73.5413 99.9078C72.6309 99.911 71.8885 100.658 71.8916 101.569L71.8932 102.303C71.8963 103.214 72.6435 103.956 73.5539 103.953L74.2885 103.951C75.1989 103.948 75.9414 103.201 75.9382 102.291L75.9367 101.556C75.932 100.646 75.1848 99.9031 74.2759 99.9063Z" fill="#184151"/>
<path opacity="0.57" d="M81.2076 99.8867L80.473 99.8883C79.5626 99.8914 78.8201 100.639 78.8233 101.549L78.8248 102.284C78.828 103.194 79.5751 103.936 80.4855 103.933L81.2201 103.932C82.1306 103.929 82.873 103.181 82.8699 102.271L82.8683 101.536C82.8652 100.628 82.118 99.8852 81.2076 99.8867Z" fill="#184151"/>
<path opacity="0.57" d="M88.1422 99.8633L87.4076 99.8649C86.4971 99.868 85.7547 100.615 85.7578 101.526L85.7594 102.26C85.7625 103.171 86.5097 103.913 87.4201 103.91L88.1547 103.908C89.0651 103.905 89.8076 103.158 89.8044 102.248L89.8029 101.513C89.7997 100.603 89.0526 99.8602 88.1422 99.8633Z" fill="#184151"/>
<path d="M11.8792 51.5428L39.5228 52.596C44.428 52.7452 48.3192 56.8812 48.1701 61.7865L47.4559 85.1966C47.3319 89.273 43.6055 92.5066 39.6248 92.8095L41.6763 101.371C41.8977 102.292 40.8068 102.954 40.091 102.334L28.2242 92.0608L10.5843 91.3136C6.24096 91.1818 2.82692 87.5527 2.95877 83.2094L3.69024 59.2483C3.82366 54.8768 7.50769 51.4094 11.8792 51.5428Z" fill="url(#paint4_linear_2381_125756)"/>
<path d="M15.7207 65.3389C15.7207 64.1804 16.0927 63.0063 16.8367 61.8165C17.5808 60.6283 18.6654 59.6425 20.0922 58.8624C21.5191 58.0823 23.1845 57.6914 25.0869 57.6914C26.856 57.6914 28.4162 58.0179 29.7709 58.6709C31.1255 59.3239 32.1709 60.2107 32.9086 61.333C33.6464 62.4554 34.0153 63.675 34.0153 64.992C34.0153 66.0295 33.8049 66.9368 33.3842 67.7169C32.9636 68.497 32.4628 69.172 31.8836 69.7387C31.3044 70.3053 30.2637 71.2597 28.7647 72.6017C28.3503 72.98 28.0175 73.3128 27.768 73.5985C27.5184 73.8857 27.3316 74.1479 27.2107 74.3849C27.0883 74.6219 26.9941 74.8605 26.9266 75.0991C26.8591 75.3361 26.7586 75.7552 26.6252 76.3517C26.3929 77.62 25.6677 78.2541 24.4481 78.2541C23.8139 78.2541 23.2803 78.0469 22.847 77.6325C22.4138 77.2181 22.1972 76.6013 22.1972 75.785C22.1972 74.76 22.3557 73.8732 22.6728 73.1229C22.9899 72.3726 23.4105 71.7133 23.9348 71.1466C24.4591 70.58 25.167 69.905 26.057 69.1249C26.8371 68.4421 27.4022 67.9272 27.7491 67.5788C28.0976 67.2303 28.3895 66.8442 28.6266 66.4172C28.8652 65.9903 28.9829 65.5272 28.9829 65.0281C28.9829 64.0517 28.6203 63.2292 27.8935 62.559C27.1668 61.8887 26.2312 61.5528 25.0854 61.5528C23.7433 61.5528 22.756 61.8919 22.1218 62.5684C21.4877 63.2449 20.9509 64.2432 20.5113 65.5602C20.097 66.9383 19.3105 67.6274 18.1521 67.6274C17.4693 67.6274 16.8932 67.3873 16.4239 66.9054C15.9562 66.4219 15.7207 65.8992 15.7207 65.3389ZM24.649 85.3899C23.905 85.3899 23.2551 85.1481 22.701 84.6663C22.1469 84.1844 21.8691 83.511 21.8691 82.6445C21.8691 81.8769 22.1375 81.2302 22.6744 80.706C23.2112 80.1817 23.8689 79.9196 24.649 79.9196C25.4181 79.9196 26.0633 80.1817 26.5891 80.706C27.1134 81.2302 27.3755 81.8769 27.3755 82.6445C27.3755 83.4984 27.1008 84.1687 26.5514 84.6568C26.0021 85.145 25.3679 85.3899 24.649 85.3899Z" fill="white"/>
<path d="M129.261 36.3565L120.608 21.3724C119.398 19.2769 116.374 19.2769 115.165 21.3724L106.513 36.3565C105.303 38.452 106.816 41.0718 109.235 41.0718H126.537C128.958 41.0718 130.471 38.452 129.261 36.3565Z" fill="url(#paint5_linear_2381_125756)"/>
<g opacity="0.87">
<path d="M118.592 34.9252H117.182C116.906 34.9252 116.678 34.6584 116.66 34.3146L116.149 24.4571C116.131 24.0804 116.369 23.7617 116.672 23.7617H119.104C119.405 23.7617 119.645 24.0804 119.626 24.4571L119.116 34.3146C119.096 34.6584 118.867 34.9252 118.592 34.9252Z" fill="#494141"/>
<path d="M118.434 35.8203H117.335C116.954 35.8203 116.642 36.1327 116.642 36.5141V37.6992C116.642 38.0806 116.954 38.393 117.335 38.393H118.434C118.816 38.393 119.128 38.0806 119.128 37.6992V36.5141C119.13 36.1327 118.817 35.8203 118.434 35.8203Z" fill="#494141"/>
</g>
<defs>
<linearGradient id="paint0_linear_2381_125756" x1="113.081" y1="133.506" x2="52.4508" y2="28.4916" gradientUnits="userSpaceOnUse">
<stop stop-color="#09EB89"/>
<stop offset="0.6627" stop-color="#45EBA4" stop-opacity="0.3373"/>
<stop offset="1" stop-color="#5EEBAF" stop-opacity="0"/>
</linearGradient>
<linearGradient id="paint1_linear_2381_125756" x1="51.4629" y1="98.8216" x2="110.848" y2="98.8216" gradientUnits="userSpaceOnUse">
<stop stop-color="#367D9F"/>
<stop offset="0.5174" stop-color="#509395"/>
<stop offset="1" stop-color="#63A38E"/>
</linearGradient>
<linearGradient id="paint2_linear_2381_125756" x1="46.3734" y1="98.8631" x2="105.759" y2="98.8631" gradientUnits="userSpaceOnUse">
<stop stop-color="#4198C1"/>
<stop offset="0.5881" stop-color="#64B5B4"/>
<stop offset="1" stop-color="#77C5AC"/>
</linearGradient>
<linearGradient id="paint3_linear_2381_125756" x1="77.8385" y1="92.7651" x2="77.8385" y2="65.2674" gradientUnits="userSpaceOnUse">
<stop stop-color="#FF931E"/>
<stop offset="0.2776" stop-color="#FFA62D"/>
<stop offset="0.8371" stop-color="#FFD752"/>
<stop offset="1" stop-color="#FFE65E"/>
</linearGradient>
<linearGradient id="paint4_linear_2381_125756" x1="25.5643" y1="102.577" x2="25.5643" y2="51.5398" gradientUnits="userSpaceOnUse">
<stop stop-color="#F38764"/>
<stop offset="0.6627" stop-color="#F69F95"/>
<stop offset="1" stop-color="#F7A8A8"/>
</linearGradient>
<linearGradient id="paint5_linear_2381_125756" x1="106.088" y1="30.4362" x2="129.687" y2="30.4362" gradientUnits="userSpaceOnUse">
<stop stop-color="#F38764"/>
<stop offset="0.6627" stop-color="#F69F95"/>
<stop offset="1" stop-color="#F7A8A8"/>
</linearGradient>
</defs>
</svg>
