<svg width="178" height="136" viewBox="0 0 178 136" fill="none" xmlns="http://www.w3.org/2000/svg">
<path opacity="0.68" d="M75.4238 122.155C88.328 119.924 100.368 111.8 113.352 113.516C125.131 115.071 136.325 123.223 147.884 120.479C150.82 119.781 153.542 118.405 156.234 117.04C160.637 114.808 165.108 112.527 168.685 109.125C173.849 104.214 176.76 97.2286 177.539 90.1449C178.318 83.0611 177.088 75.8709 174.9 69.0891C173.576 64.9879 171.772 60.8216 168.412 58.125C164.657 55.1123 159.623 54.4275 154.99 53.1165C148.378 51.2479 142.189 47.8951 137.012 43.3776C130.435 37.6397 125.599 30.1794 119.425 24.0109C115.236 19.8255 110.467 16.2693 105.608 12.8864C101.332 9.91019 96.9038 7.0214 91.9477 5.41492C83.3815 2.63895 73.9301 3.95623 65.4973 7.11674C51.5492 12.3414 33.7143 32.9411 26.5002 46.9862C3.02444 92.6984 44.7212 127.464 75.4238 122.155Z" fill="url(#paint0_linear_2381_125487)"/>
<g opacity="0.74">
<path d="M75.5193 74.8603L72.3159 75.7772C71.5119 74.4996 70.5775 73.3285 69.5336 72.2798L71.1496 69.3656C71.6708 68.4249 71.3291 67.2284 70.3884 66.7072L63.8656 63.089C62.9249 62.5678 61.7284 62.9095 61.2072 63.8502L59.5896 66.7644C58.1468 66.4355 56.6579 66.2607 55.1484 66.2559L54.2315 63.0525C53.936 62.0181 52.8475 61.4142 51.8131 61.7114L44.642 63.7659C43.6075 64.0615 43.0037 65.15 43.3009 66.1844L44.2177 69.3878C42.9402 70.1918 41.7691 71.1262 40.7203 72.1701L37.8061 70.5541C36.8654 70.0329 35.6689 70.3746 35.1477 71.3153L31.5296 77.8381C31.0084 78.7788 31.35 79.9753 32.2907 80.4965L35.2049 82.1125C34.876 83.5553 34.7012 85.0442 34.6965 86.5537L31.493 87.4706C30.4586 87.7661 29.8548 88.8546 30.1519 89.889L32.2065 97.0601C32.5021 98.0946 33.5905 98.6984 34.6249 98.4012L37.8284 97.4844C38.6324 98.762 39.5667 99.933 40.6107 100.982L38.9947 103.896C38.4735 104.837 38.8151 106.033 39.7558 106.554L46.2786 110.173C47.2193 110.694 48.4158 110.352 48.937 109.411L50.553 106.497C51.9958 106.826 53.4847 107.001 54.9943 107.006L55.9111 110.209C56.2067 111.243 57.2951 111.847 58.3296 111.55L65.5007 109.496C66.5351 109.2 67.139 108.112 66.8418 107.077L65.925 103.874C67.2025 103.07 68.3736 102.135 69.4223 101.091L72.3365 102.707C73.2772 103.229 74.4737 102.887 74.9949 101.946L78.6131 95.4235C79.1343 94.4828 78.7926 93.2863 77.8519 92.7651L74.9377 91.1475C75.2667 89.7047 75.4414 88.2158 75.4462 86.7063L78.6496 85.7894C79.6841 85.4939 80.2879 84.4054 79.9907 83.371L77.9362 76.1998C77.6422 75.167 76.5537 74.5632 75.5193 74.8603ZM58.7649 98.6618C51.9386 100.755 44.7484 96.7662 42.91 89.8668C41.178 83.3646 44.9439 76.5748 51.3777 74.6029C58.204 72.5102 65.3942 76.4986 67.2327 83.398C68.9647 89.8986 65.1988 96.6883 58.7649 98.6618Z" fill="#A4D5D8"/>
<path d="M55.0713 95.2868C59.8514 95.2868 63.7265 91.4117 63.7265 86.6316C63.7265 81.8514 59.8514 77.9763 55.0713 77.9763C50.2911 77.9763 46.416 81.8514 46.416 86.6316C46.416 91.4117 50.2911 95.2868 55.0713 95.2868Z" fill="#A4D5D8"/>
<path d="M55.0714 89.9081C56.881 89.9081 58.3479 88.4412 58.3479 86.6316C58.3479 84.822 56.881 83.3551 55.0714 83.3551C53.2619 83.3551 51.7949 84.822 51.7949 86.6316C51.7949 88.4412 53.2619 89.9081 55.0714 89.9081Z" fill="#A4D5D8"/>
<path d="M28.9258 75.1289L27.6546 75.4928C27.3352 74.9859 26.965 74.5219 26.5502 74.1056L27.1922 72.9488C27.3988 72.5754 27.2637 72.1003 26.8903 71.8937L24.3018 70.4588C23.9284 70.2523 23.4533 70.3873 23.2467 70.7607L22.6048 71.9175C22.0327 71.7872 21.4416 71.7173 20.8426 71.7157L20.4787 70.4445C20.3611 70.0346 19.9289 69.7946 19.5189 69.9122L16.673 70.7274C16.2631 70.845 16.0231 71.2772 16.1407 71.6871L16.5046 72.9583C15.9977 73.2777 15.5337 73.648 15.1174 74.0627L13.9606 73.4207C13.5872 73.2141 13.1121 73.3492 12.9055 73.7226L11.4691 76.3111C11.2625 76.6845 11.3976 77.1596 11.771 77.3662L12.9278 78.0081C12.7975 78.5802 12.7276 79.1713 12.726 79.7703L11.4548 80.1342C11.0448 80.2518 10.8049 80.684 10.9225 81.094L11.7376 83.9399C11.8552 84.3498 12.2874 84.5898 12.6974 84.4722L13.9686 84.1083C14.288 84.6152 14.6582 85.0792 15.0729 85.4955L14.431 86.6523C14.2244 87.0257 14.3595 87.5008 14.7329 87.7074L17.3214 89.1438C17.6948 89.3504 18.1699 89.2153 18.3764 88.8419L19.0184 87.6851C19.5904 87.8154 20.1815 87.8853 20.7806 87.8869L21.1445 89.1581C21.2621 89.5681 21.6943 89.808 22.1042 89.6904L24.9501 88.8753C25.3601 88.7577 25.6 88.3255 25.4824 87.9155L25.1186 86.6443C25.6254 86.3249 26.0894 85.9547 26.5057 85.54L27.6625 86.1819C28.0359 86.3885 28.5111 86.2534 28.7176 85.88L30.1525 83.2916C30.3591 82.9181 30.224 82.443 29.8506 82.2365L28.6938 81.5945C28.8241 81.0225 28.894 80.4314 28.8956 79.8323L30.1668 79.4684C30.5767 79.3509 30.8167 78.9186 30.6991 78.5087L29.8839 75.6628C29.7679 75.2512 29.3357 75.0113 28.9258 75.1289ZM22.279 84.5723C19.5714 85.4033 16.7175 83.8207 15.9882 81.0829C15.3002 78.5039 16.7954 75.809 19.3473 75.0272C22.055 74.1961 24.9088 75.7788 25.6382 78.5166C26.3262 81.0956 24.8309 83.7889 22.279 84.5723Z" fill="#A4D5D8"/>
<path d="M20.8127 83.2327C22.7092 83.2327 24.2465 81.6954 24.2465 79.7989C24.2465 77.9025 22.7092 76.3651 20.8127 76.3651C18.9163 76.3651 17.3789 77.9025 17.3789 79.7989C17.3789 81.6954 18.9163 83.2327 20.8127 83.2327Z" fill="#A4D5D8"/>
<path d="M20.8135 81.0987C21.5313 81.0987 22.1133 80.5168 22.1133 79.7989C22.1133 79.0811 21.5313 78.4991 20.8135 78.4991C20.0956 78.4991 19.5137 79.0811 19.5137 79.7989C19.5137 80.5168 20.0956 81.0987 20.8135 81.0987Z" fill="#A4D5D8"/>
<path d="M32.0298 99.3673L29.8052 100.004C29.2475 99.1162 28.5976 98.3043 27.873 97.5749L28.9964 95.5505C29.3587 94.8975 29.1203 94.0664 28.4673 93.7041L23.9354 91.1903C23.2824 90.8281 22.4513 91.0664 22.089 91.7195L20.9656 93.7439C19.963 93.515 18.9285 93.3943 17.8814 93.3911L17.2442 91.1665C17.0392 90.4483 16.2828 90.0288 15.5646 90.2338L10.5831 91.6607C9.8649 91.8657 9.44541 92.622 9.65039 93.3403L10.2876 95.5648C9.39933 96.1226 8.58735 96.7725 7.858 97.4971L5.83362 96.3736C5.18055 96.0114 4.3495 96.2497 3.98721 96.9028L1.47342 101.435C1.11113 102.088 1.34948 102.919 2.00256 103.281L4.02694 104.404C3.79812 105.407 3.67736 106.442 3.67418 107.489L1.44959 108.126C0.731362 108.331 0.311868 109.087 0.516848 109.805L1.94377 114.787C2.14875 115.505 2.90511 115.925 3.62333 115.72L5.84792 115.082C6.40566 115.971 7.05556 116.783 7.78014 117.512L6.65672 119.536C6.29443 120.189 6.53278 121.021 7.18586 121.383L11.7177 123.897C12.3707 124.259 13.2018 124.021 13.5641 123.367L14.6875 121.343C15.6902 121.572 16.7246 121.693 17.7717 121.696L18.4089 123.92C18.6139 124.639 19.3703 125.058 20.0885 124.853L25.07 123.426C25.7882 123.221 26.2077 122.465 26.0027 121.747L25.3655 119.522C26.2538 118.964 27.0658 118.314 27.7951 117.59L29.8195 118.713C30.4726 119.076 31.3036 118.837 31.6659 118.184L34.1797 113.652C34.542 112.999 34.3036 112.168 33.6506 111.806L31.6262 110.683C31.855 109.68 31.9758 108.645 31.9789 107.598L34.2035 106.961C34.9217 106.756 35.3412 106 35.1363 105.282L33.7094 100.3C33.5044 99.5818 32.748 99.1623 32.0298 99.3673ZM20.392 115.901C15.6504 117.355 10.6546 114.584 9.37867 109.791C8.1758 105.274 10.7913 100.557 15.2611 99.1878C20.0027 97.7338 24.9985 100.505 26.2744 105.297C27.4773 109.815 24.8602 114.531 20.392 115.901Z" fill="#A4D5D8"/>
<path d="M17.8272 113.557C21.148 113.557 23.84 110.865 23.84 107.544C23.84 104.224 21.148 101.531 17.8272 101.531C14.5065 101.531 11.8145 104.224 11.8145 107.544C11.8145 110.865 14.5065 113.557 17.8272 113.557Z" fill="#A4D5D8"/>
<path d="M17.8239 109.821C19.0815 109.821 20.1009 108.802 20.1009 107.544C20.1009 106.287 19.0815 105.267 17.8239 105.267C16.5663 105.267 15.5469 106.287 15.5469 107.544C15.5469 108.802 16.5663 109.821 17.8239 109.821Z" fill="#A4D5D8"/>
<path d="M46.2258 126.258L44.4668 120.113C44.3015 119.538 43.6961 119.201 43.1209 119.366C42.5457 119.532 42.2088 120.137 42.3741 120.712L44.1331 126.857C44.2984 127.432 44.9038 127.769 45.479 127.604C46.0558 127.44 46.3911 126.835 46.2258 126.258Z" fill="#A4D5D8"/>
<path d="M35.9186 125.899L39.0187 120.31C39.3095 119.787 39.1189 119.12 38.5945 118.831C38.0717 118.54 37.4043 118.731 37.1151 119.255L34.015 124.844C33.7242 125.366 33.9149 126.034 34.4393 126.323C34.9636 126.612 35.6294 126.422 35.9186 125.899Z" fill="#A4D5D8"/>
<path d="M53.7703 119.225L48.1819 116.125C47.6591 115.834 46.9917 116.025 46.7025 116.549C46.4117 117.072 46.6024 117.739 47.1268 118.028L52.7153 121.129C53.238 121.419 53.9054 121.229 54.1946 120.704C54.4854 120.182 54.2947 119.516 53.7703 119.225Z" fill="#A4D5D8"/>
<path d="M33.5586 55.7352L35.3176 61.8798C35.4829 62.455 35.146 63.0604 34.5708 63.2257C33.9956 63.3909 33.3901 63.0541 33.2249 62.4789L31.4659 56.3342C31.3006 55.759 31.6375 55.1536 32.2127 54.9883C32.7879 54.8231 33.3949 55.1599 33.5586 55.7352Z" fill="#A4D5D8"/>
<path d="M25.0038 61.4968L30.5923 64.5969C31.1151 64.8877 31.3073 65.5535 31.0166 66.0763C30.7258 66.5991 30.06 66.7913 29.5372 66.5006L23.9487 63.4004C23.4259 63.1096 23.2337 62.4439 23.5244 61.9211C23.8136 61.3967 24.4794 61.206 25.0038 61.4968Z" fill="#A4D5D8"/>
<path d="M43.6786 57.7088L40.5784 63.2972C40.2877 63.82 39.6219 64.0123 39.0991 63.7215C38.5763 63.4307 38.384 62.7649 38.6748 62.2422L41.775 56.6537C42.0657 56.1309 42.7315 55.9386 43.2543 56.2294C43.7787 56.5186 43.9694 57.186 43.6786 57.7088Z" fill="#A4D5D8"/>
</g>
<path d="M115.554 17.1735L64.9338 0.646345C63.8294 0.285643 62.625 0.749628 62.0466 1.75705L35.574 47.9618C34.4267 49.9624 55.7478 102.48 57.8993 101.651L134.993 71.9731C137.146 71.1453 117.747 17.8885 115.554 17.1735Z" fill="url(#paint1_linear_2381_125487)"/>
<path d="M57.4398 22.271L45.686 44.3024C45.0075 45.5736 44.8963 46.9878 45.3746 48.232L58.4456 82.1888C59.4435 84.7804 62.6803 85.9468 65.6756 84.7932L116.784 65.1182C119.779 63.9646 121.4 60.9296 120.402 58.338L101.461 9.13477C100.463 6.54312 97.2266 5.3768 94.2314 6.53041L60.7465 19.4187C59.3085 19.9733 58.1183 20.9982 57.4398 22.271Z" fill="url(#paint2_linear_2381_125487)"/>
<path d="M51.3183 43.3363L56.7003 41.2642L62.864 38.8919C64.3608 38.3151 65.1712 36.7976 64.6722 35.5025L60.8269 25.5141L58.8978 20.504C58.2972 21.003 57.7967 21.602 57.4391 22.2694L45.6854 44.3008C45.4438 44.7537 45.2786 45.224 45.1816 45.6975L51.3183 43.3363Z" fill="url(#paint3_linear_2381_125487)"/>
<path opacity="0.53" d="M92.6466 19.8922L73.2418 27.3621C72.3679 27.699 71.3779 27.2588 71.041 26.3849C70.7042 25.5109 71.1443 24.521 72.0183 24.1841L91.4231 16.7143C92.297 16.3774 93.287 16.8175 93.6238 17.6915C93.9607 18.5654 93.5205 19.557 92.6466 19.8922Z" fill="url(#paint4_linear_2381_125487)"/>
<path opacity="0.53" d="M94.9161 25.7953L75.5113 33.2652C74.6374 33.6021 73.6474 33.1619 73.3106 32.288C72.9737 31.414 73.4139 30.4241 74.2878 30.0872L93.6926 22.6173C94.5665 22.2805 95.5565 22.7206 95.8934 23.5946C96.2302 24.4685 95.7901 25.4585 94.9161 25.7953Z" fill="url(#paint5_linear_2381_125487)"/>
<path opacity="0.53" d="M99.0875 31.8797L54.2477 49.1409C53.3737 49.4778 52.3838 49.0376 52.0469 48.1637C51.71 47.2897 52.1502 46.2998 53.0241 45.9629L97.864 28.7017C98.7379 28.3648 99.7279 28.805 100.065 29.6789C100.402 30.5529 99.9614 31.5444 99.0875 31.8797Z" fill="url(#paint6_linear_2381_125487)"/>
<path opacity="0.53" d="M101.58 38.35L56.7398 55.6113C55.8659 55.9481 54.876 55.508 54.5391 54.634C54.2022 53.7601 54.6424 52.7701 55.5163 52.4333L100.356 35.172C101.23 34.8352 102.22 35.2753 102.557 36.1493C102.892 37.0232 102.454 38.0147 101.58 38.35Z" fill="url(#paint7_linear_2381_125487)"/>
<path opacity="0.53" d="M104.07 44.8203L59.232 62.0816C58.3581 62.4185 57.3681 61.9783 57.0313 61.1044C56.6944 60.2304 57.1346 59.2405 58.0085 58.9036L102.848 41.6424C103.722 41.3055 104.712 41.7456 105.049 42.6196C105.384 43.4935 104.944 44.4851 104.07 44.8203Z" fill="url(#paint8_linear_2381_125487)"/>
<path d="M106.562 51.2908L61.7223 68.5521C60.8483 68.8889 59.8584 68.4488 59.5215 67.5748C59.1846 66.7009 59.6248 65.7109 60.4987 65.3741L105.339 48.1128C106.213 47.776 107.202 48.2161 107.539 49.0901C107.876 49.964 107.436 50.9555 106.562 51.2908Z" fill="#E1E1E1"/>
<path d="M109.053 57.7611L64.2145 75.024C63.3405 75.3608 62.3506 74.9207 62.0137 74.0467C61.6768 73.1728 62.117 72.1829 62.9909 71.846L107.829 54.5832C108.703 54.2463 109.693 54.6864 110.03 55.5604C110.367 56.4343 109.927 57.4259 109.053 57.7611Z" fill="#E1E1E1"/>
<path d="M115.944 17.6788C115.91 17.7503 115.875 17.8218 115.834 17.8933L89.3613 64.0981C88.7845 65.1055 87.5784 65.5695 86.4741 65.2088L35.8535 48.6833C35.7025 48.634 35.5643 48.5736 35.434 48.5037C34.9192 50.0228 34.908 51.7199 35.5262 53.3247L52.9606 98.6143C54.3637 102.259 58.4935 104.093 62.1371 102.69L132.293 75.6835C135.938 74.2804 137.772 70.1506 136.369 66.507L118.934 21.2143C118.341 19.6778 117.264 18.4654 115.944 17.6788Z" fill="url(#paint9_linear_2381_125487)"/>
<path d="M86.1323 55.7272C84.9882 55.3538 83.7392 55.8353 83.1418 56.8793L56.9043 102.674C58.5092 103.314 60.3492 103.38 62.0797 102.714L132.235 75.7073C134.025 75.0192 135.375 73.6733 136.124 72.0494L86.1323 55.7272Z" fill="url(#paint10_linear_2381_125487)"/>
<path d="M140.651 51.3591L138.584 52.0153C141.52 55.9179 144.307 55.5667 147.155 54.7802C150.331 53.8967 152.827 49.7415 148.968 42.6212C148.602 41.9459 148.205 41.3214 147.789 40.7398L146.365 43.1122C146.176 43.4268 145.694 43.3108 145.672 42.9454C145.58 41.6328 145.442 39.5147 145.381 38.0306C141.793 34.7303 137.915 33.8182 137.915 33.8182C135.719 33.3653 134.586 34.4935 134.179 36.3987C134.973 37.2075 135.792 38.0671 136.38 38.6821C136.634 38.9459 136.394 39.3796 136.033 39.3066L134.014 38.895C134.152 42.27 135.479 46.5842 137.028 49.5429C138.28 49.9083 139.696 50.3469 140.652 50.6424C141.002 50.7537 141.002 51.2494 140.651 51.3591Z" fill="url(#paint11_linear_2381_125487)"/>
<path d="M148.824 64.999C148.917 64.999 148.999 65.0435 149.008 64.9465C150.295 52.4221 137.984 35.6343 137.86 35.4659C137.799 35.3817 137.682 35.3944 137.599 35.4548C137.516 35.5152 137.499 35.6471 137.559 35.7297C137.683 35.8965 149.909 52.5206 148.638 64.902C148.627 65.0037 148.701 64.999 148.805 64.999C148.811 64.999 148.817 64.999 148.824 64.999Z" fill="white"/>
<path d="M138.842 122.203V126.97H140.793L142.841 122.203H138.842Z" fill="url(#paint12_linear_2381_125487)"/>
<path d="M159.498 122.203V126.97H156.503L154.453 122.203H159.498Z" fill="url(#paint13_linear_2381_125487)"/>
<path d="M172.209 122.203V126.97H168.524L166.475 122.203H172.209Z" fill="url(#paint14_linear_2381_125487)"/>
<path d="M146.787 122.203V126.97H149.673L151.723 122.203H146.787Z" fill="url(#paint15_linear_2381_125487)"/>
<path d="M153.287 44.8569C153.033 45.1207 153.268 45.5545 153.629 45.4862L156.403 44.9364C155.243 48.2876 152.903 49.0519 150.38 49.5318C147.143 50.1515 143.061 47.5296 143.366 39.4385C143.448 37.2568 143.925 35.3198 144.577 33.6545L147.267 35.2165C147.586 35.4008 147.956 35.0687 147.799 34.7351C147.322 33.699 146.579 32.118 145.959 30.8468C147.581 28.1232 149.375 26.6439 149.375 26.6439C154.493 22.6587 157.479 34.457 157.115 40.9671C156.052 41.9872 154.314 43.7891 153.287 44.8569Z" fill="url(#paint16_linear_2381_125487)"/>
<path d="M151.879 59.3898C151.811 59.3898 151.746 59.3517 151.712 59.2865C146.081 48.0253 151.642 27.9166 151.7 27.7148C151.728 27.6163 151.828 27.5575 151.928 27.5861C152.027 27.6147 152.084 27.7164 152.057 27.8149C152 28.0151 146.478 47.9872 152.044 59.1197C152.09 59.2119 152.052 59.3231 151.962 59.3692C151.936 59.3835 151.908 59.3898 151.879 59.3898Z" fill="white"/>
<path d="M161.652 50.8634L163.719 51.5196C160.783 55.4222 157.996 55.071 155.148 54.2845C151.972 53.401 149.475 49.2458 153.335 42.1255C153.701 41.4502 154.098 40.8257 154.514 40.2441L155.938 42.6165C156.127 42.9311 156.608 42.8151 156.631 42.4496C156.723 41.1371 156.861 39.019 156.922 37.5349C160.509 34.2345 164.388 33.3224 164.388 33.3224C166.584 32.8696 167.717 33.9978 168.124 35.903C167.329 36.7118 166.511 37.5714 165.923 38.1864C165.669 38.4501 165.909 38.8839 166.27 38.8108L168.289 38.3993C168.151 41.7743 166.824 46.0884 165.275 49.0471C164.023 49.4126 162.607 49.8512 161.65 50.1467C161.301 50.2579 161.301 50.7537 161.652 50.8634Z" fill="url(#paint17_linear_2381_125487)"/>
<path d="M153.482 64.999C153.388 64.999 153.307 64.7956 153.297 64.6987C152.01 52.1742 164.322 35.2626 164.446 35.0941C164.506 35.0099 164.624 34.9607 164.706 35.021C164.789 35.0814 164.807 35.1815 164.746 35.2642C164.622 35.431 152.396 52.287 153.668 64.6685C153.679 64.7702 153.604 64.9974 153.501 64.9974C153.494 64.999 153.488 64.999 153.482 64.999Z" fill="white"/>
<path d="M171.754 121.747H149.458C148.673 121.747 148.037 121.111 148.037 120.326V76.354C148.037 75.5691 148.673 74.9335 149.458 74.9335H164.987H171.754C172.539 74.9335 173.175 75.5691 173.175 76.354V120.326C173.175 121.111 172.539 121.747 171.754 121.747Z" fill="url(#paint18_linear_2381_125487)"/>
<path d="M160.141 121.747H137.844C137.059 121.747 136.424 121.111 136.424 120.326V76.354C136.424 75.5691 137.059 74.9335 137.844 74.9335H140.906H160.141C160.926 74.9335 161.562 75.5691 161.562 76.354V120.326C161.562 121.111 160.926 121.747 160.141 121.747Z" fill="url(#paint19_linear_2381_125487)"/>
<path opacity="0.57" d="M157.066 96.3816H145.724H140.923C140.528 96.3816 140.205 96.0607 140.205 95.6634V78.7931C140.205 78.3974 140.526 78.0748 140.923 78.0748H157.066C157.462 78.0748 157.784 78.3958 157.784 78.7931V95.6634C157.784 96.0607 157.463 96.3816 157.066 96.3816Z" fill="white"/>
<path opacity="0.57" d="M157.066 118.605H140.923C140.528 118.605 140.205 118.284 140.205 117.887V101.017C140.205 100.621 140.526 100.299 140.923 100.299H144.427H157.066C157.462 100.299 157.784 100.62 157.784 101.017V117.887C157.784 118.283 157.463 118.605 157.066 118.605Z" fill="white"/>
<path d="M154.502 92.0453C154.201 92.0453 153.955 91.799 153.955 91.4987V82.961C153.955 82.6607 154.201 82.4144 154.502 82.4144C154.802 82.4144 155.048 82.6607 155.048 82.961V91.4987C155.048 91.799 154.802 92.0453 154.502 92.0453Z" fill="url(#paint20_linear_2381_125487)"/>
<path d="M154.502 114.267C154.201 114.267 153.955 114.021 153.955 113.721V105.183C153.955 104.883 154.201 104.636 154.502 104.636C154.802 104.636 155.048 104.883 155.048 105.183V113.721C155.048 114.021 154.802 114.267 154.502 114.267Z" fill="url(#paint21_linear_2381_125487)"/>
<path d="M154.609 61.7464C154.499 61.6463 152.877 61.5208 151.931 61.4556V61.4111C151.931 61.4111 151.8 61.4191 151.593 61.4318C151.388 61.4191 151.256 61.4111 151.256 61.4111V61.4556C150.304 61.5208 148.668 61.6463 148.558 61.7464C148.558 61.7464 143.399 68.3884 147.246 74.4266C147.479 74.7921 147.899 75.0256 148.361 75.0256H154.787C155.249 75.0256 155.669 74.7921 155.902 74.4266C159.749 68.3884 154.609 61.7464 154.609 61.7464Z" fill="url(#paint22_linear_2381_125487)"/>
<path d="M155.003 62.5965H148.143C147.279 62.5965 146.57 61.8894 146.57 61.0234C146.57 60.159 147.277 59.4503 148.143 59.4503H155.003C155.868 59.4503 156.576 60.1574 156.576 61.0234C156.576 61.8894 155.869 62.5965 155.003 62.5965Z" fill="url(#paint23_linear_2381_125487)"/>
<path d="M127.256 123.652C124.291 125.012 120.784 123.712 119.424 120.747L106.014 91.5337C104.654 88.5687 105.954 85.0618 108.919 83.7016C111.884 82.3414 115.391 83.6412 116.751 86.6063L130.161 115.82C131.521 118.785 130.221 122.292 127.256 123.652Z" fill="url(#paint24_linear_2381_125487)"/>
<path opacity="0.29" d="M117.912 89.1454L116.746 86.6062C116.236 85.497 115.427 84.6199 114.456 84.0288C113.166 85.0013 111.752 85.853 110.221 86.5553C108.691 87.2577 107.124 87.7741 105.545 88.1189C105.361 89.2391 105.497 90.4245 106.007 91.5352L107.174 94.0744C109.073 93.6375 110.954 93.0035 112.794 92.1581C114.636 91.3128 116.344 90.299 117.912 89.1454Z" fill="url(#paint25_linear_2381_125487)"/>
<path opacity="0.29" d="M99.0179 91.1126C115.021 91.1126 127.995 78.1392 127.995 62.1357C127.995 46.1322 115.021 33.1588 99.0179 33.1588C83.0144 33.1588 70.041 46.1322 70.041 62.1357C70.041 78.1392 83.0144 91.1126 99.0179 91.1126Z" fill="white"/>
<path d="M86.9305 35.8013C72.3865 42.4766 66.0082 59.6791 72.6836 74.2232C79.359 88.7672 96.5614 95.1454 111.105 88.4701C125.65 81.7947 132.028 64.5923 125.352 50.0482C118.677 35.5041 101.475 29.1259 86.9305 35.8013ZM108.535 82.8673C97.0842 88.1221 83.5428 83.1009 78.2864 71.6522C73.0316 60.2019 78.0528 46.6605 89.5015 41.4041C100.952 36.1493 114.493 41.1705 119.75 52.6192C125.006 64.0695 119.983 77.6125 108.535 82.8673Z" fill="url(#paint26_linear_2381_125487)"/>
<path d="M116.199 94.5527L112.393 96.299C109.428 97.6592 108.129 101.168 109.489 104.131L122.212 131.851C123.572 134.816 127.079 136.116 130.044 134.756L133.85 133.01C136.815 131.649 138.115 128.142 136.754 125.177L124.031 97.4574C122.671 94.4924 119.164 93.191 116.199 94.5527Z" fill="#184151"/>
<path opacity="0.11" d="M118.881 94.0189C119.246 94.4368 119.559 94.9119 119.802 95.4427L132.526 123.163C133.886 126.128 132.586 129.635 129.621 130.995L125.815 132.741C124.946 133.14 124.031 133.308 123.135 133.275C124.813 135.195 127.611 135.873 130.047 134.756L133.852 133.01C136.817 131.649 138.117 128.143 136.757 125.178L124.034 97.4575C123.073 95.3616 121.039 94.0984 118.881 94.0189Z" fill="url(#paint27_linear_2381_125487)"/>
<g opacity="0.3">
<path d="M109.961 78.952C109.492 79.1665 108.929 78.9901 108.67 78.5325C108.399 78.051 108.569 77.4393 109.05 77.1675C114.16 74.2867 116.992 70.0457 117.467 64.5652C117.825 60.4386 116.663 57.1589 116.652 57.1256C116.464 56.6044 116.736 56.0323 117.254 55.8432C117.775 55.6557 118.349 55.9259 118.537 56.4455C118.591 56.5964 119.859 60.178 119.463 64.7368C119.094 68.9858 117.16 74.8921 110.035 78.9107C110.012 78.9281 109.986 78.9409 109.961 78.952Z" fill="white"/>
<path d="M105.689 81.3101C106.518 81.3101 107.189 80.6385 107.189 79.8101C107.189 78.9816 106.518 78.3101 105.689 78.3101C104.861 78.3101 104.189 78.9816 104.189 79.8101C104.189 80.6385 104.861 81.3101 105.689 81.3101Z" fill="white"/>
</g>
<defs>
<linearGradient id="paint0_linear_2381_125487" x1="98.6978" y1="122.692" x2="98.6978" y2="3.89775" gradientUnits="userSpaceOnUse">
<stop stop-color="#09EB89"/>
<stop offset="0.6627" stop-color="#45EBA4" stop-opacity="0.3373"/>
<stop offset="1" stop-color="#5EEBAF" stop-opacity="0"/>
</linearGradient>
<linearGradient id="paint1_linear_2381_125487" x1="85.3451" y1="101.662" x2="85.3451" y2="0.524951" gradientUnits="userSpaceOnUse">
<stop stop-color="#77C5AC"/>
<stop offset="0.4119" stop-color="#64B5B4"/>
<stop offset="1" stop-color="#4198C1"/>
</linearGradient>
<linearGradient id="paint2_linear_2381_125487" x1="45.0819" y1="45.661" x2="120.696" y2="45.661" gradientUnits="userSpaceOnUse">
<stop stop-color="#ABABAB"/>
<stop offset="0.1497" stop-color="#B9B9B9"/>
<stop offset="0.7192" stop-color="#ECECEC"/>
<stop offset="1" stop-color="white"/>
</linearGradient>
<linearGradient id="paint3_linear_2381_125487" x1="45.181" y1="33.1016" x2="64.8187" y2="33.1016" gradientUnits="userSpaceOnUse">
<stop stop-color="#ABABAB"/>
<stop offset="0.1497" stop-color="#B9B9B9"/>
<stop offset="0.7192" stop-color="#ECECEC"/>
<stop offset="1" stop-color="white"/>
</linearGradient>
<linearGradient id="paint4_linear_2381_125487" x1="82.3326" y1="27.476" x2="82.3326" y2="16.6011" gradientUnits="userSpaceOnUse">
<stop stop-color="#4198C1"/>
<stop offset="0.5881" stop-color="#64B5B4"/>
<stop offset="1" stop-color="#77C5AC"/>
</linearGradient>
<linearGradient id="paint5_linear_2381_125487" x1="84.6023" y1="33.3788" x2="84.6023" y2="22.5039" gradientUnits="userSpaceOnUse">
<stop stop-color="#4198C1"/>
<stop offset="0.5881" stop-color="#64B5B4"/>
<stop offset="1" stop-color="#77C5AC"/>
</linearGradient>
<linearGradient id="paint6_linear_2381_125487" x1="76.0561" y1="49.2545" x2="76.0561" y2="28.5885" gradientUnits="userSpaceOnUse">
<stop stop-color="#4198C1"/>
<stop offset="0.5881" stop-color="#64B5B4"/>
<stop offset="1" stop-color="#77C5AC"/>
</linearGradient>
<linearGradient id="paint7_linear_2381_125487" x1="78.5477" y1="55.725" x2="78.5477" y2="35.0589" gradientUnits="userSpaceOnUse">
<stop stop-color="#4198C1"/>
<stop offset="0.5881" stop-color="#64B5B4"/>
<stop offset="1" stop-color="#77C5AC"/>
</linearGradient>
<linearGradient id="paint8_linear_2381_125487" x1="81.0392" y1="62.1954" x2="81.0392" y2="41.5294" gradientUnits="userSpaceOnUse">
<stop stop-color="#4198C1"/>
<stop offset="0.5881" stop-color="#64B5B4"/>
<stop offset="1" stop-color="#77C5AC"/>
</linearGradient>
<linearGradient id="paint9_linear_2381_125487" x1="85.9472" y1="103.162" x2="85.9472" y2="17.6787" gradientUnits="userSpaceOnUse">
<stop stop-color="#4198C1"/>
<stop offset="0.5881" stop-color="#64B5B4"/>
<stop offset="1" stop-color="#77C5AC"/>
</linearGradient>
<linearGradient id="paint10_linear_2381_125487" x1="96.5141" y1="103.184" x2="96.5141" y2="55.6019" gradientUnits="userSpaceOnUse">
<stop stop-color="#4198C1"/>
<stop offset="0.5881" stop-color="#64B5B4"/>
<stop offset="1" stop-color="#77C5AC"/>
</linearGradient>
<linearGradient id="paint11_linear_2381_125487" x1="134.012" y1="44.5011" x2="150.931" y2="44.5011" gradientUnits="userSpaceOnUse">
<stop stop-color="#6FADC1"/>
<stop offset="0.5881" stop-color="#92BCBB"/>
<stop offset="1" stop-color="#A5C5B8"/>
</linearGradient>
<linearGradient id="paint12_linear_2381_125487" x1="138.842" y1="124.587" x2="142.842" y2="124.587" gradientUnits="userSpaceOnUse">
<stop offset="0.0056" stop-color="#BEADE7"/>
<stop offset="0.8278" stop-color="#E7D4F2"/>
<stop offset="1" stop-color="#F0DDF4"/>
</linearGradient>
<linearGradient id="paint13_linear_2381_125487" x1="154.453" y1="124.587" x2="159.498" y2="124.587" gradientUnits="userSpaceOnUse">
<stop offset="0.0056" stop-color="#BEADE7"/>
<stop offset="0.8278" stop-color="#E7D4F2"/>
<stop offset="1" stop-color="#F0DDF4"/>
</linearGradient>
<linearGradient id="paint14_linear_2381_125487" x1="166.474" y1="124.587" x2="172.209" y2="124.587" gradientUnits="userSpaceOnUse">
<stop offset="0.0056" stop-color="#BEADE7"/>
<stop offset="0.8278" stop-color="#E7D4F2"/>
<stop offset="1" stop-color="#F0DDF4"/>
</linearGradient>
<linearGradient id="paint15_linear_2381_125487" x1="146.787" y1="124.587" x2="151.722" y2="124.587" gradientUnits="userSpaceOnUse">
<stop offset="0.0056" stop-color="#BEADE7"/>
<stop offset="0.8278" stop-color="#E7D4F2"/>
<stop offset="1" stop-color="#F0DDF4"/>
</linearGradient>
<linearGradient id="paint16_linear_2381_125487" x1="143.35" y1="37.7308" x2="157.146" y2="37.7308" gradientUnits="userSpaceOnUse">
<stop stop-color="#6FADC1"/>
<stop offset="0.5881" stop-color="#92BCBB"/>
<stop offset="1" stop-color="#A5C5B8"/>
</linearGradient>
<linearGradient id="paint17_linear_2381_125487" x1="151.373" y1="44.0053" x2="168.292" y2="44.0053" gradientUnits="userSpaceOnUse">
<stop stop-color="#6FADC1"/>
<stop offset="0.5881" stop-color="#92BCBB"/>
<stop offset="1" stop-color="#A5C5B8"/>
</linearGradient>
<linearGradient id="paint18_linear_2381_125487" x1="160.606" y1="121.747" x2="160.606" y2="74.9338" gradientUnits="userSpaceOnUse">
<stop offset="0.0056" stop-color="#BEADE7"/>
<stop offset="0.0554" stop-color="#C7B5E9"/>
<stop offset="0.1925" stop-color="#D9C7EE"/>
<stop offset="0.355" stop-color="#E6D4F1"/>
<stop offset="0.5657" stop-color="#EEDBF3"/>
<stop offset="1" stop-color="#F0DDF4"/>
</linearGradient>
<linearGradient id="paint19_linear_2381_125487" x1="148.993" y1="121.747" x2="148.993" y2="74.9338" gradientUnits="userSpaceOnUse">
<stop offset="0.0056" stop-color="#BEADE7"/>
<stop offset="0.0554" stop-color="#C7B5E9"/>
<stop offset="0.1925" stop-color="#D9C7EE"/>
<stop offset="0.355" stop-color="#E6D4F1"/>
<stop offset="0.5657" stop-color="#EEDBF3"/>
<stop offset="1" stop-color="#F0DDF4"/>
</linearGradient>
<linearGradient id="paint20_linear_2381_125487" x1="153.955" y1="87.2291" x2="155.048" y2="87.2291" gradientUnits="userSpaceOnUse">
<stop offset="0.0056" stop-color="#BEADE7"/>
<stop offset="0.8278" stop-color="#E7D4F2"/>
<stop offset="1" stop-color="#F0DDF4"/>
</linearGradient>
<linearGradient id="paint21_linear_2381_125487" x1="153.955" y1="109.452" x2="155.048" y2="109.452" gradientUnits="userSpaceOnUse">
<stop offset="0.0056" stop-color="#BEADE7"/>
<stop offset="0.8278" stop-color="#E7D4F2"/>
<stop offset="1" stop-color="#F0DDF4"/>
</linearGradient>
<linearGradient id="paint22_linear_2381_125487" x1="151.575" y1="75.0248" x2="151.575" y2="61.4107" gradientUnits="userSpaceOnUse">
<stop stop-color="#F3AC95"/>
<stop offset="0.6627" stop-color="#F6CCC6"/>
<stop offset="1" stop-color="#F7D9D9"/>
</linearGradient>
<linearGradient id="paint23_linear_2381_125487" x1="151.573" y1="62.5967" x2="151.573" y2="59.451" gradientUnits="userSpaceOnUse">
<stop stop-color="#F3AC95"/>
<stop offset="0.6627" stop-color="#F6CCC6"/>
<stop offset="1" stop-color="#F7D9D9"/>
</linearGradient>
<linearGradient id="paint24_linear_2381_125487" x1="105.474" y1="103.677" x2="130.7" y2="103.677" gradientUnits="userSpaceOnUse">
<stop stop-color="#FF931E"/>
<stop offset="0.2776" stop-color="#FFA62D"/>
<stop offset="0.8371" stop-color="#FFD752"/>
<stop offset="1" stop-color="#FFE65E"/>
</linearGradient>
<linearGradient id="paint25_linear_2381_125487" x1="105.47" y1="89.0503" x2="117.913" y2="89.0503" gradientUnits="userSpaceOnUse">
<stop/>
<stop offset="1" stop-opacity="0"/>
</linearGradient>
<linearGradient id="paint26_linear_2381_125487" x1="70.0349" y1="62.1362" x2="128.002" y2="62.1362" gradientUnits="userSpaceOnUse">
<stop stop-color="#FF931E"/>
<stop offset="0.2776" stop-color="#FFA62D"/>
<stop offset="0.8371" stop-color="#FFD752"/>
<stop offset="1" stop-color="#FFE65E"/>
</linearGradient>
<linearGradient id="paint27_linear_2381_125487" x1="118.881" y1="114.657" x2="137.298" y2="114.657" gradientUnits="userSpaceOnUse">
<stop/>
<stop offset="1" stop-opacity="0"/>
</linearGradient>
</defs>
</svg>
