<svg width="230" height="225" viewBox="0 0 230 225" fill="none" xmlns="http://www.w3.org/2000/svg">
<path opacity="0.68" d="M205.541 170.804C199.4 177.35 190.838 181.092 181.867 181.377C160.371 182.061 130.867 168.545 100.664 174.209C19.6003 189.404 4.12038 154.521 9.38054 120.405C9.56711 119.224 9.77441 118.047 10.0024 116.871C10.9405 112.077 12.2568 107.34 13.8271 102.79C14.4541 100.971 15.2108 99.1832 16.0866 97.4264C17.0868 95.4208 18.2373 93.4566 19.5277 91.5443C21.1706 89.1137 23.0363 86.7609 25.0937 84.4962C25.6482 83.8847 26.2183 83.2783 26.7987 82.6823C28.5452 80.8892 30.4057 79.1583 32.375 77.4947C54.6698 58.584 90.1436 48.0119 114.19 53.0751C122.083 54.7387 158.23 62.3154 161.226 78.8577C164.045 94.4413 178.955 102.604 192.756 105.946C194.171 106.485 195.565 107.118 196.928 107.828C201.789 110.372 206.318 113.938 209.93 118.182C214.113 123.085 217.072 128.894 217.901 135.072C219.907 149.981 213.309 162.513 205.541 170.804Z" fill="url(#paint0_linear_3538_136179)"/>
<path opacity="0.06" d="M205.541 170.806C199.4 177.351 190.838 181.093 181.867 181.378C160.371 182.062 130.867 168.546 100.664 174.211C19.6003 189.405 4.12038 154.523 9.38054 120.407H10.0024V97.4277H17.6051V114.058H19.0769C19.0613 105.621 19.0976 96.8369 19.0976 96.8369H19.5277V81.4139H20.813V80.1339H24.2386V81.4139H25.0937V92.551H26.6121C26.664 89.5555 26.7261 86.4616 26.7624 84.0933C26.7728 83.5802 26.7883 83.1086 26.7987 82.6836C26.8039 82.466 26.8091 82.2639 26.8091 82.0669V81.9529C26.8091 76.7705 31.3178 72.4224 31.3178 72.4224H32.375V100.693H33.2301V79.7815L35.3756 77.7966V79.0041L36.4069 78.5273L36.2307 96.8369V100.693H37.0858V75.9568L39.2262 77.5893V80.0924L39.4801 80.3256L41.0608 81.5228L41.2577 97.692H42.2268V98.1221H43.5121V96.8369H43.9422V74.5628C43.9422 74.5628 44.3672 74.3866 44.7973 74.2104V73.1272C44.7973 73.1272 45.6524 72.666 46.5075 72.6245V68.9398H46.9376V72.6245C47.3678 72.6349 47.7927 72.7645 48.2229 73.1272V74.1948C48.653 74.2933 49.078 74.4125 49.078 74.5628L48.9743 81.2015L49.5081 81.0926L50.1093 79.4187H50.7934V77.7033H53.3639V79.4187H54.6491V79.569L55.0015 76.926L55.0067 73.7129L55.5457 72.9873L56.5925 65.7578L57.5616 72.9303L58.6085 74.1015L58.0747 76.7498L59.2459 98.5471H59.3599V95.5516H62.3554V99.4074H62.7855V90.8408H64.5009V91.2657H66.6413V99.4074H67.0558C67.0921 99.4074 67.0662 99.625 67.0662 99.6613V99.7649C67.0662 99.796 67.0869 99.8219 67.0662 99.8323V100.262H67.9265V84.4146H72.2072V96.4067H73.4924V87.8402H74.3475V86.9851H76.493V87.8402H77.3482V95.5516H78.6334V101.014H88.0551V106.932H89.5528V94.0591H97.1554V106.932H99.8295V97.7749H104.841V106.932H108.298V93.6289L110.884 91.1517C111.101 90.9444 111.443 90.9548 111.651 91.1725L113.998 93.6289V106.932H116.59V97.7749H121.596V106.932H122.549V100.755H127.037V106.932H127.861V102.18H131.054V116.95H132.655V109.047H136.542V116.95H137.708V107.881H141.595L198.892 113.581L209.93 118.183C214.113 123.086 217.072 128.895 217.901 135.073C219.907 149.983 213.309 162.514 205.541 170.806Z" fill="#184151"/>
<path opacity="0.54" d="M24.0962 167.224C32.5565 175.761 57.2373 178.878 64.3212 177.53L48.1541 157.648L28.1862 157.695L24.0962 167.224Z" fill="url(#paint1_linear_3538_136179)"/>
<path d="M58.4482 123.426V156.563C58.4482 156.934 58.5996 157.112 58.2399 157.112H17.6418C17.2852 157.112 16.9888 156.934 16.9888 156.563V123.426H58.4482Z" fill="url(#paint2_linear_3538_136179)"/>
<path opacity="0.35" d="M43.5946 130.16H32.2886V153.867H43.5946V130.16Z" fill="white"/>
<path opacity="0.54" d="M41.7833 130.16H34.0999C33.5469 130.16 33.0991 130.608 33.0991 131.161V150.38C33.0991 150.933 33.5474 151.381 34.0999 151.381H41.7833C42.3363 151.381 42.7841 150.932 42.7841 150.38V131.161C42.7841 130.608 42.3363 130.16 41.7833 130.16Z" fill="white"/>
<path opacity="0.87" d="M28.1813 144.383H21.3218C20.4631 144.383 19.7671 143.687 19.7671 142.829V130.863C19.7671 130.005 20.4631 129.309 21.3218 129.309H28.1813C29.04 129.309 29.736 130.005 29.736 130.863V142.829C29.736 143.687 29.04 144.383 28.1813 144.383Z" fill="url(#paint3_linear_3538_136179)"/>
<path opacity="0.87" d="M54.6837 144.383H47.8243C46.9655 144.383 46.2695 143.687 46.2695 142.829V130.863C46.2695 130.005 46.9655 129.309 47.8243 129.309H54.6837C55.5425 129.309 56.2385 130.005 56.2385 130.863V142.829C56.2385 143.687 55.5425 144.383 54.6837 144.383Z" fill="url(#paint4_linear_3538_136179)"/>
<path d="M44.3225 154.081H31.5612C31.4146 154.081 31.2959 153.962 31.2959 153.816V152.508C31.2959 152.361 31.4146 152.242 31.5612 152.242H44.3225C44.4691 152.242 44.5878 152.361 44.5878 152.508V153.816C44.5878 153.962 44.4691 154.081 44.3225 154.081Z" fill="url(#paint5_linear_3538_136179)"/>
<path d="M45.9435 155.874H29.9401C29.7935 155.874 29.6748 155.755 29.6748 155.609V154.301C29.6748 154.154 29.7935 154.035 29.9401 154.035H45.9435C46.0902 154.035 46.2088 154.154 46.2088 154.301V155.609C46.2088 155.755 46.0896 155.874 45.9435 155.874Z" fill="url(#paint6_linear_3538_136179)"/>
<path d="M47.686 157.714H28.198C28.0513 157.714 27.9326 157.595 27.9326 157.448V156.14C27.9326 155.994 28.0513 155.875 28.198 155.875H47.686C47.8326 155.875 47.9513 155.994 47.9513 156.14V157.448C47.9513 157.595 47.8326 157.714 47.686 157.714Z" fill="url(#paint7_linear_3538_136179)"/>
<path d="M46.2809 101.656H32.323C31.0559 101.656 29.9448 102.74 29.9448 103.969V112.62C29.9448 112.888 30.249 113.058 30.5263 113.058H48.0776C48.3549 113.058 48.6016 112.888 48.6016 112.62V103.969C48.6016 102.74 47.5485 101.656 46.2809 101.656Z" fill="url(#paint8_linear_3538_136179)"/>
<g opacity="0.76">
<path d="M46.0674 102.227H32.5314C31.569 102.227 30.7891 103.007 30.7891 103.969V112.62H47.8092V103.969C47.8092 103.007 47.0293 102.227 46.0674 102.227Z" fill="url(#paint9_linear_3538_136179)"/>
</g>
<g opacity="0.06">
<path d="M28.795 129.309C29.3148 129.309 29.7361 129.73 29.7361 130.25V143.442C29.7361 143.962 29.3148 144.383 28.795 144.383H20.7083C20.1885 144.383 19.7672 143.962 19.7672 143.442V130.25C19.7672 129.73 20.1885 129.309 20.7083 129.309H28.795ZM28.795 128.336H20.7083C19.6532 128.336 18.7944 129.195 18.7944 130.25V143.442C18.7944 144.497 19.6532 145.356 20.7083 145.356H28.795C29.8501 145.356 30.7088 144.497 30.7088 143.442V130.25C30.7083 129.195 29.8501 128.336 28.795 128.336Z" fill="#5B5B5B"/>
</g>
<g opacity="0.76">
<path d="M28.1813 144.379H21.3218C20.4631 144.379 19.7671 143.683 19.7671 142.825V130.859C19.7671 130.001 20.4631 129.305 21.3218 129.305H28.1813C29.04 129.305 29.736 130.001 29.736 130.859V142.825C29.736 143.683 29.04 144.379 28.1813 144.379Z" fill="url(#paint10_linear_3538_136179)"/>
</g>
<g opacity="0.06">
<path d="M55.2271 129.309C55.7469 129.309 56.1682 129.73 56.1682 130.25V143.442C56.1682 143.962 55.7469 144.383 55.2271 144.383H47.1404C46.6206 144.383 46.1993 143.962 46.1993 143.442V130.25C46.1993 129.73 46.6206 129.309 47.1404 129.309H55.2271ZM55.2271 128.336H47.1404C46.0853 128.336 45.2266 129.195 45.2266 130.25V143.442C45.2266 144.497 46.0853 145.356 47.1404 145.356H55.2271C56.2822 145.356 57.141 144.497 57.141 143.442V130.25C57.1405 129.195 56.2822 128.336 55.2271 128.336Z" fill="#5B5B5B"/>
</g>
<g opacity="0.76">
<path d="M54.6134 144.379H47.7539C46.8952 144.379 46.1992 143.683 46.1992 142.825V130.859C46.1992 130.001 46.8952 129.305 47.7539 129.305H54.6134C55.4721 129.305 56.1681 130.001 56.1681 130.859V142.825C56.1681 143.683 55.4721 144.379 54.6134 144.379Z" fill="url(#paint11_linear_3538_136179)"/>
</g>
<path opacity="0.11" d="M43.5644 131.461H43.5499H39.8211H39.8066H36.0779H36.0634H32.3346H32.3201H28.6162V132.413C28.6162 133.315 29.3075 134.054 30.2083 134.054H30.7027C31.579 134.054 32.288 133.362 32.3268 132.495C32.3657 133.362 33.0752 134.054 33.951 134.054H34.4454C35.3218 134.054 36.0312 133.362 36.0701 132.495C36.109 133.362 36.8184 134.054 37.6943 134.054H38.1887C39.065 134.054 39.7745 133.362 39.8134 132.495C39.8522 133.362 40.5617 134.054 41.4376 134.054H41.932C42.8083 134.054 43.5173 133.362 43.5561 132.495C43.595 133.362 44.3045 134.054 45.1803 134.054H45.6747C46.5759 134.054 47.417 133.315 47.417 132.413V131.461H43.5644Z" fill="#123844"/>
<path d="M30.4548 133.232C29.4173 133.232 28.5757 132.391 28.5757 131.353V130.727H32.334V131.353C32.334 132.391 31.4929 133.232 30.4548 133.232Z" fill="url(#paint12_linear_3538_136179)"/>
<path d="M34.1985 133.232C33.161 133.232 32.3193 132.391 32.3193 131.353V130.727H36.0776V131.353C36.0776 132.391 35.236 133.232 34.1985 133.232Z" fill="url(#paint13_linear_3538_136179)"/>
<path d="M37.9416 133.232C36.9041 133.232 36.0625 132.391 36.0625 131.353V130.727H39.8208V131.353C39.8208 132.391 38.9797 133.232 37.9416 133.232Z" fill="url(#paint14_linear_3538_136179)"/>
<path d="M41.6853 133.232C40.6478 133.232 39.8062 132.391 39.8062 131.353V130.727H43.5645V131.353C43.5645 132.391 42.7233 133.232 41.6853 133.232Z" fill="url(#paint15_linear_3538_136179)"/>
<path d="M45.429 133.232C44.3914 133.232 43.5498 132.391 43.5498 131.353V130.727H47.3081V131.353C47.3081 132.391 46.4665 133.232 45.429 133.232Z" fill="url(#paint16_linear_3538_136179)"/>
<path d="M32.334 130.73H28.5762L30.5201 125.364C30.703 124.859 31.1798 124.52 31.7167 124.513L33.8306 124.484L32.334 130.73Z" fill="url(#paint17_linear_3538_136179)"/>
<path d="M36.0776 130.727H32.3193L33.8181 124.482L36.8249 124.441L36.0776 130.727Z" fill="url(#paint18_linear_3538_136179)"/>
<path d="M39.8208 130.724H36.0625L36.8129 124.439L39.8192 124.398L39.8208 130.724Z" fill="url(#paint19_linear_3538_136179)"/>
<path d="M43.5639 130.725H39.8062L39.8077 124.4L42.814 124.359L43.5639 130.725Z" fill="url(#paint20_linear_3538_136179)"/>
<path d="M47.3078 130.725H43.5495L42.8027 124.359L44.771 124.332C45.3774 124.324 45.9075 124.739 46.0459 125.329L47.3078 130.725Z" fill="url(#paint21_linear_3538_136179)"/>
<path d="M48.452 137.772C48.1182 137.438 48.1182 136.891 48.452 136.557L51.9232 133.086C52.2569 132.753 52.8037 132.753 53.1374 133.086C53.4712 133.42 53.4712 133.967 53.1374 134.3L49.6662 137.772C49.332 138.106 48.7857 138.106 48.452 137.772Z" fill="url(#paint22_linear_3538_136179)"/>
<path d="M50.4051 139.725C50.0713 139.391 50.0713 138.844 50.4051 138.511L53.8763 135.039C54.21 134.706 54.7568 134.706 55.0905 135.039C55.4243 135.373 55.4243 135.92 55.0905 136.254L51.6193 139.725C51.2856 140.059 50.7388 140.059 50.4051 139.725Z" fill="url(#paint23_linear_3538_136179)"/>
<path d="M21.3861 137.772C21.0523 137.438 21.0523 136.891 21.3861 136.557L24.8572 133.086C25.191 132.753 25.7377 132.753 26.0715 133.086C26.4052 133.42 26.4052 133.967 26.0715 134.3L22.6003 137.772C22.2666 138.106 21.7198 138.106 21.3861 137.772Z" fill="url(#paint24_linear_3538_136179)"/>
<path d="M23.3392 139.725C23.0054 139.391 23.0054 138.844 23.3392 138.511L26.8104 135.039C27.1441 134.706 27.6909 134.706 28.0246 135.039C28.3584 135.373 28.3584 135.92 28.0246 136.254L24.5534 139.725C24.2197 140.059 23.6734 140.059 23.3392 139.725Z" fill="url(#paint25_linear_3538_136179)"/>
<path d="M41.4752 141.51C41.863 141.51 42.1774 141.196 42.1774 140.808C42.1774 140.42 41.863 140.105 41.4752 140.105C41.0873 140.105 40.7729 140.42 40.7729 140.808C40.7729 141.196 41.0873 141.51 41.4752 141.51Z" fill="url(#paint26_linear_3538_136179)"/>
<path opacity="0.11" d="M58.8884 123.68V128.866H58.1945C56.917 128.866 55.8276 127.959 55.3902 126.677C55.3224 126.477 55.0726 126.477 55.0047 126.677C54.5673 127.958 53.4779 128.866 52.2036 128.866H51.2925C50.015 128.866 48.9257 127.959 48.4883 126.677C48.4204 126.477 48.1706 126.477 48.1027 126.677C47.6653 127.958 46.576 128.866 45.3016 128.866H44.3874C43.1136 128.866 42.0242 127.959 41.5863 126.677C41.5184 126.477 41.2686 126.477 41.2007 126.677C40.7628 127.958 39.674 128.866 38.3996 128.866H37.4855C36.2116 128.866 35.1223 127.959 34.6844 126.677C34.6165 126.477 34.3667 126.477 34.2988 126.677C33.8609 127.958 32.772 128.866 31.4946 128.866H30.5835C29.3097 128.866 28.2203 127.959 27.7824 126.677C27.7109 126.477 27.4647 126.477 27.3932 126.677C26.9589 127.958 25.8696 128.866 24.5921 128.866H23.681C22.4035 128.866 21.3178 127.959 20.8799 126.677C20.8084 126.477 20.5622 126.477 20.4907 126.677C20.0533 127.958 18.964 128.866 17.6896 128.866H16.9438V123.68H58.8884Z" fill="#123844"/>
<path d="M17.2345 126.917C15.3212 126.917 13.7695 125.366 13.7695 123.452V122.297H20.699V123.452C20.6995 125.365 19.1479 126.917 17.2345 126.917Z" fill="url(#paint27_linear_3538_136179)"/>
<path d="M24.1369 126.917C22.2235 126.917 20.6719 125.366 20.6719 123.452V122.297H27.6018V123.452C27.6018 125.365 26.0502 126.917 24.1369 126.917Z" fill="url(#paint28_linear_3538_136179)"/>
<path d="M31.0397 126.917C29.1263 126.917 27.5747 125.366 27.5747 123.452V122.297H34.5041V123.452C34.5047 125.365 32.953 126.917 31.0397 126.917Z" fill="url(#paint29_linear_3538_136179)"/>
<path d="M37.942 126.917C36.0287 126.917 34.4771 125.366 34.4771 123.452V122.297H41.4065V123.452C41.407 125.365 39.8554 126.917 37.942 126.917Z" fill="url(#paint30_linear_3538_136179)"/>
<path d="M44.8444 126.917C42.931 126.917 41.3794 125.366 41.3794 123.452V122.297H48.3088V123.452C48.3093 125.365 46.7577 126.917 44.8444 126.917Z" fill="url(#paint31_linear_3538_136179)"/>
<path d="M51.7472 126.917C49.8338 126.917 48.2822 125.366 48.2822 123.452V122.297H55.2117V123.452C55.2122 125.365 53.6611 126.917 51.7472 126.917Z" fill="url(#paint32_linear_3538_136179)"/>
<path d="M58.6495 126.917C56.7362 126.917 55.1846 125.366 55.1846 123.452V122.297H62.114V123.452C62.1145 125.365 60.5634 126.917 58.6495 126.917Z" fill="url(#paint33_linear_3538_136179)"/>
<path d="M20.6995 122.297H13.7695L18.7566 112.038C19.0867 111.359 19.7713 110.924 20.5259 110.914L24.8382 110.855L20.6995 122.297Z" fill="url(#paint34_linear_3538_136179)"/>
<path d="M27.6018 122.301H20.6719L24.8168 110.86L30.3604 110.785L27.6018 122.301Z" fill="url(#paint35_linear_3538_136179)"/>
<path d="M34.5047 122.297H27.5747L30.339 110.781L35.8827 110.707L34.5047 122.297Z" fill="url(#paint36_linear_3538_136179)"/>
<path d="M41.407 122.297H34.4771L35.8608 110.707L41.4044 110.633L41.407 122.297Z" fill="url(#paint37_linear_3538_136179)"/>
<path d="M48.3093 122.297H41.3794L41.3825 110.633L46.9262 110.559L48.3093 122.297Z" fill="url(#paint38_linear_3538_136179)"/>
<path d="M55.2117 122.297H48.2823L46.9048 110.559L52.4484 110.484L55.2117 122.297Z" fill="url(#paint39_linear_3538_136179)"/>
<path d="M62.1143 122.298H55.1848L52.4268 110.485L56.5312 110.43C57.3905 110.418 58.1611 110.958 58.4441 111.77L62.1143 122.298Z" fill="url(#paint40_linear_3538_136179)"/>
<g opacity="0.51">
<path d="M27.6018 122.301H20.6719L24.8168 110.86L30.3604 110.785L27.6018 122.301Z" fill="white"/>
</g>
<g opacity="0.51">
<path d="M41.407 122.297H34.4771L35.8608 110.707L41.4044 110.633L41.407 122.297Z" fill="white"/>
</g>
<g opacity="0.51">
<path d="M55.2117 122.297H48.2823L46.9048 110.559L52.4484 110.484L55.2117 122.297Z" fill="white"/>
</g>
<g opacity="0.13">
<path d="M200.676 164.261L200.966 162.446C201.792 162.344 202.596 162.149 203.364 161.873L204.443 163.362C204.791 163.842 205.469 163.951 205.949 163.603L209.282 161.189C209.763 160.84 209.871 160.162 209.523 159.682L208.445 158.193C208.947 157.549 209.382 156.846 209.737 156.093L211.552 156.383C212.138 156.477 212.694 156.073 212.787 155.488L213.437 151.424C213.53 150.838 213.127 150.282 212.541 150.188L210.727 149.898C210.624 149.072 210.43 148.268 210.153 147.5L211.642 146.421C212.123 146.073 212.231 145.395 211.883 144.915L209.469 141.582C209.121 141.101 208.443 140.993 207.962 141.341L206.473 142.419C205.829 141.917 205.126 141.482 204.373 141.127L204.663 139.312C204.757 138.726 204.354 138.17 203.768 138.077L199.704 137.428C199.118 137.334 198.562 137.737 198.469 138.323L198.178 140.138C197.352 140.24 196.549 140.434 195.78 140.711L194.701 139.222C194.353 138.741 193.675 138.633 193.195 138.981L189.862 141.395C189.382 141.744 189.273 142.421 189.621 142.902L190.7 144.391C190.197 145.035 189.763 145.738 189.408 146.491L187.593 146.201C187.007 146.107 186.451 146.51 186.357 147.096L185.708 151.16C185.614 151.746 186.017 152.302 186.603 152.396L188.418 152.686C188.52 153.512 188.715 154.316 188.991 155.084L187.502 156.163C187.022 156.511 186.913 157.189 187.261 157.669L189.676 161.002C190.024 161.482 190.702 161.591 191.182 161.243L192.671 160.164C193.315 160.667 194.018 161.101 194.771 161.456L194.481 163.271C194.387 163.858 194.791 164.414 195.376 164.507L199.44 165.156C200.026 165.25 200.582 164.847 200.676 164.261ZM192.697 150.327C193.247 146.426 196.92 143.765 200.798 144.459C204.452 145.112 206.965 148.581 206.447 152.257C205.898 156.158 202.224 158.819 198.347 158.125C194.692 157.472 192.179 154.003 192.697 150.327Z" fill="#5D5D5D"/>
<path d="M199.572 156.066C202.209 156.066 204.347 153.928 204.347 151.291C204.347 148.654 202.209 146.516 199.572 146.516C196.935 146.516 194.797 148.654 194.797 151.291C194.797 153.928 196.935 156.066 199.572 156.066Z" fill="#5D5D5D"/>
<path d="M199.572 153.1C200.57 153.1 201.379 152.29 201.379 151.292C201.379 150.294 200.57 149.484 199.572 149.484C198.573 149.484 197.764 150.294 197.764 151.292C197.764 152.29 198.573 153.1 199.572 153.1Z" fill="#5D5D5D"/>
<path d="M211.429 140.916L211.544 140.196C211.872 140.155 212.191 140.078 212.496 139.968L212.924 140.559C213.062 140.75 213.331 140.793 213.521 140.655L214.843 139.697C215.034 139.559 215.077 139.289 214.939 139.099L214.511 138.509C214.71 138.253 214.882 137.974 215.023 137.675L215.743 137.79C215.976 137.828 216.196 137.667 216.233 137.435L216.491 135.823C216.528 135.59 216.368 135.37 216.136 135.333L215.416 135.218C215.375 134.89 215.298 134.571 215.189 134.266L215.779 133.838C215.97 133.7 216.013 133.431 215.875 133.241L214.917 131.919C214.779 131.728 214.51 131.685 214.319 131.823L213.729 132.251C213.473 132.052 213.194 131.88 212.895 131.739L213.01 131.019C213.048 130.786 212.888 130.566 212.655 130.529L211.043 130.271C210.81 130.234 210.59 130.394 210.553 130.626L210.438 131.346C210.11 131.387 209.791 131.464 209.486 131.573L209.058 130.983C208.92 130.792 208.651 130.749 208.461 130.887L207.139 131.845C206.948 131.983 206.905 132.252 207.043 132.442L207.471 133.033C207.272 133.289 207.1 133.568 206.959 133.867L206.239 133.752C206.006 133.714 205.786 133.874 205.749 134.107L205.491 135.719C205.454 135.951 205.614 136.172 205.846 136.209L206.566 136.324C206.607 136.652 206.684 136.971 206.794 137.276L206.203 137.704C206.012 137.842 205.969 138.111 206.107 138.301L207.065 139.623C207.203 139.814 207.472 139.857 207.663 139.719L208.253 139.291C208.509 139.49 208.788 139.662 209.087 139.803L208.972 140.523C208.934 140.756 209.095 140.976 209.327 141.013L210.939 141.271C211.171 141.308 211.392 141.148 211.429 140.916ZM208.264 135.388C208.482 133.84 209.939 132.785 211.477 133.06C212.927 133.319 213.924 134.695 213.719 136.154C213.501 137.701 212.043 138.757 210.505 138.482C209.055 138.222 208.059 136.846 208.264 135.388Z" fill="#5D5D5D"/>
<path d="M210.991 137.663C212.037 137.663 212.886 136.815 212.886 135.769C212.886 134.723 212.037 133.875 210.991 133.875C209.945 133.875 209.097 134.723 209.097 135.769C209.097 136.815 209.945 137.663 210.991 137.663Z" fill="#5D5D5D"/>
<path d="M210.992 136.485C211.388 136.485 211.709 136.164 211.709 135.768C211.709 135.372 211.388 135.051 210.992 135.051C210.596 135.051 210.274 135.372 210.274 135.768C210.274 136.164 210.596 136.485 210.992 136.485Z" fill="#5D5D5D"/>
<path d="M198.592 136.801L198.793 135.541C199.367 135.47 199.925 135.335 200.459 135.143L201.209 136.177C201.451 136.511 201.921 136.586 202.255 136.345L204.57 134.668C204.904 134.426 204.979 133.955 204.738 133.621L203.988 132.587C204.337 132.139 204.639 131.651 204.886 131.128L206.146 131.329C206.553 131.395 206.94 131.115 207.005 130.707L207.456 127.885C207.521 127.478 207.242 127.091 206.834 127.026L205.574 126.825C205.502 126.251 205.368 125.693 205.176 125.159L206.21 124.409C206.544 124.167 206.619 123.697 206.378 123.362L204.701 121.047C204.459 120.714 203.988 120.638 203.654 120.88L202.619 121.629C202.172 121.281 201.683 120.978 201.16 120.732L201.362 119.471C201.427 119.065 201.147 118.678 200.74 118.613L197.917 118.162C197.51 118.097 197.124 118.376 197.059 118.784L196.857 120.044C196.284 120.116 195.726 120.25 195.191 120.442L194.442 119.408C194.2 119.074 193.729 118.999 193.395 119.24L191.08 120.917C190.746 121.159 190.671 121.63 190.913 121.964L191.662 122.999C191.313 123.446 191.011 123.935 190.764 124.457L189.504 124.256C189.097 124.191 188.711 124.47 188.646 124.878L188.195 127.701C188.129 128.107 188.409 128.494 188.816 128.559L190.077 128.76C190.148 129.334 190.283 129.892 190.475 130.427L189.44 131.176C189.107 131.418 189.031 131.889 189.273 132.223L190.95 134.538C191.192 134.872 191.663 134.947 191.997 134.705L193.031 133.956C193.479 134.305 193.967 134.607 194.49 134.853L194.289 136.114C194.223 136.521 194.503 136.907 194.91 136.972L197.733 137.423C198.14 137.489 198.526 137.209 198.592 136.801ZM193.049 127.122C193.431 124.413 195.983 122.564 198.676 123.046C201.214 123.5 202.96 125.91 202.6 128.463C202.219 131.173 199.667 133.021 196.973 132.539C194.435 132.085 192.69 129.676 193.049 127.122Z" fill="#5D5D5D"/>
<path d="M197.825 131.11C199.657 131.11 201.142 129.625 201.142 127.793C201.142 125.962 199.657 124.477 197.825 124.477C195.993 124.477 194.508 125.962 194.508 127.793C194.508 129.625 195.993 131.11 197.825 131.11Z" fill="#5D5D5D"/>
<path d="M197.825 129.05C198.519 129.05 199.081 128.488 199.081 127.795C199.081 127.101 198.519 126.539 197.825 126.539C197.132 126.539 196.569 127.101 196.569 127.795C196.569 128.488 197.132 129.05 197.825 129.05Z" fill="#5D5D5D"/>
</g>
<path d="M200.784 75.4746L198.965 108.969L195.213 178.237C193.394 179.077 191.502 179.756 189.559 180.263C188.724 180.481 187.88 180.668 187.03 180.823C185.335 181.134 183.609 181.321 181.868 181.378C169.145 181.782 153.624 177.211 136.807 174.594L142.875 79.8849L143.103 76.2624C143.197 74.8372 144.129 73.6504 145.404 73.1892C145.757 73.0544 146.135 72.9819 146.529 72.9715L158.386 72.6917L197.187 71.7744C199.234 71.7277 200.887 73.4328 200.784 75.4746Z" fill="url(#paint41_linear_3538_136179)"/>
<path d="M195.223 75.7989L193.57 106.266L189.558 180.261C188.724 180.479 187.879 180.665 187.029 180.821C185.335 181.132 183.609 181.318 181.868 181.375C168.388 181.806 151.763 176.649 133.79 174.146C132.966 174.032 132.142 173.918 131.313 173.819L137.547 76.5866C137.661 74.7675 139.149 73.3372 140.973 73.2906L145.404 73.1869L158.531 72.876L191.626 72.0986C193.673 72.052 195.332 73.7518 195.223 75.7989Z" fill="url(#paint42_linear_3538_136179)"/>
<path opacity="0.17" d="M191.999 80.5174L190.766 105.429L187.029 180.823C185.335 181.134 183.609 181.321 181.867 181.378C168.388 181.808 151.763 176.652 133.79 174.148L139.009 81.5902C139.061 80.6781 139.807 79.9629 140.719 79.9421L142.875 79.8851L161.335 79.4135L190.196 78.6725C191.217 78.6465 192.046 79.4965 191.999 80.5174Z" fill="#5D5D5D"/>
<path d="M159.761 95.6517L159.825 91.4223C159.858 89.2431 161.657 87.4972 163.837 87.5303C166.016 87.5635 167.762 89.3628 167.729 91.5421L167.664 95.7714L168.854 95.7896L168.919 91.5602C168.962 88.7249 166.69 86.3835 163.854 86.3404C161.019 86.2974 158.677 88.5694 158.635 91.4047L158.57 95.6341L159.761 95.6517Z" fill="#184151"/>
<path d="M172.073 94.8116L169.719 94.7759L157.737 94.5945L155.382 94.5587C154.733 94.5489 154.193 95.0723 154.183 95.7222L154.145 98.2258L153.994 108.239L153.956 110.743C153.946 111.393 154.469 111.932 155.119 111.942L157.474 111.978L169.455 112.159L171.81 112.195C172.46 112.205 173 111.681 173.009 111.032L173.047 108.528L173.199 98.5145L173.237 96.0108C173.247 95.3615 172.723 94.8215 172.073 94.8116Z" fill="url(#paint43_linear_3538_136179)"/>
<path opacity="0.77" d="M166.207 101.1C166.207 99.8193 165.127 98.7812 163.847 98.7812C162.566 98.7812 161.507 99.8193 161.507 101.1C161.507 102.001 161.946 102.781 162.697 103.165C162.695 103.187 162.614 103.21 162.614 103.233V107.241C162.614 107.729 163.163 108.128 163.651 108.128C164.139 108.128 164.687 107.729 164.687 107.241V103.306C165.206 103.003 166.207 102.131 166.207 101.1Z" fill="#5D5D5D"/>
<path opacity="0.47" d="M171.527 122.666L154.562 122.253C153.992 122.239 153.537 121.762 153.551 121.192L153.619 118.371C153.633 117.801 154.11 117.346 154.68 117.36L171.646 117.773C172.216 117.787 172.671 118.264 172.657 118.834L172.589 121.655C172.575 122.225 172.098 122.68 171.527 122.666Z" fill="white"/>
<path opacity="0.77" d="M158.092 118.621L158.643 118.629L158.418 120.558L159.612 120.577L159.559 121.025L157.814 120.998L158.092 118.621Z" fill="#5D5D5D"/>
<path opacity="0.77" d="M159.789 120.113C159.854 119.563 160.324 119.179 160.906 119.188C161.487 119.196 161.863 119.594 161.799 120.144C161.735 120.694 161.267 121.078 160.686 121.069C160.105 121.06 159.725 120.663 159.789 120.113ZM161.262 120.136C161.299 119.82 161.121 119.627 160.855 119.622C160.59 119.618 160.364 119.805 160.327 120.121C160.29 120.437 160.472 120.63 160.737 120.634C161.003 120.638 161.225 120.451 161.262 120.136Z" fill="#5D5D5D"/>
<path opacity="0.77" d="M164.148 119.267L163.971 120.788C163.892 121.467 163.488 121.774 162.829 121.764C162.482 121.759 162.155 121.668 161.96 121.498L162.215 121.122C162.357 121.25 162.603 121.335 162.837 121.339C163.212 121.344 163.394 121.177 163.433 120.848L163.442 120.77C163.285 120.921 163.076 120.993 162.838 120.989C162.331 120.981 161.964 120.625 162.026 120.092C162.088 119.559 162.537 119.215 163.044 119.223C163.299 119.227 163.5 119.315 163.618 119.494L163.646 119.26L164.148 119.267ZM163.525 120.115C163.556 119.846 163.377 119.663 163.098 119.659C162.819 119.654 162.594 119.831 162.562 120.1C162.531 120.368 162.714 120.551 162.993 120.555C163.272 120.56 163.493 120.383 163.525 120.115Z" fill="#5D5D5D"/>
<path opacity="0.77" d="M164.642 118.724C164.661 118.558 164.809 118.431 165.006 118.434C165.204 118.437 165.322 118.561 165.303 118.724C165.282 118.901 165.135 119.028 164.938 119.024C164.741 119.021 164.623 118.89 164.642 118.724ZM164.643 119.275L165.173 119.283L164.96 121.11L164.43 121.102L164.643 119.275Z" fill="#5D5D5D"/>
<path opacity="0.77" d="M167.447 120.102L167.325 121.148L166.795 121.139L166.907 120.175C166.941 119.879 166.822 119.742 166.587 119.738C166.332 119.734 166.13 119.887 166.091 120.224L165.986 121.127L165.455 121.119L165.668 119.292L166.175 119.3L166.15 119.513C166.311 119.359 166.536 119.277 166.783 119.281C167.215 119.288 167.512 119.545 167.447 120.102Z" fill="#5D5D5D"/>
<path opacity="0.88" d="M172.708 169.446L148.265 168.414C147.181 168.368 146.338 167.452 146.385 166.368L147.673 135.862C147.719 134.778 148.635 133.936 149.719 133.982L158.708 134.362L174.163 135.015C175.247 135.061 176.089 135.977 176.043 137.061L174.755 167.567C174.709 168.65 173.792 169.492 172.708 169.446Z" fill="url(#paint44_linear_3538_136179)"/>
<path opacity="0.38" d="M153.633 144.912L152.823 164.084C152.805 164.519 153.142 164.887 153.578 164.905L169.301 165.57C169.735 165.588 170.103 165.25 170.121 164.815L170.931 145.642C170.95 145.207 170.612 144.839 170.177 144.821L154.454 144.157C154.019 144.139 153.651 144.477 153.633 144.912Z" fill="url(#paint45_linear_3538_136179)"/>
<path opacity="0.11" d="M153.666 144.125L153.486 148.378C153.998 148.729 154.608 148.948 155.273 148.976C157.162 149.056 158.757 147.59 158.838 145.701C158.758 147.59 160.225 149.185 162.114 149.265L162.315 144.491L153.666 144.125Z" fill="url(#paint46_linear_3538_136179)"/>
<path opacity="0.11" d="M165.679 145.987C165.599 147.876 167.066 149.472 168.955 149.552C169.619 149.579 170.246 149.413 170.785 149.107L170.965 144.854L162.316 144.488L162.115 149.262C164.003 149.343 165.599 147.876 165.679 145.987Z" fill="url(#paint47_linear_3538_136179)"/>
<path opacity="0.19" d="M164.231 153.926L168.259 154.096L167.778 165.503L163.749 165.332L164.231 153.926Z" fill="url(#paint48_linear_3538_136179)"/>
<path d="M156.104 149.969L161.704 150.205C161.908 150.214 162.066 150.386 162.058 150.59L161.817 156.298C161.808 156.502 161.636 156.66 161.432 156.652L155.832 156.415C155.628 156.407 155.47 156.235 155.478 156.03L155.719 150.323C155.727 150.119 155.9 149.961 156.104 149.969Z" fill="url(#paint49_linear_3538_136179)"/>
<path d="M153.583 141.108L152.054 144.055L155.429 145.274L158.894 144.344L160.298 142.673L159.578 140.911L154.309 140.688C154.005 140.676 153.723 140.839 153.583 141.108Z" fill="url(#paint50_linear_3538_136179)"/>
<path d="M171.301 141.858L172.576 144.923L169.11 145.854L165.735 144.635L164.478 142.851L165.344 141.156L170.614 141.379C170.917 141.391 171.185 141.578 171.301 141.858Z" fill="url(#paint51_linear_3538_136179)"/>
<path d="M152.054 144.059C151.975 145.948 153.441 147.543 155.33 147.623C157.219 147.703 158.815 146.237 158.895 144.347L152.054 144.059Z" fill="url(#paint52_linear_3538_136179)"/>
<path d="M165.344 141.154L159.578 140.91L158.895 144.344L162.27 145.562L165.735 144.632L165.344 141.154Z" fill="url(#paint53_linear_3538_136179)"/>
<path d="M158.895 144.344C158.815 146.233 160.282 147.828 162.171 147.908C164.06 147.988 165.656 146.522 165.736 144.632L158.895 144.344Z" fill="url(#paint54_linear_3538_136179)"/>
<path d="M165.736 144.633C165.656 146.522 167.122 148.117 169.011 148.197C170.9 148.277 172.497 146.811 172.576 144.921L165.736 144.633Z" fill="url(#paint55_linear_3538_136179)"/>
<path opacity="0.85" d="M156.925 154.362C156.848 154.359 156.771 154.335 156.704 154.287C156.517 154.156 156.472 153.897 156.604 153.71L158.276 151.339C158.407 151.153 158.666 151.108 158.853 151.24C159.04 151.372 159.084 151.63 158.953 151.817L157.281 154.188C157.197 154.307 157.06 154.368 156.925 154.362Z" fill="white"/>
<path opacity="0.85" d="M158.087 155.624C158.009 155.621 157.932 155.596 157.864 155.548C157.678 155.415 157.635 155.156 157.767 154.97L160.294 151.42C160.426 151.234 160.685 151.19 160.871 151.323C161.057 151.456 161.101 151.714 160.969 151.9L158.442 155.451C158.357 155.569 158.222 155.63 158.087 155.624Z" fill="white"/>
<path d="M202.409 86.5239L195.967 91.7359C193.635 93.6223 190.301 93.6223 187.97 91.7359L181.528 86.5239C180.035 85.3169 179.168 83.5005 179.168 81.5814V68.6098C179.168 67.8848 179.571 67.2209 180.209 66.8763C188.57 62.3525 196.446 62.3007 203.824 66.8519C204.407 67.2116 204.768 67.8459 204.768 68.5316V81.582C204.768 83.5005 203.901 85.3169 202.409 86.5239Z" fill="url(#paint56_linear_3538_136179)"/>
<g opacity="0.78">
<path d="M196.513 70.3496C194.663 69.1162 192.154 69.6111 190.912 71.4696C189.955 72.9061 190.052 74.7402 191.01 76.0633L187.577 81.2089C187.147 81.85 187.326 82.7268 187.967 83.157C188.608 83.5788 189.476 83.4083 189.907 82.7755L190.856 83.4166C191.173 83.6275 191.603 83.5384 191.814 83.2218C192.025 82.9134 191.936 82.4833 191.619 82.2723L190.669 81.639L190.978 81.1762L191.927 81.8095C192.244 82.0205 192.674 81.9313 192.885 81.623C193.088 81.3063 193.007 80.8762 192.69 80.6653L191.741 80.0325L193.348 77.6221C194.938 77.9953 196.667 77.3869 197.633 75.9503C198.866 74.0908 198.363 71.583 196.513 70.3496ZM195.547 74.5619C195.076 75.26 194.126 75.4548 193.42 74.9838C192.714 74.5132 192.527 73.5633 192.998 72.8574C193.469 72.1516 194.419 71.9567 195.125 72.4273C195.831 72.8978 196.017 73.8555 195.547 74.5619Z" fill="white"/>
</g>
<path d="M149.368 113.163C149.427 113.814 149.454 114.629 149.446 115.561C149.415 116.177 149.415 116.845 149.315 117.545C149.262 118.242 149.123 118.978 148.971 119.728C148.826 120.484 148.574 121.246 148.334 122.007C148.013 122.752 147.776 123.539 147.331 124.236L146.736 125.298C146.489 125.628 146.249 125.95 146.008 126.273C145.562 126.936 144.96 127.458 144.426 127.997C143.921 128.562 143.257 128.919 142.718 129.337C142.179 129.775 141.578 130.041 141.045 130.311C140.504 130.567 140.047 130.88 139.574 131.004C139.116 131.162 138.718 131.296 138.386 131.407C137.888 131.574 137.55 131.692 137.417 131.732C137.542 131.678 137.866 131.541 138.355 131.328C138.672 131.19 139.055 131.023 139.498 130.832C139.956 130.675 140.377 130.323 140.889 130.035C141.387 129.727 141.952 129.429 142.435 128.959C142.925 128.503 143.528 128.122 143.971 127.54C144.436 126.984 144.963 126.452 145.328 125.786C145.529 125.472 145.736 125.152 145.935 124.825L146.417 123.789C146.775 123.11 146.933 122.353 147.182 121.645C147.341 120.915 147.522 120.198 147.601 119.492C147.62 119.316 147.632 119.146 147.65 118.977C146.748 120.526 145.474 122.054 143.731 123.51C139.442 127.103 134.955 128.621 130.324 128.594C121.462 128.567 112.053 122.932 102.398 115.602C87.6936 104.432 88.8187 88.3087 88.9275 83.9643C89.0094 80.7144 89.4592 77.1219 90.1827 73.6041C91.6576 66.4585 94.269 59.6353 97.2997 56.644C97.1717 56.6503 97.0442 56.6632 96.9167 56.6834C96.6032 56.7529 96.2757 56.8234 95.9658 56.9669C95.6408 57.084 95.3599 57.2737 95.0583 57.4504C94.7785 57.6598 94.5054 57.8624 94.2602 58.0972C93.757 58.561 93.3709 59.0793 93.0491 59.5338C92.7832 59.8914 92.6247 60.2298 92.4894 60.4993C92.5552 60.1925 92.5961 59.7924 92.791 59.3643C93.0278 58.8331 93.2118 58.1827 93.6539 57.5738C93.8612 57.2664 94.1374 56.983 94.4059 56.6793C94.7101 56.4145 95.0127 56.1227 95.3724 55.8957C95.7108 55.6428 96.1067 55.4681 96.5037 55.2997C96.9074 55.138 97.321 55.0364 97.7356 54.9686C98.1517 54.9276 98.5689 54.8934 98.9555 54.9354C99.354 54.9426 99.7101 55.0463 100.051 55.1106C100.373 55.223 100.667 55.2961 100.943 55.4308C101.199 55.5531 101.496 55.6936 101.615 55.7755C101.713 55.8314 101.978 56.0139 102.307 56.2611C102.944 56.7358 103.844 57.4535 104.399 58.0335C104.399 58.0335 105.518 52.2825 110.424 51.6078C116.853 50.7293 131.625 58.3729 127.501 68.9896C127.208 69.7395 126.82 70.5081 126.333 71.288C125.744 72.2147 125.243 73.1439 124.83 74.0684C120.655 83.2367 124.624 91.8405 135.506 95.7284C142.343 98.1776 149.593 105.451 149.368 113.163Z" fill="#0A2B3C"/>
<path opacity="0.48" d="M102.309 56.2594C99.1777 54.4699 97.7753 56.2967 94.7908 61.7062C92.9412 65.0587 91.1444 70.1131 90.1836 73.6019C91.6585 66.4564 94.2699 59.6332 97.3006 56.6419C97.1726 56.6481 97.0451 56.6611 96.9176 56.6813C96.6041 56.7507 96.2766 56.8212 95.9667 56.9648C95.6417 57.0819 95.3608 57.2716 95.0592 57.4483C94.7794 57.6576 94.5063 57.8603 94.2611 58.095C93.7579 58.5589 93.3718 59.0771 93.05 59.5316C92.7841 59.8892 92.6256 60.2276 92.4903 60.4971C92.5561 60.1903 92.5971 59.7902 92.7919 59.3621C93.0288 58.8309 93.2127 58.1805 93.6548 57.5716C93.8621 57.2643 94.1383 56.9808 94.4068 56.6771C94.711 56.4123 95.0136 56.1205 95.3733 55.8935C95.7117 55.6406 96.1076 55.466 96.5046 55.2976C96.9083 55.1359 97.3219 55.0343 97.7365 54.9664C98.1526 54.9255 98.5698 54.8913 98.9564 54.9332C99.3549 54.9405 99.711 55.0441 100.051 55.1084C100.374 55.2209 100.668 55.2939 100.944 55.4287C101.2 55.551 101.497 55.6914 101.616 55.7733C101.714 55.8298 101.979 56.0122 102.309 56.2594Z" fill="url(#paint57_linear_3538_136179)"/>
<path opacity="0.4" d="M149.368 113.162C149.427 113.813 149.454 114.628 149.446 115.56C149.415 116.176 149.415 116.844 149.315 117.544C149.262 118.241 149.123 118.977 148.971 119.727C148.826 120.483 148.574 121.245 148.334 122.006C148.014 122.751 147.776 123.538 147.332 124.235L146.736 125.297C146.489 125.627 146.249 125.949 146.008 126.272C145.562 126.935 144.96 127.457 144.426 127.996C143.921 128.561 143.257 128.918 142.718 129.336C142.179 129.774 141.579 130.04 141.045 130.31C140.504 130.566 140.047 130.879 139.574 131.003C139.116 131.161 138.718 131.295 138.386 131.406C137.815 131.597 137.457 131.722 137.377 131.746C137.45 131.716 137.801 131.57 138.355 131.327C138.672 131.189 139.055 131.022 139.498 130.831C139.956 130.674 140.377 130.322 140.889 130.033C141.387 129.726 141.952 129.428 142.435 128.958C142.925 128.502 143.528 128.121 143.971 127.539C144.436 126.983 144.963 126.451 145.329 125.785C145.529 125.471 145.736 125.151 145.935 124.824L146.417 123.788C146.775 123.109 146.934 122.352 147.182 121.644C147.341 120.914 147.522 120.197 147.602 119.491C147.62 119.315 147.632 119.145 147.65 118.976C146.749 120.525 145.474 122.053 143.731 123.509C139.442 127.102 134.955 128.62 130.324 128.593C130.548 128.339 130.813 128.103 131.073 127.908C133.753 125.879 137.248 125.179 139.936 123.17C142.695 121.117 144.375 117.694 144.334 114.261C144.285 110.822 142.511 107.447 139.7 105.461C137.316 103.777 134.368 103.12 131.698 101.936C125.827 99.3457 121.225 94.0327 119.501 87.8557C118.689 84.9468 118.492 81.9063 117.819 78.957C116.879 74.8126 114.99 70.8843 112.329 67.5675C111.408 66.4186 110.177 65.535 108.766 65.1188C104.725 63.9217 102.434 66.9913 100.587 69.7551C99.1168 71.9602 99.1702 73.7191 98.3726 75.7288C97.9762 76.7202 97.9031 77.8308 98.2897 78.8305C98.3897 79.0819 98.5758 79.2954 99.1557 79.4151C100.595 79.7286 102.125 80.3682 102.758 81.7C103.3 82.834 103.043 84.1897 102.615 85.3713C101.584 88.2636 99.2604 91.0709 95.6933 90.3096C94.3972 90.0298 93.2394 89.2705 92.3859 88.2532C90.1481 85.577 90.0144 82.0607 90.2217 78.7507C90.3466 76.7741 90.5782 74.7784 91.3385 72.9526C92.2786 70.6791 93.9872 68.7927 95.8861 67.2141C99.4708 64.2363 103.951 62.1856 108.62 62.0286C113.282 61.8721 118.099 63.7528 121 67.4085C122.584 69.4218 123.547 71.8441 124.832 74.0684C120.656 83.2366 124.625 91.8405 135.507 95.7284C142.343 98.1766 149.593 105.45 149.368 113.162Z" fill="url(#paint58_linear_3538_136179)"/>
<path d="M74.4562 102.075C75.4761 102.33 78.5467 103.218 81.07 105.231C83.9282 107.512 86.0571 111.248 83.6587 117.158C83.6587 117.158 82.4677 118 80.6145 119.117C78.3638 120.479 75.147 122.268 71.9137 123.475C70.2797 124.092 64.38 126.174 61.2732 124.107C58.9535 122.564 57.7532 120.192 57.1806 118.361C56.5473 116.333 56.8173 114.419 57.5092 113.379C58.0279 112.608 60.3232 110.909 63.0533 109.064C64.8076 107.873 66.7453 106.618 68.5021 105.497C69.5433 104.832 70.5134 104.226 71.3509 103.704C73.001 102.674 74.1142 102 74.1142 102C74.1142 102 74.2391 102.025 74.4562 102.075Z" fill="#FCD0D7"/>
<path d="M105.987 99.3679C105.987 99.3679 105.027 103.903 83.9879 118.203C83.8537 118.295 83.7169 118.364 83.5941 118.436C82.1134 119.322 81.2469 119.794 81.2469 119.794C81.2469 119.794 81.0148 119.561 80.6142 119.117C79.5269 117.932 77.2274 115.294 75.1664 112.133C73.4484 109.505 71.8932 106.516 71.3506 103.704C71.2573 103.255 71.1998 102.802 71.165 102.369C71.165 102.369 71.8802 101.996 73.0877 101.388C73.3386 101.251 73.6174 101.114 73.9143 100.96C77.7571 99.0124 107.483 74.7934 105.987 99.3679Z" fill="url(#paint59_linear_3538_136179)"/>
<path opacity="0.53" d="M73.0877 101.387C74.6647 104.535 79.2097 113.214 83.9879 118.202C83.8485 118.285 83.7169 118.362 83.5941 118.435C82.1134 119.321 81.2469 119.793 81.2469 119.793C81.2469 119.793 81.0148 119.559 80.6142 119.115C79.5269 117.931 77.2274 115.293 75.1664 112.131C73.4484 109.504 71.8932 106.515 71.3506 103.702C71.2573 103.253 71.1998 102.8 71.165 102.367C71.165 102.368 71.8807 101.995 73.0877 101.387Z" fill="white"/>
<path d="M64.7658 125.015C62.8276 125.212 59.3657 124.315 57.6503 120.237C56.7019 117.988 55.5981 113.961 54.432 109.747C52.3642 102.259 50.6955 95.7756 50.2032 96.014C50.027 96.1021 49.4828 96.1436 48.7158 96.1384C45.7566 96.1332 39.5481 95.5113 39.2112 94.5681C39.1905 94.537 39.1853 94.5007 39.1905 94.4696C39.2164 94.0913 40.1752 94.1535 41.1754 94.3245C39.7606 93.9825 38.0089 93.5109 36.8895 93.0134C36.8791 93.0082 36.8688 93.003 36.8532 92.9978C36.195 92.6972 35.7701 92.4018 35.7753 92.1116C35.7753 91.9613 35.9774 91.8784 36.3091 91.8473C37.2678 91.7437 39.3097 92.0702 40.5483 92.2878C40.4084 92.2567 40.2581 92.2256 40.1026 92.1945C40.0922 92.1945 40.0871 92.1946 40.0767 92.1894C38.0504 91.7437 34.6973 90.9197 34.8321 90.1993C34.858 90.0646 34.9927 89.9713 35.2104 89.9143C35.2207 89.9091 35.2259 89.9091 35.2311 89.9091C36.0759 89.6966 38.0607 89.9609 39.5895 90.2252C39.9264 90.2822 40.2425 90.3392 40.5172 90.3859C40.4187 90.36 40.3151 90.3341 40.2062 90.3081C40.0456 90.2719 39.8746 90.2252 39.7036 90.1838C39.4133 90.1112 39.1128 90.0283 38.8122 89.9402C38.6878 89.9039 38.5686 89.8676 38.4546 89.8314C37.9052 89.6603 37.387 89.4738 36.9983 89.2768C36.9569 89.2561 36.9154 89.2354 36.8791 89.2147C36.8429 89.1991 36.8066 89.1784 36.7755 89.1576C36.5423 89.0333 36.3246 88.8985 36.2728 88.769C36.2572 88.7327 36.1639 88.7016 36.1639 88.6653V88.6498C36.1639 88.5668 36.3142 88.4995 36.4231 88.4425C37.4388 87.8983 42.5902 88.2974 45.1244 88.515C45.1244 88.515 44.5647 88.0901 43.5956 86.9499C42.0408 85.1361 43.0877 84.5556 45.8966 86.5405C47.8555 87.9294 52.442 89.8262 54.1522 92.6195L60.3763 101.212C62.7446 104.239 66.875 108.022 69.2538 111.385C69.2693 111.411 69.2849 111.427 69.2952 111.447C70.8603 113.66 72.0368 115.474 72.3011 116.308C72.9955 118.459 69.487 124.574 64.7658 125.015Z" fill="#FCD0D7"/>
<path opacity="0.23" d="M69.2956 111.447L67.1123 115.407C64.022 112.936 54.1572 92.6172 54.1572 92.6172L60.3798 101.208C62.7668 104.251 66.9081 108.073 69.2956 111.447Z" fill="url(#paint60_linear_3538_136179)"/>
<path opacity="0.23" d="M44.0828 90.7269C44.0828 90.7269 42.1912 90.8357 39.5896 90.2242C39.9887 90.2915 40.3566 90.3589 40.6624 90.4159C39.1439 90.0687 36.2884 89.3172 36.335 88.6487C36.3402 88.5658 36.4024 88.4984 36.5112 88.4414C36.8325 88.7524 37.8068 89.5142 39.9368 89.9339C42.6732 90.4677 44.0828 90.7269 44.0828 90.7269Z" fill="url(#paint61_linear_3538_136179)"/>
<path opacity="0.23" d="M43.5645 92.435C43.5645 92.435 42.1497 92.5076 40.1026 92.1966C40.0922 92.1966 40.0871 92.1967 40.0767 92.1915C38.0504 91.7458 34.6973 90.9218 34.8321 90.2014C34.858 90.0667 34.9927 89.9734 35.2104 89.9164C35.2207 89.9112 35.2259 89.9112 35.2311 89.9112C35.5524 89.8646 35.8582 89.8594 35.8582 89.8594C35.8582 89.8594 36.6822 91.0254 39.4185 91.5903C42.1548 92.1604 43.5645 92.435 43.5645 92.435Z" fill="url(#paint62_linear_3538_136179)"/>
<path opacity="0.23" d="M43.3884 94.8535C43.207 94.8172 40.3878 94.1849 36.8897 93.0137C36.8793 93.0085 36.8689 93.0033 36.8534 92.9982C36.1952 92.6976 35.7703 92.4022 35.7754 92.112C35.7754 91.9617 35.9776 91.8788 36.3092 91.8477C36.8067 92.2363 37.7603 92.8012 39.4187 93.1433C42.0047 93.6822 43.2589 94.7343 43.3884 94.8535Z" fill="url(#paint63_linear_3538_136179)"/>
<path opacity="0.23" d="M48.7725 96.1302C48.7725 96.1302 48.7518 96.1354 48.7155 96.1406C45.7563 96.1354 39.5478 95.5135 39.2109 94.5703C39.724 94.674 41.0559 94.9434 43.1392 95.3788C45.8755 95.9437 48.7725 96.1302 48.7725 96.1302Z" fill="url(#paint64_linear_3538_136179)"/>
<path d="M77.5195 177.161C87.6465 177.022 97.7543 175.368 107.681 171.707C107.761 162.337 107.326 153.03 107.326 153.03C93.8406 141.952 78.8514 154.502 78.8514 154.502L77.5195 177.161Z" fill="#0A2B3C"/>
<path d="M91.8789 151.926L98.2232 174.6C116.232 171.556 127.763 173.466 127.763 173.466L122.383 152C122.268 151.907 122.154 151.814 122.04 151.728C108.607 141.108 91.8789 151.926 91.8789 151.926Z" fill="#0A2B3C"/>
<path opacity="0.11" d="M103.381 93.1261C103.381 93.1261 105.518 99.0102 98.685 108.943C96.9272 111.51 95.1491 113.863 93.5052 115.947C93.401 116.079 93.2974 116.21 93.2 116.334C90.1921 112.681 87.5356 108.599 86.5825 103.982C86.1176 101.73 86.0829 99.4113 86.3721 97.1233C88.3632 95.3716 90.1325 93.8625 91.3846 92.8882C96.8681 88.6261 102.69 89.6264 103.381 93.1261Z" fill="url(#paint65_linear_3538_136179)"/>
<path d="M130.565 99.8142C130.952 104.501 130.023 109.77 129.121 114.594C127.538 123.485 128.299 122.254 126.372 143.492C125.739 150.503 133.117 163.132 133.117 163.132C133.117 163.132 125.229 165.386 114.771 166.948C102.044 168.855 85.5154 169.724 74.7588 164.248C78.8177 155.275 81.4545 148.184 83.0849 142.512C88.7083 122.962 82.3454 120.287 80.7087 115.522C77.5386 106.264 87.3873 97.0115 87.3873 97.0115C87.3873 97.0115 88.4575 95.4329 90.7067 93.4678C92.932 91.5171 96.3213 89.1778 100.956 87.623C104.343 86.4818 108.401 85.7641 113.162 85.9247C113.709 85.9418 114.273 85.9678 114.844 86.0128C126.321 86.8597 129.973 92.6681 130.565 99.8142Z" fill="url(#paint66_linear_3538_136179)"/>
<path opacity="0.11" d="M113.841 87.4442C114.075 89.6768 111.35 91.7928 107.748 92.1753C104.145 92.5577 101.029 91.0662 100.795 88.8342C100.748 88.4258 100.808 88.02 100.955 87.623C104.342 86.4819 108.4 85.7641 113.161 85.9247C113.544 86.3725 113.784 86.884 113.841 87.4442Z" fill="url(#paint67_linear_3538_136179)"/>
<path opacity="0.48" d="M84.3982 114.449C88.5084 121.421 88.7623 132.79 84.5273 140.88C84.0733 141.751 83.5898 142.271 83.0845 142.509C88.7079 122.959 82.3449 120.284 80.7083 115.519C77.5382 106.261 87.3869 97.0086 87.3869 97.0086C87.3869 97.0086 88.4571 95.43 90.7063 93.4648C87.6808 98.0472 81.1929 109.019 84.3982 114.449Z" fill="url(#paint68_linear_3538_136179)"/>
<path opacity="0.11" d="M126.372 143.49C125.739 150.501 133.117 163.13 133.117 163.13C133.117 163.13 125.229 165.385 114.771 166.947C114.82 166.236 117.11 165.247 119.389 164.108C128.096 159.758 125.456 142.571 119.693 131.461C109.833 112.452 116.623 107.532 119.673 96.4631C119.589 96.1858 119.189 95.3561 119.105 95.0789C120.923 94.7099 123.156 94.8281 124.971 95.2136C127.458 95.7474 129.27 97.5644 130.566 99.8125C130.953 104.499 130.024 109.768 129.122 114.592C127.538 123.483 128.298 122.252 126.372 143.49Z" fill="url(#paint69_linear_3538_136179)"/>
<path d="M112.252 74.9222L112.272 78.537L112.343 88.7712C111.616 89.3444 110.882 89.7574 110.147 90.0295C106.305 91.478 102.661 89.2454 102.396 88.3473C102.241 87.8379 102.416 85.3052 102.653 82.7679C102.783 81.3194 102.933 79.8652 103.054 78.8002C103.157 77.7964 103.233 77.1398 103.233 77.1398C105.974 71.7143 112.252 74.9222 112.252 74.9222Z" fill="#FCD0D7"/>
<path opacity="0.11" d="M110.475 83.142C107.67 86.6127 104.259 87.3221 102.671 87.4548C102.548 86.0058 102.444 84.5475 102.377 83.4778C103.624 82.1506 105.54 81.4883 105.54 81.4883L110.475 83.142Z" fill="url(#paint70_linear_3538_136179)"/>
<path opacity="0.23" d="M112.271 78.5362L112.343 88.7705C111.615 89.3437 110.881 89.7567 110.147 90.0288L111.893 77.707L112.271 78.5362Z" fill="url(#paint71_linear_3538_136179)"/>
<path d="M117.723 66.7894C117.723 66.7894 117.431 71.5075 117.153 72.8575C116.957 73.8054 115.439 79.1241 111.658 82.2196C110.089 83.5054 108.122 84.4056 105.695 84.4517C97.4486 84.5901 96.9319 77.6985 97.4185 75.5286C97.4792 74.9787 98.2467 72.3497 99.0173 69.7942C99.8222 67.1025 100.638 64.5045 100.638 64.5045C104.312 58.283 108.957 59.8211 113.347 60.8587C117.744 61.8894 117.723 66.7894 117.723 66.7894Z" fill="#FCD0D7"/>
<path opacity="0.23" d="M111.658 82.219C110.089 83.5048 108.122 84.405 105.695 84.4511C97.4486 84.5895 96.9319 77.6979 97.4185 75.528C97.4792 74.9781 98.2467 72.3491 99.0173 69.7936C99.3459 69.4806 99.6745 69.3023 99.9782 69.3008C99.9782 69.3008 96.4054 78.9183 102.519 81.4909C106.177 83.0233 107.743 83.0876 111.658 82.219Z" fill="url(#paint72_linear_3538_136179)"/>
<path opacity="0.15" d="M109.496 64.0586C109.496 64.0586 108.709 70.2169 115.94 73.1486L116.492 70.675C113.676 70.7491 111.514 67.7449 109.496 64.0586Z" fill="url(#paint73_linear_3538_136179)"/>
<path d="M99.4968 64.4789C99.3128 65.0003 99.6305 65.5678 100.174 65.6735C101.761 65.9818 104.708 66.3555 106.681 65.4097C109.496 64.0597 109.496 64.0597 109.496 64.0597C109.496 64.0597 109.658 70.2019 118.013 72.2951C118.013 72.2951 122.291 65.2573 119.417 61.9364C116.543 58.616 107.528 55.9652 103.574 59.2208C100.196 62.0017 99.9036 63.3269 99.4968 64.4789Z" fill="#0A2B3C"/>
<path d="M115.503 74.5051C115.503 74.5051 116.544 71.7652 118.53 72.2186C120.517 72.6716 119.794 79.0221 115.574 77.0891C115.574 77.0891 114.849 76.2039 115.503 74.5051Z" fill="#FCD0D7"/>
<path opacity="0.23" d="M116.155 75.6261C116.173 76.1314 116.401 76.3833 116.401 76.3833C118.968 77.383 119.179 73.6003 117.988 73.3961C117.498 73.3122 117.125 73.5469 116.849 73.8439C117.173 73.9833 117.412 74.302 117.431 74.6788C117.457 75.2038 117.054 75.6557 116.522 75.6821C116.394 75.6888 116.271 75.6676 116.155 75.6261Z" fill="url(#paint74_linear_3538_136179)"/>
<path d="M101.017 69.7021C101.017 69.7021 101.819 66.8834 99.9554 66.0599C98.0912 65.2364 94.8771 70.7609 99.4164 71.7316C99.4164 71.7316 100.527 71.4554 101.017 69.7021Z" fill="#FCD0D7"/>
<path opacity="0.23" d="M99.5515 70.4004C99.2452 70.8026 98.913 70.8767 98.913 70.8767C96.2394 70.2128 98.2497 67.0013 99.3406 67.5216C99.7894 67.7356 99.9583 68.1425 100.012 68.5441C99.6671 68.471 99.2882 68.5938 99.0555 68.8908C98.7316 69.3049 98.7995 69.906 99.2188 70.2346C99.3198 70.3134 99.4323 70.3673 99.5515 70.4004Z" fill="url(#paint75_linear_3538_136179)"/>
<path d="M102.222 65.4828C102.222 65.4828 99.7085 71.0995 98.4663 71.8121L100.214 64.9355C100.213 64.9355 101.526 64.0099 102.222 65.4828Z" fill="#0A2B3C"/>
<path d="M116.031 70.7736C116.031 70.7736 114.69 76.779 115.261 78.0928L117.968 71.5344C117.968 71.5344 117.468 70.0076 116.031 70.7736Z" fill="#0A2B3C"/>
<path opacity="0.48" d="M127.503 68.9901C127.791 65.3992 127.859 60.0986 120.151 55.9853C109.151 50.1188 106.498 60.4992 106.498 60.4992L104.4 58.0334C104.4 58.0334 105.519 52.2824 110.425 51.6077C116.854 50.7298 131.627 58.3733 127.503 68.9901Z" fill="url(#paint76_linear_3538_136179)"/>
<path d="M118.417 124.566C118.576 125.099 118.501 125.671 118.216 126.148C118.003 126.508 117.716 126.986 117.373 127.554C116.642 128.779 115.648 130.409 114.572 132.145C111.891 136.459 108.674 141.395 107.508 142.197C105.378 143.666 99.453 143.342 96.4752 136.961C93.8379 131.31 101.266 119.303 103 116.631C103.226 116.283 103.55 116.008 103.938 115.861C113.859 112.088 117.53 121.59 118.417 124.566Z" fill="#FCD0D7"/>
<path d="M101.785 115.986C101.649 116.204 101.531 116.41 101.417 116.609C101.203 116.977 101.014 117.306 100.853 117.596C100.383 118.427 100.569 119.468 101.292 120.094C102.45 121.097 104.362 122.656 106.616 124.183C109.467 126.117 112.879 127.998 116.073 128.635C116.971 128.808 117.881 128.373 118.286 127.555C118.442 127.236 118.592 126.938 118.679 126.753C118.831 126.44 119.006 126.094 119.182 125.723C121.968 120.042 127.726 108.152 129.576 103.297C131.3 98.7898 130.549 94.8765 128.744 93.0217C128.073 92.3335 127.258 91.9231 126.375 91.8832C126.203 91.8702 126.029 91.8728 125.853 91.8899C125.853 91.8899 119.605 91.5587 112.089 100.994C107.304 107.001 103.741 112.667 101.785 115.986Z" fill="url(#paint77_linear_3538_136179)"/>
<path opacity="0.53" d="M101.785 115.984C101.649 116.203 101.531 116.408 101.417 116.607C101.203 116.975 101.014 117.304 100.853 117.595C100.383 118.425 100.569 119.466 101.292 120.092C102.45 121.095 104.362 122.654 106.616 124.181C109.467 126.115 112.879 127.996 116.073 128.633C116.971 128.806 117.881 128.371 118.286 127.553C118.442 127.234 118.592 126.936 118.679 126.751C118.831 126.438 119.006 126.092 119.182 125.722C115.017 124.475 107.228 121.544 101.785 115.984Z" fill="white"/>
<path d="M100.058 143.847C98.5449 143.52 97.0679 142.748 95.6375 141.613C88.8952 136.265 89.4393 127.838 85.5991 117.106C84.5316 114.11 84.0962 112.877 83.7905 111.97L82.1165 107.819C82.1165 107.819 81.7486 106.668 79.5823 106C79.3336 105.922 78.2349 105.507 76.9704 104.974C76.9704 104.974 76.9859 104.968 76.9859 104.963C76.9548 104.948 76.9237 104.937 76.8875 104.922C76.8823 104.922 76.8823 104.922 76.8771 104.917C74.9181 104.093 72.5809 103.009 72.4461 102.481C72.4409 102.465 72.4409 102.45 72.4409 102.434V102.429C72.4409 102.413 72.4047 102.403 72.4047 102.388C72.472 101.823 74.8093 102.325 75.7318 102.59C75.5919 102.543 75.4312 102.496 75.255 102.45L75.198 102.434C73.778 102.025 71.306 101.382 71.7206 100.812C71.7465 100.776 71.7931 100.74 71.8605 100.714C72.4461 100.465 74.4414 100.646 75.5763 100.817L75.6644 100.833L75.7888 100.854L76.0065 100.895C76.022 100.895 76.0376 100.9 76.0531 100.9C74.5243 100.491 70.8033 99.9932 71.5807 99.2366C71.6429 99.1744 71.731 99.1278 71.8501 99.0915C72.4876 98.879 73.8868 98.9775 75.0736 99.1226C74.9907 99.107 74.9026 99.0915 74.8197 99.0811L74.7679 99.0708C73.0887 98.7702 71.1557 98.3297 71.4822 97.8943C71.5496 97.8062 71.6532 97.7337 71.788 97.6715C73.011 97.1377 76.789 97.7544 79.1107 97.8943C80.1887 97.9565 81.6916 98.7287 82.6348 99.2366C82.8369 99.0034 82.5311 98.4022 82.5311 98.4022C82.5311 98.4022 81.1474 94.6709 82.1425 93.9609C83.1323 93.2509 85.8064 97.8477 85.708 98.8427C85.6354 99.5216 86.2055 101.88 86.5683 103.31C93.1707 113.514 108.516 129.258 110.195 132.534C111.874 135.793 109.335 145.827 100.058 143.847Z" fill="#FCD0D7"/>
<path opacity="0.23" d="M77.6182 99.4184L74.8197 99.0815L74.7679 99.0711C73.0887 98.7706 71.1557 98.33 71.4822 97.8947C71.5496 97.8066 71.6532 97.7341 71.788 97.6719C71.7828 97.8377 71.9486 98.2368 73.6225 98.5166C75.6437 98.8483 77.4057 99.3562 77.6182 99.4184Z" fill="url(#paint78_linear_3538_136179)"/>
<path opacity="0.23" d="M75.6644 100.831C75.8354 100.862 75.9857 100.888 76.0997 100.909C74.5968 100.499 70.798 99.9968 71.5806 99.235C71.6428 99.1728 71.7309 99.1261 71.8501 99.0898C71.8553 99.2712 72.0729 99.6599 73.6225 100.023C75.7525 100.52 77.5715 101.194 77.5715 101.194L75.6644 100.831Z" fill="url(#paint79_linear_3538_136179)"/>
<path opacity="0.23" d="M77.5041 102.954L75.255 102.451L75.198 102.435C73.778 102.026 71.306 101.383 71.7206 100.813C71.7465 100.777 71.7931 100.741 71.8605 100.715C71.9019 100.912 72.1973 101.275 73.6018 101.653C75.7058 102.223 77.5041 102.954 77.5041 102.954Z" fill="url(#paint80_linear_3538_136179)"/>
<path opacity="0.23" d="M76.8773 104.916C74.9183 104.092 72.581 103.009 72.4463 102.48C72.6743 102.641 72.9904 102.828 73.4361 103.04C75.0375 103.802 76.416 104.631 76.8773 104.916Z" fill="url(#paint81_linear_3538_136179)"/>
<path opacity="0.19" d="M85.6021 117.105C89.4417 127.842 88.8965 136.264 95.6394 141.613C96.339 125.844 90.798 120.723 85.6021 117.105Z" fill="url(#paint82_linear_3538_136179)"/>
<path d="M108.087 68.5162C107.704 68.5231 107.401 69 107.412 69.5815C107.422 70.163 107.742 70.6288 108.125 70.6219C108.508 70.615 108.811 70.138 108.8 69.5565C108.79 68.975 108.471 68.5093 108.087 68.5162Z" fill="#123844"/>
<path d="M103.58 68.0201C103.196 68.027 102.894 68.5039 102.904 69.0854C102.915 69.6669 103.234 70.1327 103.618 70.1258C104.001 70.1189 104.304 69.6419 104.293 69.0604C104.283 68.4789 103.963 68.0132 103.58 68.0201Z" fill="#123844"/>
<path d="M108.396 66.5216C109.179 66.4693 110.901 67.4042 111.422 68.2318C111.944 69.0595 110.447 68.1204 109.154 67.9173C107.436 67.6467 107.007 66.6144 108.396 66.5216Z" fill="#184151"/>
<path d="M102.345 66.3159C102.868 66.0361 104.345 66.1444 104.962 66.5517C105.578 66.9591 104.255 66.7787 103.302 67.041C102.034 67.3897 101.417 66.8119 102.345 66.3159Z" fill="#184151"/>
<path opacity="0.55" d="M106.192 75.5741C106.192 75.5741 103.851 74.7754 103.929 74.3795C104.006 73.983 106.093 71.582 106.093 71.582L106.192 75.5741Z" fill="url(#paint83_linear_3538_136179)"/>
<path opacity="0.77" d="M104.076 78.3034C104.357 79.1331 105.378 79.7612 106.311 79.5694C107.156 79.401 107.835 78.8538 108.355 78.2085C109.062 77.3405 109.489 76.3014 109.671 75.7733C109.753 75.5655 109.786 75.4375 109.786 75.4375L104.58 76.7031C104.354 76.9015 104.199 77.1166 104.117 77.3244C103.962 77.6602 103.966 77.9976 104.076 78.3034Z" fill="url(#paint84_linear_3538_136179)"/>
<path d="M104.076 78.3041C104.357 79.1338 105.378 79.7619 106.311 79.5701C107.156 79.4017 107.835 78.8544 108.355 78.2092C107.796 77.9631 107.106 77.82 106.368 77.8128C105.493 77.8045 104.689 77.989 104.076 78.3041Z" fill="url(#paint85_linear_3538_136179)"/>
<path d="M104.117 77.3244C106.058 77.0845 107.899 76.5357 109.671 75.7733C109.753 75.5655 109.786 75.4375 109.786 75.4375L104.58 76.7031C104.355 76.901 104.2 77.1161 104.117 77.3244Z" fill="#FAFAFA"/>
<path d="M105.339 36.3948L53.6932 64.7184C53.3413 64.9137 52.8894 64.7717 52.6842 64.4007L50.5537 60.546C50.3495 60.1765 50.4676 59.7194 50.8185 59.5245L102.465 31.201C102.816 31.0056 103.268 31.1476 103.474 31.5187L105.604 35.3733C105.808 35.7429 105.69 36.1999 105.339 36.3948Z" fill="url(#paint86_linear_3538_136179)"/>
<path d="M91.4472 45.1448L90.5542 45.6381C90.0531 45.9149 89.4224 45.7335 89.1456 45.2323L86.3663 40.2033C86.0896 39.7022 86.2709 39.0715 86.7721 38.7947L87.665 38.3014C88.1662 38.0246 88.7969 38.206 89.0736 38.7071L91.8529 43.7362C92.1297 44.2373 91.9483 44.868 91.4472 45.1448Z" fill="url(#paint87_linear_3538_136179)"/>
<path d="M102.854 40.9018L96.1074 44.6306C95.8571 44.7689 95.5415 44.6783 95.4031 44.4274L94.2459 42.3337C94.1075 42.0834 94.1982 41.7678 94.449 41.6294L101.196 37.9007C101.446 37.7623 101.762 37.853 101.9 38.1038L103.058 40.1975C103.195 40.4484 103.105 40.7634 102.854 40.9018Z" fill="url(#paint88_linear_3538_136179)"/>
<path d="M106.215 44.7812L105.822 44.9978C105.532 45.1585 105.166 45.0502 105.009 44.7579L104.227 43.2996C104.149 43.1565 103.968 43.1 103.825 43.1778L102.344 43.9722C102.201 44.05 102.145 44.2314 102.223 44.3744L103.025 45.8706C103.18 46.1582 103.074 46.5168 102.788 46.6744L101.608 47.3258C101.317 47.4864 100.951 47.3781 100.794 47.0853L100.055 45.7058C99.9765 45.5601 99.7952 45.5052 99.649 45.5829L98.1725 46.3733C98.0264 46.4515 97.9715 46.6329 98.0497 46.779L98.8105 48.1985C98.9649 48.4861 98.8592 48.8442 98.5737 49.0023L97.602 49.5392C97.3159 49.6978 96.9516 49.5936 96.7925 49.305L94.2458 44.6957C94.0867 44.407 94.1914 44.0453 94.4769 43.8867L103.089 39.1251C103.378 38.966 103.74 39.0707 103.899 39.3593L106.448 43.9681C106.607 44.2573 106.503 44.6221 106.215 44.7812Z" fill="url(#paint89_linear_3538_136179)"/>
<path d="M35.397 56.3455C29.0122 59.8742 26.6952 67.9152 30.2239 74.3005C33.7526 80.6853 41.7937 83.0023 48.1789 79.4736C54.5637 75.9449 56.8808 67.9038 53.352 61.5186C49.8228 55.1338 41.7817 52.8167 35.397 56.3455ZM45.1405 73.9756C41.789 75.8278 37.5736 74.6135 35.7214 71.2621C33.8692 67.9106 35.0834 63.6957 38.4349 61.843C41.7864 59.9908 46.0013 61.205 47.854 64.5565C49.7062 67.9085 48.4919 72.1234 45.1405 73.9756Z" fill="url(#paint90_linear_3538_136179)"/>
<path d="M39.6581 45.2163C38.0806 45.251 36.5849 45.9791 35.5842 47.1991C35.3748 47.4545 34.9587 47.311 34.9514 46.9804C34.9167 45.4028 34.1886 43.9072 32.9686 42.9064C32.7131 42.6971 32.8567 42.2809 33.1873 42.2737C34.7648 42.2389 36.2605 41.5108 37.2612 40.2909C37.4706 40.0354 37.8867 40.1789 37.894 40.5096C37.9287 42.0871 38.6568 43.5828 39.8768 44.5835C40.1323 44.7929 39.9887 45.209 39.6581 45.2163Z" fill="url(#paint91_linear_3538_136179)"/>
<path d="M32.2767 73.9817C31.3646 75.2696 31.0578 76.9041 31.4413 78.435C31.5216 78.7558 31.1583 79.004 30.8888 78.8133C29.601 77.9012 27.9665 77.5944 26.4356 77.9779C26.1148 78.0582 25.8665 77.6949 26.0573 77.4255C26.9694 76.1376 27.2762 74.5031 26.8927 72.9722C26.8123 72.6514 27.1756 72.4032 27.4451 72.5939C28.7329 73.506 30.3675 73.8128 31.8984 73.4293C32.2192 73.3484 32.4679 73.7117 32.2767 73.9817Z" fill="url(#paint92_linear_3538_136179)"/>
<path d="M99.6483 49.2786C98.7362 50.5664 98.4294 52.201 98.8129 53.7319C98.8932 54.0527 98.5299 54.3009 98.2604 54.1102C96.9726 53.1981 95.338 52.8913 93.8072 53.2748C93.4864 53.3551 93.2381 52.9918 93.4288 52.7223C94.3409 51.4345 94.6477 49.8 94.2637 48.2691C94.1834 47.9483 94.5467 47.7 94.8162 47.8907C96.104 48.8029 97.7385 49.1097 99.2694 48.7262C99.5908 48.6458 99.8395 49.0091 99.6483 49.2786Z" fill="url(#paint93_linear_3538_136179)"/>
<path d="M106.329 24.4314C105.089 26.183 104.671 28.4063 105.193 30.4881C105.303 30.9239 104.808 31.2623 104.442 31.0022C102.69 29.7615 100.467 29.3443 98.3852 29.8662C97.9493 29.9755 97.6109 29.4811 97.8711 29.1147C99.1118 27.3631 99.5289 25.1398 99.0071 23.058C98.8977 22.6222 99.3921 22.2838 99.7585 22.5439C101.51 23.7846 103.733 24.2018 105.816 23.6799C106.251 23.5706 106.589 24.0645 106.329 24.4314Z" fill="url(#paint94_linear_3538_136179)"/>
<path d="M73.2136 67.6207C72.2761 67.9674 71.5309 68.7127 71.1842 69.6502C71.1116 69.8466 70.8328 69.8466 70.7598 69.6502C70.4131 68.7127 69.6678 67.9674 68.7303 67.6207C68.5339 67.5482 68.5339 67.2694 68.7303 67.1963C69.6678 66.8496 70.4131 66.1043 70.7598 65.1668C70.8323 64.9704 71.1111 64.9704 71.1842 65.1668C71.5309 66.1043 72.2761 66.8496 73.2136 67.1963C73.4101 67.2694 73.4101 67.5482 73.2136 67.6207Z" fill="url(#paint95_linear_3538_136179)"/>
<path d="M77.3932 40.2721C77.9223 41.0469 78.7701 41.5558 79.703 41.6584C79.8984 41.6797 79.9616 41.9336 79.7994 42.0445C79.0246 42.5737 78.5157 43.4215 78.4131 44.3543C78.3918 44.5497 78.1379 44.6129 78.027 44.4507C77.4978 43.676 76.65 43.167 75.7172 43.0644C75.5218 43.0432 75.4586 42.7892 75.6208 42.6783C76.3956 42.1492 76.9045 41.3014 77.0071 40.3685C77.0283 40.1732 77.2823 40.1099 77.3932 40.2721Z" fill="url(#paint96_linear_3538_136179)"/>
<path d="M56.836 73.4401C57.3652 74.2149 58.213 74.7238 59.1458 74.8264C59.3412 74.8477 59.4045 75.1016 59.2422 75.2125C58.4675 75.7416 57.9586 76.5895 57.8559 77.5223C57.8347 77.7177 57.5808 77.7809 57.4698 77.6187C56.9407 76.8439 56.0929 76.335 55.16 76.2324C54.9647 76.2112 54.9014 75.9572 55.0636 75.8463C55.8384 75.3172 56.3473 74.4693 56.4499 73.5365C56.4712 73.3411 56.7251 73.2779 56.836 73.4401Z" fill="url(#paint97_linear_3538_136179)"/>
<path d="M53.486 44.2996C53.4456 45.2371 53.8197 46.1523 54.5054 46.7929C54.6489 46.9271 54.5479 47.1686 54.3514 47.1598C53.4139 47.1194 52.4987 47.4941 51.8582 48.1792C51.724 48.3227 51.4825 48.2217 51.4913 48.0253C51.5317 47.0878 51.157 46.1726 50.4719 45.532C50.3283 45.3978 50.4294 45.1563 50.6258 45.1651C51.5633 45.2055 52.4785 44.8313 53.1191 44.1457C53.2528 44.0021 53.4943 44.1032 53.486 44.2996Z" fill="url(#paint98_linear_3538_136179)"/>
<defs>
<linearGradient id="paint0_linear_3538_136179" x1="113.36" y1="181.402" x2="113.36" y2="51.8127" gradientUnits="userSpaceOnUse">
<stop stop-color="#09EB89"/>
<stop offset="0.6627" stop-color="#45EBA4" stop-opacity="0.3373"/>
<stop offset="1" stop-color="#5EEBAF" stop-opacity="0"/>
</linearGradient>
<linearGradient id="paint1_linear_3538_136179" x1="44.2088" y1="177.832" x2="44.2088" y2="157.649" gradientUnits="userSpaceOnUse">
<stop stop-color="#ADB2C5"/>
<stop offset="0.376" stop-color="#9F9FC4"/>
<stop offset="1" stop-color="#8176C1"/>
</linearGradient>
<linearGradient id="paint2_linear_3538_136179" x1="37.7343" y1="157.112" x2="37.7343" y2="123.426" gradientUnits="userSpaceOnUse">
<stop stop-color="#A79AC1"/>
<stop offset="0.1424" stop-color="#B1A7C7"/>
<stop offset="0.4332" stop-color="#C0BBD1"/>
<stop offset="0.721" stop-color="#C9C8D7"/>
<stop offset="1" stop-color="#CCCCD9"/>
</linearGradient>
<linearGradient id="paint3_linear_3538_136179" x1="24.7515" y1="144.383" x2="24.7515" y2="129.309" gradientUnits="userSpaceOnUse">
<stop stop-color="#A79AC1"/>
<stop offset="0.2862" stop-color="#B0A9C3"/>
<stop offset="0.6376" stop-color="#B7B5C4"/>
<stop offset="1" stop-color="#B9B9C5"/>
</linearGradient>
<linearGradient id="paint4_linear_3538_136179" x1="51.2539" y1="144.383" x2="51.2539" y2="129.309" gradientUnits="userSpaceOnUse">
<stop stop-color="#A79AC1"/>
<stop offset="0.2862" stop-color="#B0A9C3"/>
<stop offset="0.6376" stop-color="#B7B5C4"/>
<stop offset="1" stop-color="#B9B9C5"/>
</linearGradient>
<linearGradient id="paint5_linear_3538_136179" x1="37.9419" y1="154.081" x2="37.9419" y2="152.242" gradientUnits="userSpaceOnUse">
<stop stop-color="#A79AC1"/>
<stop offset="0.2862" stop-color="#B0A9C3"/>
<stop offset="0.6376" stop-color="#B7B5C4"/>
<stop offset="1" stop-color="#B9B9C5"/>
</linearGradient>
<linearGradient id="paint6_linear_3538_136179" x1="37.9419" y1="155.874" x2="37.9419" y2="154.035" gradientUnits="userSpaceOnUse">
<stop stop-color="#A79AC1"/>
<stop offset="0.2862" stop-color="#B0A9C3"/>
<stop offset="0.6376" stop-color="#B7B5C4"/>
<stop offset="1" stop-color="#B9B9C5"/>
</linearGradient>
<linearGradient id="paint7_linear_3538_136179" x1="37.942" y1="157.714" x2="37.942" y2="155.875" gradientUnits="userSpaceOnUse">
<stop stop-color="#A79AC1"/>
<stop offset="0.2862" stop-color="#B0A9C3"/>
<stop offset="0.6376" stop-color="#B7B5C4"/>
<stop offset="1" stop-color="#B9B9C5"/>
</linearGradient>
<linearGradient id="paint8_linear_3538_136179" x1="39.2732" y1="113.058" x2="39.2732" y2="101.656" gradientUnits="userSpaceOnUse">
<stop stop-color="#8476C1"/>
<stop offset="0.6186" stop-color="#9F9EC4"/>
<stop offset="1" stop-color="#ADB1C5"/>
</linearGradient>
<linearGradient id="paint9_linear_3538_136179" x1="39.2994" y1="112.62" x2="39.2994" y2="102.227" gradientUnits="userSpaceOnUse">
<stop stop-color="#ABABAB"/>
<stop offset="0.1497" stop-color="#B9B9B9"/>
<stop offset="0.7192" stop-color="#ECECEC"/>
<stop offset="1" stop-color="white"/>
</linearGradient>
<linearGradient id="paint10_linear_3538_136179" x1="19.7671" y1="136.842" x2="29.7359" y2="136.842" gradientUnits="userSpaceOnUse">
<stop stop-color="white"/>
<stop offset="0.0904" stop-color="white" stop-opacity="0.9096"/>
<stop offset="1" stop-color="white" stop-opacity="0"/>
</linearGradient>
<linearGradient id="paint11_linear_3538_136179" x1="46.1992" y1="136.842" x2="56.168" y2="136.842" gradientUnits="userSpaceOnUse">
<stop stop-color="white"/>
<stop offset="0.0904" stop-color="white" stop-opacity="0.9096"/>
<stop offset="1" stop-color="white" stop-opacity="0"/>
</linearGradient>
<linearGradient id="paint12_linear_3538_136179" x1="28.576" y1="131.979" x2="32.3341" y2="131.979" gradientUnits="userSpaceOnUse">
<stop stop-color="white"/>
<stop offset="0.5928" stop-color="#E7E7E7"/>
<stop offset="1" stop-color="#DBDBDB"/>
</linearGradient>
<linearGradient id="paint13_linear_3538_136179" x1="32.3193" y1="131.979" x2="36.0774" y2="131.979" gradientUnits="userSpaceOnUse">
<stop stop-color="#EBA2A2"/>
<stop offset="0.3508" stop-color="#EA998F"/>
<stop offset="1" stop-color="#E78361"/>
</linearGradient>
<linearGradient id="paint14_linear_3538_136179" x1="36.0626" y1="131.979" x2="39.8207" y2="131.979" gradientUnits="userSpaceOnUse">
<stop stop-color="white"/>
<stop offset="0.5928" stop-color="#E7E7E7"/>
<stop offset="1" stop-color="#DBDBDB"/>
</linearGradient>
<linearGradient id="paint15_linear_3538_136179" x1="39.8065" y1="131.979" x2="43.5646" y2="131.979" gradientUnits="userSpaceOnUse">
<stop stop-color="#EBA2A2"/>
<stop offset="0.3508" stop-color="#EA998F"/>
<stop offset="1" stop-color="#E78361"/>
</linearGradient>
<linearGradient id="paint16_linear_3538_136179" x1="43.5498" y1="131.979" x2="47.3078" y2="131.979" gradientUnits="userSpaceOnUse">
<stop stop-color="white"/>
<stop offset="0.5928" stop-color="#E7E7E7"/>
<stop offset="1" stop-color="#DBDBDB"/>
</linearGradient>
<linearGradient id="paint17_linear_3538_136179" x1="31.2031" y1="130.73" x2="31.2031" y2="124.485" gradientUnits="userSpaceOnUse">
<stop stop-color="#CFCFCF"/>
<stop offset="0.1591" stop-color="#DEDEDE"/>
<stop offset="0.4217" stop-color="#F0F0F0"/>
<stop offset="0.6964" stop-color="#FBFBFB"/>
<stop offset="1" stop-color="white"/>
</linearGradient>
<linearGradient id="paint18_linear_3538_136179" x1="32.3193" y1="127.584" x2="36.8248" y2="127.584" gradientUnits="userSpaceOnUse">
<stop stop-color="#E78361"/>
<stop offset="0.6492" stop-color="#EA998F"/>
<stop offset="1" stop-color="#EBA2A2"/>
</linearGradient>
<linearGradient id="paint19_linear_3538_136179" x1="37.9417" y1="130.724" x2="37.9417" y2="124.398" gradientUnits="userSpaceOnUse">
<stop stop-color="#CFCFCF"/>
<stop offset="0.1591" stop-color="#DEDEDE"/>
<stop offset="0.4217" stop-color="#F0F0F0"/>
<stop offset="0.6964" stop-color="#FBFBFB"/>
<stop offset="1" stop-color="white"/>
</linearGradient>
<linearGradient id="paint20_linear_3538_136179" x1="39.8059" y1="127.543" x2="43.564" y2="127.543" gradientUnits="userSpaceOnUse">
<stop stop-color="#E78361"/>
<stop offset="0.6492" stop-color="#EA998F"/>
<stop offset="1" stop-color="#EBA2A2"/>
</linearGradient>
<linearGradient id="paint21_linear_3538_136179" x1="45.055" y1="130.725" x2="45.055" y2="124.332" gradientUnits="userSpaceOnUse">
<stop stop-color="#CFCFCF"/>
<stop offset="0.1591" stop-color="#DEDEDE"/>
<stop offset="0.4217" stop-color="#F0F0F0"/>
<stop offset="0.6964" stop-color="#FBFBFB"/>
<stop offset="1" stop-color="white"/>
</linearGradient>
<linearGradient id="paint22_linear_3538_136179" x1="50.1834" y1="134.827" x2="51.3977" y2="136.041" gradientUnits="userSpaceOnUse">
<stop stop-color="white"/>
<stop offset="1" stop-color="white" stop-opacity="0"/>
</linearGradient>
<linearGradient id="paint23_linear_3538_136179" x1="52.1367" y1="136.779" x2="53.351" y2="137.994" gradientUnits="userSpaceOnUse">
<stop stop-color="white"/>
<stop offset="1" stop-color="white" stop-opacity="0"/>
</linearGradient>
<linearGradient id="paint24_linear_3538_136179" x1="23.118" y1="134.827" x2="24.3323" y2="136.041" gradientUnits="userSpaceOnUse">
<stop stop-color="white"/>
<stop offset="1" stop-color="white" stop-opacity="0"/>
</linearGradient>
<linearGradient id="paint25_linear_3538_136179" x1="25.0713" y1="136.78" x2="26.2855" y2="137.994" gradientUnits="userSpaceOnUse">
<stop stop-color="white"/>
<stop offset="1" stop-color="white" stop-opacity="0"/>
</linearGradient>
<linearGradient id="paint26_linear_3538_136179" x1="40.7724" y1="140.807" x2="42.1773" y2="140.807" gradientUnits="userSpaceOnUse">
<stop stop-color="#A79AC1"/>
<stop offset="0.2862" stop-color="#B0A9C3"/>
<stop offset="0.6376" stop-color="#B7B5C4"/>
<stop offset="1" stop-color="#B9B9C5"/>
</linearGradient>
<linearGradient id="paint27_linear_3538_136179" x1="13.7697" y1="124.607" x2="20.6992" y2="124.607" gradientUnits="userSpaceOnUse">
<stop stop-color="#E78361"/>
<stop offset="0.6492" stop-color="#EA998F"/>
<stop offset="1" stop-color="#EBA2A2"/>
</linearGradient>
<linearGradient id="paint28_linear_3538_136179" x1="20.672" y1="124.607" x2="27.6016" y2="124.607" gradientUnits="userSpaceOnUse">
<stop stop-color="#DBDBDB"/>
<stop offset="0.4011" stop-color="#E6E6E6"/>
<stop offset="1" stop-color="white"/>
</linearGradient>
<linearGradient id="paint29_linear_3538_136179" x1="27.5749" y1="124.607" x2="34.5045" y2="124.607" gradientUnits="userSpaceOnUse">
<stop stop-color="#E78361"/>
<stop offset="0.6492" stop-color="#EA998F"/>
<stop offset="1" stop-color="#EBA2A2"/>
</linearGradient>
<linearGradient id="paint30_linear_3538_136179" x1="34.4773" y1="124.607" x2="41.4068" y2="124.607" gradientUnits="userSpaceOnUse">
<stop stop-color="#DBDBDB"/>
<stop offset="0.4011" stop-color="#E6E6E6"/>
<stop offset="1" stop-color="white"/>
</linearGradient>
<linearGradient id="paint31_linear_3538_136179" x1="41.3797" y1="124.607" x2="48.3092" y2="124.607" gradientUnits="userSpaceOnUse">
<stop stop-color="#E78361"/>
<stop offset="0.6492" stop-color="#EA998F"/>
<stop offset="1" stop-color="#EBA2A2"/>
</linearGradient>
<linearGradient id="paint32_linear_3538_136179" x1="48.2825" y1="124.607" x2="55.2121" y2="124.607" gradientUnits="userSpaceOnUse">
<stop stop-color="#DBDBDB"/>
<stop offset="0.4011" stop-color="#E6E6E6"/>
<stop offset="1" stop-color="white"/>
</linearGradient>
<linearGradient id="paint33_linear_3538_136179" x1="55.1849" y1="124.607" x2="62.1145" y2="124.607" gradientUnits="userSpaceOnUse">
<stop stop-color="#E78361"/>
<stop offset="0.6492" stop-color="#EA998F"/>
<stop offset="1" stop-color="#EBA2A2"/>
</linearGradient>
<linearGradient id="paint34_linear_3538_136179" x1="19.3041" y1="122.297" x2="19.3041" y2="110.856" gradientUnits="userSpaceOnUse">
<stop stop-color="#E78361"/>
<stop offset="0.6492" stop-color="#EA998F"/>
<stop offset="1" stop-color="#EBA2A2"/>
</linearGradient>
<linearGradient id="paint35_linear_3538_136179" x1="25.5162" y1="122.301" x2="25.5162" y2="110.785" gradientUnits="userSpaceOnUse">
<stop stop-color="#CFCFCF"/>
<stop offset="0.5437" stop-color="#ECECEC"/>
<stop offset="1" stop-color="white"/>
</linearGradient>
<linearGradient id="paint36_linear_3538_136179" x1="31.7288" y1="122.297" x2="31.7288" y2="110.707" gradientUnits="userSpaceOnUse">
<stop stop-color="#E78361"/>
<stop offset="0.6492" stop-color="#EA998F"/>
<stop offset="1" stop-color="#EBA2A2"/>
</linearGradient>
<linearGradient id="paint37_linear_3538_136179" x1="37.9421" y1="122.297" x2="37.9421" y2="110.633" gradientUnits="userSpaceOnUse">
<stop stop-color="#CFCFCF"/>
<stop offset="0.5437" stop-color="#ECECEC"/>
<stop offset="1" stop-color="white"/>
</linearGradient>
<linearGradient id="paint38_linear_3538_136179" x1="44.8444" y1="122.297" x2="44.8444" y2="110.559" gradientUnits="userSpaceOnUse">
<stop stop-color="#E78361"/>
<stop offset="0.6492" stop-color="#EA998F"/>
<stop offset="1" stop-color="#EBA2A2"/>
</linearGradient>
<linearGradient id="paint39_linear_3538_136179" x1="51.0581" y1="122.297" x2="51.0581" y2="110.484" gradientUnits="userSpaceOnUse">
<stop stop-color="#CFCFCF"/>
<stop offset="0.5437" stop-color="#ECECEC"/>
<stop offset="1" stop-color="white"/>
</linearGradient>
<linearGradient id="paint40_linear_3538_136179" x1="57.2705" y1="122.297" x2="57.2705" y2="110.43" gradientUnits="userSpaceOnUse">
<stop stop-color="#E78361"/>
<stop offset="0.6492" stop-color="#EA998F"/>
<stop offset="1" stop-color="#EBA2A2"/>
</linearGradient>
<linearGradient id="paint41_linear_3538_136179" x1="136.807" y1="126.588" x2="200.788" y2="126.588" gradientUnits="userSpaceOnUse">
<stop stop-color="#CCCCD9"/>
<stop offset="0.279" stop-color="#C9C8D7"/>
<stop offset="0.5668" stop-color="#C0BBD1"/>
<stop offset="0.8576" stop-color="#B1A7C7"/>
<stop offset="1" stop-color="#A79AC1"/>
</linearGradient>
<linearGradient id="paint42_linear_3538_136179" x1="131.313" y1="126.749" x2="195.228" y2="126.749" gradientUnits="userSpaceOnUse">
<stop stop-color="#A79AC1"/>
<stop offset="0.1424" stop-color="#B1A7C7"/>
<stop offset="0.4332" stop-color="#C0BBD1"/>
<stop offset="0.721" stop-color="#C9C8D7"/>
<stop offset="1" stop-color="#CCCCD9"/>
</linearGradient>
<linearGradient id="paint43_linear_3538_136179" x1="163.596" y1="112.195" x2="163.596" y2="94.5586" gradientUnits="userSpaceOnUse">
<stop stop-color="#F38764"/>
<stop offset="0.6627" stop-color="#F69F95"/>
<stop offset="1" stop-color="#F7A8A8"/>
</linearGradient>
<linearGradient id="paint44_linear_3538_136179" x1="160.485" y1="168.928" x2="161.94" y2="134.497" gradientUnits="userSpaceOnUse">
<stop stop-color="white" stop-opacity="0"/>
<stop offset="1" stop-color="#F5FFFA"/>
</linearGradient>
<linearGradient id="paint45_linear_3538_136179" x1="161.438" y1="165.236" x2="162.314" y2="144.488" gradientUnits="userSpaceOnUse">
<stop stop-color="#A1BEFF"/>
<stop offset="0.6572" stop-color="#ACECE8"/>
<stop offset="1" stop-color="#B0FFDF"/>
</linearGradient>
<linearGradient id="paint46_linear_3538_136179" x1="157.788" y1="149.08" x2="157.99" y2="144.306" gradientUnits="userSpaceOnUse">
<stop/>
<stop offset="1" stop-opacity="0"/>
</linearGradient>
<linearGradient id="paint47_linear_3538_136179" x1="166.437" y1="149.444" x2="166.639" y2="144.67" gradientUnits="userSpaceOnUse">
<stop/>
<stop offset="1" stop-opacity="0"/>
</linearGradient>
<linearGradient id="paint48_linear_3538_136179" x1="165.762" y1="165.416" x2="166.244" y2="154.009" gradientUnits="userSpaceOnUse">
<stop stop-opacity="0"/>
<stop offset="1"/>
</linearGradient>
<linearGradient id="paint49_linear_3538_136179" x1="158.63" y1="156.532" x2="158.903" y2="150.086" gradientUnits="userSpaceOnUse">
<stop stop-color="white" stop-opacity="0"/>
<stop offset="1" stop-color="white"/>
</linearGradient>
<linearGradient id="paint50_linear_3538_136179" x1="156.093" y1="145.301" x2="156.285" y2="140.77" gradientUnits="userSpaceOnUse">
<stop stop-color="#F38764"/>
<stop offset="0.6627" stop-color="#F69F95"/>
<stop offset="1" stop-color="#F7A8A8"/>
</linearGradient>
<linearGradient id="paint51_linear_3538_136179" x1="168.444" y1="145.824" x2="168.635" y2="141.293" gradientUnits="userSpaceOnUse">
<stop stop-color="#F38764"/>
<stop offset="0.6627" stop-color="#F69F95"/>
<stop offset="1" stop-color="#F7A8A8"/>
</linearGradient>
<linearGradient id="paint52_linear_3538_136179" x1="155.329" y1="147.622" x2="155.474" y2="144.202" gradientUnits="userSpaceOnUse">
<stop stop-color="#F38764"/>
<stop offset="0.6627" stop-color="#F69F95"/>
<stop offset="1" stop-color="#F7A8A8"/>
</linearGradient>
<linearGradient id="paint53_linear_3538_136179" x1="162.269" y1="145.561" x2="162.46" y2="141.03" gradientUnits="userSpaceOnUse">
<stop stop-color="#ABABAB"/>
<stop offset="0.1554" stop-color="#C5C5C5"/>
<stop offset="0.3492" stop-color="#DFDFDF"/>
<stop offset="0.5504" stop-color="#F1F1F1"/>
<stop offset="0.7618" stop-color="#FBFBFB"/>
<stop offset="1" stop-color="white"/>
</linearGradient>
<linearGradient id="paint54_linear_3538_136179" x1="162.17" y1="147.907" x2="162.314" y2="144.486" gradientUnits="userSpaceOnUse">
<stop stop-color="white"/>
<stop offset="1" stop-color="#D6D6D6"/>
</linearGradient>
<linearGradient id="paint55_linear_3538_136179" x1="169.01" y1="148.196" x2="169.155" y2="144.776" gradientUnits="userSpaceOnUse">
<stop stop-color="#F38764"/>
<stop offset="0.6627" stop-color="#F69F95"/>
<stop offset="1" stop-color="#F7A8A8"/>
</linearGradient>
<linearGradient id="paint56_linear_3538_136179" x1="191.969" y1="93.1505" x2="191.969" y2="63.4608" gradientUnits="userSpaceOnUse">
<stop stop-color="#4198C1"/>
<stop offset="0.5881" stop-color="#64B5B4"/>
<stop offset="1" stop-color="#77C5AC"/>
</linearGradient>
<linearGradient id="paint57_linear_3538_136179" x1="96.6283" y1="73.3022" x2="95.7265" y2="55.0683" gradientUnits="userSpaceOnUse">
<stop stop-color="white" stop-opacity="0"/>
<stop offset="1" stop-color="white"/>
</linearGradient>
<linearGradient id="paint58_linear_3538_136179" x1="90.97" y1="98.4908" x2="148.506" y2="95.6451" gradientUnits="userSpaceOnUse">
<stop/>
<stop offset="1" stop-opacity="0"/>
</linearGradient>
<linearGradient id="paint59_linear_3538_136179" x1="82.8265" y1="120.327" x2="92.6822" y2="86.2615" gradientUnits="userSpaceOnUse">
<stop stop-color="#4198C1"/>
<stop offset="0.5881" stop-color="#64B5B4"/>
<stop offset="1" stop-color="#77C5AC"/>
</linearGradient>
<linearGradient id="paint60_linear_3538_136179" x1="68.5301" y1="114.605" x2="55.7033" y2="91.7435" gradientUnits="userSpaceOnUse">
<stop stop-color="#FF7BAC" stop-opacity="0"/>
<stop offset="1" stop-color="#FF7BAC"/>
</linearGradient>
<linearGradient id="paint61_linear_3538_136179" x1="36.3345" y1="89.588" x2="44.0828" y2="89.588" gradientUnits="userSpaceOnUse">
<stop stop-color="#FF7BAC" stop-opacity="0"/>
<stop offset="1" stop-color="#FF7BAC"/>
</linearGradient>
<linearGradient id="paint62_linear_3538_136179" x1="34.8281" y1="91.151" x2="43.5645" y2="91.151" gradientUnits="userSpaceOnUse">
<stop stop-color="#FF7BAC" stop-opacity="0"/>
<stop offset="1" stop-color="#FF7BAC"/>
</linearGradient>
<linearGradient id="paint63_linear_3538_136179" x1="35.7754" y1="93.3507" x2="43.3884" y2="93.3507" gradientUnits="userSpaceOnUse">
<stop stop-color="#FF7BAC" stop-opacity="0"/>
<stop offset="1" stop-color="#FF7BAC"/>
</linearGradient>
<linearGradient id="paint64_linear_3538_136179" x1="39.2109" y1="95.3556" x2="48.7726" y2="95.3556" gradientUnits="userSpaceOnUse">
<stop stop-color="#FF7BAC" stop-opacity="0"/>
<stop offset="1" stop-color="#FF7BAC"/>
</linearGradient>
<linearGradient id="paint65_linear_3538_136179" x1="95.6103" y1="116.245" x2="94.8356" y2="90.1692" gradientUnits="userSpaceOnUse">
<stop/>
<stop offset="1" stop-opacity="0"/>
</linearGradient>
<linearGradient id="paint66_linear_3538_136179" x1="114.085" y1="168.931" x2="90.3777" y2="90.8386" gradientUnits="userSpaceOnUse">
<stop stop-color="#4198C1"/>
<stop offset="0.5881" stop-color="#64B5B4"/>
<stop offset="1" stop-color="#77C5AC"/>
</linearGradient>
<linearGradient id="paint67_linear_3538_136179" x1="108.519" y1="92.1565" x2="106.622" y2="85.9075" gradientUnits="userSpaceOnUse">
<stop/>
<stop offset="1" stop-opacity="0"/>
</linearGradient>
<linearGradient id="paint68_linear_3538_136179" x1="93.3771" y1="139.404" x2="80.3878" y2="96.6169" gradientUnits="userSpaceOnUse">
<stop stop-color="white" stop-opacity="0"/>
<stop offset="1" stop-color="white"/>
</linearGradient>
<linearGradient id="paint69_linear_3538_136179" x1="105.194" y1="135.475" x2="138.32" y2="125.419" gradientUnits="userSpaceOnUse">
<stop/>
<stop offset="1" stop-opacity="0"/>
</linearGradient>
<linearGradient id="paint70_linear_3538_136179" x1="106.972" y1="86.1622" x2="104.779" y2="81.8368" gradientUnits="userSpaceOnUse">
<stop/>
<stop offset="1" stop-opacity="0"/>
</linearGradient>
<linearGradient id="paint71_linear_3538_136179" x1="108.496" y1="84.6536" x2="113.636" y2="83.0931" gradientUnits="userSpaceOnUse">
<stop stop-color="#FF7BAC"/>
<stop offset="1" stop-color="#FF7BAC" stop-opacity="0"/>
</linearGradient>
<linearGradient id="paint72_linear_3538_136179" x1="104.682" y1="84.5257" x2="103.921" y2="69.124" gradientUnits="userSpaceOnUse">
<stop stop-color="#FF7BAC" stop-opacity="0"/>
<stop offset="1" stop-color="#FF7BAC"/>
</linearGradient>
<linearGradient id="paint73_linear_3538_136179" x1="109.637" y1="68.7759" x2="116.35" y2="68.4439" gradientUnits="userSpaceOnUse">
<stop/>
<stop offset="1" stop-opacity="0"/>
</linearGradient>
<linearGradient id="paint74_linear_3538_136179" x1="118.701" y1="74.9829" x2="116.127" y2="75.1102" gradientUnits="userSpaceOnUse">
<stop stop-color="#FF7BAC"/>
<stop offset="1" stop-color="#FF7BAC" stop-opacity="0"/>
</linearGradient>
<linearGradient id="paint75_linear_3538_136179" x1="97.8935" y1="68.3521" x2="99.9224" y2="69.9411" gradientUnits="userSpaceOnUse">
<stop stop-color="#FF7BAC"/>
<stop offset="1" stop-color="#FF7BAC" stop-opacity="0"/>
</linearGradient>
<linearGradient id="paint76_linear_3538_136179" x1="104.517" y1="61.0202" x2="127.928" y2="59.8623" gradientUnits="userSpaceOnUse">
<stop stop-color="white"/>
<stop offset="1" stop-color="white" stop-opacity="0"/>
</linearGradient>
<linearGradient id="paint77_linear_3538_136179" x1="104.582" y1="123.67" x2="133.13" y2="97.7835" gradientUnits="userSpaceOnUse">
<stop stop-color="#4198C1"/>
<stop offset="0.5881" stop-color="#64B5B4"/>
<stop offset="1" stop-color="#77C5AC"/>
</linearGradient>
<linearGradient id="paint78_linear_3538_136179" x1="71.4458" y1="98.5453" x2="77.6182" y2="98.5453" gradientUnits="userSpaceOnUse">
<stop stop-color="#FF7BAC" stop-opacity="0"/>
<stop offset="1" stop-color="#FF7BAC"/>
</linearGradient>
<linearGradient id="paint79_linear_3538_136179" x1="71.4756" y1="100.142" x2="77.5714" y2="100.142" gradientUnits="userSpaceOnUse">
<stop stop-color="#FF7BAC" stop-opacity="0"/>
<stop offset="1" stop-color="#FF7BAC"/>
</linearGradient>
<linearGradient id="paint80_linear_3538_136179" x1="71.6743" y1="101.834" x2="77.5041" y2="101.834" gradientUnits="userSpaceOnUse">
<stop stop-color="#FF7BAC" stop-opacity="0"/>
<stop offset="1" stop-color="#FF7BAC"/>
</linearGradient>
<linearGradient id="paint81_linear_3538_136179" x1="72.4463" y1="103.698" x2="76.8773" y2="103.698" gradientUnits="userSpaceOnUse">
<stop stop-color="#FF7BAC" stop-opacity="0"/>
<stop offset="1" stop-color="#FF7BAC"/>
</linearGradient>
<linearGradient id="paint82_linear_3538_136179" x1="94.2592" y1="128.275" x2="89.0526" y2="129.835" gradientUnits="userSpaceOnUse">
<stop stop-color="#FF7BAC" stop-opacity="0"/>
<stop offset="1" stop-color="#FF7BAC"/>
</linearGradient>
<linearGradient id="paint83_linear_3538_136179" x1="106.391" y1="73.5278" x2="103.948" y2="73.7928" gradientUnits="userSpaceOnUse">
<stop stop-color="#FF7BAC" stop-opacity="0"/>
<stop offset="1" stop-color="#FF7BAC"/>
</linearGradient>
<linearGradient id="paint84_linear_3538_136179" x1="107.012" y1="75.4344" x2="106.971" y2="79.6382" gradientUnits="userSpaceOnUse">
<stop stop-color="#FF7BAC"/>
<stop offset="1" stop-color="#FF7BAC" stop-opacity="0"/>
</linearGradient>
<linearGradient id="paint85_linear_3538_136179" x1="106.328" y1="77.8365" x2="106.31" y2="79.6324" gradientUnits="userSpaceOnUse">
<stop stop-color="#FF7BAC"/>
<stop offset="1" stop-color="#FF7BAC" stop-opacity="0"/>
</linearGradient>
<linearGradient id="paint86_linear_3538_136179" x1="49.3827" y1="49.804" x2="106.546" y2="43.9232" gradientUnits="userSpaceOnUse">
<stop stop-color="#FFB15C"/>
<stop offset="0.3474" stop-color="#FFC46F"/>
<stop offset="1" stop-color="#FFF09C"/>
</linearGradient>
<linearGradient id="paint87_linear_3538_136179" x1="86.5844" y1="41.9682" x2="91.5106" y2="41.1849" gradientUnits="userSpaceOnUse">
<stop stop-color="#FFB15C"/>
<stop offset="0.3474" stop-color="#FFC46F"/>
<stop offset="1" stop-color="#FFF09C"/>
</linearGradient>
<linearGradient id="paint88_linear_3538_136179" x1="98.9191" y1="44.4394" x2="98.3865" y2="38.0901" gradientUnits="userSpaceOnUse">
<stop stop-color="#FFB15C"/>
<stop offset="0.3474" stop-color="#FFC46F"/>
<stop offset="1" stop-color="#FFF09C"/>
</linearGradient>
<linearGradient id="paint89_linear_3538_136179" x1="100.768" y1="49.325" x2="99.9296" y2="39.337" gradientUnits="userSpaceOnUse">
<stop stop-color="#FFB15C"/>
<stop offset="0.3474" stop-color="#FFC46F"/>
<stop offset="1" stop-color="#FFF09C"/>
</linearGradient>
<linearGradient id="paint90_linear_3538_136179" x1="28.6204" y1="69.0136" x2="54.958" y2="66.8041" gradientUnits="userSpaceOnUse">
<stop stop-color="#FFB15C"/>
<stop offset="0.3474" stop-color="#FFC46F"/>
<stop offset="1" stop-color="#FFF09C"/>
</linearGradient>
<linearGradient id="paint91_linear_3538_136179" x1="32.859" y1="42.5162" x2="39.9885" y2="44.9772" gradientUnits="userSpaceOnUse">
<stop stop-color="#FFFE37"/>
<stop offset="1" stop-color="#FFFC96"/>
</linearGradient>
<linearGradient id="paint92_linear_3538_136179" x1="26.0578" y1="77.8292" x2="32.2823" y2="73.5702" gradientUnits="userSpaceOnUse">
<stop stop-color="#FFFE37"/>
<stop offset="1" stop-color="#FFFC96"/>
</linearGradient>
<linearGradient id="paint93_linear_3538_136179" x1="93.4282" y1="53.1224" x2="99.6527" y2="48.8633" gradientUnits="userSpaceOnUse">
<stop stop-color="#FFFE37"/>
<stop offset="1" stop-color="#FFFC96"/>
</linearGradient>
<linearGradient id="paint94_linear_3538_136179" x1="97.8672" y1="29.6618" x2="106.333" y2="23.8689" gradientUnits="userSpaceOnUse">
<stop stop-color="#FFFE37"/>
<stop offset="1" stop-color="#FFFC96"/>
</linearGradient>
<linearGradient id="paint95_linear_3538_136179" x1="68.583" y1="67.4088" x2="73.3611" y2="67.4088" gradientUnits="userSpaceOnUse">
<stop stop-color="#FFFE37"/>
<stop offset="1" stop-color="#FFFC96"/>
</linearGradient>
<linearGradient id="paint96_linear_3538_136179" x1="78.2558" y1="44.5376" x2="77.1693" y2="40.1872" gradientUnits="userSpaceOnUse">
<stop stop-color="#FFFE37"/>
<stop offset="1" stop-color="#FFFC96"/>
</linearGradient>
<linearGradient id="paint97_linear_3538_136179" x1="57.6977" y1="77.7048" x2="56.6113" y2="73.3544" gradientUnits="userSpaceOnUse">
<stop stop-color="#FFFE37"/>
<stop offset="1" stop-color="#FFFC96"/>
</linearGradient>
<linearGradient id="paint98_linear_3538_136179" x1="51.6198" y1="48.2313" x2="53.3547" y2="44.0966" gradientUnits="userSpaceOnUse">
<stop stop-color="#FFFE37"/>
<stop offset="1" stop-color="#FFFC96"/>
</linearGradient>
</defs>
</svg>
