<svg width="12" height="12" viewBox="0 0 12 12" fill="none" xmlns="http://www.w3.org/2000/svg">
<path d="M10.5289 6.00156C11.0108 6.00156 11.4088 6.3948 11.3312 6.87051C11.1835 7.77617 10.8066 8.63436 10.2298 9.36037C9.47113 10.3155 8.41138 10.9856 7.22319 11.2616C6.03501 11.5375 4.7884 11.4031 3.68639 10.8801C2.58438 10.3571 1.6919 9.47643 1.1543 8.38148C0.616696 7.28653 0.465652 6.04182 0.725763 4.85007C0.985874 3.65832 1.64182 2.58974 2.58676 1.81837C3.5317 1.047 4.70997 0.618281 5.92967 0.602041C6.85679 0.589697 7.76633 0.81623 8.57322 1.25323C8.99704 1.48276 9.06484 2.03809 8.7701 2.41945C8.47536 2.80081 7.92927 2.85955 7.48902 2.66338C7.00898 2.44949 6.48523 2.34022 5.95291 2.34731C5.12745 2.3583 4.33002 2.64844 3.69051 3.17048C3.051 3.69253 2.60707 4.41571 2.43104 5.22226C2.255 6.02881 2.35722 6.8712 2.72106 7.61223C3.08489 8.35326 3.6889 8.94928 4.43471 9.30322C5.18052 9.65716 6.0242 9.74815 6.82833 9.5614C7.63246 9.37464 8.34967 8.92112 8.86316 8.27472C9.19429 7.85787 9.42812 7.37664 9.55243 6.86602C9.66645 6.39772 10.0469 6.00156 10.5289 6.00156Z" fill="url(#paint0_angular_2897_147250)"/>
<defs>
<radialGradient id="paint0_angular_2897_147250" cx="0" cy="0" r="1" gradientUnits="userSpaceOnUse" gradientTransform="translate(2.91585 6.77299) rotate(-19.9831) scale(9.02934)">
<stop stop-color="white"/>
<stop offset="1" stop-color="white" stop-opacity="0"/>
</radialGradient>
</defs>
</svg>
