<svg width="20" height="20" viewBox="0 0 20 20" fill="none" xmlns="http://www.w3.org/2000/svg">
<path d="M0.0507812 11.005H5.52778C5.6989 14.1719 6.70833 17.2364 8.45278 19.885C6.26771 19.5418 4.25798 18.4842 2.7378 16.8775C1.21762 15.2708 0.272699 13.2057 0.0507812 11.005ZM0.0507812 9.005C0.272699 6.8043 1.21762 4.73918 2.7378 3.13251C4.25798 1.52585 6.26771 0.468223 8.45278 0.125C6.70833 2.77361 5.6989 5.83815 5.52778 9.005H0.0507812ZM19.9508 9.005H14.4738C14.3027 5.83815 13.2932 2.77361 11.5488 0.125C13.7338 0.468223 15.7436 1.52585 17.2638 3.13251C18.7839 4.73918 19.7289 6.8043 19.9508 9.005ZM19.9508 11.005C19.7289 13.2057 18.7839 15.2708 17.2638 16.8775C15.7436 18.4842 13.7338 19.5418 11.5488 19.885C13.2932 17.2364 14.3027 14.1719 14.4738 11.005H19.9518H19.9508ZM7.53078 11.005H12.4708C12.3062 13.7045 11.4561 16.3174 10.0008 18.597C8.54548 16.3174 7.69538 13.7045 7.53078 11.005ZM7.53078 9.005C7.69538 6.30552 8.54548 3.69256 10.0008 1.413C11.4561 3.69256 12.3062 6.30552 12.4708 9.005H7.53078Z" fill="#099699"/>
</svg>
