<svg width="24" height="24" viewBox="0 0 24 24" fill="none" xmlns="http://www.w3.org/2000/svg">
<path d="M22.3008 15.0106V16.0706C22.3008 19.1506 20.5408 20.4706 17.9008 20.4706H9.11081C8.37081 20.4706 7.70082 20.3706 7.12082 20.1506C5.93082 19.7106 5.12081 18.8006 4.83081 17.3406C5.23081 17.4306 5.66081 17.4706 6.11081 17.4706H14.9008C17.5408 17.4706 19.3008 16.1506 19.3008 13.0706V7.92059C19.3008 7.45059 19.2608 7.03062 19.1808 6.64062C21.0908 7.03062 22.3008 8.37059 22.3008 10.9206" stroke="#099699" stroke-width="1.5" stroke-miterlimit="10" stroke-linecap="round" stroke-linejoin="round"/>
<path d="M1.69995 7.91949C1.69995 4.83949 3.45994 3.51953 6.09995 3.51953H14.89C17.13 3.51953 18.74 4.46953 19.17 6.63953C19.25 7.02953 19.2899 7.44949 19.2899 7.91949V13.0695C19.2899 16.1495 17.53 17.4695 14.89 17.4695H6.09995C5.64995 17.4695 5.21995 17.4295 4.81995 17.3395C4.56995 17.2995 4.32992 17.2295 4.10992 17.1495C2.60992 16.5895 1.69995 15.2895 1.69995 13.0695V11.9995" stroke="#0A2B3C" stroke-width="1.5" stroke-miterlimit="10" stroke-linecap="round" stroke-linejoin="round"/>
<path d="M13.1399 10.4994C13.1399 9.03939 11.9599 7.85938 10.4999 7.85938C9.03988 7.85938 7.85986 9.03939 7.85986 10.4994C7.85986 11.9594 9.03988 13.1394 10.4999 13.1394" stroke="#0A2B3C" stroke-width="1.5" stroke-miterlimit="10" stroke-linecap="round" stroke-linejoin="round"/>
<path d="M4.78003 8.30078V12.7008" stroke="#099699" stroke-width="1.5" stroke-miterlimit="10" stroke-linecap="round" stroke-linejoin="round"/>
<path d="M16.22 8.30078V12.7008" stroke="#099699" stroke-width="1.5" stroke-miterlimit="10" stroke-linecap="round" stroke-linejoin="round"/>
</svg>
