<svg width="20" height="20" viewBox="0 0 20 20" fill="none" xmlns="http://www.w3.org/2000/svg">
<path d="M6.04199 5.83464H13.9587V4.16797C13.9587 2.5013 13.3337 1.66797 11.4587 1.66797H8.54199C6.66699 1.66797 6.04199 2.5013 6.04199 4.16797V5.83464Z" stroke="#0A2B3C" stroke-width="1.5" stroke-miterlimit="10" stroke-linecap="round" stroke-linejoin="round"/>
<path d="M13.3337 12.5V15.8333C13.3337 17.5 12.5003 18.3333 10.8337 18.3333H9.16699C7.50033 18.3333 6.66699 17.5 6.66699 15.8333V12.5H13.3337Z" stroke="#0A2B3C" stroke-width="1.5" stroke-miterlimit="10" stroke-linecap="round" stroke-linejoin="round"/>
<path d="M17.5 8.33203V12.4987C17.5 14.1654 16.6667 14.9987 15 14.9987H13.3333V12.4987H6.66667V14.9987H5C3.33333 14.9987 2.5 14.1654 2.5 12.4987V8.33203C2.5 6.66536 3.33333 5.83203 5 5.83203H15C16.6667 5.83203 17.5 6.66536 17.5 8.33203Z" stroke="#0A2B3C" stroke-width="1.5" stroke-miterlimit="10" stroke-linecap="round" stroke-linejoin="round"/>
<path d="M14.1663 12.5H13.158H5.83301" stroke="#0A2B3C" stroke-width="1.5" stroke-miterlimit="10" stroke-linecap="round" stroke-linejoin="round"/>
<path d="M5.83301 9.16797H8.33301" stroke="#0A2B3C" stroke-width="1.5" stroke-miterlimit="10" stroke-linecap="round" stroke-linejoin="round"/>
</svg>
