<svg width="21" height="20" viewBox="0 0 21 20" fill="none" xmlns="http://www.w3.org/2000/svg">
<path d="M3.71903 1.66797H11.1357C11.7524 1.66797 12.2607 2.17631 12.2607 2.79297V4.02629C12.2607 4.47629 11.9774 5.03464 11.7024 5.31797L9.28575 7.4513C8.95241 7.73464 8.72738 8.29296 8.72738 8.74296V11.1596C8.72738 11.493 8.50239 11.943 8.21905 12.118L7.43572 12.6263C6.70239 13.0763 5.69403 12.568 5.69403 11.668V8.69296C5.69403 8.3013 5.46905 7.79298 5.24405 7.50964L3.11072 5.25963C2.82738 4.9763 2.6024 4.4763 2.6024 4.13463V2.84297C2.59406 2.17631 3.10237 1.66797 3.71903 1.66797Z" stroke="#099699" stroke-width="1.5" stroke-miterlimit="10" stroke-linecap="round" stroke-linejoin="round"/>
<path d="M2.59424 10.0005V12.5005C2.59424 16.6672 4.26091 18.3339 8.42757 18.3339H13.4276C17.5942 18.3339 19.2609 16.6672 19.2609 12.5005V7.50053C19.2609 4.90053 18.6109 3.26719 17.1025 2.41719C16.6775 2.17552 15.8276 1.99219 15.0526 1.86719" stroke="#099699" stroke-width="1.5" stroke-linecap="round" stroke-linejoin="round"/>
<path d="M11.7607 10.832H15.9274" stroke="#099699" stroke-width="1.5" stroke-linecap="round" stroke-linejoin="round"/>
<path d="M10.0942 14.168H15.9276" stroke="#099699" stroke-width="1.5" stroke-linecap="round" stroke-linejoin="round"/>
</svg>
