<svg width="20" height="21" viewBox="0 0 20 21" fill="none" xmlns="http://www.w3.org/2000/svg">
<path d="M13.3332 11.2513V14.7513C13.3332 17.668 12.1665 18.8346 9.24984 18.8346H5.74984C2.83317 18.8346 1.6665 17.668 1.6665 14.7513V11.2513C1.6665 8.33464 2.83317 7.16797 5.74984 7.16797H9.24984C12.1665 7.16797 13.3332 8.33464 13.3332 11.2513Z" stroke="#099699" stroke-width="1.5" stroke-linecap="round" stroke-linejoin="round"/>
<path d="M18.3332 6.2513V9.7513C18.3332 12.668 17.1665 13.8346 14.2498 13.8346H13.3332V11.2513C13.3332 8.33463 12.1665 7.16797 9.24984 7.16797H6.6665V6.2513C6.6665 3.33464 7.83317 2.16797 10.7498 2.16797H14.2498C17.1665 2.16797 18.3332 3.33464 18.3332 6.2513Z" stroke="#099699" stroke-width="1.5" stroke-linecap="round" stroke-linejoin="round"/>
</svg>
