<svg width="20" height="20" viewBox="0 0 20 20" fill="none" xmlns="http://www.w3.org/2000/svg">
<path d="M3.32499 12.2167L2.05834 10.95C1.54167 10.4334 1.54167 9.58335 2.05834 9.06668L3.32499 7.8C3.54166 7.58333 3.71666 7.15833 3.71666 6.85833V5.06669C3.71666 4.33336 4.31667 3.73333 5.05 3.73333H6.84166C7.14166 3.73333 7.56667 3.55835 7.78333 3.34168L9.04999 2.075C9.56666 1.55833 10.4167 1.55833 10.9333 2.075L12.2 3.34168C12.4167 3.55835 12.8417 3.73333 13.1417 3.73333H14.9333C15.6667 3.73333 16.2667 4.33336 16.2667 5.06669V6.85833C16.2667 7.15833 16.4417 7.58333 16.6583 7.8L17.925 9.06668C18.4417 9.58335 18.4417 10.4334 17.925 10.95L16.6583 12.2167C16.4417 12.4333 16.2667 12.8583 16.2667 13.1583V14.95C16.2667 15.6833 15.6667 16.2833 14.9333 16.2833H13.1417C12.8417 16.2833 12.4167 16.4583 12.2 16.675L10.9333 17.9417C10.4167 18.4584 9.56666 18.4584 9.04999 17.9417L7.78333 16.675C7.56667 16.4583 7.14166 16.2833 6.84166 16.2833H5.05C4.31667 16.2833 3.71666 15.6833 3.71666 14.95V13.1583C3.71666 12.85 3.54166 12.425 3.32499 12.2167Z" fill="#099699"/>
<path d="M12.5 13.3346C12.0333 13.3346 11.6583 12.9596 11.6583 12.5013C11.6583 12.043 12.0333 11.668 12.4917 11.668C12.95 11.668 13.325 12.043 13.325 12.5013C13.325 12.9596 12.9583 13.3346 12.5 13.3346Z" fill="white"/>
<path d="M7.50836 8.33464C7.0417 8.33464 6.66669 7.95964 6.66669 7.5013C6.66669 7.04297 7.04169 6.66797 7.50002 6.66797C7.95835 6.66797 8.33335 7.04297 8.33335 7.5013C8.33335 7.95964 7.9667 8.33464 7.50836 8.33464Z" fill="white"/>
<path d="M7.49999 13.1268C7.34166 13.1268 7.18333 13.0685 7.05833 12.9435C6.81666 12.7019 6.81666 12.3018 7.05833 12.0602L12.0583 7.06016C12.3 6.81849 12.7 6.81849 12.9417 7.06016C13.1833 7.30182 13.1833 7.70187 12.9417 7.94354L7.94166 12.9435C7.81666 13.0685 7.65832 13.1268 7.49999 13.1268Z" fill="white"/>
</svg>
