<svg width="20" height="20" viewBox="0 0 20 20" fill="none" xmlns="http://www.w3.org/2000/svg">
<path d="M10.0003 18.0443C9.74199 18.0443 9.49199 18.0109 9.28366 17.9359C6.10033 16.8443 1.04199 12.9693 1.04199 7.24427C1.04199 4.3276 3.40033 1.96094 6.30033 1.96094C7.70866 1.96094 9.02533 2.51094 10.0003 3.49427C10.9753 2.51094 12.292 1.96094 13.7003 1.96094C16.6003 1.96094 18.9587 4.33594 18.9587 7.24427C18.9587 12.9776 13.9003 16.8443 10.717 17.9359C10.5087 18.0109 10.2587 18.0443 10.0003 18.0443ZM6.30033 3.21094C4.09199 3.21094 2.29199 5.01927 2.29199 7.24427C2.29199 12.9359 7.76699 16.1026 9.69199 16.7609C9.84199 16.8109 10.167 16.8109 10.317 16.7609C12.2337 16.1026 17.717 12.9443 17.717 7.24427C17.717 5.01927 15.917 3.21094 13.7087 3.21094C12.442 3.21094 11.267 3.8026 10.5087 4.8276C10.2753 5.14427 9.74199 5.14427 9.50866 4.8276C8.73366 3.79427 7.56699 3.21094 6.30033 3.21094Z" fill="#099699"/>
</svg>
