<svg width="43" height="16" viewBox="0 0 43 16" fill="none" xmlns="http://www.w3.org/2000/svg">
<rect width="43" height="16" rx="8" fill="#099699" fill-opacity="0.1"/>
<path d="M10.77 12V4.55H13.91C14.3767 4.55 14.78 4.63333 15.12 4.8C15.46 4.96 15.72 5.19333 15.9 5.5C16.08 5.8 16.17 6.15667 16.17 6.57C16.17 6.93 16.0767 7.26 15.89 7.56C15.71 7.85333 15.4267 8.08667 15.04 8.26V7.76C15.38 7.89333 15.6567 8.06333 15.87 8.27C16.0833 8.47 16.2367 8.69667 16.33 8.95C16.43 9.20333 16.48 9.47 16.48 9.75C16.48 10.45 16.25 11 15.79 11.4C15.3367 11.8 14.7133 12 13.92 12H10.77ZM11.95 10.95H14.01C14.4033 10.95 14.7167 10.8433 14.95 10.63C15.1833 10.41 15.3 10.12 15.3 9.76C15.3 9.39333 15.1833 9.10333 14.95 8.89C14.7167 8.67 14.4033 8.56 14.01 8.56H11.95V10.95ZM11.95 7.52H13.94C14.26 7.52 14.5167 7.43 14.71 7.25C14.9033 7.06333 15 6.82 15 6.52C15 6.22 14.9033 5.98667 14.71 5.82C14.5167 5.65333 14.26 5.57 13.94 5.57H11.95V7.52ZM20.1238 12.12C19.5838 12.12 19.1038 11.9967 18.6838 11.75C18.2705 11.4967 17.9472 11.1567 17.7138 10.73C17.4805 10.2967 17.3638 9.81333 17.3638 9.28C17.3638 8.73333 17.4805 8.25 17.7138 7.83C17.9538 7.41 18.2738 7.08 18.6738 6.84C19.0738 6.59333 19.5272 6.47 20.0338 6.47C20.4405 6.47 20.8038 6.54 21.1238 6.68C21.4438 6.82 21.7138 7.01333 21.9338 7.26C22.1538 7.5 22.3205 7.77667 22.4338 8.09C22.5538 8.40333 22.6138 8.73667 22.6138 9.09C22.6138 9.17667 22.6105 9.26667 22.6038 9.36C22.5972 9.45333 22.5838 9.54 22.5638 9.62H18.2538V8.72H21.9238L21.3838 9.13C21.4505 8.80333 21.4272 8.51333 21.3138 8.26C21.2072 8 21.0405 7.79667 20.8138 7.65C20.5938 7.49667 20.3338 7.42 20.0338 7.42C19.7338 7.42 19.4672 7.49667 19.2338 7.65C19.0005 7.79667 18.8205 8.01 18.6938 8.29C18.5672 8.56333 18.5172 8.89667 18.5438 9.29C18.5105 9.65667 18.5605 9.97667 18.6938 10.25C18.8338 10.5233 19.0272 10.7367 19.2738 10.89C19.5272 11.0433 19.8138 11.12 20.1338 11.12C20.4605 11.12 20.7372 11.0467 20.9638 10.9C21.1972 10.7533 21.3805 10.5633 21.5138 10.33L22.4338 10.78C22.3272 11.0333 22.1605 11.2633 21.9338 11.47C21.7138 11.67 21.4472 11.83 21.1338 11.95C20.8272 12.0633 20.4905 12.12 20.1238 12.12ZM26.0566 12.06C25.49 12.06 25.05 11.9 24.7366 11.58C24.4233 11.26 24.2666 10.81 24.2666 10.23V7.61H23.3166V6.59H23.4666C23.72 6.59 23.9166 6.51667 24.0566 6.37C24.1966 6.22333 24.2666 6.02333 24.2666 5.77V5.35H25.3966V6.59H26.6266V7.61H25.3966V10.18C25.3966 10.3667 25.4266 10.5267 25.4866 10.66C25.5466 10.7867 25.6433 10.8867 25.7766 10.96C25.91 11.0267 26.0833 11.06 26.2966 11.06C26.35 11.06 26.41 11.0567 26.4766 11.05C26.5433 11.0433 26.6066 11.0367 26.6666 11.03V12C26.5733 12.0133 26.47 12.0267 26.3566 12.04C26.2433 12.0533 26.1433 12.06 26.0566 12.06ZM29.3405 12.12C28.9739 12.12 28.6505 12.0567 28.3705 11.93C28.0972 11.7967 27.8839 11.6167 27.7305 11.39C27.5772 11.1567 27.5005 10.8833 27.5005 10.57C27.5005 10.2767 27.5639 10.0133 27.6905 9.78C27.8239 9.54667 28.0272 9.35 28.3005 9.19C28.5739 9.03 28.9172 8.91667 29.3305 8.85L31.2105 8.54V9.43L29.5505 9.72C29.2505 9.77333 29.0305 9.87 28.8905 10.01C28.7505 10.1433 28.6805 10.3167 28.6805 10.53C28.6805 10.7367 28.7572 10.9067 28.9105 11.04C29.0705 11.1667 29.2739 11.23 29.5205 11.23C29.8272 11.23 30.0939 11.1633 30.3205 11.03C30.5539 10.8967 30.7339 10.72 30.8605 10.5C30.9872 10.2733 31.0505 10.0233 31.0505 9.75V8.36C31.0505 8.09333 30.9505 7.87667 30.7505 7.71C30.5572 7.53667 30.2972 7.45 29.9705 7.45C29.6705 7.45 29.4072 7.53 29.1805 7.69C28.9605 7.84333 28.7972 8.04333 28.6905 8.29L27.7505 7.82C27.8505 7.55333 28.0139 7.32 28.2405 7.12C28.4672 6.91333 28.7305 6.75333 29.0305 6.64C29.3372 6.52667 29.6605 6.47 30.0005 6.47C30.4272 6.47 30.8039 6.55 31.1305 6.71C31.4639 6.87 31.7205 7.09333 31.9005 7.38C32.0872 7.66 32.1805 7.98667 32.1805 8.36V12H31.1005V11.02L31.3305 11.05C31.2039 11.27 31.0405 11.46 30.8405 11.62C30.6472 11.78 30.4239 11.9033 30.1705 11.99C29.9239 12.0767 29.6472 12.12 29.3405 12.12Z" fill="#099699"/>
</svg>
