<svg width="14" height="13" viewBox="0 0 14 13" fill="none" xmlns="http://www.w3.org/2000/svg">
<path d="M8.00887 1.54656L9.03554 3.5999C9.17554 3.88573 9.54887 4.1599 9.86387 4.2124L11.7247 4.52156C12.9147 4.7199 13.1947 5.58323 12.3372 6.4349L10.8905 7.88156C10.6455 8.12656 10.5114 8.59906 10.5872 8.9374L11.0014 10.7282C11.328 12.1457 10.5755 12.6941 9.32137 11.9532L7.5772 10.9207C7.2622 10.7341 6.74304 10.7341 6.4222 10.9207L4.67804 11.9532C3.4297 12.6941 2.67137 12.1399 2.99804 10.7282L3.4122 8.9374C3.48804 8.59906 3.35387 8.12656 3.10887 7.88156L1.6622 6.4349C0.810536 5.58323 1.0847 4.7199 2.2747 4.52156L4.13554 4.2124C4.4447 4.1599 4.81804 3.88573 4.95804 3.5999L5.9847 1.54656C6.5447 0.432396 7.4547 0.432396 8.00887 1.54656Z" stroke="#FFAE1B" stroke-linecap="round" stroke-linejoin="round"/>
</svg>
