<svg width="16" height="16" viewBox="0 0 16 16" fill="none" xmlns="http://www.w3.org/2000/svg">
<path d="M13.5866 14.088C13.4533 14.088 13.3266 14.0346 13.2333 13.9413L8.97996 9.68797C8.78663 9.49464 8.78663 9.17464 8.97996 8.98131L14.1333 3.82798C14.26 3.70131 14.4533 3.65464 14.6266 3.70131C14.8 3.75464 14.9333 3.89464 14.9733 4.06798C15.1 4.63464 15.1666 5.26797 15.1666 6.00131V10.0013C15.1666 11.848 14.78 13.0946 13.94 13.9413C13.8466 14.0346 13.7066 14.0546 13.5866 14.088ZM10.04 9.33464L13.5466 12.8413C13.9666 12.1946 14.1666 11.2746 14.1666 10.0013V6.00131C14.1666 5.72797 14.16 5.47464 14.14 5.23464L10.04 9.33464Z" fill="#BEBEBE"/>
<path d="M4.17967 14.9854C4.13967 14.9854 4.10635 14.9787 4.06635 14.972C1.85968 14.4654 0.833008 12.8854 0.833008 9.9987V5.9987C0.833008 2.3787 2.37967 0.832031 5.99967 0.832031H9.99967C12.8863 0.832031 14.4663 1.8587 14.973 4.06537C15.013 4.23204 14.9597 4.41203 14.8397 4.53203L4.533 14.8387C4.43967 14.932 4.313 14.9854 4.17967 14.9854ZM5.99967 1.83203C2.92634 1.83203 1.83301 2.92536 1.83301 5.9987V9.9987C1.83301 12.312 2.47301 13.472 4.02635 13.932L13.9264 4.03203C13.473 2.4787 12.3063 1.83869 9.993 1.83869H5.99967V1.83203Z" fill="#BEBEBE"/>
<path d="M10.0002 15.1676H6.00025C5.26692 15.1676 4.64025 15.1076 4.06692 14.9743C3.88692 14.9343 3.74691 14.8009 3.70024 14.6276C3.64691 14.4543 3.70024 14.2676 3.82691 14.1343L8.98025 8.98094C9.17358 8.7876 9.49358 8.7876 9.68691 8.98094L13.9403 13.2343C14.0336 13.3276 14.0869 13.4543 14.0869 13.5876C14.0869 13.7209 14.0336 13.8476 13.9403 13.9409C13.0936 14.7809 11.8469 15.1676 10.0002 15.1676ZM5.23359 14.1409C5.47359 14.1609 5.72692 14.1676 6.00025 14.1676H10.0002C11.2802 14.1676 12.1936 13.9676 12.8403 13.5476L9.33358 10.0409L5.23359 14.1409Z" fill="#BEBEBE"/>
<path d="M6.08029 8.87271C5.66029 8.87271 5.24028 8.71938 4.90695 8.40605C3.84695 7.39938 3.4203 6.29272 3.67363 5.21272C3.92696 4.10605 4.89362 3.35938 6.08029 3.35938C7.26695 3.35938 8.23363 4.10605 8.48696 5.21272C8.73363 6.29938 8.30695 7.39938 7.24695 8.40605C6.92029 8.71271 6.50029 8.87271 6.08029 8.87271ZM4.64696 5.43271C4.43362 6.33938 5.04695 7.15272 5.60029 7.67938C5.87362 7.93938 6.29362 7.93938 6.56029 7.67938C7.10695 7.15938 7.72028 6.34604 7.51362 5.43271C7.33362 4.63938 6.62695 4.35271 6.08029 4.35271C5.53362 4.35271 4.83362 4.63938 4.64696 5.43271Z" fill="#BEBEBE"/>
<path d="M6.10026 6.32552C5.73359 6.32552 5.43359 6.02552 5.43359 5.65885C5.43359 5.29219 5.72693 4.99219 6.10026 4.99219H6.10693C6.4736 4.99219 6.7736 5.29219 6.7736 5.65885C6.7736 6.02552 6.46693 6.32552 6.10026 6.32552Z" fill="#BEBEBE"/>
</svg>
