<svg width="20" height="20" viewBox="0 0 20 20" fill="none" xmlns="http://www.w3.org/2000/svg">
<path d="M12.1083 7.89063L7.8916 12.1073C7.34994 11.5656 7.0166 10.824 7.0166 9.99896C7.0166 8.34896 8.34993 7.01562 9.99993 7.01562C10.8249 7.01562 11.5666 7.34896 12.1083 7.89063Z" stroke="#0A2B3C" stroke-width="1.5" stroke-linecap="round" stroke-linejoin="round"/>
<path d="M14.8499 4.80937C13.3915 3.70937 11.7249 3.10938 9.99987 3.10938C7.0582 3.10938 4.31654 4.84271 2.4082 7.84271C1.6582 9.01771 1.6582 10.9927 2.4082 12.1677C3.06654 13.201 3.8332 14.0927 4.66654 14.8094" stroke="#0A2B3C" stroke-width="1.5" stroke-linecap="round" stroke-linejoin="round"/>
<path d="M7.0166 16.276C7.9666 16.676 8.97493 16.8927 9.99993 16.8927C12.9416 16.8927 15.6833 15.1594 17.5916 12.1594C18.3416 10.9844 18.3416 9.00937 17.5916 7.83437C17.3166 7.40104 17.0166 6.99271 16.7083 6.60938" stroke="#0A2B3C" stroke-width="1.5" stroke-linecap="round" stroke-linejoin="round"/>
<path d="M12.9252 10.582C12.7085 11.757 11.7502 12.7154 10.5752 12.932" stroke="#0A2B3C" stroke-width="1.5" stroke-linecap="round" stroke-linejoin="round"/>
<path d="M7.89199 12.1094L1.66699 18.3344" stroke="#0A2B3C" stroke-width="1.5" stroke-linecap="round" stroke-linejoin="round"/>
<path d="M18.3334 1.66797L12.1084 7.89297" stroke="#0A2B3C" stroke-width="1.5" stroke-linecap="round" stroke-linejoin="round"/>
</svg>
