<svg width="20" height="20" viewBox="0 0 20 20" fill="none" xmlns="http://www.w3.org/2000/svg">
<path d="M10.0007 1.66927C5.39828 1.66927 1.66732 5.40023 1.66732 10.0026C1.66732 14.605 5.39828 18.3359 10.0007 18.3359C14.603 18.3359 18.334 14.605 18.334 10.0026C18.334 5.40023 14.603 1.66927 10.0007 1.66927Z" fill="#E7E7E7"/>
<path d="M10 8.54427C9.65833 8.54427 9.375 8.8276 9.375 9.16927L9.375 13.3359C9.375 13.6776 9.65833 13.9609 10 13.9609C10.3417 13.9609 10.625 13.6776 10.625 13.3359L10.625 9.16927C10.625 8.8276 10.3417 8.54427 10 8.54427Z" fill="#0A2B3C"/>
<path d="M9.23398 6.97969C9.27565 7.07969 9.33398 7.17135 9.40898 7.25469C9.49232 7.32969 9.58398 7.38802 9.68398 7.42969C9.88398 7.51302 10.1173 7.51302 10.3173 7.42969C10.4173 7.38802 10.509 7.32969 10.5923 7.25469C10.6673 7.17135 10.7257 7.07969 10.7673 6.97969C10.809 6.87969 10.834 6.77135 10.834 6.66302C10.834 6.55469 10.809 6.44635 10.7673 6.34635C10.7257 6.23802 10.6673 6.15469 10.5923 6.07135C10.509 5.99635 10.4173 5.93802 10.3173 5.89635C10.2173 5.85469 10.109 5.82969 10.0007 5.82969C9.89232 5.82969 9.78398 5.85469 9.68398 5.89635C9.58398 5.93802 9.49232 5.99635 9.40899 6.07135C9.33399 6.15469 9.27565 6.23802 9.23399 6.34635C9.19232 6.44635 9.16732 6.55469 9.16732 6.66302C9.16732 6.77135 9.19232 6.87969 9.23398 6.97969Z" fill="#0A2B3C"/>
</svg>
