<svg width="24" height="24" viewBox="0 0 24 24" fill="none" xmlns="http://www.w3.org/2000/svg">
<path opacity="0.68" d="M2.81718 12.4909C2.85918 12.3711 2.89841 12.2509 2.94664 12.1321C3.05648 11.8441 3.19425 11.5325 3.35533 11.209C3.81964 10.285 4.47364 9.25967 5.20541 8.3749C5.20287 8.37144 5.20287 8.37144 5.20933 8.36936C5.26587 8.29782 5.32541 8.22674 5.38495 8.15544C5.82272 7.64221 6.28264 7.18736 6.73587 6.83913C6.96779 6.66121 7.19879 6.51074 7.42425 6.39651C8.21787 5.99082 9.09918 5.72059 9.97887 5.71136C10.2653 5.70721 10.55 5.73374 10.8304 5.79028C11.4983 5.92805 12.113 6.23936 12.7105 6.56359C13.3878 6.93005 14.0616 7.32074 14.6663 7.80559C15.5543 8.51636 16.2888 9.41359 17.2259 10.0609C17.9651 10.5716 18.8143 10.9173 19.6986 11.0654C20.3192 11.1688 21.3269 11.5653 21.809 11.9647C23.1293 13.0584 23.1595 14.611 23.1583 15.5414C23.1634 16.4698 22.8863 17.4183 22.2869 18.1321C21.8739 18.6243 21.3267 18.9834 20.7858 19.3404C20.4567 19.5531 20.1237 19.7717 19.754 19.9048C19.673 19.933 19.5927 19.9579 19.5131 19.9771C18.8776 20.1418 18.2199 20.0608 17.5553 19.9233C17.3646 19.8831 17.1713 19.8393 16.9781 19.7957C16.9456 19.7878 16.9098 19.7795 16.8773 19.7717C16.7612 19.7454 16.6453 19.7193 16.529 19.696C16.1843 19.6177 15.8376 19.5515 15.4917 19.5224C15.3856 19.513 15.2819 19.507 15.1751 19.5035C14.3423 19.4857 13.5692 19.7717 12.8086 20.1211C12.5252 20.2514 12.2406 20.3911 11.9566 20.5274C11.8174 20.5962 11.6785 20.6647 11.5373 20.7271C11.4779 20.7552 11.4219 20.7808 11.3628 20.806C11.1196 20.9147 10.8752 21.0109 10.6264 21.0942C10.5454 21.1224 10.4651 21.1473 10.3816 21.172C9.85541 21.3252 9.29048 21.3866 8.71679 21.361C8.03556 21.3349 7.33564 21.1861 6.66387 20.9278C6.58541 20.8978 6.50418 20.8644 6.42618 20.8316C6.17164 20.7236 5.92541 20.6015 5.68449 20.4649C5.61964 20.4247 5.55456 20.3876 5.49248 20.3507C3.1931 18.9351 1.59802 16.1334 2.81718 12.4909Z" fill="url(#paint0_linear_3289_96378)"/>
<g opacity="0.74">
<path d="M16.2617 6.73506L16.399 6.95013C16.3228 7.03713 16.2573 7.13129 16.203 7.23098L15.9538 7.17606C15.8733 7.15829 15.793 7.20952 15.7752 7.29006L15.652 7.84806C15.6342 7.92859 15.6854 8.0089 15.766 8.02667L16.0152 8.08159C16.0226 8.19467 16.0422 8.30775 16.075 8.41875L15.8599 8.55606C15.7904 8.60036 15.7699 8.69359 15.8142 8.76306L16.1218 9.24467C16.1661 9.31413 16.2593 9.33467 16.3288 9.29036L16.5439 9.15306C16.6309 9.22921 16.725 9.29475 16.8247 9.34898L16.7698 9.59821C16.752 9.67875 16.8033 9.75906 16.8838 9.77682L17.4418 9.90006C17.5223 9.91782 17.6027 9.86659 17.6204 9.78606L17.6753 9.53682C17.7884 9.52944 17.9015 9.50982 18.0125 9.47706L18.1498 9.69213C18.1941 9.76159 18.2873 9.78213 18.3568 9.73783L18.8384 9.43021C18.9079 9.3859 18.9284 9.29267 18.8841 9.22321L18.7468 9.00813C18.823 8.92113 18.8885 8.82698 18.9427 8.72729L19.192 8.78221C19.2725 8.79998 19.3528 8.74875 19.3706 8.66821L19.4938 8.11021C19.5116 8.02967 19.4603 7.94936 19.3798 7.93159L19.1306 7.87667C19.1232 7.76359 19.1036 7.65052 19.0708 7.53952L19.2859 7.40221C19.3553 7.3579 19.3759 7.26467 19.3316 7.19521L19.024 6.71359C18.9797 6.64413 18.8864 6.62359 18.817 6.6679L18.6019 6.80521C18.5149 6.72906 18.4207 6.66352 18.321 6.60929L18.376 6.36006C18.3937 6.27952 18.3425 6.19921 18.262 6.18144L17.704 6.05821C17.6234 6.04044 17.5431 6.09167 17.5253 6.17221L17.4704 6.42144C17.3573 6.42883 17.2443 6.44844 17.1333 6.48121L16.996 6.26613C16.9517 6.19667 16.8584 6.17613 16.789 6.22044L16.3073 6.52806C16.2379 6.57259 16.2173 6.66559 16.2617 6.73506ZM18.3753 7.44513C18.678 7.90067 18.5423 8.51567 18.076 8.80136C17.6363 9.07067 17.0555 8.94259 16.7703 8.51313C16.4675 8.05759 16.6032 7.44259 17.0696 7.1569C17.509 6.88759 18.0898 7.0159 18.3753 7.44513Z" fill="#A4D5D8"/>
<path d="M17.5732 8.6385C17.9393 8.6385 18.2362 8.34166 18.2362 7.9755C18.2362 7.60934 17.9393 7.3125 17.5732 7.3125C17.207 7.3125 16.9102 7.60934 16.9102 7.9755C16.9102 8.34166 17.207 8.6385 17.5732 8.6385Z" fill="#A4D5D8"/>
<path d="M17.5733 8.22872C17.712 8.22872 17.8244 8.1163 17.8244 7.97764C17.8244 7.83897 17.712 7.72656 17.5733 7.72656C17.4347 7.72656 17.3223 7.83897 17.3223 7.97764C17.3223 8.1163 17.4347 8.22872 17.5733 8.22872Z" fill="#A4D5D8"/>
<path d="M17.3001 10.1531L17.3546 10.2385C17.3244 10.2729 17.2983 10.3102 17.2768 10.3499L17.1778 10.328C17.146 10.3209 17.1141 10.3414 17.107 10.3732L17.0581 10.5945C17.0509 10.6264 17.0714 10.6582 17.1033 10.6654L17.2023 10.6873C17.2053 10.7323 17.2131 10.7771 17.2261 10.8212L17.1407 10.8756C17.1132 10.8932 17.1049 10.9301 17.1227 10.9578L17.2448 11.1489C17.2623 11.1763 17.2992 11.1846 17.3269 11.1669L17.4123 11.1124C17.4467 11.1426 17.4841 11.1687 17.5238 11.1902L17.5018 11.2892C17.4947 11.321 17.5152 11.3529 17.5471 11.36L17.7684 11.4089C17.8002 11.4161 17.8321 11.3955 17.8392 11.3637L17.8611 11.2647C17.9061 11.2617 17.9509 11.2539 17.995 11.2409L18.0494 11.3263C18.067 11.3538 18.1039 11.3621 18.1316 11.3443L18.3227 11.2222C18.3501 11.2047 18.3584 11.1678 18.3407 11.1401L18.2862 11.0547C18.3164 11.0203 18.3425 10.9829 18.364 10.9432L18.463 10.9652C18.4948 10.9723 18.5267 10.9518 18.5338 10.9199L18.5828 10.6986C18.5899 10.6668 18.5694 10.6349 18.5375 10.6278L18.4385 10.6059C18.4355 10.5609 18.4277 10.5161 18.4148 10.472L18.5001 10.4175C18.5276 10.4 18.5359 10.3631 18.5181 10.3354L18.3961 10.1443C18.3785 10.1169 18.3416 10.1085 18.3139 10.1263L18.2285 10.1808C18.1941 10.1505 18.1568 10.1245 18.1171 10.103L18.139 10.004C18.1461 9.97216 18.1256 9.94031 18.0938 9.93316L17.8724 9.88424C17.8406 9.87708 17.8088 9.89762 17.8016 9.92947L17.7797 10.0285C17.7347 10.0315 17.6899 10.0393 17.6458 10.0522L17.5914 9.96685C17.5738 9.93939 17.5369 9.93108 17.5092 9.94885L17.3181 10.0709C17.2907 10.0885 17.2826 10.1254 17.3001 10.1531ZM18.1388 10.4346C18.259 10.6153 18.205 10.8592 18.0201 10.9728C17.8457 11.0796 17.6154 11.0289 17.5021 10.8585C17.3818 10.6779 17.4358 10.4339 17.6209 10.3204C17.7951 10.2135 18.0254 10.2643 18.1388 10.4346Z" fill="#A4D5D8"/>
<path d="M17.8197 10.909C17.965 10.909 18.0828 10.7912 18.0828 10.6459C18.0828 10.5006 17.965 10.3828 17.8197 10.3828C17.6744 10.3828 17.5566 10.5006 17.5566 10.6459C17.5566 10.7912 17.6744 10.909 17.8197 10.909Z" fill="#A4D5D8"/>
<path d="M17.8204 10.7463C17.8755 10.7463 17.9201 10.7016 17.9201 10.6466C17.9201 10.5915 17.8755 10.5469 17.8204 10.5469C17.7653 10.5469 17.7207 10.5915 17.7207 10.6466C17.7207 10.7016 17.7653 10.7463 17.8204 10.7463Z" fill="#A4D5D8"/>
<path d="M19.012 9.39459L19.1073 9.5439C19.0543 9.60436 19.0088 9.66967 18.9712 9.7389L18.7981 9.70059C18.7423 9.68836 18.6864 9.7239 18.674 9.77975L18.5883 10.1674C18.5761 10.2233 18.6117 10.2791 18.6675 10.2916L18.8406 10.3299C18.8457 10.4086 18.8595 10.4871 18.8821 10.5641L18.7328 10.6594C18.6846 10.6901 18.6703 10.755 18.7012 10.8032L18.9149 11.1378C18.9456 11.1861 19.0104 11.2004 19.0587 11.1694L19.208 11.0741C19.2684 11.1272 19.3337 11.1727 19.403 11.2103L19.3647 11.3834C19.3524 11.4392 19.388 11.4951 19.4438 11.5075L19.8315 11.5931C19.8873 11.6054 19.9432 11.5698 19.9557 11.514L19.994 11.3409C20.0727 11.3358 20.1511 11.322 20.2282 11.2994L20.3235 11.4487C20.3542 11.4969 20.419 11.5112 20.4673 11.4803L20.8019 11.2666C20.8501 11.2359 20.8644 11.1711 20.8335 11.1228L20.7382 10.9735C20.7913 10.9131 20.8367 10.8477 20.8743 10.7785L21.0474 10.8168C21.1033 10.8291 21.1591 10.7935 21.1716 10.7377L21.2572 10.35C21.2694 10.2941 21.2339 10.2383 21.178 10.2258L21.005 10.1875C20.9999 10.1088 20.986 10.0304 20.9634 9.95328L21.1127 9.85798C21.161 9.82728 21.1753 9.76244 21.1443 9.71421L20.9307 9.37959C20.9 9.33136 20.8351 9.31705 20.7869 9.34798L20.6376 9.44328C20.5771 9.39021 20.5118 9.34475 20.4426 9.30713L20.4809 9.13405C20.4931 9.07821 20.4576 9.02236 20.4017 9.0099L20.014 8.92428C19.9582 8.91205 19.9023 8.94759 19.8899 9.00344L19.8516 9.17652C19.7729 9.18159 19.6944 9.19544 19.6173 9.21805L19.522 9.06875C19.4913 9.02052 19.4265 9.00621 19.3783 9.03713L19.0437 9.25082C18.9957 9.28175 18.9813 9.34636 19.012 9.39459ZM20.4802 9.88775C20.6907 10.2041 20.5963 10.6313 20.2723 10.83C19.967 11.0171 19.5636 10.9281 19.3653 10.6299C19.1549 10.3135 19.2493 9.88636 19.5733 9.68767C19.8786 9.50075 20.282 9.58959 20.4802 9.88775Z" fill="#A4D5D8"/>
<path d="M19.9235 10.7181C20.1779 10.7181 20.3841 10.5119 20.3841 10.2575C20.3841 10.0031 20.1779 9.79688 19.9235 9.79688C19.6691 9.79688 19.4629 10.0031 19.4629 10.2575C19.4629 10.5119 19.6691 10.7181 19.9235 10.7181Z" fill="#A4D5D8"/>
<path d="M19.9225 10.4349C20.0189 10.4349 20.097 10.3568 20.097 10.2604C20.097 10.164 20.0189 10.0859 19.9225 10.0859C19.8262 10.0859 19.748 10.164 19.748 10.2604C19.748 10.3568 19.8262 10.4349 19.9225 10.4349Z" fill="#A4D5D8"/>
<path d="M20.6926 7.75208L20.246 8.03708C20.2167 8.05577 20.2079 8.09523 20.2266 8.12454L20.2483 8.15846C20.267 8.18777 20.3065 8.19654 20.3358 8.17785L20.7823 7.89285C20.8116 7.87416 20.8204 7.83469 20.8017 7.80539L20.78 7.77146C20.7611 7.74193 20.7219 7.73339 20.6926 7.75208Z" fill="#A4D5D8"/>
<path d="M20.8937 8.53763L20.3765 8.4234C20.3426 8.41578 20.3085 8.43748 20.3011 8.47163L20.2925 8.51086C20.2849 8.54478 20.3066 8.57894 20.3408 8.58632L20.8579 8.70055C20.8918 8.70817 20.926 8.68648 20.9334 8.65232L20.9419 8.61309C20.9493 8.57917 20.9276 8.54501 20.8937 8.53763Z" fill="#A4D5D8"/>
<path d="M19.9986 7.34655L19.8843 7.8637C19.8767 7.89763 19.8984 7.93178 19.9326 7.93916L19.9718 7.9477C20.0057 7.95532 20.0399 7.93363 20.0473 7.89947L20.1615 7.38232C20.1691 7.34839 20.1474 7.31424 20.1133 7.30686L20.074 7.29832C20.0401 7.29093 20.006 7.31263 19.9986 7.34655Z" fill="#A4D5D8"/>
<path d="M15.7577 10.248L16.2043 9.96302C16.2336 9.94432 16.273 9.95286 16.2917 9.9824L16.3134 10.0163C16.3321 10.0456 16.3236 10.0851 16.294 10.1038L15.8475 10.3888C15.8182 10.4075 15.7787 10.3989 15.76 10.3694L15.7383 10.3355C15.7197 10.3062 15.7284 10.2667 15.7577 10.248Z" fill="#A4D5D8"/>
<path d="M16.3803 10.7621L16.4946 10.245C16.5022 10.2111 16.5361 10.1894 16.57 10.1968L16.6093 10.2053C16.6432 10.2129 16.6649 10.2468 16.6575 10.2808L16.5433 10.7979C16.5357 10.8318 16.5017 10.8535 16.4678 10.8461L16.4286 10.8376C16.3947 10.83 16.373 10.7961 16.3803 10.7621Z" fill="#A4D5D8"/>
<path d="M15.6792 9.44684L16.1963 9.56107C16.2303 9.56868 16.252 9.6026 16.2446 9.63653L16.236 9.67576C16.2284 9.70968 16.1945 9.73137 16.1606 9.72399L15.6434 9.60976C15.6095 9.60214 15.5878 9.56822 15.5952 9.5343L15.6037 9.49507C15.6111 9.46091 15.6453 9.43922 15.6792 9.44684Z" fill="#A4D5D8"/>
</g>
<path d="M14.0956 4.85184V16.2546C14.0956 16.7988 13.8041 17.2818 13.2337 17.3671L2.48834 18.9768C1.91627 19.0624 1.45473 18.5438 1.44319 17.8458L1.06657 3.2173C1.0548 2.51784 1.66427 2.1463 2.24904 2.23053L13.1291 3.72407C13.7123 3.80922 14.0956 4.30745 14.0956 4.85184Z" fill="url(#paint1_linear_3289_96378)"/>
<path d="M14.0947 4.85249V5.68995L1.06895 4.30464L1.05095 3.22787C1.03918 2.52818 1.63572 2.11372 2.22072 2.19841L13.0957 3.69287C13.6791 3.77803 14.0947 4.3081 14.0947 4.85249Z" fill="url(#paint2_linear_3289_96378)"/>
<path d="M9.40292 4.173C9.405 4.46077 9.17977 4.66777 8.89985 4.63523C8.61992 4.60269 8.39123 4.33846 8.38869 4.04492C8.38615 3.75138 8.61139 3.54438 8.89177 3.58269C9.17215 3.62077 9.40108 3.88523 9.40292 4.173Z" fill="#5B5B5B"/>
<path d="M10.8912 4.36103C10.8926 4.64026 10.6669 4.84033 10.387 4.8078C10.107 4.77526 9.87881 4.51795 9.87696 4.23272C9.87512 3.94772 10.1008 3.74764 10.3812 3.78595C10.6616 3.82426 10.8898 4.0818 10.8912 4.36103Z" fill="#5B5B5B"/>
<path d="M12.3775 4.54883C12.3782 4.81952 12.1521 5.01267 11.8721 4.98037C11.5922 4.94806 11.3644 4.69721 11.3633 4.42075C11.3621 4.14429 11.5883 3.95091 11.8687 3.98921C12.1491 4.02752 12.3768 4.2779 12.3775 4.54883Z" fill="#5B5B5B"/>
<path d="M12.969 16.4755L2.70211 17.8022C2.4448 17.8355 2.2325 17.6118 2.22765 17.3028L2.04696 5.79115C2.04211 5.48215 2.25027 5.25115 2.51173 5.27515L5.38734 5.5403L12.9503 6.23769C13.2118 6.26169 13.4241 6.4823 13.4243 6.73038L13.4345 15.9665C13.4345 16.2145 13.2263 16.4423 12.969 16.4755Z" fill="#5B5B5B"/>
<path d="M12.7293 15.8519L2.98602 17.0865C2.8561 17.1033 2.74787 16.9916 2.74418 16.8372L2.49033 6.04509C2.48664 5.89024 2.59071 5.77232 2.72248 5.78178L7.81325 6.15401L12.6133 6.51447C12.7453 6.52463 12.8535 6.6354 12.8549 6.76232L12.9617 15.5936C12.9633 15.7203 12.8593 15.8357 12.7293 15.8519Z" fill="#E8E9EB"/>
<path d="M12.8658 6.87268L12.8877 8.67752L12.878 8.67706L12.809 8.64983L9.58403 8.53906L9.54688 6.28906L9.75572 6.30222L12.554 6.51129C12.5986 6.51429 12.6424 6.52699 12.6812 6.54706C12.686 6.5496 12.6895 6.55075 12.6932 6.55352C12.7017 6.5586 12.7091 6.56391 12.7165 6.56899C12.7712 6.60868 12.8143 6.66314 12.8393 6.72475C12.8423 6.72845 12.8432 6.74599 12.8441 6.74991C12.858 6.78522 12.8649 6.83483 12.8658 6.87268Z" fill="#C0F3B0"/>
<path d="M2.51694 7.94232L4.14732 7.99817L4.10025 5.86494L3.52148 5.82271C2.93809 5.78048 2.4784 6.30178 2.49455 6.98694L2.51694 7.94232Z" fill="#D8D8D8"/>
<path d="M6.24806 14.0312L6.30113 16.6586L6.30206 16.6798L3.08444 17.0813C2.89982 17.1053 2.74636 16.941 2.74106 16.7218L2.68636 14.3822L2.68359 14.3089L6.15829 14.1247H6.15921L6.24806 14.0312Z" fill="#85D8FF"/>
<path d="M7.69336 8.91406L7.74228 11.0946L10.3758 11.0016L9.41813 8.99552L7.69336 8.91406Z" fill="#C0F3B0"/>
<path d="M4.86755 7.98349L4.83594 6.10156L7.6324 6.33141L6.05717 7.98695L4.86755 7.98349Z" fill="#C0F3B0"/>
<path d="M12.6545 10.8895L12.6248 9.12297C12.6238 9.06689 12.5758 9.02074 12.5179 9.02028L10.4544 9.00781C10.3787 9.00735 10.3309 9.08674 10.3644 9.15666L11.2198 10.9211C11.2369 10.956 11.2722 10.9781 11.3112 10.9786L12.5491 10.9922C12.6077 10.9934 12.6557 10.9465 12.6545 10.8895Z" fill="#D8D8D8"/>
<path d="M8.39192 14.6589L6.84554 14.8015L6.83008 14.0017L8.37808 13.8828L8.39192 14.6589Z" fill="#D8D8D8"/>
<path d="M11.2342 14.4825L9.68801 14.626L9.67578 13.8698L11.2238 13.75L11.2342 14.4825Z" fill="#D8D8D8"/>
<path d="M12.2521 14.3889L11.4147 14.466L11.4043 13.7363L12.2429 13.6719L12.2521 14.3889Z" fill="#D8D8D8"/>
<path d="M12.9608 14.3233L12.3745 14.3771L12.3652 13.6622L12.9523 13.6172L12.9608 14.3233Z" fill="#D8D8D8"/>
<path d="M8.88526 16.3075L6.77741 16.5734L6.76172 15.7726L8.8721 15.5391L8.88526 16.3075Z" fill="#C0F3B0"/>
<path d="M8.37447 13.675L6.82601 13.7874L6.81055 12.9873L8.36085 12.8984L8.37447 13.675Z" fill="#D8D8D8"/>
<path d="M8.35748 12.6908L6.80648 12.7732L6.79102 11.9729L8.34363 11.9141L8.35748 12.6908Z" fill="#D8D8D8"/>
<path d="M9.49197 12.9881L8.59636 13.0417L8.57812 11.988L9.47489 11.9531L9.49197 12.9881Z" fill="#D8D8D8"/>
<path d="M10.5763 12.9186L9.68068 12.9717L9.66406 11.9406L10.5611 11.9062L10.5763 12.9186Z" fill="#D8D8D8"/>
<path d="M12.8507 12.7539L11.4125 12.837L11.3984 11.8419L12.8391 11.7891L12.8507 12.7539Z" fill="#D8D8D8"/>
<path d="M6.89085 11.1348L6.84839 8.94202L4.99023 8.90625L4.99393 9.0821C5.01862 10.2389 5.86785 11.1576 6.89085 11.1348Z" fill="#D8D8D8"/>
<path d="M12.8056 8.47261L12.8077 8.62307L12.8107 8.87392L9.91988 8.79961L11.095 11.1715L11.1833 11.3461L11.1866 11.5845L11.2076 13.0898L12.9215 12.9816L12.9256 13.3827L9.9748 13.5945C9.8368 13.6047 9.70849 13.6691 9.61272 13.7775C9.51695 13.8862 9.46503 14.0256 9.46757 14.1691L9.47865 14.8148L12.9487 14.4825L12.9526 14.8825L9.48488 15.245L9.50196 16.2532L9.09095 16.3051L9.07342 15.2886L6.60234 15.5498L6.59334 15.095L9.06695 14.8548L9.05565 14.2038C9.04642 13.6651 9.45626 13.2006 9.96811 13.1681L10.7952 13.1159L10.7719 11.5968L10.773 11.4528L10.6408 11.1814L10.6403 11.1793L9.45972 8.78738L7.50972 8.74053L7.55565 11.2555L7.4818 11.3115L6.99442 11.3235L6.99396 11.2681L7.01749 8.72876L4.71465 8.67199L4.31772 8.65953L4.32488 8.66023L2.5468 8.6233L2.53711 8.13776L4.32465 8.192L4.74096 8.20492L6.0238 8.24553L8.19257 6.17969L8.81311 6.22561L6.64042 8.26561L9.3718 8.35584L9.33696 6.26461L9.54557 6.28007L9.75442 6.29669L9.78788 8.36946L12.8056 8.47261Z" fill="white"/>
<path d="M6.14368 13.7665L6.15037 14.0222L6.1536 14.1238H6.15268L2.69922 14.388L2.7126 14.2163L2.70199 13.9542L6.15845 13.7656L6.14368 13.7665Z" fill="white"/>
<path d="M2.82453 10.6988L4.2426 10.6787L4.20107 8.78666L2.7793 8.75781L2.82453 10.6988Z" fill="#D8D8D8"/>
<path d="M4.4621 13.4754L5.87833 13.3838L5.85041 12.0234L4.43164 12.0791L4.4621 13.4754Z" fill="#D8D8D8"/>
<path d="M2.87964 13.6087L4.29241 13.5157L4.23402 10.8672L2.81641 10.8919L2.87964 13.6087Z" fill="#D8D8D8"/>
<path d="M8.99206 6.28125L7.03906 8.05356L9.16006 8.13225L9.19422 6.29625L8.99206 6.28125Z" fill="#D8D8D8"/>
<path d="M12.8727 11.1326L5.63693 11.3052C5.18001 11.3168 4.79901 10.9041 4.78793 10.3851L4.69285 5.95992L4.27539 5.92969L4.37301 10.3886C4.39008 11.173 4.96147 11.7917 5.64662 11.7684L6.11254 11.7527L6.21039 16.6284L6.62162 16.5765L6.52654 11.7388L12.8775 11.5335L12.8727 11.1326Z" fill="#FFD78F"/>
<path d="M13.2784 11.0153C13.2784 11.0153 12.6283 11.7859 12.4356 12.3637C12.2429 12.9416 13.2904 12.6287 13.5193 12.3397C13.748 12.0508 14.1936 11.3645 14.1936 11.3645L16.1561 12.5204L16.6377 11.6777L13.8445 10.4375L13.2784 11.0153Z" fill="#FCD0D7"/>
<path d="M16.253 10.838L16.016 11.9057L15.9163 12.355C15.1086 12.043 14.4903 11.6833 14.1333 11.2598C14.1333 11.2598 11.7248 12.4995 11.462 12.1455C11.4447 12.1252 11.4375 12.0993 11.4375 12.0661C11.4433 11.4883 13.5324 10.513 13.5324 10.513C13.5324 10.513 13.5555 10.5015 13.7722 10.4293C13.9889 10.357 16.253 10.838 16.253 10.838Z" fill="#FCD0D7"/>
<path d="M16.0149 11.9057L15.9152 12.3551C15.1076 12.0431 14.4893 11.6833 14.1323 11.2598C14.1323 11.2598 11.7238 12.4995 11.4609 12.1455C12.4955 12.1137 14.0486 10.8438 14.0486 10.8438C14.433 11.2441 15.6032 11.7396 16.0149 11.9057Z" fill="url(#paint3_linear_3289_96378)"/>
<path d="M22.6799 17.5615C22.3633 18.1957 21.8138 18.6403 21.2574 19.0569C20.7742 19.4185 20.2273 19.7224 19.6164 19.9564L17.17 16.6527L17.1306 16.601C17.1306 16.601 16.8446 16.3063 16.5135 15.741C16.2278 15.2547 15.9116 14.568 15.7111 13.6864C15.2766 11.787 15.2766 10.9177 15.2766 10.9177L13.9757 10.556C13.9757 10.556 10.0037 12.1211 10.1463 11.2063C10.1556 11.1517 10.1738 11.094 10.198 11.0393C10.5779 10.1944 12.6961 9.48319 13.3981 9.27966C13.6778 9.20073 14.1608 9.21573 14.6927 9.28566C15.5833 9.40104 16.6106 9.6625 17.0359 9.85704C17.5891 10.1153 18.4674 12.4555 18.7621 13.2791C18.829 13.4584 18.8625 13.5678 18.8625 13.5678L22.6799 17.5615Z" fill="#FCD0D7"/>
<path opacity="0.45" d="M18.7632 13.2761L16.8056 10.1568C16.8056 10.1568 15.4503 9.6064 14.6934 9.28125C15.5848 9.39687 16.612 9.65971 17.0354 9.85494C17.5886 10.112 18.4671 12.4511 18.7632 13.2761Z" fill="white"/>
<path opacity="0.55" d="M17.1368 16.612L17.131 16.6033C17.131 16.6033 16.8448 16.3099 16.5141 15.7436C16.2294 15.2581 15.9116 14.569 15.7108 13.6891C15.2775 11.7878 15.2775 10.9208 15.2775 10.9208L13.9771 10.5596C13.9771 10.5596 10.0039 12.1243 10.1484 11.2097C10.1571 11.1534 10.1745 11.0971 10.2003 11.0406C10.7768 11.0521 11.6784 11.0073 12.4773 10.6967C13.7777 10.1911 13.8686 10.1016 13.8686 10.1016C13.8686 10.1016 15.1328 10.6072 15.5488 10.6072C15.5491 10.6074 16.0849 14.3985 17.1368 16.612Z" fill="url(#paint4_linear_3289_96378)"/>
<path opacity="0.55" d="M21.2576 19.0545C20.7744 19.4161 20.2274 19.72 19.6166 19.954L17.1702 16.6506L17.1307 16.5989C17.1307 16.5989 16.8448 16.3042 16.5137 15.7388L17.6017 15.6719L21.2576 19.0545Z" fill="url(#paint5_linear_3289_96378)"/>
<path d="M10.6191 15.4633C11.2523 15.4633 11.7656 15.3159 11.7656 15.134C11.7656 14.9521 11.2523 14.8047 10.6191 14.8047C9.98594 14.8047 9.47266 14.9521 9.47266 15.134C9.47266 15.3159 9.98594 15.4633 10.6191 15.4633Z" fill="url(#paint6_linear_3289_96378)"/>
<path opacity="0.3" d="M10.6344 15.2559C10.9751 15.2559 11.2513 15.1881 11.2513 15.1045C11.2513 15.0209 10.9751 14.9531 10.6344 14.9531C10.2937 14.9531 10.0176 15.0209 10.0176 15.1045C10.0176 15.1881 10.2937 15.2559 10.6344 15.2559Z" fill="#5D5D5D"/>
<path d="M10.6534 7.92188C9.33707 7.92188 8.26953 8.98941 8.26953 10.3057C8.26953 11.482 10.1731 14.3816 10.5781 14.985C10.6141 15.0386 10.6926 15.0386 10.7286 14.985C11.1336 14.3816 13.0372 11.482 13.0372 10.3057C13.0375 8.98941 11.9699 7.92188 10.6534 7.92188Z" fill="url(#paint7_linear_3289_96378)"/>
<path d="M10.6527 11.3719C11.2797 11.3719 11.7879 10.8636 11.7879 10.2367C11.7879 9.60979 11.2797 9.10156 10.6527 9.10156C10.0258 9.10156 9.51758 9.60979 9.51758 10.2367C9.51758 10.8636 10.0258 11.3719 10.6527 11.3719Z" fill="url(#paint8_linear_3289_96378)"/>
<path opacity="0.18" d="M10.6543 8.60156C9.75153 8.60156 9.01953 9.33356 9.01953 10.2363C9.01953 11.1391 9.75153 11.8711 10.6543 11.8711C11.5571 11.8711 12.2891 11.1391 12.2891 10.2363C12.2891 9.33356 11.5571 8.60156 10.6543 8.60156ZM10.6543 11.3715C10.0273 11.3715 9.51915 10.8633 9.51915 10.2363C9.51915 9.60933 10.0273 9.10118 10.6543 9.10118C11.2813 9.10118 11.7895 9.60933 11.7895 10.2363C11.7895 10.8633 11.2815 11.3715 10.6543 11.3715Z" fill="url(#paint9_linear_3289_96378)"/>
<path d="M17.686 15.6887C15.711 17.278 13.7359 13.4246 13.7359 13.4246C13.7359 13.4246 11.956 11.253 12.0296 10.6837C12.0367 10.6217 12.0658 10.5797 12.1235 10.5596C12.2116 10.5307 12.333 10.5524 12.4761 10.6101C13.2794 10.9337 14.7734 12.37 14.9165 12.1242C14.9843 12.0086 15.1909 11.9089 15.4136 11.8295C15.9307 11.6474 16.5072 11.6922 16.9798 11.9712C17.3555 12.1923 17.7166 12.5057 17.9913 12.8728C18.6123 13.7022 18.7927 14.7972 17.686 15.6887Z" fill="#FCD0D7"/>
<path opacity="0.45" d="M17.9915 12.8718C17.9742 12.9485 17.5029 12.4908 17.2648 12.2675C16.2956 11.3889 15.6866 12.2398 15.1265 12.4645C14.9866 12.5206 14.8269 12.4915 14.718 12.3872C14.208 11.898 12.9282 10.9601 12.4766 10.6094C13.2799 10.9329 14.7739 12.3692 14.9169 12.1235C14.9848 12.0078 15.1913 11.9081 15.414 11.8288C15.9312 11.6467 16.5076 11.6915 16.9803 11.9705C17.3557 12.1913 17.7169 12.5049 17.9915 12.8718Z" fill="white"/>
<path d="M17.6801 15.6978C15.7013 17.2825 13.7354 13.4245 13.7354 13.4245C13.7354 13.4245 11.9605 11.2488 12.0355 10.6797C12.3152 10.9737 14.0374 12.8039 14.6979 13.9324C15.4174 15.1621 17.6801 15.6978 17.6801 15.6978Z" fill="url(#paint10_linear_3289_96378)"/>
<defs>
<linearGradient id="paint0_linear_3289_96378" x1="14.1349" y1="6.23963" x2="11.8493" y2="21.8246" gradientUnits="userSpaceOnUse">
<stop stop-color="#5EEBAF" stop-opacity="0"/>
<stop offset="0.3373" stop-color="#45EBA4" stop-opacity="0.3373"/>
<stop offset="1" stop-color="#09EB89"/>
</linearGradient>
<linearGradient id="paint1_linear_3289_96378" x1="7.58096" y1="18.9862" x2="7.58096" y2="2.2188" gradientUnits="userSpaceOnUse">
<stop stop-color="#8BA7D0"/>
<stop offset="0.624" stop-color="#B4C5D2"/>
<stop offset="1" stop-color="#C7D4D3"/>
</linearGradient>
<linearGradient id="paint2_linear_3289_96378" x1="7.57281" y1="5.68995" x2="7.57281" y2="2.18733" gradientUnits="userSpaceOnUse">
<stop stop-color="#8BA7D0"/>
<stop offset="0.624" stop-color="#B4C5D2"/>
<stop offset="1" stop-color="#C7D4D3"/>
</linearGradient>
<linearGradient id="paint3_linear_3289_96378" x1="11.4609" y1="11.5995" x2="16.0149" y2="11.5995" gradientUnits="userSpaceOnUse">
<stop stop-color="#FF7BAC" stop-opacity="0"/>
<stop offset="1" stop-color="#FF7BAC"/>
</linearGradient>
<linearGradient id="paint4_linear_3289_96378" x1="10.1445" y1="13.3569" x2="17.1369" y2="13.3569" gradientUnits="userSpaceOnUse">
<stop stop-color="#FF7BAC" stop-opacity="0"/>
<stop offset="1" stop-color="#FF7BAC"/>
</linearGradient>
<linearGradient id="paint5_linear_3289_96378" x1="16.5136" y1="17.8131" x2="21.2577" y2="17.8131" gradientUnits="userSpaceOnUse">
<stop stop-color="#FF7BAC"/>
<stop offset="1" stop-color="#FF7BAC" stop-opacity="0"/>
</linearGradient>
<linearGradient id="paint6_linear_3289_96378" x1="10.619" y1="15.4631" x2="10.619" y2="14.8047" gradientUnits="userSpaceOnUse">
<stop stop-color="#F34D36"/>
<stop offset="0.2997" stop-color="#F45C59"/>
<stop offset="0.7687" stop-color="#F6718C"/>
<stop offset="1" stop-color="#F7799F"/>
</linearGradient>
<linearGradient id="paint7_linear_3289_96378" x1="8.26953" y1="11.4736" x2="13.0374" y2="11.4736" gradientUnits="userSpaceOnUse">
<stop stop-color="#F38764"/>
<stop offset="0.6627" stop-color="#F69F95"/>
<stop offset="1" stop-color="#F7A8A8"/>
</linearGradient>
<linearGradient id="paint8_linear_3289_96378" x1="10.6528" y1="11.3719" x2="10.6528" y2="9.10154" gradientUnits="userSpaceOnUse">
<stop stop-color="#FFB15C"/>
<stop offset="0.3474" stop-color="#FFC46F"/>
<stop offset="1" stop-color="#FFF09C"/>
</linearGradient>
<linearGradient id="paint9_linear_3289_96378" x1="10.6544" y1="11.871" x2="10.6544" y2="8.60168" gradientUnits="userSpaceOnUse">
<stop/>
<stop offset="1" stop-opacity="0"/>
</linearGradient>
<linearGradient id="paint10_linear_3289_96378" x1="14.404" y1="13.5899" x2="15.6211" y2="12.5141" gradientUnits="userSpaceOnUse">
<stop stop-color="#FF7BAC" stop-opacity="0"/>
<stop offset="1" stop-color="#FF7BAC"/>
</linearGradient>
</defs>
</svg>
