<svg width="21" height="20" viewBox="0 0 21 20" fill="none" xmlns="http://www.w3.org/2000/svg">
<path d="M4.17063 12.9386L7.94563 16.7136C9.49563 18.2636 12.0123 18.2636 13.5706 16.7136L17.229 13.0553C18.779 11.5053 18.779 8.98864 17.229 7.43031L13.4456 3.66364C12.654 2.87197 11.5623 2.44697 10.4456 2.50531L6.27896 2.70531C4.6123 2.78031 3.2873 4.10531 3.20396 5.76364L3.00396 9.93031C2.95396 11.0553 3.37896 12.147 4.17063 12.9386Z" stroke="white" stroke-width="1.5" stroke-linecap="round" stroke-linejoin="round"/>
<path d="M8.61263 10.1901C9.76322 10.1901 10.696 9.25736 10.696 8.10677C10.696 6.95618 9.76322 6.02344 8.61263 6.02344C7.46204 6.02344 6.5293 6.95618 6.5293 8.10677C6.5293 9.25736 7.46204 10.1901 8.61263 10.1901Z" stroke="white" stroke-width="1.5" stroke-linecap="round"/>
<path d="M11.5293 14.3568L14.8626 11.0234" stroke="white" stroke-width="1.5" stroke-miterlimit="10" stroke-linecap="round" stroke-linejoin="round"/>
</svg>
