<svg width="20" height="20" viewBox="0 0 20 20" fill="none" xmlns="http://www.w3.org/2000/svg">
<path d="M11.6667 18.9596H8.33333C3.80833 18.9596 1.875 17.0263 1.875 12.5013V7.5013C1.875 2.9763 3.80833 1.04297 8.33333 1.04297H11.6667C16.1917 1.04297 18.125 2.9763 18.125 7.5013V12.5013C18.125 17.0263 16.1917 18.9596 11.6667 18.9596ZM8.33333 2.29297C4.49167 2.29297 3.125 3.65964 3.125 7.5013V12.5013C3.125 16.343 4.49167 17.7096 8.33333 17.7096H11.6667C15.5083 17.7096 16.875 16.343 16.875 12.5013V7.5013C16.875 3.65964 15.5083 2.29297 11.6667 2.29297H8.33333Z" fill="#0A2B3C"/>
<path d="M12.5 9.02474H7.5C6.46667 9.02474 5.625 8.18307 5.625 7.14974V6.31641C5.625 5.28307 6.46667 4.44141 7.5 4.44141H12.5C13.5333 4.44141 14.375 5.28307 14.375 6.31641V7.14974C14.375 8.18307 13.5333 9.02474 12.5 9.02474ZM7.5 5.69141C7.15833 5.69141 6.875 5.97474 6.875 6.31641V7.14974C6.875 7.49141 7.15833 7.77474 7.5 7.77474H12.5C12.8417 7.77474 13.125 7.49141 13.125 7.14974V6.31641C13.125 5.97474 12.8417 5.69141 12.5 5.69141H7.5Z" fill="#099699"/>
<path d="M6.7918 12.433C6.68346 12.433 6.57513 12.408 6.47513 12.3664C6.37513 12.3247 6.28346 12.2664 6.20846 12.1914C6.05013 12.033 5.9668 11.8247 5.9668 11.5997C5.9668 11.4914 5.98346 11.383 6.02513 11.283C6.0668 11.1747 6.12513 11.0914 6.20846 11.008C6.2418 10.9747 6.28346 10.933 6.33346 10.908C6.37513 10.8747 6.42513 10.8497 6.47513 10.833C6.52513 10.808 6.58346 10.7914 6.63346 10.783C6.90013 10.7247 7.1918 10.8164 7.38346 11.008C7.45846 11.083 7.52513 11.1747 7.5668 11.283C7.60846 11.383 7.63346 11.4914 7.63346 11.5997C7.63346 11.8247 7.5418 12.033 7.38346 12.1914C7.22513 12.3497 7.0168 12.433 6.7918 12.433Z" fill="#0A2B3C"/>
<path d="M10.1331 12.4323C9.90814 12.4323 9.6998 12.349 9.54147 12.1906C9.38314 12.0323 9.2998 11.824 9.2998 11.599C9.2998 11.4906 9.31647 11.3823 9.35814 11.2823C9.3998 11.174 9.45814 11.0906 9.54147 11.0073C9.5748 10.974 9.61647 10.9323 9.66647 10.9073C9.70814 10.874 9.75814 10.849 9.80814 10.8323C9.85814 10.8073 9.91647 10.7906 9.96647 10.7823C10.1248 10.749 10.2915 10.7656 10.4498 10.8323C10.5498 10.874 10.6415 10.9323 10.7165 11.0073C10.7915 11.0906 10.8581 11.174 10.8998 11.2823C10.9415 11.3823 10.9665 11.4906 10.9665 11.599C10.9665 11.824 10.8748 12.0323 10.7165 12.1906C10.5581 12.349 10.3498 12.4323 10.1331 12.4323Z" fill="#0A2B3C"/>
<path d="M13.4583 12.4336C13.35 12.4336 13.2416 12.4086 13.1416 12.3669C13.0416 12.3253 12.95 12.2669 12.875 12.1919C12.7916 12.1086 12.7333 12.0169 12.6916 11.9169C12.65 11.8169 12.6333 11.7086 12.6333 11.6003C12.6333 11.4919 12.65 11.3836 12.6916 11.2836C12.7333 11.1753 12.7916 11.0919 12.875 11.0086C13.1833 10.7003 13.7416 10.7003 14.05 11.0086C14.2083 11.1669 14.3 11.3836 14.3 11.6003C14.3 11.8253 14.2083 12.0336 14.05 12.1919C13.9 12.3419 13.6916 12.4336 13.4583 12.4336Z" fill="#0A2B3C"/>
<path d="M6.80016 15.7658C6.57516 15.7658 6.36683 15.6825 6.2085 15.5241C6.05016 15.3658 5.9585 15.1575 5.9585 14.9325C5.9585 14.7158 6.05016 14.4991 6.2085 14.3408C6.24183 14.3075 6.29183 14.2658 6.3335 14.2408C6.37516 14.2075 6.42516 14.1825 6.47516 14.1658C6.52516 14.1408 6.5835 14.1241 6.6335 14.1158C6.9085 14.0658 7.19183 14.1491 7.3835 14.3408C7.42516 14.3825 7.4585 14.4241 7.49183 14.4658C7.51683 14.5158 7.54183 14.5658 7.56683 14.6158C7.5835 14.6658 7.60016 14.7158 7.61683 14.7658C7.62516 14.8241 7.6335 14.8741 7.6335 14.9325C7.6335 15.1575 7.54183 15.3658 7.3835 15.5241C7.22516 15.6825 7.01683 15.7658 6.80016 15.7658Z" fill="#0A2B3C"/>
<path d="M10.1332 15.7658C9.90817 15.7658 9.69984 15.6825 9.5415 15.5241C9.38317 15.3658 9.2915 15.1575 9.2915 14.9325C9.2915 14.7158 9.38317 14.4991 9.5415 14.3408C9.73317 14.1491 10.0248 14.0658 10.2915 14.1158C10.3415 14.1241 10.3998 14.1408 10.4498 14.1658C10.4998 14.1825 10.5498 14.2075 10.5915 14.2408C10.6332 14.2658 10.6748 14.3075 10.7165 14.3408C10.8748 14.4991 10.9582 14.7158 10.9582 14.9325C10.9582 15.1575 10.8748 15.3658 10.7165 15.5241C10.5582 15.6825 10.3498 15.7658 10.1332 15.7658Z" fill="#0A2B3C"/>
<path d="M13.4583 15.7675C13.2416 15.7675 13.0333 15.6842 12.875 15.5258C12.7166 15.3675 12.6333 15.1592 12.6333 14.9342C12.6333 14.7175 12.7166 14.5008 12.875 14.3425C12.95 14.2675 13.0416 14.2092 13.1416 14.1675C13.45 14.0425 13.825 14.1092 14.05 14.3425C14.2083 14.5008 14.2916 14.7175 14.2916 14.9342C14.2916 15.1592 14.2083 15.3675 14.05 15.5258C13.975 15.6008 13.8833 15.6592 13.7833 15.7008C13.6833 15.7425 13.575 15.7675 13.4583 15.7675Z" fill="#0A2B3C"/>
</svg>
