<svg width="24" height="24" viewBox="0 0 24 24" fill="none" xmlns="http://www.w3.org/2000/svg">
<path d="M10 14.5021C10 15.3324 10.5988 16 11.3333 16H12.8343C13.473 16 13.992 15.418 13.992 14.6904C13.992 13.9116 13.6727 13.6291 13.2016 13.4494L10.7984 12.5506C10.3273 12.3709 10.008 12.097 10.008 11.3096C10.008 10.5906 10.5269 10 11.1657 10H12.6667C13.4012 10 14 10.6676 14 11.4979" stroke="#101010" stroke-width="1.5" stroke-linecap="round" stroke-linejoin="round"/>
<path d="M12 9V17" stroke="#101010" stroke-width="1.5" stroke-linecap="round" stroke-linejoin="round"/>
<path d="M10.0195 4.46997L11.9995 2" stroke="#101010" stroke-width="1.5" stroke-linecap="round" stroke-linejoin="round"/>
<path d="M4.91037 7.79877C3.80037 9.27877 3.11035 11.1088 3.11035 13.1088C3.11035 18.0188 7.09037 21.9988 12.0004 21.9988C16.9104 21.9988 20.8904 18.0188 20.8904 13.1088C20.8904 8.19876 16.9104 4.21875 12.0004 4.21875C11.3204 4.21875 10.6604 4.3088 10.0204 4.4588" stroke="#101010" stroke-width="1.5" stroke-linecap="round" stroke-linejoin="round"/>
</svg>
