<svg width="30" height="30" viewBox="0 0 30 30" fill="none" xmlns="http://www.w3.org/2000/svg">
<path fill-rule="evenodd" clip-rule="evenodd" d="M14.3383 5.53906H6.75079C6.43329 5.54353 6.12938 5.66867 5.90079 5.88906C5.78963 5.99571 5.70128 6.12383 5.64112 6.26564C5.58096 6.40746 5.55022 6.56001 5.55079 6.71406V14.2141H12.5008C12.9594 14.2148 13.4031 14.0506 13.7508 13.7516C14.1006 13.4041 14.2984 12.9321 14.3008 12.4391L14.3383 5.53906Z" fill="white"/>
<path fill-rule="evenodd" clip-rule="evenodd" d="M15.6621 24.2875H23.1621C23.4692 24.2802 23.7629 24.1601 23.9871 23.95C24.1972 23.7258 24.3173 23.4321 24.3246 23.125V15.625H17.4996C17.2601 15.6406 17.0261 15.7039 16.8115 15.8112C16.5968 15.9186 16.4058 16.0677 16.2496 16.25C15.916 16.5818 15.7234 17.0296 15.7121 17.5L15.6621 24.2875Z" fill="white"/>
<path d="M26.25 20V17.5C26.25 17.0027 26.0525 16.5258 25.7008 16.1742C25.3492 15.8225 24.8723 15.625 24.375 15.625H17.5C17.0027 15.625 16.5258 15.8225 16.1742 16.1742C15.8225 16.5258 15.625 17.0027 15.625 17.5V24.375C15.625 24.8723 15.8225 25.3492 16.1742 25.7008C16.5258 26.0525 17.0027 26.25 17.5 26.25H24.375C24.8723 26.25 25.3492 26.0525 25.7008 25.7008C26.0525 25.3492 26.25 24.8723 26.25 24.375V23.2" stroke="black" stroke-linecap="round" stroke-linejoin="round"/>
<path d="M3.75044 11V12.3875C3.74494 12.6401 3.79085 12.8911 3.88541 13.1253C3.97996 13.3596 4.12117 13.5721 4.30044 13.75C4.656 14.0938 5.13089 14.2864 5.62544 14.2875H12.5004C12.9689 14.2677 13.4138 14.0764 13.7504 13.75C14.1003 13.4026 14.2981 12.9306 14.3004 12.4375V5.60004C14.2981 5.10699 14.1003 4.63499 13.7504 4.28754C13.4138 3.9612 12.9689 3.76992 12.5004 3.75004H5.62544C5.38085 3.7484 5.13834 3.79494 4.91174 3.88702C4.68514 3.9791 4.47889 4.11492 4.30478 4.2867C4.13067 4.45849 3.9921 4.6629 3.89699 4.88824C3.80188 5.11358 3.75208 5.35545 3.75044 5.60004V7.15004" stroke="black" stroke-linecap="round" stroke-linejoin="round"/>
<path fill-rule="evenodd" clip-rule="evenodd" d="M24.4496 14.3391H16.8496C16.5181 14.3391 16.2001 14.2074 15.9657 13.9729C15.7313 13.7385 15.5996 13.4206 15.5996 13.0891V5.53906H22.5121C23.0094 5.53906 23.4863 5.73661 23.8379 6.08824C24.1896 6.43987 24.3871 6.91678 24.3871 7.41406L24.4496 14.3391Z" fill="#099699"/>
<path fill-rule="evenodd" clip-rule="evenodd" d="M14.3383 24.4641H6.75079C6.43329 24.4596 6.12938 24.3345 5.90079 24.1141C5.78963 24.0075 5.70128 23.8793 5.64112 23.7375C5.58096 23.5957 5.55022 23.4432 5.55079 23.2891V15.7891H12.5008C12.7454 15.7875 12.9879 15.834 13.2145 15.9261C13.4411 16.0182 13.6473 16.154 13.8214 16.3258C13.9956 16.4976 14.1341 16.702 14.2292 16.9273C14.3244 17.1526 14.3742 17.3945 14.3758 17.6391L14.3383 24.4641Z" fill="#099699"/>
<path d="M14.3379 17.6162C14.3386 17.361 14.2868 17.1084 14.1857 16.874C14.0847 16.6396 13.9365 16.4285 13.7504 16.2537C13.4063 15.9456 12.9623 15.7725 12.5004 15.7662H5.62544C5.13777 15.7538 4.66377 15.9282 4.30044 16.2537C4.12117 16.4317 3.97996 16.6442 3.88541 16.8785C3.79085 17.1127 3.74494 17.3637 3.75044 17.6162V24.4037C3.75282 24.8968 3.95061 25.3688 4.30044 25.7162C4.656 26.06 5.13089 26.2526 5.62544 26.2537H12.5004C12.9689 26.2339 13.4138 26.0426 13.7504 25.7162C14.1003 25.3688 14.2981 24.8968 14.3004 24.4037L14.3379 17.6162Z" stroke="black" stroke-linecap="round" stroke-linejoin="round"/>
<path d="M26.25 5.625C26.25 5.12772 26.0525 4.65081 25.7008 4.29917C25.3492 3.94754 24.8723 3.75 24.375 3.75H17.5C17.0027 3.75 16.5258 3.94754 16.1742 4.29917C15.8225 4.65081 15.625 5.12772 15.625 5.625V12.5C15.625 12.9973 15.8225 13.4742 16.1742 13.8258C16.5258 14.1775 17.0027 14.375 17.5 14.375H24.375C24.8723 14.375 25.3492 14.1775 25.7008 13.8258C26.0525 13.4742 26.25 12.9973 26.25 12.5V5.625Z" stroke="black" stroke-linecap="round" stroke-linejoin="round"/>
</svg>
