<svg width="24" height="24" viewBox="0 0 24 24" fill="none" xmlns="http://www.w3.org/2000/svg">
<path d="M12 22C17.5228 22 22 17.5228 22 12C22 6.47715 17.5228 2 12 2C6.47715 2 2 6.47715 2 12C2 17.5228 6.47715 22 12 22Z" fill="#099699"/>
<path d="M10.5799 15.5816C10.3799 15.5816 10.1899 15.5016 10.0499 15.3616L7.21994 12.5316C6.92994 12.2416 6.92994 11.7616 7.21994 11.4716C7.50994 11.1816 7.98994 11.1816 8.27994 11.4716L10.5799 13.7716L15.7199 8.63156C16.0099 8.34156 16.4899 8.34156 16.7799 8.63156C17.0699 8.92156 17.0699 9.40156 16.7799 9.69156L11.1099 15.3616C10.9699 15.5016 10.7799 15.5816 10.5799 15.5816Z" fill="white"/>
</svg>
