<svg width="20" height="20" viewBox="0 0 20 20" fill="none" xmlns="http://www.w3.org/2000/svg">
<path d="M9.18398 16.25H6.25065C5.73398 16.25 5.27565 16.2333 4.86732 16.175C2.67565 15.9333 2.08398 14.9 2.08398 12.0833V7.91667C2.08398 5.1 2.67565 4.06667 4.86732 3.825C5.27565 3.76667 5.73398 3.75 6.25065 3.75H9.13398" stroke="#0A2B3C" stroke-width="1.5" stroke-linecap="round" stroke-linejoin="round"/>
<path d="M12.5176 3.75H13.7509C14.2676 3.75 14.7259 3.76667 15.1342 3.825C17.3259 4.06667 17.9176 5.1 17.9176 7.91667V12.0833C17.9176 14.9 17.3259 15.9333 15.1342 16.175C14.7259 16.2333 14.2676 16.25 13.7509 16.25H12.5176" stroke="#0A2B3C" stroke-width="1.5" stroke-linecap="round" stroke-linejoin="round"/>
<path d="M12.5 1.66663V18.3333" stroke="#0A2B3C" stroke-width="1.5" stroke-linecap="round" stroke-linejoin="round"/>
<path d="M9.24607 10H9.25356" stroke="#0A2B3C" stroke-width="2" stroke-linecap="round" stroke-linejoin="round"/>
<path d="M5.91209 10H5.91957" stroke="#0A2B3C" stroke-width="2" stroke-linecap="round" stroke-linejoin="round"/>
</svg>
