<svg width="14" height="14" viewBox="0 0 14 14" fill="none" xmlns="http://www.w3.org/2000/svg">
<path d="M13.3726 6.16012L12.4659 5.10679C12.2926 4.90679 12.1526 4.53345 12.1526 4.26679V3.13345C12.1526 2.42679 11.5726 1.84679 10.8659 1.84679H9.7326C9.4726 1.84679 9.0926 1.70679 8.8926 1.53345L7.83927 0.626787C7.37927 0.233454 6.62594 0.233454 6.15927 0.626787L5.1126 1.54012C4.9126 1.70679 4.5326 1.84679 4.2726 1.84679H3.11927C2.4126 1.84679 1.8326 2.42679 1.8326 3.13345V4.27345C1.8326 4.53345 1.6926 4.90679 1.52594 5.10679L0.625937 6.16679C0.239271 6.62679 0.239271 7.37345 0.625937 7.83345L1.52594 8.89345C1.6926 9.09345 1.8326 9.46679 1.8326 9.72679V10.8668C1.8326 11.5735 2.4126 12.1535 3.11927 12.1535H4.2726C4.5326 12.1535 4.9126 12.2935 5.1126 12.4668L6.16594 13.3735C6.62594 13.7668 7.37927 13.7668 7.84594 13.3735L8.89927 12.4668C9.09927 12.2935 9.4726 12.1535 9.73927 12.1535H10.8726C11.5793 12.1535 12.1593 11.5735 12.1593 10.8668V9.73345C12.1593 9.47345 12.2993 9.09345 12.4726 8.89345L13.3793 7.84012C13.7659 7.38012 13.7659 6.62012 13.3726 6.16012ZM9.7726 5.74012L6.5526 8.96012C6.45927 9.05345 6.3326 9.10679 6.19927 9.10679C6.06594 9.10679 5.93927 9.05345 5.84594 8.96012L4.2326 7.34679C4.03927 7.15345 4.03927 6.83345 4.2326 6.64012C4.42594 6.44679 4.74594 6.44679 4.93927 6.64012L6.19927 7.90012L9.06594 5.03345C9.25927 4.84012 9.57927 4.84012 9.7726 5.03345C9.96594 5.22679 9.96594 5.54679 9.7726 5.74012Z" fill="#6777FF"/>
</svg>
