<svg width="20" height="20" viewBox="0 0 20 20" fill="none" xmlns="http://www.w3.org/2000/svg">
<path d="M1.66406 10.5078H15.8307" stroke="#0A2B3C" stroke-width="1.5" stroke-miterlimit="10" stroke-linecap="round" stroke-linejoin="round"/>
<path d="M18.3307 5.60833V11.4333C18.3307 13.6833 17.8057 14.4083 15.8307 14.525V8.56667C15.8307 6.08333 15.1974 5.45833 12.6807 5.45833H4.81409C4.58075 5.45833 4.36406 5.46667 4.16406 5.475C4.18906 3.1 4.83909 2.5 7.31409 2.5H15.1807C17.6974 2.5 18.3307 3.125 18.3307 5.60833Z" stroke="#099699" stroke-width="1.5" stroke-linecap="round" stroke-linejoin="round"/>
<path d="M15.8307 8.56927V14.5276C15.8057 16.9026 15.1557 17.5026 12.6807 17.5026H4.81409C2.29742 17.5026 1.66406 16.8776 1.66406 14.3943V8.56927C1.66406 6.31927 2.18906 5.59427 4.16406 5.4776C4.36406 5.46927 4.58075 5.46094 4.81409 5.46094H12.6807C15.1974 5.46094 15.8307 6.08594 15.8307 8.56927Z" stroke="#0A2B3C" stroke-width="1.5" stroke-linecap="round" stroke-linejoin="round"/>
<path d="M4.375 14.8398H5.80831" stroke="#099699" stroke-width="1.5" stroke-miterlimit="10" stroke-linecap="round" stroke-linejoin="round"/>
<path d="M7.59375 14.8398H10.4604" stroke="#099699" stroke-width="1.5" stroke-miterlimit="10" stroke-linecap="round" stroke-linejoin="round"/>
</svg>
