<svg width="16" height="16" viewBox="0 0 16 16" fill="none" xmlns="http://www.w3.org/2000/svg">
<path d="M8 14C11.3137 14 14 11.3137 14 8C14 4.68629 11.3137 2 8 2C4.68629 2 2 4.68629 2 8C2 11.3137 4.68629 14 8 14Z" fill="#099699"/>
<path d="M8.0026 15.1693C11.9606 15.1693 15.1693 11.9606 15.1693 8.0026C15.1693 4.04456 11.9606 0.835938 8.0026 0.835938C4.04456 0.835938 0.835938 4.04456 0.835938 8.0026C0.835938 11.9606 4.04456 15.1693 8.0026 15.1693Z" stroke="#E7E7E7"/>
<path d="M7.05297 10.3877C6.91964 10.3877 6.79297 10.3344 6.69964 10.241L4.81297 8.35437C4.61964 8.16104 4.61964 7.84104 4.81297 7.64771C5.0063 7.45438 5.3263 7.45438 5.51964 7.64771L7.05297 9.18104L10.4796 5.75437C10.673 5.56104 10.993 5.56104 11.1863 5.75437C11.3796 5.94771 11.3796 6.26771 11.1863 6.46104L7.4063 10.241C7.31297 10.3344 7.1863 10.3877 7.05297 10.3877Z" fill="#FAFAFA"/>
</svg>
