<svg width="20" height="20" viewBox="0 0 20 20" fill="none" xmlns="http://www.w3.org/2000/svg">
<path d="M1.66699 6.66406C1.66699 3.33073 3.33366 1.66406 6.66699 1.66406H13.3337C16.667 1.66406 18.3337 3.33073 18.3337 6.66406V10.8307C18.3337 14.1641 16.667 15.8307 13.3337 15.8307H12.917C12.6587 15.8307 12.4087 15.9557 12.2503 16.1641L11.0003 17.8307C10.4503 18.5641 9.55033 18.5641 9.00033 17.8307L7.75033 16.1641C7.61699 15.9807 7.30866 15.8307 7.08366 15.8307H6.66699C3.33366 15.8307 1.66699 14.9974 1.66699 10.8307V9.9974" stroke="#0A2B3C" stroke-width="1.5" stroke-miterlimit="10" stroke-linecap="round" stroke-linejoin="round"/>
<path d="M13.3301 9.16667H13.3375" stroke="#0A2B3C" stroke-width="2" stroke-linecap="round" stroke-linejoin="round"/>
<path d="M9.99607 9.16667H10.0036" stroke="#0A2B3C" stroke-width="2" stroke-linecap="round" stroke-linejoin="round"/>
<path d="M6.66209 9.16667H6.66957" stroke="#0A2B3C" stroke-width="2" stroke-linecap="round" stroke-linejoin="round"/>
</svg>
