<svg width="21" height="21" viewBox="0 0 21 21" fill="none" xmlns="http://www.w3.org/2000/svg">
<path d="M19.56 9.73859L18.2 8.15859C17.94 7.85859 17.73 7.29859 17.73 6.89859V5.19859C17.73 4.13859 16.86 3.26859 15.8 3.26859H14.1C13.71 3.26859 13.14 3.05859 12.84 2.79859L11.26 1.43859C10.57 0.848594 9.44 0.848594 8.74 1.43859L7.17 2.80859C6.87 3.05859 6.3 3.26859 5.91 3.26859H4.18C3.12 3.26859 2.25 4.13859 2.25 5.19859V6.90859C2.25 7.29859 2.04 7.85859 1.79 8.15859L0.440005 9.74859C-0.139995 10.4386 -0.139995 11.5586 0.440005 12.2486L1.79 13.8386C2.04 14.1386 2.25 14.6986 2.25 15.0886V16.7986C2.25 17.8586 3.12 18.7286 4.18 18.7286H5.91C6.3 18.7286 6.87 18.9386 7.17 19.1986L8.75 20.5586C9.44 21.1486 10.57 21.1486 11.27 20.5586L12.85 19.1986C13.15 18.9386 13.71 18.7286 14.11 18.7286H15.81C16.87 18.7286 17.74 17.8586 17.74 16.7986V15.0986C17.74 14.7086 17.95 14.1386 18.21 13.8386L19.57 12.2586C20.15 11.5686 20.15 10.4286 19.56 9.73859ZM14.16 9.10859L9.33 13.9386C9.19 14.0786 9 14.1586 8.8 14.1586C8.60001 14.1586 8.41001 14.0786 8.27001 13.9386L5.85 11.5186C5.56 11.2286 5.56 10.7486 5.85 10.4586C6.14 10.1686 6.62 10.1686 6.91 10.4586L8.8 12.3486L13.1 8.04859C13.39 7.75859 13.87 7.75859 14.16 8.04859C14.45 8.33859 14.45 8.81859 14.16 9.10859Z" fill="#6777FF"/>
</svg>
